<?xml version="1.0" encoding="UTF-8" standalone="no"?>
<svg
   xmlns:dc="http://purl.org/dc/elements/1.1/"
   xmlns:cc="http://creativecommons.org/ns#"
   xmlns:rdf="http://www.w3.org/1999/02/22-rdf-syntax-ns#"
   xmlns:svg="http://www.w3.org/2000/svg"
   xmlns="http://www.w3.org/2000/svg"
   viewBox="0 0 467.71249 226.77499"
   height="226.77499"
   width="467.71249"
   xml:space="preserve"
   version="1.1"
   id="svg2"><metadata
     id="metadata8"><rdf:RDF><cc:Work
         rdf:about=""><dc:format>image/svg+xml</dc:format><dc:type
           rdf:resource="http://purl.org/dc/dcmitype/StillImage" /></cc:Work></rdf:RDF></metadata><defs
     id="defs6"><clipPath
       id="clipPath18"
       clipPathUnits="userSpaceOnUse"><path
         id="path20"
         d="m 0,0 3741.73,0 0,1814 L 0,1814 0,0 Z" /></clipPath></defs><g
     transform="matrix(1.25,0,0,-1.25,0,226.775)"
     id="g10"><g
       transform="scale(0.1,0.1)"
       id="g12"><g
         id="g14"><g
           clip-path="url(#clipPath18)"
           id="g16"><path
             id="path22"
             style="fill:#0b2b4d;fill-opacity:1;fill-rule:evenodd;stroke:none"
             d="m 1318.04,968.887 c 0.06,-6.36 -0.07,-12.461 -0.4,-18.301 -0.33,-5.828 -1.26,-11.391 -2.78,-16.699 -3.43,-17.918 -11.69,-32.711 -24.8,-44.391 -13.1,-11.687 -29.59,-17.75 -49.46,-18.16 -26.54,0.043 -48.24,10.293 -65.1,30.742 -16.86,20.457 -25.58,50.86 -26.13,91.199 -0.13,34.903 7.3,64.243 22.28,88.023 14.98,23.77 38.32,36.14 70.01,37.11 20.31,-0.47 36.98,-6.96 49.99,-19.49 13.02,-12.52 21.46,-28.3 25.33,-47.32 0.51,-3.8 0.82,-7.86 0.92,-12.19 0.12,-4.33 0.16,-8.4 0.14,-12.19 l 0,-58.333 z m 0,516.103 0,-271.28 -2.12,0 c -11.94,16.95 -28.91,29.65 -50.92,38.12 -22.01,8.48 -47.47,12.71 -76.37,12.71 -41.6,-0.16 -80.04,-11.02 -115.31,-32.6 -35.27,-21.58 -63.65,-52.93 -85.144,-94.05 -21.5,-41.13 -32.379,-91.1 -32.641,-149.913 1.672,-82.59 23.481,-147.668 65.415,-195.25 41.93,-47.579 93.94,-71.86 156.01,-72.809 30.41,-0.262 59.75,6.051 88.04,18.918 28.28,12.852 51.26,33.73 68.92,62.602 l 2.12,0 7.42,-69.879 170.54,0 c -1.11,18.097 -2.08,41.726 -2.92,70.949 -0.84,29.219 -1.28,60.277 -1.33,93.211 l 0,589.271" /><path
             id="path24"
             style="fill:#0b2b4d;fill-opacity:1;fill-rule:evenodd;stroke:none"
             d="m 1818.69,1024.03 c -0.04,4.26 0.05,8.46 0.27,12.59 0.22,4.13 0.84,8.06 1.85,11.8 3.63,19.02 12.56,34.79 26.79,47.32 14.23,12.52 31.11,19.02 50.66,19.48 30.21,-0.61 52.79,-12.37 67.75,-35.26 14.96,-22.88 22.44,-53.19 22.42,-90.929 -0.27,-38.109 -8.49,-68.199 -24.67,-90.258 -16.17,-22.058 -38.73,-33.332 -67.63,-33.8 -19.34,0.492 -35.56,6.679 -48.67,18.55 -13.1,11.891 -21.63,26.559 -25.59,44.008 -2.12,9.551 -3.18,20.153 -3.18,31.813 l 0,64.686 z m -191.71,-502.315 191.71,0 0,247.957 2.12,0 c 9.82,-13.668 25.46,-25.27 46.95,-34.82 21.47,-9.547 47.19,-14.528 77.18,-14.938 38.63,-0.102 75.93,9.84 111.93,29.84 35.98,20 65.66,50.59 89.06,91.758 23.38,41.191 35.51,93.519 36.33,157 -0.65,56.698 -11.13,104.818 -31.47,144.368 -20.33,39.56 -46.68,69.68 -79.02,90.39 -32.34,20.7 -66.83,31.12 -103.5,31.26 -36.19,-0.02 -68.57,-6.59 -97.2,-19.72 -28.61,-13.12 -52.78,-32.67 -72.5,-58.64 l -2.12,0 -8.47,66.7 -165.24,0 c 1.1,-24.38 2.07,-51.4 2.91,-81.08 0.84,-29.67 1.28,-62 1.33,-96.97" /><path
             id="path26"
             style="fill:#0b2b4d;fill-opacity:1;fill-rule:nonzero;stroke:none"
             d="m 2245.42,758.02 c 20.96,-10.801 46.84,-19.633 77.6,-26.461 30.76,-6.84 64.55,-10.379 101.4,-10.59 80.45,1.051 140.34,17.73 179.67,50.039 39.34,32.281 58.95,73.871 58.81,124.719 0,37.132 -11.11,69.16 -33.36,96.089 -22.24,26.934 -58.79,48.624 -109.63,65.084 -30.19,9.74 -50.95,18.09 -62.34,25.06 -11.37,6.95 -16.76,14.51 -16.19,22.66 0.11,10.51 4.67,18.11 13.69,22.79 9,4.69 21.8,6.99 38.36,6.9 21.83,-0.46 43.32,-3.78 64.49,-9.94 21.15,-6.16 38.14,-12.39 50.96,-18.69 l 30.72,129.21 c -17.3,7.72 -39.36,14.52 -66.19,20.39 -26.84,5.86 -56.31,8.95 -88.46,9.26 -69.74,-0.97 -124.78,-17.83 -165.1,-50.57 -40.31,-32.74 -60.88,-75.55 -61.72,-128.44 -1.26,-30.82 9.75,-60.37 33.11,-88.671 23.34,-28.3 63.5,-51.761 120.47,-70.382 27.44,-8.547 45.8,-15.84 55.08,-21.868 9.26,-6.031 13.55,-13.582 12.87,-22.66 0.19,-10 -4.18,-17.312 -13.15,-21.883 -8.96,-4.566 -23.69,-6.816 -44.2,-6.757 -24.55,0.507 -50.66,4.808 -78.37,12.847 -27.72,8.071 -49.61,16.871 -65.67,26.391" /><path
             id="path28"
             style="fill:#0b2b4d;fill-opacity:1;fill-rule:evenodd;stroke:none"
             d="m 3074.77,967.82 c 0.09,-6.066 -0.06,-12.738 -0.38,-20.008 -0.34,-7.269 -1.27,-13.679 -2.8,-19.218 -3.38,-14.703 -10.93,-26.934 -22.68,-36.723 -11.71,-9.789 -26.43,-14.867 -44.14,-15.238 -26.75,0.66 -47.52,11.801 -62.31,33.398 -14.84,21.602 -22.34,49.699 -22.57,84.301 0.68,41.488 9.15,73.038 25.34,94.638 16.2,21.61 36.04,32.48 59.54,32.61 17.61,-0.08 32.25,-5.21 43.89,-15.37 11.64,-10.16 19.66,-24.84 24,-44.01 0.55,-3.74 1.05,-7.67 1.46,-11.8 0.43,-4.13 0.63,-8.33 0.65,-12.59 l 0,-69.99 z m 190.66,125.01 c 0.05,40.79 0.5,73.69 1.34,98.71 0.84,25.01 1.82,45.45 2.91,61.33 l -164.18,0 -6.34,-56.1 -2.14,0 c -13.68,21.81 -31.63,38.53 -53.81,50.16 -22.19,11.62 -49.14,17.49 -80.87,17.6 -66.88,-1.11 -122.54,-26.14 -167.02,-75.07 -44.48,-48.93 -67.55,-115.03 -69.25,-198.308 1.18,-76.871 21.82,-138.019 61.97,-183.468 40.12,-45.43 92.55,-68.692 157.33,-69.762 26.18,-0.02 50.45,4.781 72.79,14.43 22.34,9.628 41.57,24.242 57.68,43.808 l 2.12,0 0,-23.297 c -0.8,-40.16 -12.46,-69.859 -35,-89.101 -22.55,-19.219 -51.19,-28.77 -85.94,-28.641 -30.25,0.449 -58.79,4.57 -85.59,12.332 -26.77,7.77 -48.41,16.41 -64.88,25.879 l -36,-144.102 c 24.88,-12.757 54.29,-22.457 88.18,-29.117 33.91,-6.672 69.16,-10.019 105.73,-10.062 40.7,-0.489 79.95,3.922 117.7,13.242 37.75,9.301 71.66,26.418 101.72,51.348 31.21,28.121 52.74,62.461 64.6,103.062 11.89,40.609 17.52,83.969 16.95,130.098" /><path
             id="path30"
             style="fill:#0b2b4d;fill-opacity:1;fill-rule:evenodd;stroke:none"
             d="m 453.613,1384.51 c 5.449,0 60.149,1.5 82.59,-14.07 22.199,-15.42 6.359,-76.17 3.809,-78.76 -7.457,-7.57 156.832,-3 160.011,-3.46 3.18,-0.45 70.911,-71.21 63.692,-74.41 -27.742,-12.32 -222.153,-19.58 -227.141,-22.3 -4.992,-2.73 -14.652,-113.91 -14.652,-121.33 0,-6.77 142.73,102.92 215.441,106.23 49.719,2.26 68.871,-48.74 72.801,-63 4.391,-15.92 17.039,-58.02 12.43,-123.949 -2.153,-30.918 -23.11,-152.399 -87.61,-205.231 -16.781,-13.726 -52.64,-30.41 -79.472,-14.527 -22.981,13.609 -122.379,93.551 -119.309,93.879 17.27,1.859 45.852,-8.648 59.379,0.57 20.5,13.942 22.012,103.578 24.98,134.391 0.493,5.157 -68.097,-17.262 -80.359,-25.891 -12.262,-8.621 -28.039,-25.832 -32.172,-41.25 -4.34,-16.269 3.524,-40.691 -3.476,-40.691 l -101.883,0 c -7,0 0.859,24.422 -3.481,40.691 -4.117,15.418 -19.91,32.629 -32.16,41.25 -12.258,8.629 -80.859,31.048 -80.359,25.891 2.973,-30.813 4.473,-120.449 24.961,-134.391 13.551,-9.218 42.129,1.289 59.39,-0.57 3.079,-0.328 -96.332,-80.27 -119.308,-93.879 -26.813,-15.883 -62.684,0.801 -79.453,14.527 -64.508,52.832 -85.469,174.313 -87.6292,205.231 -4.6016,65.929 4.2188,98.099 12.1602,123.949 4.391,14.31 23.359,65.26 73.07,63 72.719,-3.31 215.442,-113 215.442,-106.23 0,7.42 -9.641,118.6 -14.641,121.33 -4.992,2.72 -199.402,9.98 -227.152,22.3 -7.219,3.2 60.519,73.96 63.711,74.41 3.179,0.46 167.449,-4.11 160.011,3.46 -2.55,2.59 -18.402,63.34 3.789,78.76 22.43,15.57 77.149,14.07 82.59,14.07" /><path
             id="path32"
             style="fill:#0b2b4d;fill-opacity:1;fill-rule:evenodd;stroke:none"
             d="m 453.613,870.559 c 0,0 -5.949,0.179 47.071,0.199 9.898,0 114.64,-157.66 123.679,-169.711 3.852,-5.121 -28,-17.012 -37.66,-16.578 -17.488,0.797 -63.75,45.679 -69.301,51.226 -5.558,5.563 8.5,-66.797 4.52,-71.566 -3.957,-4.762 -68.309,-8.281 -68.309,-8.281 0,0 -64.32,3.519 -68.308,8.281 -3.973,4.769 10.09,77.129 4.527,71.566 -5.559,-5.547 -51.828,-50.429 -69.309,-51.226 -9.652,-0.434 -41.5,11.457 -37.66,16.578 9.039,12.051 113.641,169.859 123.539,169.711 47.211,0 47.211,-0.199 47.211,-0.199" /><path
             id="path34"
             style="fill:#0b2b4d;fill-opacity:1;fill-rule:evenodd;stroke:none"
             d="m 149.059,1635.57 c 0.007,-1.47 -0.012,-2.88 -0.09,-4.19 -0.082,-1.33 -0.289,-2.53 -0.641,-3.65 -2.199,-8.31 -5.012,-13.82 -8.398,-16.53 -3.391,-2.72 -6.621,-3.95 -9.684,-3.74 -6.816,0.33 -11.867,4.7 -15.148,13.14 -3.282,8.44 -4.91,19.04 -4.891,31.81 -0.027,8.02 0.633,15.46 1.973,22.3 1.347,6.86 3.558,12.39 6.648,16.61 3.078,4.22 7.211,6.39 12.391,6.52 4.629,-0.2 8.57,-2.5 11.82,-6.91 3.258,-4.4 5.18,-9.75 5.777,-16.05 0.122,-1.35 0.192,-2.68 0.211,-4 0.032,-1.33 0.032,-2.59 0.032,-3.83 l 0,-31.48 z m 0,127.18 0,-62.72 -0.493,0 c -2.386,4.93 -5.488,8.51 -9.277,10.68 -3.801,2.18 -7.871,3.25 -12.223,3.21 -9.5,0.06 -17.726,-4.94 -24.679,-15.01 -6.9573,-10.06 -10.6097,-25.56 -10.9495,-46.5 0.1797,-19.62 3.4219,-34.59 9.6995,-44.93 6.269,-10.32 14.519,-15.52 24.711,-15.6 6.25,0.17 11.461,1.89 15.64,5.17 4.168,3.29 7.18,7.07 9.032,11.4 l 0.976,0 1.223,-14.63 16.09,0 c -0.153,3.68 -0.34,8.23 -0.582,13.71 -0.239,5.47 -0.379,10.34 -0.399,14.61 l 0,140.61" /><path
             id="path36"
             style="fill:#0b2b4d;fill-opacity:1;fill-rule:evenodd;stroke:none"
             d="m 216.414,1665.08 c 0.242,5.5 1.121,10.84 2.621,16.04 1.5,5.19 3.641,9.49 6.41,12.89 2.782,3.4 6.2,5.16 10.282,5.28 4.699,0.06 8.8,-2.68 12.281,-8.21 3.476,-5.54 5.25,-14.2 5.308,-26 l -36.902,0 z m 54.453,-13.89 c 0.129,1.44 0.238,3.02 0.34,4.72 0.09,1.71 0.141,3.72 0.148,6 0.032,9.03 -1.109,17.47 -3.417,25.32 -2.301,7.85 -5.93,14.22 -10.891,19.11 -4.973,4.9 -11.422,7.42 -19.371,7.57 -12.02,-0.2 -21.621,-5.78 -28.781,-16.74 -7.161,-10.97 -10.821,-26.13 -11.008,-45.48 0.027,-18.4 3.64,-32.84 10.828,-43.31 7.191,-10.49 17.832,-15.82 31.89,-16.02 4.852,0 9.571,0.48 14.161,1.43 4.601,0.95 8.582,2.34 11.961,4.17 l -3.172,13.66 c -2.321,-1.26 -5.11,-2.29 -8.391,-3.12 -3.258,-0.82 -6.969,-1.25 -11.129,-1.28 -4.57,-0.13 -8.961,0.97 -13.148,3.31 -4.192,2.35 -7.641,6.7 -10.371,13.09 -2.719,6.38 -4.168,15.57 -4.34,27.57" /><path
             id="path38"
             style="fill:#0b2b4d;fill-opacity:1;fill-rule:nonzero;stroke:none"
             d="m 371.703,1711.96 -18.769,0 0,-77.88 c 0.039,-3.86 -0.282,-7.36 -0.981,-10.49 -0.437,-3.12 -2,-6.47 -4.668,-10.05 -2.672,-3.58 -6.742,-5.52 -12.191,-5.82 -6.328,0.19 -10.602,3.27 -12.801,9.24 -2.207,5.97 -3.231,13.62 -3.09,22.98 l 0,72.02 -18.758,0 0,-74.71 c -0.09,-14.7 2.149,-25.93 6.7,-33.67 4.558,-7.75 11.917,-11.64 22.078,-11.7 6.402,0.23 11.75,1.89 16.07,4.99 4.32,3.1 7.352,6.22 9.102,9.38 l 0.488,0 1.461,-12.42 16.34,0 c -0.149,4.37 -0.348,9.21 -0.579,14.53 -0.242,5.32 -0.382,11.21 -0.402,17.66" /><path
             id="path40"
             style="fill:#0b2b4d;fill-opacity:1;fill-rule:nonzero;stroke:none"
             d="m 411.531,1731.98 0,-20.02 -14.398,0 0,-14.13 14.398,0 0,-68.63 c -0.008,-8.06 0.563,-14.4 1.711,-19.01 1.153,-4.61 2.93,-8.21 5.36,-10.76 2.222,-2.54 4.91,-4.36 8.082,-5.46 3.16,-1.1 6.648,-1.63 10.461,-1.61 3.027,0 5.687,0.18 7.957,0.52 2.269,0.34 4.261,0.81 5.953,1.43 l -0.981,14.38 c -1.902,-0.49 -4.429,-0.74 -7.562,-0.74 -3.5,-0.16 -6.391,1.14 -8.668,3.91 -2.282,2.77 -3.461,7.98 -3.539,15.63 l 0,70.34 22.699,0 0,14.13 -22.699,0 0,27.59" /><path
             id="path42"
             style="fill:#0b2b4d;fill-opacity:1;fill-rule:nonzero;stroke:none"
             d="m 471.301,1599.18 c 2.668,-2.09 6.109,-3.75 10.297,-4.96 4.203,-1.21 8.492,-1.83 12.871,-1.86 10.039,-0.02 18.429,2.88 25.16,8.69 6.719,5.8 10.219,14.62 10.48,26.45 -0.16,8.11 -2.519,15.08 -7.07,20.91 -4.551,5.82 -10.32,10.9 -17.328,15.23 -5.742,3.77 -9.652,7.16 -11.731,10.13 -2.082,2.98 -3.062,6.37 -2.929,10.14 0,4.05 1.277,7.55 3.808,10.5 2.551,2.95 6.329,4.5 11.352,4.64 3.148,-0.03 6.008,-0.52 8.578,-1.5 2.559,-0.96 4.988,-2.26 7.281,-3.87 l 4.868,14.14 c -2.418,1.64 -5.368,3.05 -8.829,4.24 -3.468,1.18 -7.519,1.8 -12.148,1.86 -9.371,-0.16 -17.07,-3.2 -23.102,-9.11 -6.031,-5.92 -9.16,-13.78 -9.359,-23.58 0.02,-6.66 2.039,-12.7 6.059,-18.14 4.019,-5.43 9.879,-10.62 17.601,-15.57 5.867,-3.82 9.899,-7.53 12.07,-11.14 2.18,-3.61 3.208,-7.63 3.09,-12.06 -0.07,-5.31 -1.64,-9.47 -4.742,-12.49 -3.09,-3.01 -7.301,-4.55 -12.617,-4.61 -3.852,0.09 -7.441,0.77 -10.801,2.05 -3.351,1.27 -6.09,2.63 -8.23,4.06" /><path
             id="path44"
             style="fill:#0b2b4d;fill-opacity:1;fill-rule:nonzero;stroke:none"
             d="m 613.762,1611.13 c -2.071,-1.09 -4.223,-1.89 -6.442,-2.41 -2.218,-0.51 -4.55,-0.77 -6.992,-0.76 -8.738,0.11 -15.547,4.03 -20.418,11.75 -4.871,7.72 -7.34,18.53 -7.41,32.46 -0.02,7.86 0.93,15.24 2.852,22.14 1.929,6.9 4.898,12.51 8.937,16.83 4.039,4.33 9.223,6.56 15.551,6.69 3.082,-0.05 5.781,-0.43 8.09,-1.12 2.308,-0.7 4.101,-1.39 5.34,-2.05 l 3.66,15.11 c -1.789,1.12 -4.192,2.05 -7.2,2.77 -3.011,0.73 -6.152,1.1 -9.402,1.13 -9.879,-0.13 -18.277,-2.93 -25.207,-8.4 -6.941,-5.47 -12.223,-12.83 -15.883,-22.07 -3.636,-9.24 -5.476,-19.59 -5.508,-31.03 0.18,-19.59 4.141,-34.44 11.891,-44.56 7.738,-10.11 18.168,-15.2 31.289,-15.24 4.192,0.02 7.961,0.45 11.328,1.27 3.364,0.82 6.102,1.86 8.211,3.11" /><path
             id="path46"
             style="fill:#0b2b4d;fill-opacity:1;fill-rule:nonzero;stroke:none"
             d="m 641.801,1593.83 18.769,0 0,76.66 c 0,1.37 0.063,2.84 0.184,4.39 0.117,1.56 0.308,3.02 0.547,4.39 1.5,6.24 3.82,10.93 6.961,14.08 3.148,3.14 6.941,4.72 11.371,4.72 6.219,-0.25 10.461,-3.1 12.711,-8.54 2.25,-5.44 3.308,-11.95 3.179,-19.53 l 0,-76.17 18.77,0 0,78.37 c -0.223,14.87 -2.961,25.58 -8.211,32.11 -5.238,6.54 -11.699,9.74 -19.359,9.61 -3.282,-0.01 -6.192,-0.37 -8.743,-1.07 -2.546,-0.71 -4.847,-1.73 -6.898,-3.08 -1.98,-1.35 -3.828,-2.91 -5.559,-4.69 -1.73,-1.78 -3.222,-3.7 -4.461,-5.79 l -0.492,0 0,63.46 -18.769,0" /><path
             id="path48"
             style="fill:#0b2b4d;fill-opacity:1;fill-rule:evenodd;stroke:none"
             d="m 763.258,1665.08 c 0.238,5.5 1.109,10.84 2.609,16.04 1.512,5.19 3.641,9.49 6.418,12.89 2.781,3.4 6.203,5.16 10.274,5.28 4.707,0.06 8.796,-2.68 12.277,-8.21 3.48,-5.54 5.262,-14.2 5.32,-26 l -36.898,0 z m 54.449,-13.89 c 0.129,1.44 0.238,3.02 0.328,4.72 0.102,1.71 0.153,3.72 0.16,6 0.024,9.03 -1.117,17.47 -3.418,25.32 -2.3,7.85 -5.929,14.22 -10.89,19.11 -4.969,4.9 -11.43,7.42 -19.371,7.57 -12.028,-0.2 -21.618,-5.78 -28.778,-16.74 -7.16,-10.97 -10.832,-26.13 -11.011,-45.48 0.031,-18.4 3.64,-32.84 10.832,-43.31 7.187,-10.49 17.82,-15.82 31.886,-16.02 4.852,0 9.571,0.48 14.16,1.43 4.602,0.95 8.583,2.34 11.961,4.17 l -3.179,13.66 c -2.321,-1.26 -5.11,-2.29 -8.379,-3.12 -3.27,-0.82 -6.981,-1.25 -11.141,-1.28 -4.57,-0.13 -8.949,0.97 -13.14,3.31 -4.192,2.35 -7.649,6.7 -10.372,13.09 -2.718,6.38 -4.167,15.57 -4.339,27.57" /><path
             id="path50"
             style="fill:#0b2b4d;fill-opacity:1;fill-rule:evenodd;stroke:none"
             d="m 913.98,1667.3 c -0.011,1.59 0.008,3.13 0.09,4.61 0.078,1.5 0.289,2.97 0.641,4.43 0.617,5.59 2.566,10.52 5.84,14.77 3.269,4.27 7.109,6.5 11.508,6.73 7.39,-0.34 12.711,-4.79 15.98,-13.36 3.262,-8.55 4.859,-19.16 4.789,-31.84 0.11,-12.23 -1.39,-22.73 -4.519,-31.46 -3.121,-8.73 -8.539,-13.3 -16.25,-13.7 -2.731,-0.25 -5.758,0.95 -9.098,3.57 -3.344,2.59 -6.012,8 -8,16.2 -0.363,1.48 -0.621,3.04 -0.773,4.7 -0.149,1.66 -0.208,3.35 -0.208,5.07 l 0,30.28 z m -18.769,-120.35 18.769,0 0,58.32 0.489,0 c 1.551,-3.43 4.011,-6.48 7.359,-9.16 3.36,-2.68 7.82,-4.09 13.41,-4.23 9.532,-0.2 17.879,4.51 25.051,14.14 7.172,9.62 10.941,25.34 11.309,47.12 -0.118,19.63 -3.231,34.63 -9.289,45.04 -6.079,10.39 -14.371,15.64 -24.871,15.73 -4.598,0.07 -9.09,-1.16 -13.469,-3.75 -4.379,-2.57 -8.199,-6.93 -11.449,-13.07 l -0.493,0 -0.968,14.86 -16.829,0 c 0.149,-4.02 0.348,-8.93 0.579,-14.75 0.242,-5.79 0.379,-13.15 0.402,-22.09" /><path
             id="path52"
             style="fill:#0b2b4d;fill-opacity:1;fill-rule:nonzero;stroke:none"
             d="m 1024.59,1593.83 0,104 21.48,0 0,14.13 -21.48,0 0,7.57 c -0.16,7.87 0.93,14.69 3.27,20.47 2.32,5.78 6.75,8.82 13.32,9.1 2.43,-0.02 4.48,-0.23 6.18,-0.61 1.69,-0.38 3.12,-0.84 4.32,-1.34 l 2.93,14.61 c -1.7,0.88 -3.77,1.58 -6.22,2.11 -2.44,0.54 -5.25,0.81 -8.43,0.82 -3.75,0.06 -7.76,-0.65 -12.01,-2.16 -4.25,-1.49 -8.13,-4.11 -11.65,-7.82 -4.18,-4.84 -6.98,-10.35 -8.44,-16.51 -1.47,-6.17 -2.15,-12.47 -2.04,-18.91 l 0,-7.33 -14.894,0 0,-14.13 14.894,0 0,-104" /><path
             id="path54"
             style="fill:#0b2b4d;fill-opacity:1;fill-rule:evenodd;stroke:none"
             d="m 1110.64,1631.16 c 0,-1.11 -0.06,-2.25 -0.18,-3.42 -0.12,-1.17 -0.31,-2.31 -0.55,-3.42 -1.16,-5.87 -3.29,-10.31 -6.38,-13.31 -3.1,-3 -6.75,-4.51 -10.97,-4.52 -3.49,-0.11 -6.72,1.45 -9.69,4.64 -2.97,3.19 -4.54,8.65 -4.73,16.37 0.22,8.41 2.3,14.6 6.25,18.55 3.95,3.96 8.44,6.49 13.48,7.6 5.04,1.1 9.29,1.59 12.77,1.46 l 0,-23.95 z m 18.28,40.76 c 0.08,13.3 -2.57,23.6 -7.95,30.9 -5.38,7.3 -13.96,10.99 -25.73,11.09 -5.96,-0.09 -11.38,-0.94 -16.27,-2.53 -4.89,-1.59 -8.66,-3.34 -11.31,-5.27 l 4.14,-13.17 c 2.81,1.97 5.85,3.47 9.12,4.52 3.27,1.05 6.75,1.58 10.41,1.59 7.31,-0.13 12.31,-2.63 15,-7.48 2.7,-4.87 3.97,-11.33 3.82,-19.4 l 0,-3.67 c -9,-0.05 -17.3,-1.6 -24.88,-4.62 -7.57,-3.03 -13.67,-7.7 -18.29,-14 -4.62,-6.32 -6.99,-14.43 -7.12,-24.34 0.17,-10.38 2.86,-18.55 8.07,-24.53 5.21,-5.97 11.87,-9.02 19.99,-9.14 5.03,0.04 9.56,1.31 13.55,3.81 4.01,2.5 7.31,6.02 9.9,10.57 l 0.73,0 1.22,-12.42 16.83,0 c -0.59,3.85 -0.95,8.14 -1.07,12.85 -0.13,4.72 -0.18,9.38 -0.16,13.98" /><path
             id="path56"
             style="fill:#0b2b4d;fill-opacity:1;fill-rule:evenodd;stroke:none"
             d="m 1217.09,1635.57 c 0.02,-1.47 0,-2.88 -0.09,-4.19 -0.07,-1.33 -0.29,-2.53 -0.64,-3.65 -2.2,-8.31 -5,-13.82 -8.4,-16.53 -3.39,-2.72 -6.62,-3.95 -9.67,-3.74 -6.83,0.33 -11.88,4.7 -15.15,13.14 -3.28,8.44 -4.91,19.04 -4.89,31.81 -0.04,8.02 0.63,15.46 1.96,22.3 1.36,6.86 3.56,12.39 6.65,16.61 3.09,4.22 7.21,6.39 12.39,6.52 4.64,-0.2 8.57,-2.5 11.82,-6.91 3.27,-4.4 5.18,-9.75 5.79,-16.05 0.1,-1.35 0.19,-2.68 0.21,-4 0.02,-1.33 0.02,-2.59 0.02,-3.83 l 0,-31.48 z m 0,127.18 0,-62.72 -0.48,0 c -2.4,4.93 -5.5,8.51 -9.29,10.68 -3.8,2.18 -7.87,3.25 -12.21,3.21 -9.5,0.06 -17.73,-4.94 -24.7,-15.01 -6.95,-10.06 -10.59,-25.56 -10.93,-46.5 0.18,-19.62 3.41,-34.59 9.7,-44.93 6.27,-10.32 14.5,-15.52 24.71,-15.6 6.25,0.17 11.45,1.89 15.63,5.17 4.18,3.29 7.18,7.07 9.03,11.4 l 0.99,0 1.21,-14.63 16.09,0 c -0.14,3.68 -0.34,8.23 -0.57,13.71 -0.25,5.47 -0.38,10.34 -0.41,14.61 l 0,140.61" /><path
             id="path58"
             style="fill:#0b2b4d;fill-opacity:1;fill-rule:nonzero;stroke:none"
             d="m 1293.73,1593.83 0,104 21.49,0 0,14.13 -21.49,0 0,7.57 c -0.15,7.87 0.94,14.69 3.27,20.47 2.32,5.78 6.77,8.82 13.34,9.1 2.41,-0.02 4.47,-0.23 6.16,-0.61 1.69,-0.38 3.13,-0.84 4.33,-1.34 l 2.93,14.61 c -1.7,0.88 -3.78,1.58 -6.22,2.11 -2.44,0.54 -5.25,0.81 -8.42,0.82 -3.77,0.06 -7.78,-0.65 -12.03,-2.16 -4.25,-1.49 -8.13,-4.11 -11.65,-7.82 -4.17,-4.84 -6.98,-10.35 -8.44,-16.51 -1.45,-6.17 -2.13,-12.47 -2.04,-18.91 l 0,-7.33 -14.89,0 0,-14.13 14.89,0 0,-104" /><path
             id="path60"
             style="fill:#0b2b4d;fill-opacity:1;fill-rule:evenodd;stroke:none"
             d="m 1344.86,1730.3 c 3.45,0.05 6.18,1.17 8.17,3.35 1.99,2.19 3.01,5.14 3.05,8.84 -0.04,3.71 -1.06,6.66 -3.05,8.84 -1.99,2.19 -4.72,3.31 -8.17,3.35 -3.13,-0.04 -5.71,-1.16 -7.77,-3.35 -2.06,-2.18 -3.12,-5.13 -3.2,-8.84 0.07,-3.7 1.09,-6.65 3.07,-8.84 1.99,-2.18 4.54,-3.3 7.66,-3.35 l 0.24,0 z m 9.75,-18.34 -18.77,0 0,-118.13 18.77,0 0,118.13 z" /><path
             id="path62"
             style="fill:#0b2b4d;fill-opacity:1;fill-rule:nonzero;stroke:none"
             d="m 1389.94,1593.83 18.77,0 0,74.46 c -0.01,2.08 0.06,4.02 0.21,5.8 0.15,1.78 0.4,3.34 0.77,4.7 1.2,6.36 3.43,11.16 6.69,14.41 3.25,3.24 6.88,4.87 10.9,4.87 6.67,-0.28 11.11,-3.19 13.32,-8.72 2.21,-5.53 3.23,-11.98 3.05,-19.35 l 0,-76.17 18.77,0 0,79.34 c -0.17,14.3 -2.88,24.69 -8.13,31.17 -5.26,6.49 -12.06,9.68 -20.41,9.58 -6.26,-0.09 -11.7,-1.57 -16.31,-4.48 -4.62,-2.91 -8.22,-6.78 -10.81,-11.61 l -0.49,0 -0.97,14.13 -16.34,0 c 0.15,-4.56 0.34,-9.09 0.58,-13.59 0.24,-4.5 0.37,-10.13 0.4,-16.89" /><path
             id="path64"
             style="fill:#0b2b4d;fill-opacity:1;fill-rule:evenodd;stroke:none"
             d="m 1550.49,1635.57 c 0.02,-1.47 -0.01,-2.88 -0.09,-4.19 -0.08,-1.33 -0.29,-2.53 -0.64,-3.65 -2.2,-8.31 -5,-13.82 -8.4,-16.53 -3.39,-2.72 -6.62,-3.95 -9.68,-3.74 -6.82,0.33 -11.87,4.7 -15.15,13.14 -3.28,8.44 -4.91,19.04 -4.89,31.81 -0.03,8.02 0.63,15.46 1.97,22.3 1.35,6.86 3.56,12.39 6.65,16.61 3.08,4.22 7.21,6.39 12.4,6.52 4.62,-0.2 8.56,-2.5 11.81,-6.91 3.26,-4.4 5.19,-9.75 5.78,-16.05 0.11,-1.35 0.19,-2.68 0.21,-4 0.03,-1.33 0.04,-2.59 0.03,-3.83 l 0,-31.48 z m 0,127.18 0,-62.72 -0.49,0 c -2.39,4.93 -5.49,8.51 -9.28,10.68 -3.8,2.18 -7.87,3.25 -12.22,3.21 -9.5,0.06 -17.73,-4.94 -24.68,-15.01 -6.96,-10.06 -10.61,-25.56 -10.95,-46.5 0.18,-19.62 3.42,-34.59 9.7,-44.93 6.27,-10.32 14.51,-15.52 24.71,-15.6 6.25,0.17 11.46,1.89 15.64,5.17 4.17,3.29 7.18,7.07 9.03,11.4 l 0.98,0 1.22,-14.63 16.09,0 c -0.15,3.68 -0.34,8.23 -0.58,13.71 -0.24,5.47 -0.37,10.34 -0.4,14.61 l 0,140.61" /><path
             id="path66"
             style="fill:#0b2b4d;fill-opacity:1;fill-rule:evenodd;stroke:none"
             d="m 1617.85,1665.08 c 0.24,5.5 1.12,10.84 2.62,16.04 1.5,5.19 3.64,9.49 6.41,12.89 2.78,3.4 6.2,5.16 10.28,5.28 4.7,0.06 8.8,-2.68 12.28,-8.21 3.48,-5.54 5.25,-14.2 5.31,-26 l -36.9,0 z m 54.45,-13.89 c 0.13,1.44 0.24,3.02 0.34,4.72 0.09,1.71 0.15,3.72 0.15,6 0.03,9.03 -1.11,17.47 -3.42,25.32 -2.3,7.85 -5.93,14.22 -10.89,19.11 -4.97,4.9 -11.42,7.42 -19.37,7.57 -12.03,-0.2 -21.62,-5.78 -28.77,-16.74 -7.17,-10.97 -10.83,-26.13 -11.01,-45.48 0.02,-18.4 3.63,-32.84 10.82,-43.31 7.19,-10.49 17.82,-15.82 31.89,-16.02 4.85,0 9.57,0.48 14.16,1.43 4.6,0.95 8.58,2.34 11.96,4.17 l -3.17,13.66 c -2.32,-1.26 -5.11,-2.29 -8.38,-3.12 -3.27,-0.82 -6.98,-1.25 -11.14,-1.28 -4.57,-0.13 -8.95,0.97 -13.15,3.31 -4.19,2.35 -7.64,6.7 -10.37,13.09 -2.72,6.38 -4.17,15.57 -4.34,27.57" /><path
             id="path68"
             style="fill:#0b2b4d;fill-opacity:1;fill-rule:nonzero;stroke:none"
             d="m 1702.11,1593.83 18.77,0 0,65.43 c 0,2.06 0.07,3.97 0.18,5.74 0.12,1.75 0.32,3.42 0.55,5 1.07,7.01 3.59,12.82 7.6,17.45 4.01,4.63 9.06,7.03 15.11,7.21 1.42,0.04 2.73,-0.04 3.91,-0.24 l 0,19.25 c -1.18,0.2 -2.49,0.28 -3.91,0.25 -5.6,-0.16 -10.64,-2.17 -15.11,-6.04 -4.47,-3.87 -7.73,-8.68 -9.78,-14.44 l -0.5,0 -0.98,18.52 -16.82,0 c 0.16,-4.48 0.35,-9.41 0.58,-14.78 0.24,-5.37 0.38,-10.61 0.4,-15.7" /><path
             id="path70"
             style="fill:#0b2b4d;fill-opacity:1;fill-rule:nonzero;stroke:none"
             d="m 1764.14,1599.18 c 2.68,-2.09 6.11,-3.75 10.3,-4.96 4.2,-1.21 8.49,-1.83 12.86,-1.86 10.05,-0.02 18.43,2.88 25.16,8.69 6.73,5.8 10.23,14.62 10.49,26.45 -0.16,8.11 -2.52,15.08 -7.07,20.91 -4.56,5.82 -10.33,10.9 -17.33,15.23 -5.75,3.77 -9.66,7.16 -11.73,10.13 -2.07,2.98 -3.06,6.37 -2.93,10.14 0,4.05 1.28,7.55 3.82,10.5 2.54,2.95 6.32,4.5 11.34,4.64 3.15,-0.03 6,-0.52 8.57,-1.5 2.57,-0.96 5,-2.26 7.29,-3.87 l 4.87,14.14 c -2.42,1.64 -5.37,3.05 -8.83,4.24 -3.47,1.18 -7.52,1.8 -12.15,1.86 -9.37,-0.16 -17.07,-3.2 -23.1,-9.11 -6.03,-5.92 -9.16,-13.78 -9.36,-23.58 0.02,-6.66 2.04,-12.7 6.05,-18.14 4.04,-5.43 9.9,-10.62 17.61,-15.57 5.87,-3.82 9.89,-7.53 12.07,-11.14 2.18,-3.61 3.2,-7.63 3.09,-12.06 -0.07,-5.31 -1.64,-9.47 -4.74,-12.49 -3.1,-3.01 -7.3,-4.55 -12.62,-4.61 -3.85,0.09 -7.44,0.77 -10.8,2.05 -3.36,1.27 -6.09,2.63 -8.23,4.06" /><path
             id="path72"
             style="fill:#0b2b4d;fill-opacity:1;fill-rule:nonzero;stroke:none"
             d="m 1906.61,1611.13 c -2.09,-1.09 -4.22,-1.89 -6.45,-2.41 -2.22,-0.51 -4.55,-0.77 -6.99,-0.76 -8.75,0.11 -15.55,4.03 -20.42,11.75 -4.87,7.72 -7.34,18.53 -7.42,32.46 -0.01,7.86 0.94,15.24 2.86,22.14 1.93,6.9 4.89,12.51 8.94,16.83 4.03,4.33 9.22,6.56 15.55,6.69 3.09,-0.05 5.79,-0.43 8.09,-1.12 2.32,-0.7 4.1,-1.39 5.33,-2.05 l 3.67,15.11 c -1.79,1.12 -4.2,2.05 -7.2,2.77 -3.01,0.73 -6.14,1.1 -9.4,1.13 -9.88,-0.13 -18.28,-2.93 -25.21,-8.4 -6.94,-5.47 -12.23,-12.83 -15.88,-22.07 -3.65,-9.24 -5.49,-19.59 -5.51,-31.03 0.18,-19.59 4.14,-34.44 11.89,-44.56 7.74,-10.11 18.17,-15.2 31.29,-15.24 4.18,0.02 7.97,0.45 11.33,1.27 3.36,0.82 6.1,1.86 8.21,3.11" /><path
             id="path74"
             style="fill:#0b2b4d;fill-opacity:1;fill-rule:nonzero;stroke:none"
             d="m 1934.64,1593.83 18.77,0 0,76.66 c 0,1.37 0.06,2.84 0.19,4.39 0.12,1.56 0.3,3.02 0.55,4.39 1.49,6.24 3.81,10.93 6.95,14.08 3.15,3.14 6.94,4.72 11.37,4.72 6.23,-0.25 10.45,-3.1 12.72,-8.54 2.24,-5.44 3.3,-11.95 3.18,-19.53 l 0,-76.17 18.75,0 0,78.37 c -0.21,14.87 -2.95,25.58 -8.18,32.11 -5.26,6.54 -11.72,9.74 -19.38,9.61 -3.28,-0.01 -6.19,-0.37 -8.73,-1.07 -2.56,-0.71 -4.84,-1.73 -6.91,-3.08 -1.98,-1.35 -3.83,-2.91 -5.55,-4.69 -1.74,-1.78 -3.22,-3.7 -4.47,-5.79 l -0.49,0 0,63.46 -18.77,0" /><path
             id="path76"
             style="fill:#0b2b4d;fill-opacity:1;fill-rule:evenodd;stroke:none"
             d="m 2086.65,1631.16 c 0,-1.11 -0.06,-2.25 -0.2,-3.42 -0.11,-1.17 -0.29,-2.31 -0.52,-3.42 -1.17,-5.87 -3.3,-10.31 -6.39,-13.31 -3.1,-3 -6.76,-4.51 -10.98,-4.52 -3.49,-0.11 -6.71,1.45 -9.68,4.64 -2.97,3.19 -4.55,8.65 -4.73,16.37 0.21,8.41 2.3,14.6 6.25,18.55 3.95,3.96 8.44,6.49 13.48,7.6 5.04,1.1 9.29,1.59 12.77,1.46 l 0,-23.95 z m 18.28,40.76 c 0.08,13.3 -2.58,23.6 -7.95,30.9 -5.39,7.3 -13.96,10.99 -25.72,11.09 -5.98,-0.09 -11.39,-0.94 -16.29,-2.53 -4.88,-1.59 -8.65,-3.34 -11.31,-5.27 l 4.14,-13.17 c 2.81,1.97 5.86,3.47 9.12,4.52 3.28,1.05 6.74,1.58 10.43,1.59 7.31,-0.13 12.31,-2.63 14.98,-7.48 2.7,-4.87 3.97,-11.33 3.83,-19.4 l 0,-3.67 c -9,-0.05 -17.3,-1.6 -24.88,-4.62 -7.58,-3.03 -13.67,-7.7 -18.3,-14 -4.61,-6.32 -6.99,-14.43 -7.11,-24.34 0.17,-10.38 2.87,-18.55 8.07,-24.53 5.21,-5.97 11.87,-9.02 19.98,-9.14 5.03,0.04 9.57,1.31 13.57,3.81 4,2.5 7.28,6.02 9.88,10.57 l 0.74,0 1.22,-12.42 16.81,0 c -0.58,3.85 -0.94,8.14 -1.05,12.85 -0.14,4.72 -0.18,9.38 -0.16,13.98" /><path
             id="path78"
             style="fill:#0b2b4d;fill-opacity:1;fill-rule:nonzero;stroke:none"
             d="m 2163.29,1593.83 0,104 21.48,0 0,14.13 -21.48,0 0,7.57 c -0.16,7.87 0.94,14.69 3.26,20.47 2.33,5.78 6.78,8.82 13.34,9.1 2.42,-0.02 4.47,-0.23 6.15,-0.61 1.7,-0.38 3.15,-0.84 4.34,-1.34 l 2.93,14.61 c -1.7,0.88 -3.79,1.58 -6.21,2.11 -2.44,0.54 -5.26,0.81 -8.44,0.82 -3.75,0.06 -7.77,-0.65 -12.01,-2.16 -4.26,-1.49 -8.15,-4.11 -11.66,-7.82 -4.16,-4.84 -6.97,-10.35 -8.44,-16.51 -1.44,-6.17 -2.13,-12.47 -2.03,-18.91 l 0,-7.33 -14.9,0 0,-14.13 14.9,0 0,-104" /><path
             id="path80"
             style="fill:#0b2b4d;fill-opacity:1;fill-rule:nonzero;stroke:none"
             d="m 2210.52,1731.98 0,-20.02 -14.39,0 0,-14.13 14.39,0 0,-68.63 c -0.02,-8.06 0.57,-14.4 1.7,-19.01 1.15,-4.61 2.95,-8.21 5.37,-10.76 2.23,-2.54 4.92,-4.36 8.09,-5.46 3.16,-1.1 6.64,-1.63 10.45,-1.61 3.04,0 5.7,0.18 7.96,0.52 2.27,0.34 4.26,0.81 5.96,1.43 l -0.98,14.38 c -1.91,-0.49 -4.43,-0.74 -7.57,-0.74 -3.5,-0.16 -6.39,1.14 -8.68,3.91 -2.26,2.77 -3.45,7.98 -3.53,15.63 l 0,70.34 22.71,0 0,14.13 -22.71,0 0,27.59" /><path
             id="path82"
             style="fill:#0b2b4d;fill-opacity:1;fill-rule:nonzero;stroke:none"
             d="m 2317.98,1599.18 c 2.68,-2.09 6.09,-3.75 10.29,-4.96 4.2,-1.21 8.5,-1.83 12.87,-1.86 10.04,-0.02 18.42,2.88 25.16,8.69 6.72,5.8 10.22,14.62 10.49,26.45 -0.18,8.11 -2.52,15.08 -7.07,20.91 -4.55,5.82 -10.33,10.9 -17.33,15.23 -5.74,3.77 -9.66,7.16 -11.73,10.13 -2.07,2.98 -3.07,6.37 -2.93,10.14 0,4.05 1.27,7.55 3.8,10.5 2.56,2.95 6.33,4.5 11.35,4.64 3.15,-0.03 6.02,-0.52 8.58,-1.5 2.56,-0.96 5,-2.26 7.28,-3.87 l 4.88,14.14 c -2.44,1.64 -5.39,3.05 -8.84,4.24 -3.46,1.18 -7.52,1.8 -12.15,1.86 -9.36,-0.16 -17.07,-3.2 -23.11,-9.11 -6.03,-5.92 -9.14,-13.78 -9.35,-23.58 0.02,-6.66 2.05,-12.7 6.07,-18.14 4.03,-5.43 9.88,-10.62 17.6,-15.57 5.86,-3.82 9.88,-7.53 12.07,-11.14 2.17,-3.61 3.2,-7.63 3.09,-12.06 -0.08,-5.31 -1.66,-9.47 -4.75,-12.49 -3.09,-3.01 -7.29,-4.55 -12.62,-4.61 -3.85,0.09 -7.44,0.77 -10.8,2.05 -3.34,1.27 -6.09,2.63 -8.22,4.06" /><path
             id="path84"
             style="fill:#0b2b4d;fill-opacity:1;fill-rule:evenodd;stroke:none"
             d="m 2449.48,1631.16 c 0,-1.11 -0.06,-2.25 -0.2,-3.42 -0.11,-1.17 -0.29,-2.31 -0.54,-3.42 -1.17,-5.87 -3.28,-10.31 -6.39,-13.31 -3.08,-3 -6.74,-4.51 -10.96,-4.52 -3.49,-0.11 -6.71,1.45 -9.68,4.64 -2.97,3.19 -4.55,8.65 -4.73,16.37 0.21,8.41 2.29,14.6 6.25,18.55 3.95,3.96 8.44,6.49 13.48,7.6 5.04,1.1 9.27,1.59 12.77,1.46 l 0,-23.95 z m 18.28,40.76 c 0.08,13.3 -2.58,23.6 -7.97,30.9 -5.37,7.3 -13.94,10.99 -25.72,11.09 -5.96,-0.09 -11.39,-0.94 -16.27,-2.53 -4.88,-1.59 -8.65,-3.34 -11.31,-5.27 l 4.14,-13.17 c 2.81,1.97 5.84,3.47 9.12,4.52 3.27,1.05 6.74,1.58 10.41,1.59 7.31,-0.13 12.31,-2.63 15,-7.48 2.7,-4.87 3.97,-11.33 3.83,-19.4 l 0,-3.67 c -9.02,-0.05 -17.3,-1.6 -24.88,-4.62 -7.58,-3.03 -13.69,-7.7 -18.3,-14 -4.61,-6.32 -6.99,-14.43 -7.11,-24.34 0.17,-10.38 2.85,-18.55 8.07,-24.53 5.21,-5.97 11.87,-9.02 19.98,-9.14 5.03,0.04 9.57,1.31 13.55,3.81 4,2.5 7.3,6.02 9.9,10.57 l 0.74,0 1.22,-12.42 16.81,0 c -0.58,3.85 -0.94,8.14 -1.07,12.85 -0.12,4.72 -0.18,9.38 -0.14,13.98" /><path
             id="path86"
             style="fill:#0b2b4d;fill-opacity:1;fill-rule:nonzero;stroke:none"
             d="m 2503.43,1593.83 18.77,0 0,74.46 c 0,2.08 0.08,4.02 0.21,5.8 0.16,1.78 0.41,3.34 0.77,4.7 1.21,6.36 3.43,11.16 6.7,14.41 3.24,3.24 6.89,4.87 10.89,4.87 6.68,-0.28 11.12,-3.19 13.32,-8.72 2.21,-5.53 3.23,-11.98 3.07,-19.35 l 0,-76.17 18.77,0 0,79.34 c -0.18,14.3 -2.89,24.69 -8.14,31.17 -5.26,6.49 -12.07,9.68 -20.41,9.58 -6.25,-0.09 -11.7,-1.57 -16.31,-4.48 -4.61,-2.91 -8.23,-6.78 -10.8,-11.61 l -0.49,0 -0.98,14.13 -16.35,0 c 0.16,-4.56 0.35,-9.09 0.59,-13.59 0.23,-4.5 0.37,-10.13 0.39,-16.89" /><path
             id="path88"
             style="fill:#0b2b4d;fill-opacity:1;fill-rule:nonzero;stroke:none"
             d="m 2630.01,1762.74 -18.77,0 0,-168.92 18.77,0 0,44.67 6.84,10.98 25.64,-55.65 21,0 -34.18,68.34 31.25,49.79 -20.26,0 -23.45,-41.73 c -1.08,-1.97 -2.13,-4.08 -3.17,-6.32 -1.03,-2.24 -2.09,-4.52 -3.18,-6.86 l -0.49,0" /><path
             id="path90"
             style="fill:#0b2b4d;fill-opacity:1;fill-rule:nonzero;stroke:none"
             d="m 2711.42,1731.98 0,-20.02 -14.41,0 0,-14.13 14.41,0 0,-68.63 c -0.03,-8.06 0.54,-14.4 1.7,-19.01 1.15,-4.61 2.93,-8.21 5.36,-10.76 2.22,-2.54 4.91,-4.36 8.07,-5.46 3.16,-1.1 6.66,-1.63 10.48,-1.61 3.02,0 5.68,0.18 7.95,0.52 2.28,0.34 4.27,0.81 5.95,1.43 l -0.97,14.38 c -1.92,-0.49 -4.44,-0.74 -7.57,-0.74 -3.5,-0.16 -6.38,1.14 -8.68,3.91 -2.27,2.77 -3.44,7.98 -3.52,15.63 l 0,70.34 22.69,0 0,14.13 -22.69,0 0,27.59" /><path
             id="path92"
             style="fill:#0b2b4d;fill-opacity:1;fill-rule:evenodd;stroke:none"
             d="m 2879.17,1636.85 c 0.02,-1.72 -0.02,-3.48 -0.16,-5.3 -0.11,-1.8 -0.48,-3.63 -1.07,-5.48 -1.93,-6.92 -4.45,-11.51 -7.6,-13.78 -3.12,-2.26 -6.21,-3.3 -9.26,-3.11 -5.78,-0.07 -10.64,3.49 -14.59,10.65 -3.94,7.16 -6.01,18.3 -6.17,33.43 0.02,13.32 1.8,24.02 5.33,32.11 3.56,8.09 8.7,12.24 15.43,12.46 5.3,-0.25 9.26,-2.25 11.86,-6 2.62,-3.74 4.35,-7.7 5.25,-11.88 0.37,-1.35 0.63,-2.75 0.77,-4.22 0.15,-1.47 0.21,-3 0.21,-4.59 l 0,-34.29 z m 18.77,38.2 c 0.02,9.08 0.16,16.52 0.39,22.33 0.25,5.81 0.45,10.67 0.59,14.58 l -16.82,0 -0.98,-13.16 -0.49,0 c -1.73,3.62 -4.29,6.99 -7.69,10.12 -3.38,3.13 -8.15,4.79 -14.3,5 -5.99,0.04 -11.79,-2.04 -17.44,-6.24 -5.62,-4.21 -10.27,-10.86 -13.94,-19.94 -3.68,-9.08 -5.57,-20.9 -5.71,-35.46 0.14,-17.65 3.28,-31.74 9.46,-42.27 6.17,-10.53 14.57,-15.92 25.19,-16.18 4.98,0.02 9.45,1.26 13.44,3.71 4,2.45 7.01,6.01 9.04,10.66 l 0.49,0 0,-11.94 c -0.08,-13.17 -2.25,-22.5 -6.5,-27.97 -4.26,-5.47 -10.16,-8.11 -17.7,-7.94 -4.67,0.06 -8.87,0.61 -12.6,1.64 -3.73,1.03 -6.77,2.18 -9.12,3.45 l -4.39,-14.6 c 3.12,-1.73 6.95,-3.14 11.46,-4.2 4.53,-1.06 9.34,-1.62 14.42,-1.64 6.62,0.02 12.61,1.12 17.97,3.29 5.33,2.16 9.84,5.21 13.53,9.14 3.91,4.03 6.82,9.8 8.77,17.33 1.95,7.52 2.93,18.83 2.93,33.93" /><path
             id="path94"
             style="fill:#0b2b4d;fill-opacity:1;fill-rule:evenodd;stroke:none"
             d="m 2946.53,1665.08 c 0.23,5.5 1.11,10.84 2.62,16.04 1.5,5.19 3.63,9.49 6.4,12.89 2.78,3.4 6.21,5.16 10.28,5.28 4.7,0.06 8.81,-2.68 12.28,-8.21 3.48,-5.54 5.27,-14.2 5.31,-26 l -36.89,0 z m 54.45,-13.89 c 0.12,1.44 0.24,3.02 0.34,4.72 0.09,1.71 0.13,3.72 0.15,6 0.02,9.03 -1.11,17.47 -3.42,25.32 -2.3,7.85 -5.93,14.22 -10.89,19.11 -4.97,4.9 -11.43,7.42 -19.38,7.57 -12.01,-0.2 -21.6,-5.78 -28.77,-16.74 -7.17,-10.97 -10.84,-26.13 -11.02,-45.48 0.04,-18.4 3.64,-32.84 10.83,-43.31 7.2,-10.49 17.83,-15.82 31.91,-16.02 4.84,0 9.55,0.48 14.16,1.43 4.59,0.95 8.57,2.34 11.93,4.17 l -3.16,13.66 c -2.33,-1.26 -5.12,-2.29 -8.38,-3.12 -3.26,-0.82 -6.97,-1.25 -11.13,-1.28 -4.57,-0.13 -8.97,0.97 -13.15,3.31 -4.2,2.35 -7.65,6.7 -10.37,13.09 -2.73,6.38 -4.18,15.57 -4.35,27.57" /><path
             id="path96"
             style="fill:#0b2b4d;fill-opacity:1;fill-rule:evenodd;stroke:none"
             d="m 3064.97,1606.73 c -5.57,0.21 -9.8,2.75 -12.75,7.63 -2.95,4.87 -4.96,10.83 -6.02,17.88 -1.07,7.04 -1.58,13.93 -1.52,20.65 -0.06,6.34 0.43,13.04 1.44,20.1 1.04,7.07 3.01,13.12 5.9,18.16 2.91,5.03 7.15,7.66 12.7,7.9 5.48,-0.24 9.66,-2.87 12.57,-7.9 2.91,-5.04 4.91,-11.09 5.96,-18.16 1.06,-7.06 1.56,-13.76 1.51,-20.1 0.05,-6.41 -0.43,-13.15 -1.49,-20.22 -1.05,-7.06 -2.99,-13.09 -5.82,-18.1 -2.85,-5 -6.91,-7.62 -12.25,-7.84 l -0.23,0 z m -0.49,-14.86 c 6.17,-0.1 12.23,1.8 18.17,5.68 5.91,3.88 10.86,10.31 14.76,19.29 3.93,8.99 5.98,21.09 6.11,36.29 -0.25,20.59 -3.94,35.89 -11.07,45.87 -7.11,9.99 -16.11,14.96 -26.99,14.91 -10.53,0.15 -19.65,-4.66 -27.38,-14.42 -7.74,-9.77 -11.78,-25.38 -12.17,-46.85 0.27,-20.69 4,-36.01 11.19,-45.95 7.19,-9.95 16.23,-14.88 27.13,-14.82" /><path
             id="path98"
             style="fill:#0b2b4d;fill-opacity:1;fill-rule:nonzero;stroke:none"
             d="m 3133.51,1593.83 18.77,0 0,65.43 c 0,2.06 0.06,3.97 0.18,5.74 0.13,1.75 0.31,3.42 0.56,5 1.05,7.01 3.58,12.82 7.6,17.45 4,4.63 9.04,7.03 15.09,7.21 1.43,0.04 2.74,-0.04 3.91,-0.24 l 0,19.25 c -1.17,0.2 -2.48,0.28 -3.91,0.25 -5.59,-0.16 -10.62,-2.17 -15.09,-6.04 -4.48,-3.87 -7.73,-8.68 -9.82,-14.44 l -0.45,0 -1,18.52 -16.82,0 c 0.16,-4.48 0.35,-9.41 0.59,-14.78 0.23,-5.37 0.36,-10.61 0.39,-15.7" /><path
             id="path100"
             style="fill:#0b2b4d;fill-opacity:1;fill-rule:evenodd;stroke:none"
             d="m 3252.92,1636.85 c 0.02,-1.72 -0.04,-3.48 -0.16,-5.3 -0.13,-1.8 -0.48,-3.63 -1.07,-5.48 -1.93,-6.92 -4.47,-11.51 -7.6,-13.78 -3.14,-2.26 -6.23,-3.3 -9.26,-3.11 -5.78,-0.07 -10.66,3.49 -14.61,10.65 -3.94,7.16 -5.99,18.3 -6.17,33.43 0.04,13.32 1.82,24.02 5.35,32.11 3.54,8.09 8.68,12.24 15.43,12.46 5.3,-0.25 9.24,-2.25 11.86,-6 2.6,-3.74 4.35,-7.7 5.25,-11.88 0.35,-1.35 0.61,-2.75 0.77,-4.22 0.13,-1.47 0.21,-3 0.21,-4.59 l 0,-34.29 z m 18.77,38.2 c 0.02,9.08 0.16,16.52 0.39,22.33 0.23,5.81 0.43,10.67 0.59,14.58 l -16.84,0 -0.98,-13.16 -0.47,0 c -1.75,3.62 -4.31,6.99 -7.71,10.12 -3.38,3.13 -8.14,4.79 -14.28,5 -5.99,0.04 -11.81,-2.04 -17.44,-6.24 -5.62,-4.21 -10.27,-10.86 -13.94,-19.94 -3.68,-9.08 -5.59,-20.9 -5.73,-35.46 0.14,-17.65 3.28,-31.74 9.46,-42.27 6.17,-10.53 14.57,-15.92 25.21,-16.18 4.96,0.02 9.43,1.26 13.44,3.71 3.98,2.45 6.99,6.01 9.04,10.66 l 0.49,0 0,-11.94 c -0.08,-13.17 -2.25,-22.5 -6.5,-27.97 -4.28,-5.47 -10.18,-8.11 -17.7,-7.94 -4.67,0.06 -8.89,0.61 -12.62,1.64 -3.71,1.03 -6.75,2.18 -9.12,3.45 l -4.37,-14.6 c 3.1,-1.73 6.93,-3.14 11.46,-4.2 4.53,-1.06 9.32,-1.62 14.42,-1.64 6.62,0.02 12.59,1.12 17.95,3.29 5.33,2.16 9.86,5.21 13.53,9.14 3.91,4.03 6.84,9.8 8.79,17.33 1.95,7.52 2.93,18.83 2.93,33.93" /><path
             id="path102"
             style="fill:#b62234;fill-opacity:1;fill-rule:nonzero;stroke:none"
             d="m 3685.28,398.293 c -67.19,-34.102 -142.95,-39.941 -202.54,-28.691 -20.8,41.949 -73.65,4.757 -111.66,6.621 -68.26,-21.723 -133.4,-9.813 -199.1,-40.024 -29.71,18.551 -64.04,-0.449 -96.5,0.742 -56.84,28.621 -118.4,-41.558 -169.69,-13.609 -77.03,-19.32 -152.56,-34.711 -227.95,-24.301 -10.88,-8.199 -15.33,-19.922 -13.38,-35.121 -31.99,-17.918 -61.7,0.61 -93.3,-1.027 4.08,-4.571 0.25,-9.551 1.11,-12.363 -23.71,-1.25 -49.35,12.71 -70.23,-6.547 l -14.08,-6.461 1.73,-5.653 c -10.64,-17.789 -31.99,-17.929 -46.54,-5.289 -5.31,-8.89 7.97,-34.98 -11.66,-40.777 -28.46,31.988 -56.6,19.059 -77.17,51.457 l 2.97,7.82 -18.77,-8.64 c 2.58,-8.469 -2.73,-17.34 -5.7,-25.168 -22.83,-4.039 -46.76,4.258 -68.13,4.121 -11.09,1.328 -1.07,12.379 -10.7,17.617 l -4.69,-2.168 c -5.07,-18.422 37.84,-27.68 5,-42.77 -30.33,11.809 -19.94,39.137 -53.63,26.848 -3.22,1.742 -17.93,-11.437 -27.77,3.34 -4.07,4.59 -2.58,8.48 -1.1,12.383 -15.56,-10.371 -41.36,-22.242 -49.96,6.019 l -6.03,19.758 c -2.33,-1.07 -5.55,0.692 -8.75,2.43 -0.39,-16.289 6.48,-38.891 -8.23,-52.09 -21.34,-0.141 -38.22,11.402 -50.43,25.109 -10.87,-8.218 11.82,-29.976 -4.6,-37.527 -24.56,1.578 -3.05,27.57 -19.09,36.301 -24.55,1.59 -63,22.558 -71.46,-19.981 -18.4,7.66 -24.94,-14.679 -35.84,-22.89 3.69,-20.86 16.89,-11.582 26.76,-26.352 l -8.93,-23.43 c -40.49,71.563 -117.38,-18.539 -141.69,70.11 -19.63,-5.797 1.17,-47.77 -29.8,-42.668 -4.93,7.379 -19.46,20.019 -31.82,7.91 l -11.74,-5.391 c 1.73,-5.671 4.31,-14.121 9.86,-14.808 -2.12,-10.621 -13.22,-9.274 -20.26,-12.524 -24,43.723 -74.29,-1.968 -108.91,23.993 -24.64,36.968 6.88,74 -41.37,74.347 -18.14,-1.867 -23.23,-20.328 -29.17,-35.929 -26.11,33.082 -41.6,-12.7 -63.36,-29.118 l 1.73,-5.672 c -5.31,-8.871 -22.83,-4.039 -35.43,-6.597 -9.22,21.5 -18.83,26.758 -38.22,11.387 3.19,-1.739 -0.63,-6.719 0.22,-9.547 -41.22,3.609 -85.46,34.777 -130.43,-2 -9,11.957 -26.04,-2.321 -30.58,21.347 4.46,11.742 20.25,12.563 29.65,16.86 l -14.63,48.019 c -9.38,-4.308 -14.3,3.094 -23.07,5.492 -2.57,8.5 5.09,18.461 -6.01,19.789 l -11.73,-5.39 c 4.06,-4.59 -1.26,-13.457 -6.8,-12.797 -7.67,-9.961 -19.64,-5.801 -25.42,4.418 l 5.94,15.621 c -3.2,1.738 -13.45,0.258 -13.68,9.809 -2.35,-1.079 -9.39,-4.321 -10.01,-11.039 4.92,-7.403 23.3,-15.059 9.46,-31.09 -27.99,12.91 -55.76,16.25 -79.29,40.859 -25.8,-11.879 -66.85,17.559 -78.75,-13.672 l 4.31,-14.117 27.52,6.211 c 14.54,-12.641 20.17,-48.703 3.74,-56.231 -7.03,-3.25 -12.35,-12.152 -20.48,-2.992 -6.89,22.59 -38.008,1.832 -57.008,2.77 -24.16,17.871 -60.61,-11.758 -89.469,3.972 l 24.031,52.887 c 3.199,-1.738 -29.492,8.981 -19.711,29.594 l 2.981,7.809 c -4.942,7.378 -12.602,-2.582 -18.141,-1.903 l 3.442,-11.297 c -44.59,-20.511 -69.911,45.149 -120.043,25.309 1.71,-5.649 8.363,-18.691 -1.02,-23.012 l -14.07,-6.457 -13.528,35.641 c -16.582,-33.383 -43.55,2.519 -65.062,-23.461 -26.738,26.348 -46.379,20.527 -80.777,36.918 l 2.968,7.812 c -45.031,-1.39 -88.211,17.418 -137.07,11.028 -42.141,41.82 -111.898,16.203 -149.352,60.16 -28.777,-19.668 -45.277,8.16 -73.668,4.793 -37.609,18.117 -85.011,15.66 -119.8003,15.758 -23.3086,-81.559 -31.918,-149.918 -43.2696,-235.649 13.4492,-0.25 -0.3906,-16.293 1.3281,-21.93 9.3829,4.321 16.8829,-11.562 22.4415,-12.23 C 188.293,139.93 282.273,112.293 393.703,115.199 446.492,91.1797 505.215,82.7422 563.473,93.4297 c -1.719,5.6406 -0.231,9.5503 1.261,13.4533 7.028,3.25 17.27,4.726 24.547,-1.602 8.133,-9.1208 -8.918,-23.3982 7.731,-25.4099 5.332,8.8906 3.371,24.0779 16.82,23.8279 14.551,-12.6365 23.141,-40.8787 49.582,-22.2888 5.551,-0.6797 8.129,-9.1602 8.988,-11.9688 25.731,47.2496 55.75,-16.25 61.7,-0.6211 -3.207,1.7422 -11.098,1.332 -11.329,10.8789 15.321,19.9414 39.25,11.6211 58.258,10.6836 16.25,-18.2812 46.133,-10.9805 66.223,-24.2812 10.41,27.3281 41.219,-3.6094 49.277,22.6601 8.524,7.1289 16.41,7.5391 23.692,1.2305 -2.981,-7.8125 0.691,-28.6719 12.429,-23.2813 26.821,34.8591 66.692,-43.3984 66.313,36.9301 11.565,-20.4496 36.285,3.808 48.715,-19.4691 30.43,49.4101 53.95,-71.8008 62.94,12.8281 16.43,7.562 22.46,-12.207 30.58,-21.3477 l -2.97,-7.832 c 4.07,-4.5508 11.1,-1.3086 15.8,0.8399 -7.27,6.3125 0.4,16.2695 1.02,23.0117 26.51,-16.8008 45.97,-36.8203 79.05,-31.2891 40.98,5.9766 72.41,-18.2226 114.64,1.1875 6.41,-3.4883 9,-11.9687 15.17,-5.8984 l -3.03,27.5586 c 18.13,1.9218 37.75,7.7187 57.61,3.9687 l 7.74,-25.4297 c 23.31,-15.039 46.22,50.2305 57.01,-2.7773 19.64,5.8008 37.54,17.2695 56.77,6.7773 l 6.57,22.3399 c 29.56,-44.3672 72.65,-27.7891 115.35,-27.4766 44.11,39.6092 102.67,5.3594 141.86,52.3472 8.75,-2.418 9.84,-14.8081 12.43,-23.2808 -14.09,-6.4687 16.26,-18.289 20.56,-32.4062 l 25.4,-4.4102 c 2.28,36.457 37.55,17.25 50.93,52.3792 13.22,9.3 26.66,9.05 41.84,3.148 -5.72,-25.1795 -18.54,-18.1873 -34.1,-28.578 26.19,-68.4492 80.86,24.301 121.05,-2.3008 23.17,55.7188 50.04,-41.4101 72.33,17.1485 28.78,19.6603 17.36,-30.668 45.29,-8.168 28.46,-31.9922 80.15,52.9493 103.75,-7.0312 23.01,29.8785 66.8,17.8125 88.77,24.6915 -5.16,16.949 -29.87,-7.2892 -28.22,22.461 6.79,12.769 22.59,13.59 32.61,24.648 16.02,-8.75 -0.8,-32.558 23.75,-34.16 l -2.97,-7.809 c 10.02,11.047 14.32,-3.089 23.07,-5.511 36.52,-5.7385 87.52,11.25 123.81,15.058 53.89,60.211 67.3,-36.6598 120.56,16.793 44.42,-5.351 90.49,19.071 134.91,13.707 3.98,30.821 32.2,8.383 40.11,8.793 74.93,8.68 151.71,37.539 225.77,49.047 l 9,-11.976 c 17.89,11.468 30.88,30.297 52.85,37.187 41.99,-67.66 60.53,47.152 104.4,-0.308 143.57,46.679 284.41,76.007 430.74,140.058 12.81,-7 50.58,0.723 42.85,26.133" /><path
             id="path104"
             style="fill:#b62234;fill-opacity:1;fill-rule:nonzero;stroke:none"
             d="m 1757.84,55.9297 c -2.58,8.4765 -10.09,24.3594 -20.1,13.2969 l 6.02,-19.7578" /><path
             id="path106"
             style="fill:#b62234;fill-opacity:1;fill-rule:nonzero;stroke:none"
             d="m 1788.21,237.336 c -7.05,-3.242 2.81,-18.031 3.05,-27.582 40.57,-10.328 -2.59,8.48 -3.05,27.582" /><path
             id="path108"
             style="fill:#b62234;fill-opacity:1;fill-rule:nonzero;stroke:none"
             d="m 1668.94,198.621 c -7.9,-0.406 -22.44,12.231 -25.18,-5.137 3.21,-1.75 27.37,-19.632 25.18,5.137" /><path
             id="path110"
             style="fill:#b62234;fill-opacity:1;fill-rule:nonzero;stroke:none"
             d="m 1408.62,236.73 -9.38,-4.3 16.73,-37.403 c 2.75,17.364 -3.67,20.864 -7.35,41.703" /><path
             id="path112"
             style="fill:#b62234;fill-opacity:1;fill-rule:nonzero;stroke:none"
             d="m 1367.42,240.344 c -10.72,17.617 -28.86,15.699 -44.03,21.617 -10.01,-11.051 -18.14,-1.91 -28.39,-3.399 -3.83,-4.98 -3.6,-14.531 -9.14,-13.859 29.01,10.109 61.14,-42.742 81.56,-4.359" /><path
             id="path114"
             style="fill:#b62234;fill-opacity:1;fill-rule:nonzero;stroke:none"
             d="m 951.25,280.867 c -1.719,5.641 -0.461,19.102 -10.711,17.621 0.242,-9.55 3.039,-27.578 -15.098,-29.5 7.27,-6.3 36.75,-15.289 25.809,11.879" /></g></g></g></g></svg>