<?xml version="1.0" encoding="UTF-8" standalone="no"?>
<!-- Created with Inkscape (http://www.inkscape.org/) -->

<svg
   xmlns:dc="http://purl.org/dc/elements/1.1/"
   xmlns:cc="http://creativecommons.org/ns#"
   xmlns:rdf="http://www.w3.org/1999/02/22-rdf-syntax-ns#"
   xmlns:svg="http://www.w3.org/2000/svg"
   xmlns="http://www.w3.org/2000/svg"
   xmlns:sodipodi="http://sodipodi.sourceforge.net/DTD/sodipodi-0.dtd"
   xmlns:inkscape="http://www.inkscape.org/namespaces/inkscape"
   width="2578.4185"
   height="881.43024"
   viewBox="0 0 727.687 248.7592"
   id="svg4075"
   version="1.1"
   inkscape:version="0.48.5 r10040"
   sodipodi:docname="logo-weiss.svg"
   inkscape:export-filename="D:\Dropbox\Alex_Fabian\14-04-23-Aufnäher\Logo.png"
   inkscape:export-xdpi="109.02"
   inkscape:export-ydpi="109.02">
  <defs
     id="defs4077">
    <style
       id="style4098"
       type="text/css">
   
    .fil0 {fill:black}
   
  </style>
    <filter
       id="filter4925"
       inkscape:label="Torn edges"
       inkscape:menu="Distort"
       inkscape:menu-tooltip="Displace the outside of shapes and pictures without altering their content"
       height="1.4"
       y="-0.2"
       width="1.4"
       x="-0.2"
       color-interpolation-filters="sRGB">
      <feTurbulence
         id="feTurbulence4927"
         baseFrequency="0.05"
         numOctaves="5"
         type="fractalNoise"
         result="result91" />
      <feDisplacementMap
         id="feDisplacementMap4929"
         in2="result91"
         scale="25"
         result="result5"
         xChannelSelector="R"
         in="SourceGraphic"
         yChannelSelector="A" />
      <feComposite
         id="feComposite4931"
         in2="result5"
         in="SourceGraphic"
         operator="atop" />
    </filter>
    <filter
       id="filter5035"
       inkscape:label="Ripple"
       inkscape:menu="Distort"
       inkscape:menu-tooltip="Horizontal rippling of edges"
       color-interpolation-filters="sRGB">
      <feTurbulence
         id="feTurbulence5037"
         numOctaves="1"
         baseFrequency="0.002 0.107" />
      <feColorMatrix
         id="feColorMatrix5039"
         values="2 0 0 0 0 0 0 0 0 0 0 0 0 0 0 0 0 0 0.5 0.5"
         result="result91" />
      <feDisplacementMap
         id="feDisplacementMap5041"
         in2="result91"
         yChannelSelector="A"
         xChannelSelector="R"
         scale="14.3"
         in="SourceGraphic" />
    </filter>
    <filter
       id="filter5064"
       y="-0.2"
       height="1.4"
       inkscape:label="Rough and dilate"
       inkscape:menu="Distort"
       inkscape:menu-tooltip="Create a turbulent contour around"
       color-interpolation-filters="sRGB">
      <feMorphology
         id="feMorphology5066"
         radius="7"
         operator="dilate"
         result="result8"
         in="SourceGraphic" />
      <feComposite
         id="feComposite5068"
         in2="result8"
         result="result10"
         in="SourceGraphic"
         operator="arithmetic"
         k1="0.5"
         k3="0.5"
         k2="0"
         k4="0" />
      <feTurbulence
         id="feTurbulence5070"
         result="result11"
         type="fractalNoise"
         numOctaves="3"
         baseFrequency="0.07" />
      <feDisplacementMap
         id="feDisplacementMap5072"
         in2="result11"
         result="result12"
         in="result10"
         xChannelSelector="R"
         scale="10"
         yChannelSelector="A" />
      <feComposite
         id="feComposite5074"
         in2="result12"
         operator="arithmetic"
         result="result13"
         in="SourceGraphic"
         k1="0.25"
         k2="0.25"
         k3="0.75"
         k4="0" />
    </filter>
    <filter
       id="filter5084"
       inkscape:label="Ripple"
       inkscape:menu="Distort"
       inkscape:menu-tooltip="Horizontal rippling of edges"
       color-interpolation-filters="sRGB">
      <feTurbulence
         id="feTurbulence5086"
         numOctaves="1"
         baseFrequency="0.002 0.107" />
      <feColorMatrix
         id="feColorMatrix5088"
         values="2 0 0 0 0 0 0 0 0 0 0 0 0 0 0 0 0 0 0.5 0.5"
         result="result91" />
      <feDisplacementMap
         id="feDisplacementMap5090"
         in2="result91"
         yChannelSelector="A"
         xChannelSelector="R"
         scale="14.3"
         in="SourceGraphic" />
    </filter>
    <filter
       id="filter5084-7"
       inkscape:label="Ripple"
       inkscape:menu="Distort"
       inkscape:menu-tooltip="Horizontal rippling of edges"
       color-interpolation-filters="sRGB">
      <feTurbulence
         id="feTurbulence5086-6"
         numOctaves="1"
         baseFrequency="0.002 0.107" />
      <feColorMatrix
         id="feColorMatrix5088-1"
         values="2 0 0 0 0 0 0 0 0 0 0 0 0 0 0 0 0 0 0.5 0.5"
         result="result91" />
      <feDisplacementMap
         id="feDisplacementMap5090-4"
         in2="result91"
         yChannelSelector="A"
         xChannelSelector="R"
         scale="14.3"
         in="SourceGraphic" />
    </filter>
    <filter
       id="filter5084-3"
       inkscape:label="Ripple"
       inkscape:menu="Distort"
       inkscape:menu-tooltip="Horizontal rippling of edges"
       color-interpolation-filters="sRGB">
      <feTurbulence
         id="feTurbulence5086-2"
         numOctaves="1"
         baseFrequency="0.002 0.107" />
      <feColorMatrix
         id="feColorMatrix5088-2"
         values="2 0 0 0 0 0 0 0 0 0 0 0 0 0 0 0 0 0 0.5 0.5"
         result="result91" />
      <feDisplacementMap
         id="feDisplacementMap5090-1"
         in2="result91"
         yChannelSelector="A"
         xChannelSelector="R"
         scale="14.3"
         in="SourceGraphic" />
    </filter>
  </defs>
  <sodipodi:namedview
     id="base"
     pagecolor="#ffffff"
     bordercolor="#666666"
     borderopacity="1.0"
     inkscape:pageopacity="0.0"
     inkscape:pageshadow="2"
     inkscape:zoom="0.20733066"
     inkscape:cx="1743.8123"
     inkscape:cy="1166.7765"
     inkscape:document-units="px"
     inkscape:current-layer="layer1"
     showgrid="false"
     inkscape:window-width="1366"
     inkscape:window-height="715"
     inkscape:window-x="-8"
     inkscape:window-y="-8"
     inkscape:window-maximized="1"
     fit-margin-top="0"
     fit-margin-left="0"
     fit-margin-right="0"
     fit-margin-bottom="0">
    <inkscape:grid
       type="xygrid"
       id="grid5264"
       units="cm"
       empspacing="5"
       visible="true"
       enabled="true"
       snapvisiblegridlinesonly="true"
       originx="-27.778518px"
       originy="24.459027px" />
  </sodipodi:namedview>
  <metadata
     id="metadata4080">
    <rdf:RDF>
      <cc:Work
         rdf:about="">
        <dc:format>image/svg+xml</dc:format>
        <dc:type
           rdf:resource="http://purl.org/dc/dcmitype/StillImage" />
        <dc:title></dc:title>
      </cc:Work>
    </rdf:RDF>
  </metadata>
  <g
     inkscape:label="Ebene 1"
     inkscape:groupmode="layer"
     id="layer1"
     transform="translate(-7.8397136,-55.143685)">
    <g
       style="fill:#ffffff;fill-opacity:1;fill-rule:evenodd"
       id="g4111"
       transform="matrix(0.6244679,0,0,0.6244679,314.18297,55.143636)">
      <g
         id="Ebene_x0020_1"
         style="fill:#ffffff;fill-opacity:1">
        <metadata
           id="CorelCorpID_0Corel-Layer" />
        <path
           id="path4102"
           d="m 72.6014,0.200007 -0.600022,0.200007 -0.800029,0.400015 -1.00004,0.600022 -1.00004,1.00004 -0.600022,1.00004 -0.599622,1.60006 1.19964,18.0003 -39.4006,0.400015 -19.2007,19.8003 61.0014,4.60017 2.60009,28.0006 -2.40009,-1.60006 c -0.728926,-0.364513 -1.45815,-0.810729 -2.20008,-1.40005 -0.916433,-0.523519 -2.04957,-1.05104 -2.7997,-1.79967 l -1.80007,-1.20044 -1.60006,-0.999636 -1.60006,-1.00004 -2.00007,-1.20004 -1.40005,-0.800029 -1.60006,-1.00004 -4.20015,-2.40009 -1.80007,-1.00004 -3.00011,-1.40005 -2.8001,-1.40005 -1.60006,-0.800029 -2.20008,-1.00004 -2.40009,-1.00004 -2.7997,-1.00004 -3.20012,-1.00004 -4.40016,-1.00004 -2.8001,-0.400015 -5.4002,0 -1.00004,0.200007 -2.00007,0.400015 -1.60006,0.400015 -1.00004,0.400015 -1.40005,0.600022 -0.600022,0.400015 -1.00004,0.600022 -1.40005,1.00004 -2.00007,2.00007 c -0.261809,0.523519 -0.671924,0.744927 -1.00004,1.20004 L 6.600171,60.401387 C 6.500767,60.539292 6.29986,61.062511 6.199756,61.201416 l -1.19964,2.00007 -0.800029,1.60006 -0.600022,1.40005 -0.800029,2.60009 -0.600022,1.60006 -0.400015,1.79967 -0.400015,1.80007 -0.400015,2.00007 -0.400015,2.40009 -0.400015,3.40012 -0.200007,3.40012 0,10.4004 0.200007,3.40012 0.400015,3.799744 0.400015,2.60009 0.200007,1.60006 0.400015,2.20008 0.600022,3.00011 0.400015,1.60006 0.600022,2.40009 0.400015,1.40005 0.400015,1.40005 0.200007,0.60002 0.400015,1.20004 c 0.292111,0.58412 0.352413,1.20224 0.600022,1.80007 l 0.400015,1.20004 0.400015,1.00004 0.199607,0.60002 0.400415,1.00004 0.599622,1.60006 0.400015,0.80003 0.600022,1.40005 0.400015,0.80003 0.400015,0.80003 0.600022,1.20004 0.400015,0.80003 0.600022,1.19964 0.600022,1.20004 1.00004,1.80007 0.400015,0.60002 0.600022,1.00004 0.400015,0.60002 1.00004,1.60006 0.800029,1.20004 0.800029,1.20004 1.00004,1.40005 1.00004,1.40005 0.800029,1.00004 1.00004,1.20004 0.600022,0.80003 1.00004,1.20004 3.00011,3.00011 1.00004,0.80003 1.00004,0.60002 1.20004,0.60002 0.800029,0.40002 1.00004,0.40001 2.8001,0.60002 5.5998,0 3.20012,-0.60002 1.20004,-0.40001 3.00011,-1.40005 1.40005,-0.80003 1.00004,-0.60002 2.00007,-1.20004 1.60006,-1.20004 1.40005,-1.00004 1.60006,-1.20004 2.60009,-2.20008 1.00004,-0.80003 2.40009,-2.00007 2.00007,-1.80007 2.20008,-2.00007 2.20008,-1.80007 c 0.702925,-0.70293 1.88967,-1.95547 2.20008,-2.20008 0.0988,-0.0528 0.873432,-0.82083 1.39965,-1.20004 l 1.20004,-1.00004 0.200007,-0.20001 0.200007,-0.40002 0,-0.59962 -0.200007,-0.2 -5.79981,-0.20001 -2.20008,-0.40002 -1.80007,-0.60002 -1.00004,-0.60002 -1.00004,-0.80003 -1.00004,-1.00004 -0.800029,-1.00004 -1.20004,-2.20008 -1.20004,-3.40012 -0.800029,-2.60009 -0.600022,-3.20012 -0.600022,-3.40012 -0.600022,-2.60009 -0.600022,-3.40012 -0.600022,-3.20012 -0.800029,-3.99975 0,-2.000069 0.800029,-0.800029 2.60009,0 2.00007,0.400015 2.40009,0.600022 c 1.35685,0.54272 2.6878,0.943934 4.00015,1.600061 l 2.20008,1.00004 1.40005,0.60002 0.800029,0.39961 c 0.806529,0.58123 2.08528,0.88554 2.7997,1.60006 l 2.00007,1.20004 2.20008,1.60006 2.40009,2.40009 0.800029,1.60006 1.40005,13.6005 23.400397,0 1.00004,-10.4004 0.60002,-2.60009 1.20004,-2.20008 2.40009,-2.40009 0.80003,-0.60002 c 0.69063,-0.34531 1.37675,-0.93263 2.00007,-1.40005 0.81003,-0.54002 1.72106,-1.24845 2.60009,-1.60006 1.03934,-0.51972 1.99107,-1.09524 3.00011,-1.59966 l 1.80007,-0.80003 c 0.75603,-0.33001 1.62826,-0.717322 2.40009,-1.000036 l 1.80007,-0.600022 1.00004,-0.400015 2.40009,-0.600022 2.00007,-0.400015 2.60009,0 0.80003,0.800029 0,2.000071 c -0.0147,0.29671 -1.42055,6.98475 -1.60006,7.99989 l -0.40001,2.60009 -0.40002,2.00007 -0.60002,3.40012 -0.40001,1.80007 -0.40002,2.00007 -0.60002,2.20008 -0.60002,2.00007 -0.80003,1.80007 -0.60002,1.20004 -0.60003,1.00004 -0.80003,1.00004 -1.00004,1.00004 -2.00007,1.40005 -1.80007,0.60002 -2.20008,0.40002 -5.80021,0.2 -0.2,0.20001 0,0.59962 0.2,0.40002 c 0.15981,0.2217 1.13035,0.95363 1.40005,1.20004 l 1.00004,1.00004 2.00007,1.80007 1.00004,1.00004 1.40005,1.20004 2.60009,2.20008 1.60006,1.60006 4.80017,4.00015 1.60006,1.20004 c 2.1e-4,-1e-4 8.3998,5.6004 8.3999,5.6002 1.1e-4,-2e-4 2.96221,1.60526 3.60013,1.80007 l 2.00007,0.60002 2.40009,0.40001 5.6002,0 2.8001,-0.60002 c 0.24481,-0.0746 2.25618,-0.91823 2.40009,-1.00004 l 2.20008,-1.60006 3.60013,-3.60013 c 1.18134,-1.18134 2.01567,-2.61499 3.19972,-3.80014 l 1.40005,-2.20008 3.40012,-5.00018 c -1e-4,-1e-4 2.40019,-4.20015 2.40009,-4.20015 l 1.40005,-2.59969 1.00004,-2.00007 1.20004,-2.8001 1.00004,-2.40009 1.40005,-3.80014 0.80003,-2.40009 1.00004,-3.40012 0.80003,-3.60013 1.20004,-5.6002 0.20001,-1.60006 0.40001,-2.60009 0.20001,-2.19968 0.40002,-5.000178 0,-10.4004 -0.20001,-3.40012 -0.40002,-3.40012 -0.40001,-2.40009 -0.20001,-1.40005 -0.40001,-1.80007 -0.40002,-1.60006 -0.2,-0.799629 -0.40002,-1.20004 -0.40001,-1.40005 c -0.16521,-0.483418 -0.78093,-1.90397 -1.00004,-2.40009 l -1.00004,-2.20008 -1.00004,-1.80007 -1.20004,-1.80007 -2.20008,-2.40009 c -0.21931,-0.198807 -3.69883,-2.7441 -3.80014,-2.8001 l -2.00007,-0.800029 -2.00007,-0.600022 -2.99971,-0.600022 -5.4002,0 -2.8001,0.400015 -3.40012,0.800029 -3.00011,0.800029 -3.00011,1.00004 -2.39649,0.979236 -2.40369,1.02084 -3.00011,1.40005 -4.00015,2.00007 -4.79977,2.60009 -1.40005,0.800029 -7.00025,4.20015 -1.80007,1.20004 -3.20012,1.99967 -4.00015,2.60009 -3.20012,2.20008 c 0,10e-5 2.60009,-28.8005 2.60009,-28.8006 l 61.6014,-4.60017 -19.2003,-19.6003 -40.0191,-0.200407 1.41805,-17.7998 -0.60003,-1.80007 -0.80003,-1.20004 -1.20004,-1.20004 -1.40005,-0.800029 -0.60002,-0.200007 -1.40005,-0.200007 -33.600797,0 -1.20004,0.200007 z"
           class="fil0"
           inkscape:connector-curvature="0"
           style="fill:#ffffff;fill-opacity:1" />
        <path
           id="path4104"
           d="m 51.2011,175.604 -0.600022,1.00014 0,0.60002 0.200007,0.40002 0.400015,0.40001 0.400015,0.19991 0.800029,0.40011 0.800029,0.40002 1.60006,0.59992 1.00004,0.40002 2.40009,0.60012 1.80007,0.2 1.60006,0 1.00004,-0.2 0.600022,-0.40002 0.800029,-0.60012 1.80007,-1.59996 c 3.43712,-3.43712 7.33137,-6.59034 11,-9.80036 l -0.800029,14.0005 0,2.39999 0.200007,1.00014 0.200007,0.40002 0.200007,0.2 0.800029,0.19991 27.200595,0 0.80003,-0.19991 0.20001,-0.2 0.20001,-0.40002 0.2,-1.00014 0,-2.39999 -0.80002,-14.0005 c -10e-5,-3e-4 12.0005,10.6003 12.0004,10.6004 l 0.80002,0.79993 0.80003,0.60012 0.60003,0.40002 1.00004,0.2 1.60006,0 1.80007,-0.2 1.60006,-0.40002 1.80007,-0.60012 1.00004,-0.40002 0.60002,-0.1999 0.80003,-0.40002 0.80003,-0.40011 0.40001,-0.19991 0.40002,-0.40001 0.2,-0.40002 0,-0.60002 c 1e-4,0.29971 -29.4013,-43.801 -29.4011,-43.8008 l -22.000397,0 c -2e-4,0 -28.8006,42.8007 -28.8006,42.8007 z"
           class="fil0"
           inkscape:connector-curvature="0"
           style="fill:#ffffff;fill-opacity:1" />
      </g>
    </g>
    <path
       style="font-size:92.36469268999999800px;font-style:normal;font-variant:normal;font-weight:normal;font-stretch:normal;line-height:125%;letter-spacing:0px;word-spacing:0px;fill:#ffffff;fill-opacity:1;stroke:none;font-family:Segoe Marker;-inkscape-font-specification:Segoe Marker"
       d="m 82.716066,167.55696 c -7.522293,-7.51082 9.183082,-7.30434 14.043948,-3.47379 16.282726,0.41529 13.189936,-12.15084 1.826854,-15.40934 -12.685314,-3.65405 -22.234884,-12.84181 -16.384606,-20.41516 1.584529,-8.08276 25.068908,-14.44138 36.137478,-6.21717 4.94522,8.5071 -9.56318,3.05874 -15.41409,3.75881 -9.261088,0.24217 -14.393252,7.75936 -7.136153,11.97119 11.510083,5.89991 25.865023,10.99415 24.833813,21.81752 -1.54184,11.51295 -24.041815,14.7113 -37.907244,8.82301 z m 41.789304,0.3919 c 2.71759,-5.95843 8.12803,-10.81305 9.64808,-17.29765 5.83754,-9.57702 7.91589,-20.51726 11.41785,-30.28426 6.46145,-2.11051 18.56828,1.39048 15.92788,5.78965 5.14147,12.56845 10.74327,26.49319 18.92509,37.53465 5.9518,4.92053 -3.20671,10.54335 -9.21404,5.40986 -5.60717,-3.02785 -2.96032,-8.86479 -11.47903,-12.09278 -13.53363,-3.65704 -17.88054,0.71093 -20.24126,5.7971 -2.36073,5.08617 -3.54086,10.53251 -13.15771,7.95809 l -1.3416,-1.35389 z m 22.49316,-19.38192 c 15.81865,4.00702 14.85875,-1.87585 10.81186,-9.05533 -4.75471,-8.43521 -5.32256,-7.62033 -7.84323,-0.9741 -1.20357,3.31716 -1.27667,6.75242 -2.96863,10.02943 z m 51.83701,22.58849 c -14.98668,-0.0641 -4.99743,-11.3293 -5.78488,-16.38148 -0.2784,-11.44487 0.31073,-23.63669 -1.57964,-34.42481 9.18254,-3.10142 17.39731,2.63095 19.35325,8.99621 5.58092,6.27149 16.25673,19.94873 19.63869,20.75362 1.13707,-9.70197 3.12667,-19.81506 1.17033,-28.966 9.96008,-7.00938 17.88207,4.47262 11.6462,10.04725 0.37096,7.80416 -2.39029,15.7283 -0.42817,22.37472 -5.55428,6.41927 6.62207,11.23685 -1.37014,16.78104 -13.33754,1.47841 -14.46055,-9.92342 -20.75193,-14.67896 -3.94273,-6.65319 -8.84693,-14.02814 -16.58442,-19.56007 -0.47316,10.52119 -0.16523,21.62021 0.85634,31.7094 -0.58842,1.41541 -4.45573,4.63233 -6.16563,3.34908 z m 60.62873,-3.59847 c -7.52229,-7.51082 9.18308,-7.30434 14.04395,-3.47379 16.28272,0.41529 13.18994,-12.15084 1.82686,-15.40934 -12.68532,-3.65405 -22.23489,-12.84181 -16.38462,-20.41516 1.58454,-8.08276 25.06891,-14.44138 36.13748,-6.21717 4.94523,8.5071 -9.56317,3.05874 -15.41409,3.75881 -9.26109,0.24217 -14.39325,7.75936 -7.13615,11.97119 11.51007,5.89991 25.86502,10.99415 24.83381,21.81752 -1.54184,11.51295 -24.04181,14.7113 -37.90724,8.82301 z"
       id="text4117"
       inkscape:connector-curvature="0"
       sodipodi:nodetypes="cccccccccccccccccsccccsccccccccccccccccccccccccc" />
    <path
       style="font-size:84.11312103000000200px;font-style:normal;font-variant:normal;font-weight:normal;font-stretch:normal;line-height:125%;letter-spacing:0px;word-spacing:0px;fill:#ffffff;fill-opacity:1;stroke:none;font-family:Segoe Marker;-inkscape-font-specification:Segoe Marker"
       d="m 441.63622,168.07068 c -6.48106,-7.22948 7.91194,-7.03075 12.09996,-3.34366 14.02031,0.40608 11.37522,-11.70393 1.57397,-14.83217 -13.90893,-3.60223 -18.87368,-15.74857 -12.88695,-22.29112 4.93552,-8.26331 30.30584,-10.61824 30.39748,0.60014 -5.61078,2.52065 -16.16634,-3.7484 -20.56011,2.41774 -6.50706,4.05006 1.54819,10.48144 8.31259,13.27178 16.1095,4.8147 19.16474,24.66472 -0.51647,27.65814 -5.34005,-0.12376 -16.012,0.31756 -18.42047,-3.48085 z m 59.02422,2.50347 c -16.9119,-4.47983 -18.73489,-18.67842 -19.08449,-27.72672 2.15275,-8.57122 6.14262,-22.19205 21.98652,-21.63954 9.03939,0.25496 17.05792,-0.92914 21.24872,5.91572 10.98041,11.31391 9.60868,25.43632 2.11503,37.48338 -6.42705,6.25171 -16.68755,8.74752 -26.26578,5.96716 z m -0.24594,-8.95075 c 8.65662,9.4502 23.05243,-3.54306 21.15035,-10.81976 2.51589,-7.70536 -0.003,-20.06309 -12.86236,-22.80553 -10.03082,-2.47093 -16.27443,8.90483 -16.23166,14.93505 -1.11936,5.64319 0.37198,14.33208 7.94367,18.69024 z m 55.0401,7.92193 c -10.59012,-3.62198 -9.69974,-14.0824 -11.48513,-20.49069 -0.77875,-6.39572 0.86145,-13.06976 0.61484,-18.70739 -6.71959,-6.18112 9.77897,-11.94914 11.14082,-2.46917 -2.22552,6.3409 -0.63083,13.93228 -1.03293,20.73074 0.29066,5.64839 1.12015,17.94977 12.56724,15.48375 13.46169,-6.33383 10.16877,-22.5198 9.54225,-32.35641 -2.09811,-3.11933 -6.16009,-7.1863 0.44269,-9.72236 7.77955,-0.91347 11.74208,3.9497 9.19794,9.01934 -0.34167,12.13949 2.33854,26.21412 -7.72234,36.45455 -5.86915,5.15262 -16.22408,5.61983 -23.26538,2.05764 z m 46.23564,-6.58445 c -6.06432,-9.56494 -5.29392,-24.33165 3.78739,-32.7508 3.76587,-7.92152 22.04994,-12.28211 32.66007,-6.13864 4.45383,10.17736 -12.05734,2.19849 -17.41215,5.82999 -9.84202,4.50459 -11.39144,10.41043 -12.93614,17.83289 -1.17143,8.62925 6.93398,20.29131 22.33083,15.46661 10.60692,-0.17563 7.41352,11.528 -3.66442,8.76213 -9.92253,0.52378 -20.14608,-3.57506 -24.76558,-9.00218 z m 49.23605,8.26485 c -3.56163,-7.00678 -1.05806,-15.48023 -1.47561,-22.73694 1.08126,-6.04007 3.35677,-15.26349 0.90996,-22.46259 -0.91722,-8.53163 14.9213,-0.75013 10.08331,4.66399 0.61212,12.08021 -3.61142,22.11662 -0.17216,33.2995 1.25289,3.90876 -0.93044,10.49654 -9.3455,7.23604 z"
       id="text4121"
       inkscape:connector-curvature="0" />
    <path
       style="fill:#ffffff;fill-opacity:1"
       d="m 565.27622,84.360778 c -20.22951,-0.166245 -15.55436,1.300324 -36.00655,0.203863 -9.91034,-0.01833 -18.21445,-0.284261 -25.42592,0.122859 -18.65531,-0.0139 -51.65743,-1.193605 -61.28706,-1.69682 -6.40807,-0.359412 -14.40422,-1.662105 -10.03863,2.281226 3.41788,3.163992 4.55696,7.092955 5.45611,11.007158 0.89233,3.884536 0.71864,10.610786 2.45429,10.645566 21.42182,0.43691 49.89945,1.3017 68.57154,2.63787 103.96082,-1.96375 114.04313,-1.04622 164.22835,-0.75 8.33946,0.46997 4.40227,-4.43454 0.0512,-8.34791 -5.88321,-6.650996 -13.26996,-8.936791 -21.40035,-11.061436 -19.90208,-3.25371 -35.35259,-5.885516 -56.26074,-5.430921 -16.06062,0.349198 -20.57403,0.468819 -30.3422,0.388545 z"
       id="path3880"
       inkscape:connector-curvature="0"
       sodipodi:nodetypes="cccccscccccssc" />
    <path
       style="fill:#ffffff;fill-opacity:1"
       d="m 146.20053,108.93031 c -28.0444,1.33782 -47.983052,5.64767 -71.241692,1.99735 -18.21271,-7.85293 14.95356,-20.615944 16.14216,-21.472494 19.902082,-3.25371 39.652862,-0.353856 59.704702,-2.152846 21.69426,-0.50531 42.40386,2.6699 64.05916,0.21737 72.0398,7.13297 106.77988,-10.309011 94.51845,0.959178 -1.35438,1.24661 -5.38889,9.995585 -5.92311,18.218182 -8.49783,3.22742 -31.99621,3.14017 -40.90475,3.77773 -47.43535,-2.66022 -70.58566,-0.11394 -116.35492,-1.54447 z"
       id="path3878"
       inkscape:connector-curvature="0"
       sodipodi:nodetypes="ccccccccc" />
    <path
       style="fill:#ffffff;fill-opacity:1"
       d="m 393.54565,179.55198 c 1.19684,0.28549 3.06676,-0.33648 3.93105,1.38109 -0.89529,1.2296 -0.61983,4.7029 -0.048,6.3351 -2.47161,-0.83686 -4.95612,-1.55459 -7.4093,0.0901 -6.53443,1.08351 -13.09327,1.5501 -19.63603,1.38112 -3.96172,-0.37811 -7.90624,0.25651 -11.86063,-1.14095 -2.72361,0.45981 -5.42303,0.31063 -8.09337,-0.99078 -1.82417,-0.21513 -3.9857,1.9551 -5.60756,-0.69055 -0.35681,-2.15387 -0.24317,-5.63152 0.82861,-4.83391 4.17868,-2.37019 8.47306,-0.0435 12.6987,-1.01827 8.29152,2.32858 16.63818,1.57029 24.95454,1.46469 3.42932,-5.1e-4 6.81443,-2.2099 10.24214,-1.97764 z"
       id="path3904"
       inkscape:connector-curvature="0" />
    <path
       style="fill:#ffffff;fill-opacity:1"
       d="m 346.72009,192.37227 c -1.08256,0.25733 -2.78336,-0.19266 -3.51464,1.35108 0.94501,1.23662 0.66709,4.73394 0.0407,6.33509 2.60802,-0.80496 5.22964,-1.58829 7.82152,0.0901 6.88907,1.08268 13.80384,1.55006 20.70167,1.38109 4.08144,-0.4225 8.14703,0.33497 12.21986,-1.11088 2.90904,0.2003 5.814,0.53125 8.66457,-1.01168 1.9754,-0.18721 4.20462,1.74261 6.03382,-0.48954 0.40285,-2.1953 0.33812,-5.86939 -0.84307,-5.04404 -4.40858,-2.34894 -8.93276,-0.0457 -13.38784,-1.01715 -8.85008,2.33749 -17.75788,1.58076 -26.63381,1.44608 -3.71485,-0.10777 -7.3834,-2.42136 -11.10273,-1.93014 z"
       id="path3904-1"
       inkscape:connector-curvature="0" />
    <path
       style="fill:#ffffff;fill-opacity:1"
       d="m 397.43206,205.16253 c 1.17312,0.25734 3.01618,-0.19264 3.80862,1.35109 -1.03187,1.25297 -0.71263,4.73216 -0.044,6.36512 -2.82292,-0.8639 -5.67353,-1.59924 -8.47578,0.06 -7.34004,1.12038 -14.70834,1.44566 -22.0587,1.42756 -4.5482,-0.54162 -9.07898,0.35223 -13.61661,-1.15735 -3.15543,0.20875 -6.30953,0.51114 -9.40044,-0.99078 -2.1436,-0.19411 -4.54502,1.71283 -6.52742,-0.51042 -0.43655,-2.19532 -0.3664,-5.86939 0.91358,-5.04406 4.77905,-2.323 9.67974,-0.0671 14.5077,-1.01713 9.59032,2.34289 19.24305,1.56857 28.86143,1.45897 4.02631,-0.10558 8.00025,-2.44412 12.03165,-1.94303 z"
       id="path3904-1-7"
       inkscape:connector-curvature="0" />
    <path
       style="fill:#ffffff;fill-opacity:1"
       d="m 342.49163,217.9528 c -1.25565,0.3029 -3.27131,-0.20789 -4.12524,1.3511 1.40367,1.12709 0.31527,5.5259 0.22653,6.33509 2.9953,-0.91035 6.02679,-1.50702 9.00153,0.0901 7.9502,1.12037 15.93101,1.44567 23.89235,1.42756 4.92645,-0.54716 9.83421,0.35033 14.74859,-1.15733 3.41816,0.25141 6.83393,0.48947 10.18182,-0.9908 2.31477,-0.20909 4.95172,1.747 7.07009,-0.51042 0.47277,-2.23114 0.39907,-5.88039 -0.98957,-5.04404 -5.17629,-2.32302 -10.48438,-0.0671 -15.71368,-1.01714 -10.51514,2.3441 -21.09744,1.61309 -31.64192,1.42468 -4.23214,-0.17107 -8.41072,-2.41463 -12.6505,-1.90876 z"
       id="path3904-1-4"
       inkscape:connector-curvature="0" />
    <path
       style="fill:#ffffff;fill-opacity:1"
       d="m 401.9756,230.74307 c 1.36001,0.30793 3.53977,-0.20288 4.46446,1.35108 -1.19746,1.24105 -0.85065,4.72295 -0.0516,6.36514 -3.44988,-0.96802 -6.88955,-1.48999 -10.34646,0.1469 -8.61597,0.95985 -17.25997,1.48914 -25.88497,1.29414 -5.18457,-0.44016 -10.34958,0.35742 -15.52219,-1.11089 -3.69926,0.2514 -7.39591,0.48947 -11.01914,-0.9908 -2.48108,-0.33403 -5.50653,2.0266 -7.69013,-0.72059 -0.48517,-2.24138 -0.3358,-5.64102 1.10964,-4.83388 5.60221,-2.32503 11.3465,-0.0422 17.00582,-1.01714 11.24228,2.34739 22.55671,1.61587 33.83118,1.45897 4.7196,-0.10558 9.37785,-2.44413 14.10342,-1.94304 z"
       id="path3904-1-0"
       inkscape:connector-curvature="0" />
    <path
       style="fill:#ffffff;fill-opacity:1"
       d="m 338.39512,243.53335 c -1.34538,0.34622 -3.92623,-0.25938 -4.67233,1.44116 1.61672,1.13157 0.20099,5.66077 0.28606,6.24501 3.53881,-1.10183 7.08931,-1.29871 10.63695,0.17594 9.10059,0.96057 18.23072,1.49016 27.34085,1.29524 5.47228,-0.44898 10.93082,0.37484 16.38711,-1.1109 3.90536,0.25144 7.80799,0.48947 11.63305,-0.99079 2.62704,-0.29136 5.76446,1.95614 8.10506,-0.66054 0.56707,-2.32496 0.32931,-5.72739 -1.18511,-4.8639 -5.75576,-2.4324 -11.67177,0.002 -17.49051,-1.08084 -12.01501,2.31967 -24.103,1.69047 -36.15192,1.49267 -4.98356,-0.0773 -9.89965,-2.45643 -14.88921,-1.94305 z"
       id="path3904-1-9"
       inkscape:connector-curvature="0" />
    <path
       style="fill:#ffffff;fill-opacity:1"
       d="m 405.11054,256.32363 c 1.46316,0.28235 3.95024,-0.15517 4.91674,1.35107 -1.29858,1.2683 -0.94464,4.6816 -0.0708,6.36512 -3.63907,-0.81919 -7.2744,-1.6091 -10.91338,0.06 -9.64641,1.12412 -19.32856,1.49676 -28.98862,1.41116 -5.83554,-0.46486 -11.65757,0.26138 -17.47846,-1.17095 -4.01997,0.50788 -8.01029,0.26299 -11.95067,-0.96078 -2.66608,-0.22308 -5.87248,1.9131 -8.24189,-0.66054 -0.59783,-2.33147 -0.33257,-5.68913 1.23627,-4.86389 6.00244,-2.41337 12.17643,-0.002 18.24583,-1.08086 12.53317,2.3285 25.14399,1.68473 37.71302,1.49269 5.19876,-0.0773 10.32715,-2.45645 15.5322,-1.94305 z"
       id="path3904-1-48"
       inkscape:connector-curvature="0" />
    <path
       style="fill:#ffffff;fill-opacity:1"
       d="m 334.35844,269.11389 c -1.64514,0.27687 -4.13748,-0.1351 -5.33182,1.32106 1.44254,1.23568 1.04911,4.70836 0.10727,6.39514 3.9239,-0.82183 7.88821,-1.61985 11.782,0.0901 10.56109,1.03053 21.15709,1.57379 31.72968,1.33506 6.13818,-0.34347 12.26257,0.23854 18.38603,-1.12487 4.32569,0.53401 8.61452,0.2488 12.85448,-0.96078 2.87454,-0.22306 6.33167,1.9131 8.88635,-0.66052 0.64451,-2.33152 0.3585,-5.68913 -1.33299,-4.86391 -6.47152,-2.4159 -13.12936,0.004 -19.67242,-1.08088 -13.35022,2.31569 -26.78296,1.66718 -40.17195,1.52699 -5.77296,-0.009 -11.46092,-2.4659 -17.23665,-1.97735 z"
       id="path3904-1-8"
       inkscape:connector-curvature="0" />
    <path
       style="fill:#ffffff;fill-opacity:1"
       d="m 409.62055,281.90416 c 1.72432,0.31519 4.36785,-0.16006 5.62085,1.32106 -1.51638,1.23569 -1.10281,4.70835 -0.11284,6.39514 -4.12229,-0.82488 -8.29341,-1.62702 -12.38513,0.0899 -11.10103,1.04672 -22.24025,1.57213 -33.35395,1.33504 -6.45174,-0.32972 -12.89099,0.23323 -19.32724,-1.12488 -4.5552,0.53501 -9.06375,0.24551 -13.51251,-0.96077 -3.03972,-0.13188 -6.50108,1.72651 -9.29288,-0.51041 -0.72998,-2.28116 -0.48368,-5.90136 1.35283,-5.01402 6.80944,-2.43838 13.80037,0.0346 20.67948,-1.08087 14.03364,2.31179 28.15417,1.67565 42.22841,1.52696 6.06318,-0.007 12.03697,-2.46323 18.10291,-1.97733 z"
       id="path3904-1-2"
       inkscape:connector-curvature="0" />
    <path
       style="fill:#ffffff;fill-opacity:1"
       d="m 330.61691,294.69443 c -1.81761,0.31056 -4.57117,-0.15651 -5.89456,1.32107 1.59021,1.23568 1.1565,4.70835 0.11839,6.39512 4.33397,-0.85823 8.70784,-1.59582 12.98825,0.0899 11.64213,1.03762 23.32301,1.59322 34.97847,1.34269 6.60722,-0.41125 13.20563,0.33038 19.79526,-1.10251 4.82577,0.26754 9.66064,0.46928 14.39023,-0.99081 3.27628,-0.3132 7.14211,2.01704 10.0663,-0.72054 0.6911,-2.32673 0.36679,-5.64032 -1.48631,-4.80388 -7.14129,-2.43542 -14.47218,0.0307 -21.68654,-1.08087 -14.71707,2.32146 -29.52494,1.67415 -44.28487,1.52696 -6.35866,-0.007 -12.62352,-2.46169 -18.98447,-1.97733 z"
       id="path3904-1-45"
       inkscape:connector-curvature="0" />
    <path
       style="fill:#ffffff;fill-opacity:1"
       d="m 184.70987,229.32601 c -34.66395,-0.90437 -71.48227,8.52002 -105.435582,-2.51526 -15.79463,0.55911 -45.73259,8.0696 -43.0429,-4.7483 -4.81961,-14.44924 15.5745,-9.96956 21.36002,-7.83664 19.97849,-3.17425 42.17499,-1.54963 64.005982,1.82158 39.8528,-5.85016 78.76035,-0.91637 117.79018,-6.79513 22.39431,-3.70562 44.67429,6.25667 67.42388,4.89055 8.07296,-8.60132 17.14347,-4.12838 25.9455,0.61183 2.55506,23.78764 -13.42243,10.4029 -21.75567,14.8939 -10.4429,2.01063 -15.15797,-3.37699 -25.27006,-2.12549 -15.4289,5.30724 -31.7399,-1.23367 -47.54491,0.91673 -5.31546,-1.06904 -13.53777,1.56614 -3.51304,0.20731 -3.17045,1.38117 -24.28236,-0.0448 -24.54178,-1.00006 -8.33485,-1.18558 -6.56535,0.94083 -13.51556,0.97409 -3.96526,-0.009 -7.96133,0.96761 -11.90606,0.70489 z"
       id="path3916"
       inkscape:connector-curvature="0"
       sodipodi:nodetypes="ccccccccccccccc" />
    <path
       style="fill:#ffffff;fill-opacity:1"
       d="m 135.84073,294.94708 c -39.169612,-2.54441 -75.230042,1.16878 -117.570232,-2.94829 -18.00697985,-6.41256 -10.3765298,-25.22342 5.32053,-18.6977 17.19343,5.80589 35.92678,-5.33457 53.94432,-2.73597 55.804612,12.02546 108.683382,3.30598 169.889472,3.43413 22.38643,1.30311 44.69732,-0.7975 67.55667,5.58177 6.45613,7.04851 -13.51781,5.72052 -3.71873,11.23514 -10.75915,9.2608 -27.3661,-3.52846 -40.80091,0.89236 -23.13773,8.36466 -48.46873,-0.13442 -72.3471,1.55185 -20.7562,1.77245 -41.42175,2.62057 -62.27402,1.68671 z"
       id="path3906"
       inkscape:connector-curvature="0"
       sodipodi:nodetypes="cccccccccc" />
    <path
       style="fill:#ffffff;fill-opacity:1"
       d="m 161.21806,264.2343 c -44.58587,-3.30061 -122.781492,2.49315 -133.773902,-9.85531 0.44041,-7.55135 -15.55286,-12.89217 7.19267,-13.7484 42.02102,-3.15855 89.173952,6.78112 131.369592,6.6419 42.18107,2.3433 89.363,3.37382 130.15922,-4.40612 28.03767,1.2643 31.19591,8.14856 25.1754,18.97187 -49.26931,10.39452 -109.15927,3.96414 -160.12298,2.39606 z"
       id="path3904-17"
       inkscape:connector-curvature="0"
       sodipodi:nodetypes="ccccccc" />
    <path
       style="fill:#ffffff;fill-opacity:1"
       d="m 217.99826,200.6753 c 37.21855,-2.54442 71.4828,1.16879 111.71399,-2.94829 17.11005,-6.41256 9.85968,-25.22344 -5.0555,-18.6977 -16.33701,5.80589 -34.13721,-5.33458 -51.2573,-2.73597 -53.02497,12.02547 -103.2698,3.30598 -161.42714,3.43411 -21.271342,1.30315 -42.470942,-0.79748 -64.191642,5.5818 -6.13454,7.04852 12.84449,5.7205 3.53351,11.23513 10.22322,9.26081 26.00298,-3.52847 38.76858,0.89236 21.985252,8.36466 46.054442,-0.13442 68.743452,1.55187 19.72229,1.77244 39.35846,2.62055 59.17205,1.68669 z"
       id="path3906-8"
       inkscape:connector-curvature="0"
       sodipodi:nodetypes="cccccccccc" />
    <path
       style="fill:#ffffff;fill-opacity:1"
       d="m 558.65655,231.06935 c 34.66396,-0.90435 71.48228,8.52004 105.43558,-2.51525 15.79464,0.5591 45.73259,8.0696 43.04294,-4.7483 4.81958,-14.44925 -15.57454,-9.96955 -21.36005,-7.83663 -19.9785,-3.17425 -42.17498,-1.54965 -64.00598,1.82157 -39.85279,-5.85017 -78.76034,-0.91638 -117.79018,-6.79514 -22.3943,-3.70562 -44.67429,6.25667 -67.42388,4.89055 -8.07296,-8.6013 -17.14347,-4.12837 -25.94549,0.61183 -2.55507,23.78765 13.42242,10.40292 21.75566,14.8939 10.4429,2.01065 15.15797,-3.37698 25.27007,-2.12548 15.42888,5.30724 31.73989,-1.23367 47.54489,0.91672 5.31548,-1.06904 13.53778,1.56616 3.51305,0.20732 3.17045,1.38117 24.28236,-0.0448 24.54178,-1.00005 8.33485,-1.18559 6.56534,0.94082 13.51556,0.97408 3.96526,-0.009 7.96132,0.9676 11.90605,0.70488 z"
       id="path3916-5"
       inkscape:connector-curvature="0"
       sodipodi:nodetypes="ccccccccccccccc" />
    <path
       style="fill:#ffffff;fill-opacity:1"
       d="m 607.5257,296.69044 c 39.1696,-2.54442 75.23003,1.16877 117.57021,-2.9483 18.007,-6.41256 10.37655,-25.22343 -5.3205,-18.6977 -17.19341,5.80589 -35.92678,-5.33458 -53.94432,-2.73597 -55.80462,12.02545 -108.6834,3.30598 -169.88948,3.43413 -22.38643,1.3031 -44.69732,-0.79749 -67.55667,5.58177 -6.45613,7.04852 13.5178,5.72051 3.71874,11.23513 10.75913,9.26081 27.36609,-3.52845 40.80091,0.89237 23.13772,8.36466 48.46872,-0.13442 72.34709,1.55185 20.7562,1.77244 41.42175,2.62058 62.27402,1.68672 z"
       id="path3906-7"
       inkscape:connector-curvature="0"
       sodipodi:nodetypes="cccccccccc" />
    <path
       style="fill:#ffffff;fill-opacity:1"
       d="m 582.14837,265.97765 c 44.58586,-3.30061 122.7815,2.49314 133.7739,-9.8553 -0.44041,-7.55136 15.55288,-12.89218 -7.19266,-13.74841 -42.02104,-3.15855 -89.17395,6.78112 -131.36959,6.64189 -42.18107,2.34331 -89.36301,3.37383 -130.15923,-4.40612 -28.03767,1.2643 -31.19592,8.14857 -25.1754,18.97187 49.2693,10.39453 109.15927,3.96414 160.12298,2.39607 z"
       id="path3904-17-6"
       inkscape:connector-curvature="0"
       sodipodi:nodetypes="ccccccc" />
    <path
       style="fill:#ffffff;fill-opacity:1"
       d="m 525.36817,202.41866 c -37.21855,-2.54443 -71.4828,1.16878 -111.71399,-2.94831 -17.11005,-6.41256 -9.85969,-25.22344 5.0555,-18.69769 16.33701,5.80589 34.13721,-5.33458 51.2573,-2.73597 53.02497,12.02547 103.2698,3.30597 161.42714,3.43411 21.27135,1.30314 42.47094,-0.79749 64.19165,5.5818 6.13454,7.04851 -12.8445,5.72049 -3.53353,11.23512 -10.22323,9.26082 -26.00295,-3.52845 -38.76857,0.89237 -21.98525,8.36466 -46.05444,-0.13443 -68.74345,1.55187 -19.72229,1.77244 -39.35846,2.62055 -59.17205,1.6867 z"
       id="path3906-8-1"
       inkscape:connector-curvature="0"
       sodipodi:nodetypes="cccccccccc" />
  </g>
</svg>
