<?xml version="1.0" encoding="UTF-8" standalone="no"?>
<svg
   xmlns:dc="http://purl.org/dc/elements/1.1/"
   xmlns:cc="http://creativecommons.org/ns#"
   xmlns:rdf="http://www.w3.org/1999/02/22-rdf-syntax-ns#"
   xmlns:svg="http://www.w3.org/2000/svg"
   xmlns="http://www.w3.org/2000/svg"
   viewBox="0 0 453.60001 179.4375"
   height="179.4375"
   width="453.60001"
   xml:space="preserve"
   version="1.1"
   id="svg2"><metadata
     id="metadata8"><rdf:RDF><cc:Work
         rdf:about=""><dc:format>image/svg+xml</dc:format><dc:type
           rdf:resource="http://purl.org/dc/dcmitype/StillImage" /></cc:Work></rdf:RDF></metadata><defs
     id="defs6"><clipPath
       id="clipPath18"
       clipPathUnits="userSpaceOnUse"><path
         id="path20"
         d="M 0,1435.54 0,0 l 3628.84,0 0,1435.54" /></clipPath></defs><g
     transform="matrix(1.25,0,0,-1.25,0,179.4375)"
     id="g10"><g
       transform="scale(0.1,0.1)"
       id="g12"><g
         id="g14"><g
           clip-path="url(#clipPath18)"
           id="g16"><path
             id="path22"
             style="fill:#0b2b4d;fill-opacity:1;fill-rule:evenodd;stroke:none"
             d="m 1261.59,1435.54 0,-271.28 -2.12,0 c -11.94,16.94 -28.91,29.65 -50.92,38.12 -22.01,8.47 -47.47,12.71 -76.38,12.71 -41.59,-0.16 -80.03,-11.02 -115.29,-32.6 -35.278,-21.58 -63.661,-52.93 -85.157,-94.06 -21.493,-41.12 -32.371,-91.094 -32.641,-149.907 1.68,-82.589 23.48,-147.671 65.41,-195.25 41.938,-47.578 93.938,-71.855 156.018,-72.82 30.4,-0.246 59.75,6.063 88.03,18.926 28.29,12.859 51.27,33.73 68.94,62.609 l 2.11,0 7.42,-69.875 170.53,0 c -1.1,18.086 -2.07,41.727 -2.91,70.942 -0.84,29.207 -1.28,60.281 -1.32,93.211 l 0,589.274 -191.72,0 z m 0,-516.102 c 0.07,-6.364 -0.07,-12.461 -0.4,-18.293 -0.33,-5.836 -1.26,-11.403 -2.78,-16.704 -3.43,-17.921 -11.69,-32.714 -24.8,-44.406 -13.1,-11.683 -29.59,-17.738 -49.46,-18.164 -26.54,0.051 -48.24,10.301 -65.11,30.758 -16.86,20.453 -25.56,50.855 -26.12,91.195 -0.13,34.903 7.3,64.246 22.28,88.016 14.99,23.77 38.32,36.14 70.02,37.12 20.3,-0.47 36.97,-6.96 49.98,-19.49 13.02,-12.52 21.46,-28.3 25.33,-47.32 0.51,-3.798 0.82,-7.865 0.93,-12.197 0.11,-4.324 0.15,-8.394 0.13,-12.191 l 0,-58.324" /><path
             id="path24"
             style="fill:#0b2b4d;fill-opacity:1;fill-rule:evenodd;stroke:none"
             d="m 1570.53,472.258 191.71,0 0,247.953 2.13,0 c 9.81,-13.656 25.45,-25.258 46.93,-34.809 21.48,-9.55 47.21,-14.531 77.19,-14.949 38.61,-0.098 75.93,9.852 111.91,29.844 36,19.992 65.68,50.586 89.08,91.765 23.38,41.184 35.49,93.516 36.33,156.997 -0.64,56.701 -11.13,104.821 -31.46,144.371 -20.34,39.56 -46.68,69.69 -79.03,90.39 -32.34,20.7 -66.83,31.13 -103.51,31.27 -36.18,-0.02 -68.58,-6.6 -97.19,-19.73 -28.61,-13.12 -52.78,-32.67 -72.5,-58.63 l -2.12,0 -8.47,66.7 -165.25,0 c 1.11,-24.38 2.08,-51.41 2.92,-81.08 0.84,-29.68 1.28,-62.01 1.33,-96.98 l 0,-553.112 z m 191.71,502.324 c -0.04,4.262 0.05,8.461 0.26,12.594 0.23,4.129 0.85,8.062 1.87,11.797 3.62,19.017 12.54,34.797 26.78,47.317 14.23,12.53 31.12,19.03 50.66,19.49 30.21,-0.62 52.79,-12.37 67.75,-35.26 14.96,-22.89 22.44,-53.2 22.4,-90.934 -0.25,-38.109 -8.47,-68.203 -24.65,-90.266 -16.19,-22.07 -38.73,-33.336 -67.63,-33.8 -19.34,0.484 -35.56,6.671 -48.66,18.554 -13.11,11.887 -21.64,26.559 -25.6,44.008 -2.11,9.547 -3.18,20.148 -3.18,31.813 l 0,64.687" /><path
             id="path26"
             style="fill:#0b2b4d;fill-opacity:1;fill-rule:nonzero;stroke:none"
             d="m 2188.97,708.566 c 20.96,-10.808 46.84,-19.628 77.6,-26.472 30.76,-6.836 64.55,-10.364 101.41,-10.586 80.45,1.062 140.33,17.734 179.67,50.039 39.33,32.293 58.94,73.875 58.81,124.726 0,37.137 -11.12,69.168 -33.36,96.098 -22.25,26.922 -58.79,48.617 -109.63,65.079 -30.2,9.74 -50.98,18.09 -62.35,25.05 -11.36,6.96 -16.75,14.52 -16.19,22.66 0.12,10.52 4.67,18.12 13.69,22.8 9.01,4.68 21.8,6.99 38.36,6.9 21.84,-0.47 43.32,-3.78 64.49,-9.95 21.16,-6.16 38.15,-12.39 50.96,-18.68 l 30.72,129.21 c -17.3,7.72 -39.37,14.51 -66.19,20.38 -26.83,5.87 -56.33,8.96 -88.45,9.27 -69.75,-0.97 -124.79,-17.83 -165.1,-50.57 -40.31,-32.74 -60.88,-75.56 -61.72,-128.44 -1.27,-30.82 9.75,-60.373 33.11,-88.674 23.33,-28.297 63.49,-51.758 120.46,-70.383 27.45,-8.55 45.8,-15.839 55.08,-21.871 9.26,-6.027 13.56,-13.582 12.87,-22.664 0.2,-10.004 -4.18,-17.3 -13.14,-21.871 -8.97,-4.57 -23.71,-6.824 -44.2,-6.758 -24.55,0.508 -50.66,4.797 -78.38,12.852 -27.71,8.066 -49.61,16.859 -65.68,26.383 l -32.84,-134.528" /><path
             id="path28"
             style="fill:#0b2b4d;fill-opacity:1;fill-rule:evenodd;stroke:none"
             d="m 3208.99,1043.39 c 0.04,40.78 0.49,73.68 1.33,98.7 0.84,25.01 1.8,45.46 2.91,61.34 l -164.18,0 -6.34,-56.11 -2.13,0 c -13.7,21.81 -31.62,38.53 -53.81,50.16 -22.19,11.63 -49.14,17.49 -80.88,17.61 -66.88,-1.12 -122.54,-26.15 -167.01,-75.08 -44.48,-48.92 -67.56,-115.03 -69.26,-198.307 1.19,-76.871 21.84,-138.023 61.97,-183.465 40.12,-45.433 92.56,-68.695 157.33,-69.769 26.19,-0.02 50.45,4.785 72.79,14.426 22.34,9.636 41.58,24.242 57.69,43.808 l 2.11,0 0,-23.293 c -0.8,-40.164 -12.46,-69.863 -35,-89.101 -22.54,-19.227 -51.19,-28.77 -85.93,-28.641 -30.26,0.457 -58.79,4.578 -85.59,12.344 -26.78,7.761 -48.42,16.386 -64.88,25.867 l -36,-144.102 c 24.88,-12.754 54.28,-22.461 88.19,-29.121 33.9,-6.66 69.14,-10.019 105.7,-10.058 40.72,-0.489 79.96,3.925 117.71,13.234 37.76,9.305 71.66,26.426 101.72,51.356 31.21,28.117 52.74,62.46 64.61,103.066 11.88,40.598 17.52,83.965 16.95,130.098 l 0,285.038 z M 3018.33,918.371 c 0.08,-6.074 -0.06,-12.742 -0.39,-20.016 -0.33,-7.265 -1.27,-13.675 -2.79,-19.218 -3.38,-14.692 -10.94,-26.926 -22.68,-36.719 -11.74,-9.785 -26.44,-14.867 -44.16,-15.242 -26.74,0.664 -47.5,11.797 -62.32,33.402 -14.81,21.606 -22.33,49.707 -22.54,84.309 0.68,41.488 9.14,73.033 25.33,94.643 16.19,21.61 36.05,32.47 59.53,32.61 17.62,-0.09 32.25,-5.22 43.91,-15.38 11.64,-10.16 19.65,-24.83 24,-44.01 0.55,-3.73 1.04,-7.66 1.45,-11.79 0.43,-4.136 0.64,-8.335 0.66,-12.597 l 0,-69.992" /><path
             id="path30"
             style="fill:#0b2b4d;fill-opacity:1;fill-rule:evenodd;stroke:none"
             d="m 397.164,1335.06 c 5.445,0 60.152,1.51 82.594,-14.07 22.195,-15.42 6.351,-76.17 3.797,-78.76 -7.45,-7.57 156.84,-3 160.019,-3.46 3.18,-0.45 70.903,-71.2 63.688,-74.41 -27.739,-12.32 -222.145,-19.58 -227.141,-22.3 -4.992,-2.73 -14.656,-113.91 -14.656,-121.33 0,-6.77 142.738,102.92 215.437,106.23 49.727,2.26 68.883,-48.74 72.813,-63 4.387,-15.92 17.031,-58.02 12.43,-123.948 -2.157,-30.922 -23.106,-152.399 -87.614,-205.235 -16.777,-13.746 -52.64,-30.41 -79.469,-14.527 -22.976,13.605 -122.378,93.543 -119.304,93.879 17.269,1.844 45.847,-8.649 59.379,0.562 20.492,13.946 22.011,103.594 24.976,134.403 0.489,5.156 -68.101,-17.262 -80.359,-25.887 -12.258,-8.625 -28.039,-25.832 -32.168,-41.25 -4.348,-16.281 3.523,-40.695 -3.481,-40.695 l -101.882,0 c -7.008,0 0.859,24.414 -3.489,40.695 -4.117,15.418 -19.898,32.625 -32.152,41.25 -12.262,8.625 -80.859,31.043 -80.363,25.887 2.976,-30.809 4.48,-120.457 24.961,-134.403 13.55,-9.211 42.129,1.282 59.39,-0.562 3.086,-0.336 -96.328,-80.274 -119.312,-93.879 -26.805,-15.883 -62.672,0.781 -79.453,14.527 -64.5003,52.836 -85.4612,174.313 -87.6253,205.235 -4.5938,65.928 4.2187,98.098 12.1641,123.948 4.3867,14.31 23.3515,65.26 73.0742,63 72.715,-3.31 215.441,-113 215.441,-106.23 0,7.42 -9.648,118.6 -14.644,121.33 -4.992,2.72 -199.41,9.98 -227.1486,22.3 -7.2226,3.21 60.5196,73.96 63.6996,74.41 3.179,0.46 167.461,-4.11 160.015,3.46 -2.547,2.59 -18.398,63.34 3.789,78.76 22.438,15.58 77.145,14.07 82.594,14.07" /><path
             id="path32"
             style="fill:#0b2b4d;fill-opacity:1;fill-rule:evenodd;stroke:none"
             d="m 397.164,821.102 c 0,0 -5.949,0.175 47.07,0.183 9.903,0.02 114.637,-157.629 123.676,-169.699 3.852,-5.117 -27.992,-17.004 -37.656,-16.574 -17.496,0.8 -63.75,45.676 -69.305,51.23 -5.558,5.567 8.496,-66.804 4.516,-71.562 -3.957,-4.774 -68.301,-8.282 -68.301,-8.282 0,0 -64.32,3.508 -68.305,8.282 -3.972,4.758 10.082,77.129 4.52,71.562 -5.555,-5.554 -51.82,-50.43 -69.301,-51.23 -9.652,-0.43 -41.508,11.457 -37.668,16.574 9.039,12.07 113.641,169.871 123.543,169.699 47.211,0 47.211,-0.183 47.211,-0.183" /><path
             id="path34"
             style="fill:#b62234;fill-opacity:1;fill-rule:nonzero;stroke:none"
             d="m 3628.84,348.84 c -67.19,-34.11 -142.95,-39.961 -202.54,-28.711 -20.8,41.973 -73.65,4.781 -111.66,6.641 -68.26,-21.719 -133.4,-9.821 -199.1,-40.02 -29.71,18.551 -64.05,-0.449 -96.51,0.73 -56.83,28.61 -118.39,-41.55 -169.68,-13.609 -77.04,-19.32 -152.56,-34.711 -227.95,-24.289 -10.88,-8.211 -15.34,-19.934 -13.38,-35.133 -31.99,-17.918 -61.7,0.621 -93.3,-1.019 4.08,-4.571 0.25,-9.559 1.11,-12.379 -23.71,-1.231 -49.36,12.73 -70.23,-6.531 l -14.09,-6.469 1.72,-5.653 c -10.62,-17.777 -31.97,-17.918 -46.52,-5.277 -5.33,-8.891 7.97,-34.98 -11.66,-40.781 -28.46,31.992 -56.6,19.051 -77.17,51.449 l 2.97,7.82 -18.77,-8.64 c 2.58,-8.469 -2.73,-17.34 -5.7,-25.168 -22.85,-4.051 -46.78,4.269 -68.13,4.121 -11.09,1.328 -1.09,12.379 -10.7,17.617 l -4.69,-2.168 c -5.08,-18.422 37.83,-27.68 5,-42.769 -30.33,11.808 -19.94,39.128 -53.63,26.859 -3.22,1.738 -17.93,-11.461 -27.77,3.34 -4.07,4.578 -2.58,8.461 -1.1,12.379 -15.56,-10.371 -41.37,-22.25 -49.96,6.011 l -6.03,19.778 c -2.33,-1.078 -5.55,0.66 -8.75,2.41 -0.4,-16.289 6.48,-38.891 -8.23,-52.09 -21.35,-0.141 -38.24,11.41 -50.43,25.121 -10.88,-8.219 11.82,-29.988 -4.61,-37.551 -24.55,1.59 -3.04,27.582 -19.08,36.321 -24.55,1.582 -63.03,22.55 -71.46,-19.981 -18.4,7.66 -24.96,-14.687 -35.84,-22.898 3.69,-20.86 16.89,-11.571 26.75,-26.352 l -8.92,-23.4373 c -40.49,71.5703 -117.38,-18.5312 -141.7,70.1173 -19.62,-5.797 1.18,-47.758 -29.8,-42.668 -4.92,7.391 -19.46,20.019 -31.82,7.898 l -11.73,-5.39 c 1.73,-5.649 4.31,-14.117 9.85,-14.789 -2.12,-10.6409 -13.22,-9.2894 -20.25,-12.5316 -24,43.7226 -74.29,-1.9492 -108.93,23.9806 -24.62,36.992 6.89,74.031 -41.35,74.383 -18.14,-1.891 -23.24,-20.332 -29.17,-35.953 -26.12,33.082 -41.6,-12.688 -63.36,-29.129 l 1.73,-5.649 c -5.32,-8.883 -22.84,-4.051 -35.43,-6.609 -9.22,21.508 -18.84,26.758 -38.23,11.387 3.2,-1.739 -0.63,-6.719 0.23,-9.547 -41.22,3.609 -85.47,34.777 -130.44,-2 -9,11.957 -26.04,-2.313 -30.57,21.367 4.46,11.723 20.25,12.543 29.64,16.84 l -14.63,48.031 c -9.38,-4.32 -14.3,3.102 -23.06,5.488 -2.57,8.481 5.09,18.453 -6.01,19.782 l -11.73,-5.391 c 4.05,-4.59 -1.26,-13.449 -6.81,-12.789 -7.67,-9.969 -19.63,-5.801 -25.41,4.41 l 5.94,15.621 c -3.21,1.75 -13.45,0.25 -13.68,9.801 -2.36,-1.063 -9.39,-4.301 -10.01,-11.031 4.92,-7.391 23.3,-15.063 9.45,-31.09 -27.98,12.898 -55.75,16.25 -79.28,40.847 -25.81,-11.867 -66.857,17.571 -78.752,-13.66 l 4.305,-14.117 27.516,6.211 c 14.539,-12.633 20.181,-48.703 3.746,-56.242 -7.032,-3.238 -12.356,-12.141 -20.489,-2.988 -6.882,22.597 -38.004,1.847 -57.004,2.789 -24.16,17.859 -60.605,-11.77 -89.468,3.949 l 24.023,52.898 C 849.32,211 816.633,221.73 826.406,242.32 l 2.981,7.821 c -4.934,7.39 -12.594,-2.571 -18.141,-1.903 l 3.445,-11.308 c -44.589,-20.5 -69.914,45.16 -120.043,25.32 1.715,-5.641 8.372,-18.691 -1.015,-22.988 l -14.078,-6.492 -13.524,35.66 c -16.578,-33.379 -43.551,2.519 -65.058,-23.469 -26.743,26.348 -46.379,20.551 -80.782,36.918 l 2.973,7.82 c -45.035,-1.398 -88.211,17.41 -137.07,11.031 -42.149,41.821 -111.903,16.192 -149.356,60.161 -28.773,-19.672 -45.273,8.16 -73.668,4.781 C 125.461,383.801 78.0664,381.34 43.2734,381.43 19.9609,299.871 11.3477,231.512 0,145.789 13.4531,145.539 -0.390625,129.512 1.32812,123.852 10.7148,128.172 18.2148,112.289 23.7695,111.621 131.836,90.4688 225.824,62.832 337.25,65.7617 390.039,41.7188 448.762,33.2891 507.023,43.9688 c -1.718,5.6523 -0.23,9.5507 1.258,13.4609 7.031,3.2422 17.278,4.7305 24.555,-1.5977 8.121,-9.1328 -8.918,-23.4101 7.73,-25.4218 5.325,8.8906 3.372,24.1015 16.821,23.8398 14.547,-12.6406 23.14,-40.8906 49.578,-22.3008 5.547,-0.668 8.129,-9.1484 8.988,-11.9609 25.727,47.2422 55.75,-16.25002 61.703,-0.6289 -3.211,1.75 -11.109,1.3398 -11.336,10.8789 15.321,19.9414 39.246,11.6211 58.262,10.6914 16.25,-18.2891 46.133,-10.9883 66.219,-24.2813 10.406,27.3204 41.222,-3.6093 49.273,22.6407 8.524,7.1328 16.414,7.5429 23.696,1.2421 -2.973,-7.8203 0.699,-28.6718 12.433,-23.2812 26.82,34.8711 66.688,-43.3984 66.313,36.9414 11.566,-20.4531 36.285,3.8086 48.714,-19.4805 30.43,49.418 53.95,-71.8007 62.95,12.8399 16.43,7.5586 22.45,-12.2188 30.58,-21.3594 l -2.98,-7.8203 c 4.07,-4.5508 11.11,-1.3203 15.8,0.8281 -7.26,6.3203 0.4,16.2813 1.02,23.0117 26.52,-16.8007 45.98,-36.82028 79.06,-31.2812 40.97,5.9609 72.41,-18.23829 114.63,1.1797 6.42,-3.50002 9,-11.968775 15.17,-5.89846 l -3.04,27.57026 c 18.14,1.9102 37.77,7.6993 57.63,3.9571 l 7.74,-25.418 c 23.3,-15.05858 46.22,50.2188 57.01,-2.78905 19.63,5.80855 37.54,17.26955 56.77,6.78905 l 6.57,22.3281 c 29.55,-44.36715 72.64,-27.7773 115.35,-27.4687 44.1,39.6015 102.67,5.3398 141.85,52.332 8.75,-2.4101 9.84,-14.7929 12.43,-23.2734 -14.08,-6.4571 16.26,-18.2774 20.56,-32.39846 l 25.41,-4.41796 c 2.28,36.45702 37.55,17.25002 50.93,52.37892 13.22,9.3086 26.66,9.039 41.84,3.1406 -5.73,-25.1719 -18.54,-18.1797 -34.11,-28.5703 26.2,-68.4609 80.86,24.3008 121.06,-2.3008 23.16,55.7305 50.04,-41.3984 72.32,17.1485 28.79,19.6718 17.37,-30.6602 45.28,-8.168 28.47,-31.99221 80.17,52.9609 103.77,-7.0313 23,29.8907 66.79,17.8125 88.77,24.6914 -5.16,16.9493 -29.89,-7.289 -28.23,22.461 6.8,12.789 22.6,13.5976 32.62,24.6481 16.02,-8.7497 -0.8,-32.5583 23.75,-34.1716 l -2.97,-7.7968 c 10.02,11.0468 14.32,-3.0821 23.07,-5.5118 36.52,-5.7382 87.52,11.25 123.81,15.0586 53.86,60.2106 67.3,-36.6679 120.56,16.793 44.42,-5.3398 90.47,19.0586 134.91,13.7188 3.98,30.8198 32.2,8.3788 40.11,8.7808 74.92,8.68 151.7,37.547 225.76,49.039 l 9.01,-11.968 c 17.89,11.457 30.88,30.297 52.85,37.187 41.99,-67.648 60.53,47.16 104.39,-0.32 143.58,46.691 284.42,76.031 430.75,140.07 12.81,-6.988 50.58,0.723 42.85,26.141" /><path
             id="path36"
             style="fill:#b62234;fill-opacity:1;fill-rule:nonzero;stroke:none"
             d="m 1701.39,6.46875 c -2.58,8.48045 -10.09,24.35155 -20.1,13.30075 L 1687.31,0 l 14.08,6.46875" /><path
             id="path38"
             style="fill:#b62234;fill-opacity:1;fill-rule:nonzero;stroke:none"
             d="m 1731.76,187.879 c -7.05,-3.238 2.82,-18.027 3.04,-27.578 40.58,-10.332 -2.58,8.48 -3.04,27.578" /><path
             id="path40"
             style="fill:#b62234;fill-opacity:1;fill-rule:nonzero;stroke:none"
             d="m 1612.49,149.172 c -7.9,-0.41 -22.44,12.207 -25.18,-5.152 3.21,-1.75 27.37,-19.61 25.18,5.152" /><path
             id="path42"
             style="fill:#b62234;fill-opacity:1;fill-rule:nonzero;stroke:none"
             d="m 1352.18,187.281 -9.39,-4.312 16.74,-37.41 c 2.74,17.371 -3.68,20.863 -7.35,41.722" /><path
             id="path44"
             style="fill:#b62234;fill-opacity:1;fill-rule:nonzero;stroke:none"
             d="m 1310.97,190.879 c -10.71,17.609 -28.85,15.711 -44.03,21.621 -10.01,-11.039 -18.14,-1.898 -28.38,-3.391 -3.83,-4.98 -3.6,-14.527 -9.15,-13.871 29.01,10.121 61.15,-42.738 81.56,-4.359" /><path
             id="path46"
             style="fill:#b62234;fill-opacity:1;fill-rule:nonzero;stroke:none"
             d="m 894.801,231.398 c -1.719,5.653 -0.465,19.114 -10.707,17.633 0.234,-9.562 3.039,-27.582 -15.106,-29.492 7.278,-6.309 36.75,-15.301 25.813,11.859" /></g></g></g></g></svg>