<?xml version="1.0" encoding="UTF-8" standalone="no"?>
<svg
   xmlns:dc="http://purl.org/dc/elements/1.1/"
   xmlns:cc="http://creativecommons.org/ns#"
   xmlns:rdf="http://www.w3.org/1999/02/22-rdf-syntax-ns#"
   xmlns:svg="http://www.w3.org/2000/svg"
   xmlns="http://www.w3.org/2000/svg"
   viewBox="0 0 531.5 531.5"
   height="531.5"
   width="531.5"
   xml:space="preserve"
   version="1.1"
   id="svg2"><metadata
     id="metadata8"><rdf:RDF><cc:Work
         rdf:about=""><dc:format>image/svg+xml</dc:format><dc:type
           rdf:resource="http://purl.org/dc/dcmitype/StillImage" /></cc:Work></rdf:RDF></metadata><defs
     id="defs6"><clipPath
       id="clipPath18"
       clipPathUnits="userSpaceOnUse"><path
         id="path20"
         d="M 0,4251.97 0,0 l 4251.97,0 0,4251.97 -4251.97,0 z" /></clipPath></defs><g
     transform="matrix(1.25,0,0,-1.25,0,531.5)"
     id="g10"><g
       transform="scale(0.1,0.1)"
       id="g12"><g
         id="g14"><g
           clip-path="url(#clipPath18)"
           id="g16"><path
             id="path22"
             style="fill:#00a650;fill-opacity:1;fill-rule:nonzero;stroke:none"
             d="m 3244.49,2490.62 0,-37.44 c -19.67,-69.47 -33.05,-186.18 -89.84,-228.35 -21.82,-16.21 -53.96,-19.25 -74.86,-37.44 -28.12,-24.45 -34.91,-66.14 -56.16,-97.33 -33.84,-49.7 -79.23,-75.56 -131.01,-97.33 -100.24,61.49 93.21,170.67 93.58,220.87 0.26,35.05 -40.09,41.74 -48.66,78.61 26.42,60.57 14.34,148.59 48.66,209.64 56.71,100.83 232.56,113.26 258.29,-11.23" /><path
             id="path24"
             style="fill:#00a650;fill-opacity:1;fill-rule:nonzero;stroke:none"
             d="m 2525.77,2486.87 c -67.68,5.01 -125,38.89 -134.76,101.08 -5.46,34.82 12.18,75.97 22.46,116.05 10.2,39.72 9.81,80.12 18.72,116.04 6.03,24.3 25.62,51.4 37.43,82.36 10.93,28.66 18.39,60.38 29.95,89.85 43.02,109.65 30.35,247.71 89.84,333.17 16.93,24.32 69.65,56.27 93.59,59.9 101.11,15.31 162.66,-107.18 138.49,-209.64 -11.05,-46.89 -56.64,-80.14 -74.86,-127.28 -10.76,-27.83 -9.05,-59.56 -18.72,-89.84 -29.94,-93.81 -82.19,-193.82 -119.78,-288.25 -13.17,-33.07 -33.18,-65.15 -41.18,-93.59 -9.5,-33.78 -2.43,-73.53 -41.18,-89.85" /><path
             id="path26"
             style="fill:#00a650;fill-opacity:1;fill-rule:nonzero;stroke:none"
             d="m 1743.41,1165.42 -22.45,0 c -35.19,33.44 -89.67,47.59 -142.25,63.63 -36.71,103.12 -111.34,207.08 -82.36,351.9 3.73,18.58 22.52,38.28 26.21,56.14 5.4,26.18 0.17,65.78 3.74,101.08 3.83,37.86 13.98,74.99 7.49,101.08 -14.64,58.86 -98.67,69.57 -134.76,116.04 -0.71,60.04 -13.59,111.33 -11.23,172.21 1.46,37.68 27.54,79.4 22.46,108.56 -3.06,17.56 -42.18,42.37 -59.9,59.89 -17.76,17.58 -41.73,42.34 -52.4,63.64 -10.34,20.63 -10.96,48.85 -18.71,63.65 -15.15,28.87 -55.35,41.41 -74.87,67.38 -28.02,37.26 -44.25,84.06 -71.13,123.53 -47.82,70.23 -110.61,132.68 -134.754,209.64 l 0,18.71 c 11.654,32.81 24.054,68.41 52.404,86.11 27.09,16.91 93.28,40.45 138.5,29.95 41.15,-9.56 109.84,-98.1 116.04,-149.75 11.65,-96.92 1.04,-199.28 44.92,-284.5 28.8,-55.92 75.71,-87.79 101.08,-134.77 11.96,-22.16 14.69,-48.94 29.94,-71.12 54.61,1.25 93.1,35.12 142.25,29.94 45.6,-4.81 71.25,-51.88 116.04,-44.91 4.69,33.51 -15.71,111.62 18.72,142.24 48.57,17.13 89.5,36.52 134.76,59.9 39.6,20.46 87.07,54 134.76,59.9 54.74,6.77 105.37,-20.91 149.73,-26.21 48.56,-5.79 99.56,4.17 149.74,-7.48 16.47,-3.83 42.57,-20.1 59.88,-26.21 60.25,-21.24 122.36,-32.43 142.26,-63.64 20.01,-31.39 45.05,-167.97 33.68,-213.38 -7.93,-31.69 -53.67,-47 -56.15,-78.61 -0.89,-11.31 11.25,-54.9 18.72,-74.87 8.68,-23.21 34.48,-49.24 48.67,-78.61 15.33,-31.77 27.04,-58.81 44.91,-86.11 28.82,-43.99 80.36,-128.1 123.53,-138.5 52.54,-12.66 112.98,19.99 138.51,-18.72 0.85,-50.21 1.4,-74.46 -18.72,-108.56 -18.39,-31.18 -72.48,-43.11 -82.36,-71.13 -8.97,-25.5 4.29,-53.3 3.75,-86.1 -68.93,-60.25 -125.86,-135.79 -213.37,-175.95 -17.18,-7.88 -38.26,-10.9 -56.15,-18.71 -33.08,-14.47 -58.51,-44.77 -93.58,-59.9 -11.97,-5.16 -28.47,-5.65 -41.18,-11.23 -21.03,-9.24 -34.25,-26.68 -56.15,-33.69 -28.38,-9.1 -67.42,-13.95 -101.07,-11.23 -31.57,2.56 -62.24,22.36 -93.58,26.2 -136.98,16.81 -266.25,-45.24 -385.57,-37.43" /><path
             id="path28"
             style="fill:#00a650;fill-opacity:1;fill-rule:nonzero;stroke:none"
             d="m 1518.82,3426.49 c 52,-29.47 120.66,-54.54 142.24,-112.31 16.31,-43.63 3.43,-99.71 18.72,-142.24 13.41,-37.33 52.22,-58.67 63.63,-93.59 7.01,-21.44 1.76,-57.1 7.49,-89.84 14.7,-83.91 97.89,-123.72 116.05,-209.64 19.65,-93.06 -40.42,-183.44 -119.79,-183.44 -63.4,0 -136.58,93.91 -160.96,153.49 -11.77,28.75 -12.51,65.3 -22.47,101.07 -13.77,49.54 -45.73,95.06 -63.63,146 -13.89,39.53 -16.77,87.37 -26.2,131.03 -15.99,73.9 -59.33,133.85 -33.69,224.6 11.21,39.7 48.94,58.72 78.61,74.87" /><path
             id="path30"
             style="fill:#00a650;fill-opacity:1;fill-rule:nonzero;stroke:none"
             d="m 2170.15,3594.95 22.47,0 c 69.81,-14.33 77.55,-53.87 104.81,-116.05 11.01,-25.11 26.67,-48.96 29.95,-67.38 7.25,-40.8 -4.41,-89.27 -7.49,-131.02 -7.03,-95.03 -26.14,-149.99 -48.66,-228.36 -10.27,-35.69 -30.25,-78.43 -29.95,-108.56 0.22,-21.81 14.87,-44.86 18.72,-71.13 5.92,-40.45 15.86,-105.66 7.48,-146 -7.13,-34.33 -86.9,-137.03 -119.78,-138.5 -53.49,-2.41 -104.48,85.1 -108.56,138.5 -5.09,66.57 25.39,134.53 29.94,209.64 4.56,75.16 -17.85,145.64 -22.45,202.15 -4.63,56.72 7.12,117.16 7.48,183.43 0.85,158.31 -5.52,248.15 116.04,273.28" /><path
             id="path32"
             style="fill:#ffffff;fill-opacity:1;fill-rule:nonzero;stroke:none"
             d="m 2102.12,1740.21 c 0,0 -5.25,-0.86 41.33,8.22 8.7,1.69 127.67,-118.98 137.68,-128.01 4.25,-3.85 -21.7,-19.74 -30.27,-21.01 -15.5,-2.29 -63.82,29.25 -69.65,33.18 -5.83,3.95 18.88,-57.25 16.19,-62.11 -2.66,-4.87 -58.6,-18.96 -58.6,-18.96 0,0 -57.13,-7.89 -61.44,-4.38 -4.31,3.5 -4.32,69.5 -8.25,63.66 -3.94,-5.83 -36.93,-53.18 -52.15,-56.86 -8.41,-2.02 -38.44,2.98 -35.94,8.14 5.89,12.13 70.85,168.69 79.58,170.25 41.49,8.06 41.52,7.88 41.52,7.88 z m -87.8,451.75 c 4.79,0.93 52.6,11.6 74.98,1.75 22.14,-9.76 18.59,-65.86 16.8,-68.57 -5.26,-7.93 138.33,24.15 141.2,24.29 2.87,0.15 74.47,-50.46 68.68,-54.51 -22.28,-15.57 -191.87,-55.15 -195.8,-58.4 -3.91,-3.25 6.59,-102.61 7.85,-109.14 1.16,-5.95 107.86,114.84 171.18,130.17 43.3,10.48 68.85,-31.07 74.74,-42.92 6.57,-13.25 24.88,-48.1 32.11,-106.86 3.38,-27.55 5.73,-137.92 -41.93,-195.36 -12.4,-14.93 -41.07,-35.72 -67.36,-26.34 -22.52,8.03 -123.52,61.31 -120.88,62.13 14.86,4.57 41.77,0.22 52.09,10.63 15.63,15.76 1.64,94.82 -1.02,122.42 -0.45,4.62 -56.89,-26.82 -66.19,-36.49 -9.3,-9.68 -20.23,-27.5 -21.22,-41.76 -1.04,-15.06 10.05,-35.17 3.89,-36.37 l -89.53,-17.4 c -6.15,-1.2 -3.41,21.6 -10.01,35.18 -6.26,12.85 -23.06,25.27 -35.31,30.77 -12.25,5.48 -76.36,13.48 -75.04,9.04 7.87,-26.59 24.52,-105.14 44.9,-113.9 13.48,-5.78 36.8,8.33 52.29,9.66 2.76,0.24 -70.95,-87.01 -88.81,-102.89 -20.85,-18.54 -55.22,-10 -72.31,-0.81 -65.7,35.41 -104.88,138.62 -112.07,165.43 -15.3,57.19 -13.05,86.97 -10.49,111.06 1.42,13.32 9.38,61.34 53.46,67.84 64.46,9.51 208.62,-62.51 207.47,-56.57 -1.27,6.53 -28.74,102.6 -33.6,104.15 -4.85,1.53 -176.93,-25.3 -203.42,-19.21 -6.89,1.58 40.55,75.33 43.27,76.27 2.72,0.94 147.86,25 140.03,30.37 -2.69,1.84 -26.99,52.53 -10.13,69.87 17.06,17.52 65.39,25.54 70.18,26.47" /><g
             transform="scale(10,10)"
             id="g34"><text
               id="text36"
               style="font-style:italic;font-variant:normal;font-weight:500;font-size:35.08923721px;font-family:GoudySansLT;-inkscape-font-specification:GoudySansLT-MediumItalic;writing-mode:lr-tb;fill:#00a650;fill-opacity:1;fill-rule:nonzero;stroke:none"
               transform="matrix(0.451868,-0.892086,-0.892086,-0.451865,73.1879,153.847)"><tspan
                 id="tspan38"
                 y="0"
                 x="0">D</tspan></text>
<text
               id="text40"
               style="font-style:italic;font-variant:normal;font-weight:500;font-size:35.08929825px;font-family:GoudySansLT;-inkscape-font-specification:GoudySansLT-MediumItalic;writing-mode:lr-tb;fill:#00a650;fill-opacity:1;fill-rule:nonzero;stroke:none"
               transform="matrix(0.566073,-0.824355,-0.824355,-0.566073,83.5961,133.92)"><tspan
                 id="tspan42"
                 y="0"
                 x="0">P</tspan></text>
<text
               id="text44"
               style="font-style:italic;font-variant:normal;font-weight:500;font-size:35.08922195px;font-family:GoudySansLT;-inkscape-font-specification:GoudySansLT-MediumItalic;writing-mode:lr-tb;fill:#00a650;fill-opacity:1;fill-rule:nonzero;stroke:none"
               transform="matrix(0.653249,-0.757144,-0.757144,-0.653249,93.4793,119.807)"><tspan
                 id="tspan46"
                 y="0"
                 x="0">S</tspan></text>
<text
               id="text48"
               style="font-style:italic;font-variant:normal;font-weight:500;font-size:35.08921814px;font-family:GoudySansLT;-inkscape-font-specification:GoudySansLT-MediumItalic;writing-mode:lr-tb;fill:#00a650;fill-opacity:1;fill-rule:nonzero;stroke:none"
               transform="matrix(0.741903,-0.670508,-0.670508,-0.741903,103.132,108.455)"><tspan
                 id="tspan50"
                 y="0"
                 x="0">G</tspan></text>
<text
               id="text52"
               style="font-style:italic;font-variant:normal;font-weight:900;font-size:41.4791832px;font-family:GoudySansITCbyBT;-inkscape-font-specification:GoudySansITCbyBT-BlackItalic;writing-mode:lr-tb;fill:#00a650;fill-opacity:1;fill-rule:nonzero;stroke:none"
               transform="matrix(0.867432,-0.497555,-0.497555,-0.867432,124.474,84.9789)"><tspan
                 id="tspan54"
                 y="0"
                 x="0">P</tspan></text>
<text
               id="text56"
               style="font-style:italic;font-variant:normal;font-weight:900;font-size:41.4791832px;font-family:GoudySansITCbyBT;-inkscape-font-specification:GoudySansITCbyBT-BlackItalic;writing-mode:lr-tb;fill:#00a650;fill-opacity:1;fill-rule:nonzero;stroke:none"
               transform="matrix(0.928051,-0.372452,-0.372452,-0.928051,146.495,72.8949)"><tspan
                 id="tspan58"
                 y="0"
                 x="0">f</tspan></text>
<text
               id="text60"
               style="font-style:italic;font-variant:normal;font-weight:900;font-size:41.47920609px;font-family:GoudySansITCbyBT;-inkscape-font-specification:GoudySansITCbyBT-BlackItalic;writing-mode:lr-tb;fill:#00a650;fill-opacity:1;fill-rule:nonzero;stroke:none"
               transform="matrix(0.967362,-0.253399,-0.253399,-0.967362,160.44,67.0719)"><tspan
                 id="tspan62"
                 y="0"
                 x="0">a</tspan></text>
<text
               id="text64"
               style="font-style:italic;font-variant:normal;font-weight:900;font-size:41.4791832px;font-family:GoudySansITCbyBT;-inkscape-font-specification:GoudySansITCbyBT-BlackItalic;writing-mode:lr-tb;fill:#00a650;fill-opacity:1;fill-rule:nonzero;stroke:none"
               transform="matrix(0.996534,-0.0831814,-0.0831814,-0.996534,184.642,60.8648)"><tspan
                 id="tspan66"
                 y="0"
                 x="0">d</tspan></text>
<text
               id="text68"
               style="font-style:italic;font-variant:normal;font-weight:900;font-size:41.47919464px;font-family:GoudySansITCbyBT;-inkscape-font-specification:GoudySansITCbyBT-BlackItalic;writing-mode:lr-tb;fill:#00a650;fill-opacity:1;fill-rule:nonzero;stroke:none"
               transform="matrix(0.999271,0.0381738,0.0381736,-0.999271,209.365,59.1961)"><tspan
                 id="tspan70"
                 y="0"
                 x="0">f</tspan></text>
<text
               id="text72"
               style="font-style:italic;font-variant:normal;font-weight:900;font-size:41.47920609px;font-family:GoudySansITCbyBT;-inkscape-font-specification:GoudySansITCbyBT-BlackItalic;writing-mode:lr-tb;fill:#00a650;fill-opacity:1;fill-rule:nonzero;stroke:none"
               transform="matrix(0.990988,0.133952,0.133952,-0.990988,224.006,59.8871)"><tspan
                 id="tspan74"
                 y="0"
                 x="0">i</tspan></text>
<text
               id="text76"
               style="font-style:italic;font-variant:normal;font-weight:900;font-size:41.47922134px;font-family:GoudySansITCbyBT;-inkscape-font-specification:GoudySansITCbyBT-BlackItalic;writing-mode:lr-tb;fill:#00a650;fill-opacity:1;fill-rule:nonzero;stroke:none"
               transform="matrix(0.967963,0.251095,0.251095,-0.967963,236.959,61.391)"><tspan
                 id="tspan78"
                 y="0"
                 x="0">n</tspan></text>
<text
               id="text80"
               style="font-style:italic;font-variant:normal;font-weight:900;font-size:41.47919464px;font-family:GoudySansITCbyBT;-inkscape-font-specification:GoudySansITCbyBT-BlackItalic;writing-mode:lr-tb;fill:#00a650;fill-opacity:1;fill-rule:nonzero;stroke:none"
               transform="matrix(0.912721,0.408583,0.408583,-0.912721,261.016,67.791)"><tspan
                 id="tspan82"
                 y="0"
                 x="0">d</tspan></text>
<text
               id="text84"
               style="font-style:italic;font-variant:normal;font-weight:900;font-size:41.4792099px;font-family:GoudySansITCbyBT;-inkscape-font-specification:GoudySansITCbyBT-BlackItalic;writing-mode:lr-tb;fill:#00a650;fill-opacity:1;fill-rule:nonzero;stroke:none"
               transform="matrix(0.844415,0.53569,0.53569,-0.844415,283.812,78.3539)"><tspan
                 id="tspan86"
                 y="0"
                 x="0">e</tspan></text>
<text
               id="text88"
               style="font-style:italic;font-variant:normal;font-weight:900;font-size:41.47917938px;font-family:GoudySansITCbyBT;-inkscape-font-specification:GoudySansITCbyBT-BlackItalic;writing-mode:lr-tb;fill:#00a650;fill-opacity:1;fill-rule:nonzero;stroke:none"
               transform="matrix(0.765125,0.643881,0.643881,-0.765125,300.93,89.4539)"><tspan
                 id="tspan90"
                 y="0"
                 x="0">r</tspan></text>
<text
               id="text92"
               style="font-style:italic;font-variant:normal;font-weight:300;font-size:41.47920227px;font-family:GoudySansITCbyBT;-inkscape-font-specification:GoudySansITCbyBT-LightItalic;writing-mode:lr-tb;fill:#00a650;fill-opacity:1;fill-rule:nonzero;stroke:none"
               transform="matrix(0.697774,0.716318,0.716318,-0.697774,314.254,100.851)"><tspan
                 id="tspan94"
                 y="0"
                 x="0">s</tspan></text>
<text
               id="text96"
               style="font-style:italic;font-variant:normal;font-weight:300;font-size:41.47919846px;font-family:GoudySansITCbyBT;-inkscape-font-specification:GoudySansITCbyBT-LightItalic;writing-mode:lr-tb;fill:#00a650;fill-opacity:1;fill-rule:nonzero;stroke:none"
               transform="matrix(0.632531,0.774535,0.774535,-0.632531,323.94,110.964)"><tspan
                 id="tspan98"
                 y="0"
                 x="0">t</tspan></text>
<text
               id="text100"
               style="font-style:italic;font-variant:normal;font-weight:300;font-size:41.47919464px;font-family:GoudySansITCbyBT;-inkscape-font-specification:GoudySansITCbyBT-LightItalic;writing-mode:lr-tb;fill:#00a650;fill-opacity:1;fill-rule:nonzero;stroke:none"
               transform="matrix(0.540811,0.841144,0.841144,-0.540811,331.802,120.288)"><tspan
                 id="tspan102"
                 y="0"
                 x="0">u</tspan></text>
<text
               id="text104"
               style="font-style:italic;font-variant:normal;font-weight:300;font-size:41.47919083px;font-family:GoudySansITCbyBT;-inkscape-font-specification:GoudySansITCbyBT-LightItalic;writing-mode:lr-tb;fill:#00a650;fill-opacity:1;fill-rule:nonzero;stroke:none"
               transform="matrix(0.46425,0.885704,0.885704,-0.46425,342.533,137.488)"><tspan
                 id="tspan106"
                 y="0"
                 x="0">f</tspan></text>
<text
               id="text108"
               style="font-style:italic;font-variant:normal;font-weight:300;font-size:41.47919846px;font-family:GoudySansITCbyBT;-inkscape-font-specification:GoudySansITCbyBT-LightItalic;writing-mode:lr-tb;fill:#00a650;fill-opacity:1;fill-rule:nonzero;stroke:none"
               transform="matrix(0.38413,0.923279,0.923279,-0.38413,347.293,146.506)"><tspan
                 id="tspan110"
                 y="0"
                 x="0">e</tspan></text>
</g></g></g></g></g></svg>