<?xml version="1.0" encoding="UTF-8" standalone="no"?>
<svg
   xmlns:dc="http://purl.org/dc/elements/1.1/"
   xmlns:cc="http://creativecommons.org/ns#"
   xmlns:rdf="http://www.w3.org/1999/02/22-rdf-syntax-ns#"
   xmlns:svg="http://www.w3.org/2000/svg"
   xmlns="http://www.w3.org/2000/svg"
   viewBox="0 0 352.79999 74.0625"
   height="74.0625"
   width="352.79999"
   xml:space="preserve"
   version="1.1"
   id="svg2"><metadata
     id="metadata8"><rdf:RDF><cc:Work
         rdf:about=""><dc:format>image/svg+xml</dc:format><dc:type
           rdf:resource="http://purl.org/dc/dcmitype/StillImage" /></cc:Work></rdf:RDF></metadata><defs
     id="defs6" /><g
     transform="matrix(1.25,0,0,-1.25,0,74.0625)"
     id="g10"><g
       transform="scale(0.1,0.1)"
       id="g12"><path
         id="path14"
         style="fill:#d11d31;fill-opacity:1;fill-rule:evenodd;stroke:none"
         d="m 815.238,592.484 c 4.434,0 48.922,1.231 67.16,-11.441 18.047,-12.531 5.161,-61.93 3.086,-64.043 -6.05,-6.145 127.536,-2.43 130.116,-2.801 2.58,-0.371 57.67,-57.894 51.8,-60.504 -22.56,-10.027 -180.642,-15.918 -184.705,-18.133 -4.058,-2.218 -11.914,-92.617 -11.914,-98.652 0,-5.512 116.067,83.688 175.189,86.371 40.43,1.836 56,-39.633 59.2,-51.219 3.56,-12.949 13.85,-47.179 10.11,-100.792 -1.75,-25.145 -18.8,-123.915 -71.25,-166.875 -13.64,-11.1723 -42.81,-24.727 -64.604,-11.8169 -18.692,11.0669 -99.531,76.0739 -97.028,76.3399 14.043,1.492 37.282,-7.043 48.29,0.445 16.667,11.344 17.89,84.235 20.308,109.289 0.406,4.192 -55.383,-14.027 -65.348,-21.043 -9.964,-7.011 -22.8,-21.007 -26.144,-33.543 -3.535,-13.242 2.863,-33.089 -2.84,-33.089 l -82.848,0 c -5.703,0 0.7,19.847 -2.836,33.089 -3.343,12.536 -16.175,26.532 -26.144,33.543 -9.973,7.016 -65.75,25.235 -65.348,21.043 2.414,-25.054 3.641,-97.945 20.309,-109.289 11.008,-7.488 34.25,1.047 48.285,-0.445 2.508,-0.266 -78.332,-65.273 -97.016,-76.3399 -21.804,-12.9101 -50.968,0.6446 -64.613,11.8169 -52.449,42.96 -69.496,141.73 -71.25,166.875 -3.738,53.613 3.434,79.761 9.891,100.792 3.566,11.629 18.988,53.055 59.418,51.219 59.133,-2.683 175.183,-91.883 175.183,-86.371 0,6.035 -7.847,96.434 -11.906,98.652 -4.062,2.215 -162.148,8.106 -184.707,18.133 -5.871,2.61 49.219,60.133 51.801,60.504 2.59,0.371 136.172,-3.344 130.117,2.801 -2.074,2.113 -14.965,51.512 3.082,64.043 18.242,12.672 62.734,11.441 67.156,11.441 l 0,0" /><path
         id="path16"
         style="fill:#d11d31;fill-opacity:1;fill-rule:evenodd;stroke:none"
         d="m 815.238,174.586 c 0,0 -4.836,0.141 38.282,0.16 8.058,0.004 93.218,-128.1835 100.574,-137.996 3.125,-4.1602 -22.782,-13.8281 -30.633,-13.4688 -14.215,0.6446 -51.828,37.129 -56.352,41.6524 -4.519,4.5195 6.907,-54.3203 3.672,-58.19532 C 867.555,2.86328 815.238,0 815.238,0 c 0,0 -52.308,2.86328 -55.543,6.73828 -3.226,3.87502 8.2,62.71482 3.68,58.19532 -4.523,-4.5234 -42.141,-41.0078 -56.359,-41.6524 -7.844,-0.3593 -33.75,9.3086 -30.625,13.4688 7.355,9.8125 92.402,138.125 100.461,137.996 38.386,0 38.386,-0.16 38.386,-0.16 l 0,0" /><path
         id="path18"
         style="fill:#000000;fill-opacity:1;fill-rule:nonzero;stroke:none"
         d="m 222.816,439.688 2.039,0 c 16.329,83.671 78.575,130.605 164.282,130.605 71.425,0 134.687,-54.078 134.687,-127.543 0,-52.043 -32.656,-99.996 -87.754,-99.996 -38.773,0 -71.422,25.508 -71.422,66.324 0,14.281 6.118,27.547 12.243,39.793 -114.278,8.16 -117.344,-146.933 -117.344,-228.562 0,-60.2 6.121,-71.422 18.367,-71.422 5.106,0 10.207,2.043 15.305,4.082 6.121,2.043 12.246,3.066 18.367,3.066 33.672,0 44.898,-27.547 44.898,-58.1717 0,-38.7617 -17.347,-70.4024 -51.019,-70.4024 -55.098,0 -95.914,10.2071 -137.746,10.2071 -38.778,0 -77.5471,-10.2071 -114.2815,-10.2071 -33.6719,0 -51.01562,31.6407 -51.01562,70.4024 0,30.6247 11.22262,58.1717 44.89452,58.1717 7.1406,0 12.2461,-2.039 18.3672,-3.066 5.1016,-1.024 10.1992,-4.082 15.3008,-4.082 12.25,0 18.3711,10.195 18.3711,71.422 l 0,146.933 c 0,63.262 -5.1016,71.426 -18.3711,71.426 -10.1992,0 -20.4024,-7.145 -33.668,-7.145 -33.6719,0 -44.89452,27.551 -44.89452,58.165 0,38.769 17.34372,70.402 51.01562,70.402 29.5898,0 49.9965,-10.203 70.4065,-10.203 22.445,0 43.875,10.203 67.344,10.203 22.445,0 31.628,-7.141 31.628,-43.875 l 0,-76.527" /><path
         id="path20"
         style="fill:none;stroke:#000000;stroke-width:5;stroke-linecap:butt;stroke-linejoin:miter;stroke-miterlimit:4;stroke-dasharray:none;stroke-opacity:1"
         d="m 222.816,439.688 2.039,0 c 16.329,83.671 78.575,130.605 164.282,130.605 71.425,0 134.687,-54.078 134.687,-127.543 0,-52.043 -32.656,-99.996 -87.754,-99.996 -38.773,0 -71.422,25.508 -71.422,66.324 0,14.281 6.118,27.547 12.243,39.793 -114.278,8.16 -117.344,-146.933 -117.344,-228.562 0,-60.2 6.121,-71.422 18.367,-71.422 5.106,0 10.207,2.043 15.305,4.082 6.121,2.043 12.246,3.066 18.367,3.066 33.672,0 44.898,-27.547 44.898,-58.1717 0,-38.7617 -17.347,-70.4024 -51.019,-70.4024 -55.098,0 -95.914,10.2071 -137.746,10.2071 -38.778,0 -77.5471,-10.2071 -114.2815,-10.2071 -33.6719,0 -51.01562,31.6407 -51.01562,70.4024 0,30.6247 11.22262,58.1717 44.89452,58.1717 7.1406,0 12.2461,-2.039 18.3672,-3.066 5.1016,-1.024 10.1992,-4.082 15.3008,-4.082 12.25,0 18.3711,10.195 18.3711,71.422 l 0,146.933 c 0,63.262 -5.1016,71.426 -18.3711,71.426 -10.1992,0 -20.4024,-7.145 -33.668,-7.145 -33.6719,0 -44.89452,27.551 -44.89452,58.165 0,38.769 17.34372,70.402 51.01562,70.402 29.5898,0 49.9965,-10.203 70.4065,-10.203 22.445,0 43.875,10.203 67.344,10.203 22.445,0 31.628,-7.141 31.628,-43.875 l 0,-76.527 z" /><path
         id="path22"
         style="fill:#000000;fill-opacity:1;fill-rule:nonzero;stroke:none"
         d="m 1572.62,120.324 c -8.15,-22.4607 -20.4,-56.1248 -38.77,-73.4685 -17.35,-16.3282 -28.57,-19.3946 -48.98,-19.3946 -23.47,0 -38.77,10.2071 -59.18,10.2071 -20.4,0 -39.79,-10.2071 -59.17,-10.2071 -35.72,0 -46.95,6.1329 -71.43,73.4771 L 1200.2,363.16 c -18.37,50 -25.51,69.383 -42.86,69.383 -9.18,0 -18.36,-2.039 -27.55,-2.039 -33.67,0 -44.89,27.547 -44.89,58.164 0,39.789 17.34,71.422 52.03,71.422 32.66,0 63.27,-10.203 102.03,-10.203 41.84,0 82.66,10.203 126.53,10.203 37.75,0 54.08,-23.469 54.08,-61.223 0,-26.527 -10.21,-55.097 -40.8,-58.16 -14.29,-2.039 -25.52,-1.019 -25.52,-19.383 0,-12.246 10.2,-40.816 13.27,-53.062 l 67.34,-221.414 2.03,0 72.45,221.414 c 4.08,10.207 16.32,43.879 16.32,53.062 0,33.672 -67.34,-1.019 -67.34,76.524 0,35.711 17.35,62.242 55.1,62.242 29.6,0 63.27,-10.203 96.94,-10.203 35.71,0 70.4,10.203 108.16,10.203 42.85,0 60.19,-31.633 60.19,-71.422 0,-30.617 -11.22,-58.164 -44.89,-58.164 -8.17,0 -16.33,3.062 -23.47,3.062 -13.26,0 -21.42,-11.222 -36.73,-51.015 l -100,-262.227" /><path
         id="path24"
         style="fill:none;stroke:#000000;stroke-width:5;stroke-linecap:butt;stroke-linejoin:miter;stroke-miterlimit:4;stroke-dasharray:none;stroke-opacity:1"
         d="m 1572.62,120.324 c -8.15,-22.4607 -20.4,-56.1248 -38.77,-73.4685 -17.35,-16.3282 -28.57,-19.3946 -48.98,-19.3946 -23.47,0 -38.77,10.2071 -59.18,10.2071 -20.4,0 -39.79,-10.2071 -59.17,-10.2071 -35.72,0 -46.95,6.1329 -71.43,73.4771 L 1200.2,363.16 c -18.37,50 -25.51,69.383 -42.86,69.383 -9.18,0 -18.36,-2.039 -27.55,-2.039 -33.67,0 -44.89,27.547 -44.89,58.164 0,39.789 17.34,71.422 52.03,71.422 32.66,0 63.27,-10.203 102.03,-10.203 41.84,0 82.66,10.203 126.53,10.203 37.75,0 54.08,-23.469 54.08,-61.223 0,-26.527 -10.21,-55.097 -40.8,-58.16 -14.29,-2.039 -25.52,-1.019 -25.52,-19.383 0,-12.246 10.2,-40.816 13.27,-53.062 l 67.34,-221.414 2.03,0 72.45,221.414 c 4.08,10.207 16.32,43.879 16.32,53.062 0,33.672 -67.34,-1.019 -67.34,76.524 0,35.711 17.35,62.242 55.1,62.242 29.6,0 63.27,-10.203 96.94,-10.203 35.71,0 70.4,10.203 108.16,10.203 42.85,0 60.19,-31.633 60.19,-71.422 0,-30.617 -11.22,-58.164 -44.89,-58.164 -8.17,0 -16.33,3.062 -23.47,3.062 -13.26,0 -21.42,-11.222 -36.73,-51.015 l -100,-262.227 z" /><path
         id="path26"
         style="fill:#000000;fill-opacity:1;fill-rule:nonzero;stroke:none"
         d="m 1964.33,266.227 c -26.53,0 -29.59,-4.082 -29.59,-21.426 0,-58.16 45.91,-102.035 105.1,-102.035 35.7,0 54.08,9.179 82.64,39.793 32.65,34.691 43.88,40.816 77.56,40.816 39.78,0 70.39,-23.473 70.39,-64.293 0,-77.539 -99.98,-144.8828 -232.64,-144.8828 -167.33,0 -271.41,112.2458 -271.41,277.5388 0,161.211 100,283.657 267.33,283.657 157.15,0 245.9,-93.872 245.9,-244.887 0,-46.934 -6.12,-64.281 -67.33,-64.281 l -247.95,0 z m 121.43,113.261 c 23.45,0 25.51,6.121 25.51,17.344 0,27.547 -25.51,63.262 -76.54,63.262 -52.04,0 -94.89,-39.789 -94.89,-66.321 0,-13.265 13.27,-14.285 42.85,-14.285 l 103.07,0" /><path
         id="path28"
         style="fill:none;stroke:#000000;stroke-width:5;stroke-linecap:butt;stroke-linejoin:miter;stroke-miterlimit:4;stroke-dasharray:none;stroke-opacity:1"
         d="m 1964.33,266.227 c -26.53,0 -29.59,-4.082 -29.59,-21.426 0,-58.16 45.91,-102.035 105.1,-102.035 35.7,0 54.08,9.179 82.64,39.793 32.65,34.691 43.88,40.816 77.56,40.816 39.78,0 70.39,-23.473 70.39,-64.293 0,-77.539 -99.98,-144.8828 -232.64,-144.8828 -167.33,0 -271.41,112.2458 -271.41,277.5388 0,161.211 100,283.657 267.33,283.657 157.15,0 245.9,-93.872 245.9,-244.887 0,-46.934 -6.12,-64.281 -67.33,-64.281 l -247.95,0 z m 121.43,113.261 c 23.45,0 25.51,6.121 25.51,17.344 0,27.547 -25.51,63.262 -76.54,63.262 -52.04,0 -94.89,-39.789 -94.89,-66.321 0,-13.265 13.27,-14.285 42.85,-14.285 l 103.07,0 z" /><path
         id="path30"
         style="fill:#000000;fill-opacity:1;fill-rule:nonzero;stroke:none"
         d="m 2518.94,439.688 2.04,0 c 16.33,83.671 78.57,130.605 164.28,130.605 71.42,0 134.69,-54.078 134.69,-127.543 0,-52.043 -32.65,-99.996 -87.76,-99.996 -38.77,0 -71.41,25.508 -71.41,66.324 0,14.281 6.11,27.547 12.23,39.793 -114.28,8.16 -117.33,-146.933 -117.33,-228.562 0,-60.2 6.11,-71.422 18.36,-71.422 5.1,0 10.2,2.043 15.31,4.082 6.11,2.043 12.25,3.066 18.36,3.066 33.67,0 44.9,-27.547 44.9,-58.1717 0,-38.7617 -17.34,-70.4024 -51.01,-70.4024 -55.11,0 -95.92,10.2071 -137.76,10.2071 -38.78,0 -77.55,-10.2071 -114.27,-10.2071 -33.68,0 -51.02,31.6407 -51.02,70.4024 0,30.6247 11.22,58.1717 44.89,58.1717 7.14,0 12.25,-2.039 18.37,-3.066 5.1,-1.024 10.2,-4.082 15.3,-4.082 12.25,0 18.37,10.195 18.37,71.422 l 0,146.933 c 0,63.262 -5.1,71.426 -18.37,71.426 -10.2,0 -20.41,-7.145 -33.67,-7.145 -33.67,0 -44.89,27.551 -44.89,58.165 0,38.769 17.34,70.402 51.02,70.402 29.59,0 50,-10.203 70.39,-10.203 22.45,0 43.88,10.203 67.35,10.203 22.45,0 31.63,-7.141 31.63,-43.875 l 0,-76.527" /><path
         id="path32"
         style="fill:none;stroke:#000000;stroke-width:5;stroke-linecap:butt;stroke-linejoin:miter;stroke-miterlimit:4;stroke-dasharray:none;stroke-opacity:1"
         d="m 2518.94,439.688 2.04,0 c 16.33,83.671 78.57,130.605 164.28,130.605 71.42,0 134.69,-54.078 134.69,-127.543 0,-52.043 -32.65,-99.996 -87.76,-99.996 -38.77,0 -71.41,25.508 -71.41,66.324 0,14.281 6.11,27.547 12.23,39.793 -114.28,8.16 -117.33,-146.933 -117.33,-228.562 0,-60.2 6.11,-71.422 18.36,-71.422 5.1,0 10.2,2.043 15.31,4.082 6.11,2.043 12.25,3.066 18.36,3.066 33.67,0 44.9,-27.547 44.9,-58.1717 0,-38.7617 -17.34,-70.4024 -51.01,-70.4024 -55.11,0 -95.92,10.2071 -137.76,10.2071 -38.78,0 -77.55,-10.2071 -114.27,-10.2071 -33.68,0 -51.02,31.6407 -51.02,70.4024 0,30.6247 11.22,58.1717 44.89,58.1717 7.14,0 12.25,-2.039 18.37,-3.066 5.1,-1.024 10.2,-4.082 15.3,-4.082 12.25,0 18.37,10.195 18.37,71.422 l 0,146.933 c 0,63.262 -5.1,71.426 -18.37,71.426 -10.2,0 -20.41,-7.145 -33.67,-7.145 -33.67,0 -44.89,27.551 -44.89,58.165 0,38.769 17.34,70.402 51.02,70.402 29.59,0 50,-10.203 70.39,-10.203 22.45,0 43.88,10.203 67.35,10.203 22.45,0 31.63,-7.141 31.63,-43.875 l 0,-76.527 z" /></g></g></svg>