<?xml version="1.0" encoding="UTF-8" standalone="no"?>
<svg
   xmlns:dc="http://purl.org/dc/elements/1.1/"
   xmlns:cc="http://creativecommons.org/ns#"
   xmlns:rdf="http://www.w3.org/1999/02/22-rdf-syntax-ns#"
   xmlns:svg="http://www.w3.org/2000/svg"
   xmlns="http://www.w3.org/2000/svg"
   viewBox="0 0 550.34998 547.34998"
   height="547.34998"
   width="550.34998"
   xml:space="preserve"
   version="1.1"
   id="svg2"><metadata
     id="metadata8"><rdf:RDF><cc:Work
         rdf:about=""><dc:format>image/svg+xml</dc:format><dc:type
           rdf:resource="http://purl.org/dc/dcmitype/StillImage" /></cc:Work></rdf:RDF></metadata><defs
     id="defs6"><clipPath
       id="clipPath18"
       clipPathUnits="userSpaceOnUse"><path
         id="path20"
         d="M 0,4378.82 0,0 l 4402.81,0 0,4378.82 -4402.81,0 z" /></clipPath></defs><g
     transform="matrix(1.25,0,0,-1.25,0,547.35)"
     id="g10"><g
       transform="scale(0.1,0.1)"
       id="g12"><g
         id="g14"><g
           clip-path="url(#clipPath18)"
           id="g16"><path
             id="path22"
             style="fill:#231f20;fill-opacity:1;fill-rule:evenodd;stroke:none"
             d="m 1184.41,2976.64 c 105.04,11.53 212.67,17.83 287.3,60.98 92,53.22 187.7,111.44 303.68,117.3 109.53,5.57 149.33,-66.11 132.03,-176.72 -67.23,-9.17 -135.9,14.95 -228.89,14.26 -108.77,-0.78 -203.28,-72.73 -298.16,-95 -84.22,-19.74 -150.04,34.16 -195.96,79.18 l 0,0" /><path
             id="path24"
             style="fill:none;stroke:#231f20;stroke-width:7.06775999;stroke-linecap:round;stroke-linejoin:round;stroke-miterlimit:2.61310005;stroke-dasharray:none;stroke-opacity:1"
             d="m 1184.41,2976.64 c 105.04,11.53 212.67,17.83 287.3,60.98 92,53.22 187.7,111.44 303.68,117.3 109.53,5.57 149.33,-66.11 132.03,-176.72 -67.23,-9.17 -135.9,14.95 -228.89,14.26 -108.77,-0.78 -203.28,-72.73 -298.16,-95 -84.22,-19.74 -150.04,34.16 -195.96,79.18 l 0,0 z" /><path
             id="path26"
             style="fill:#231f20;fill-opacity:1;fill-rule:evenodd;stroke:none"
             d="m 2717.71,3048.56 c -74.1,-0.28 -56.54,-111.74 -2.19,-162.89 250.31,14.14 445.98,-61.76 566.31,-261.72 24.53,257.13 -175.27,425.99 -564.12,424.61 l 0,0" /><path
             id="path28"
             style="fill:none;stroke:#231f20;stroke-width:7.06775999;stroke-linecap:round;stroke-linejoin:round;stroke-miterlimit:2.61310005;stroke-dasharray:none;stroke-opacity:1"
             d="m 2717.71,3048.56 c -74.1,-0.28 -56.54,-111.74 -2.19,-162.89 250.31,14.14 445.98,-61.76 566.31,-261.72 24.53,257.13 -175.27,425.99 -564.12,424.61 l 0,0 z" /><path
             id="path30"
             style="fill:#f47216;fill-opacity:1;fill-rule:evenodd;stroke:none"
             d="m 237.086,4361.02 -0.332,0.13 C 65.9531,3860.72 264.898,3165.16 769.664,2738.28 544.859,2530.22 141.637,2412.42 46.3438,2110.92 -96.6445,1658.44 317.32,1413.15 795.445,1287.38 860.484,822.23 609.059,286.762 1004.25,61.6992 1285.91,-98.6484 1620.41,208.012 1947.79,513.789 2285.64,66.5391 2692.38,-74.918 3143.98,96.3516 3720.13,314.879 3980.76,921.641 4153.33,1228.6 c -248.8,14.57 -508.55,54.29 -729.25,145.99 713.94,287.68 897.59,777.64 62.22,1269.14 431.08,228.83 736.61,861.68 711.16,1440.23 -434.4,-163.02 -819.69,-399.7 -1133.15,-744.11 -587.95,509.72 -1175.94,380.97 -1763.9,22.67 -313.598,409.26 -687.875,790.1 -1063.324,998.5 l 0,0" /><path
             id="path32"
             style="fill:none;stroke:#231f20;stroke-width:35.3368988;stroke-linecap:round;stroke-linejoin:round;stroke-miterlimit:2.61310005;stroke-dasharray:none;stroke-opacity:1"
             d="m 237.086,4361.02 -0.332,0.13 C 65.9531,3860.72 264.898,3165.16 769.664,2738.28 544.859,2530.22 141.637,2412.42 46.3438,2110.92 -96.6445,1658.44 317.32,1413.15 795.445,1287.38 860.484,822.23 609.059,286.762 1004.25,61.6992 1285.91,-98.6484 1620.41,208.012 1947.79,513.789 2285.64,66.5391 2692.38,-74.918 3143.98,96.3516 3720.13,314.879 3980.76,921.641 4153.33,1228.6 c -248.8,14.57 -508.55,54.29 -729.25,145.99 713.94,287.68 897.59,777.64 62.22,1269.14 431.08,228.83 736.61,861.68 711.16,1440.23 -434.4,-163.02 -819.69,-399.7 -1133.15,-744.11 -587.95,509.72 -1175.94,380.97 -1763.9,22.67 -313.598,409.26 -687.875,790.1 -1063.324,998.5 l 0,0 z" /><path
             id="path34"
             style="fill:#231f20;fill-opacity:1;fill-rule:evenodd;stroke:none"
             d="m 3999.35,1370.84 c -127.66,-117.17 -171.99,-277.75 -98.83,-357.52 73.24,-79.781 237.07,-49.289 364.69,67.85 127.62,117.11 171.95,277.76 98.79,357.5 -73.24,79.77 -237.03,49.28 -364.65,-67.83 l 0,0" /><path
             id="path36"
             style="fill:none;stroke:#231f20;stroke-width:7.06813002;stroke-linecap:butt;stroke-linejoin:miter;stroke-miterlimit:2.61310005;stroke-dasharray:none;stroke-opacity:1"
             d="m 3999.35,1370.84 c -127.66,-117.17 -171.99,-277.75 -98.83,-357.52 73.24,-79.781 237.07,-49.289 364.69,67.85 127.62,117.11 171.95,277.76 98.79,357.5 -73.24,79.77 -237.03,49.28 -364.65,-67.83 l 0,0 z" /><path
             id="path38"
             style="fill:#231f20;fill-opacity:1;fill-rule:evenodd;stroke:none"
             d="m 1647.18,3901.93 c 192.19,30.84 365.84,14.2 517.09,-59.72 -35.56,74.31 -71.17,148.55 -106.74,222.85 141.7,-36.08 255.61,-104.92 320,-232.11 107.8,153.65 302.37,205.84 537.68,209.08 -144.2,-102.5 -275.27,-202.6 -296.23,-323.35 190.18,-12.47 384.37,-18.56 509.57,-133.33 -117.58,5.59 -235,1.25 -352.48,-20.56 145.64,-162.9 147.54,-288.97 97.42,-401.72 -39,107.42 -97.93,204.84 -200.66,280.41 -112.15,-119.69 -191.96,-236.68 -249.53,-351.84 0.58,138.36 -6.8,274.96 -70.16,399.57 -97.15,-96.42 -192.73,-194.68 -239.3,-350.92 -83.01,103.13 -102.07,231.02 -44,388.79 -93.73,-73.28 -187.46,-157.97 -281.19,-254.08 -15.96,97.17 22.13,194.34 97.2,291.48 -127.26,-45.41 -242.59,-95.89 -315.21,-164.12 -4.02,175.55 166.33,254.91 385.53,307.29 -88.07,81.6 -193.62,142.64 -308.99,192.28 l 0,0" /><path
             id="path40"
             style="fill:none;stroke:#231f20;stroke-width:7.06775999;stroke-linecap:round;stroke-linejoin:round;stroke-miterlimit:2.61310005;stroke-dasharray:none;stroke-opacity:1"
             d="m 1647.18,3901.93 c 192.19,30.84 365.84,14.2 517.09,-59.72 -35.56,74.31 -71.17,148.55 -106.74,222.85 141.7,-36.08 255.61,-104.92 320,-232.11 107.8,153.65 302.37,205.84 537.68,209.08 -144.2,-102.5 -275.27,-202.6 -296.23,-323.35 190.18,-12.47 384.37,-18.56 509.57,-133.33 -117.58,5.59 -235,1.25 -352.48,-20.56 145.64,-162.9 147.54,-288.97 97.42,-401.72 -39,107.42 -97.93,204.84 -200.66,280.41 -112.15,-119.69 -191.96,-236.68 -249.53,-351.84 0.58,138.36 -6.8,274.96 -70.16,399.57 -97.15,-96.42 -192.73,-194.68 -239.3,-350.92 -83.01,103.13 -102.07,231.02 -44,388.79 -93.73,-73.28 -187.46,-157.97 -281.19,-254.08 -15.96,97.17 22.13,194.34 97.2,291.48 -127.26,-45.41 -242.59,-95.89 -315.21,-164.12 -4.02,175.55 166.33,254.91 385.53,307.29 -88.07,81.6 -193.62,142.64 -308.99,192.28 l 0,0 z" /><path
             id="path42"
             style="fill:none;stroke:#231f20;stroke-width:35.3368988;stroke-linecap:round;stroke-linejoin:round;stroke-miterlimit:2.61310005;stroke-dasharray:none;stroke-opacity:1"
             d="m 3456.97,1366.72 c -368.52,95.31 -739.4,316.09 -1147.37,669.96" /><path
             id="path44"
             style="fill:none;stroke:#231f20;stroke-width:35.3368988;stroke-linecap:butt;stroke-linejoin:miter;stroke-miterlimit:2.61310005;stroke-dasharray:none;stroke-opacity:1"
             d="m 3486.3,2643.73 c -135,366.9 191.47,918.95 711.16,1440.23" /><path
             id="path46"
             style="fill:#ffffff;fill-opacity:1;fill-rule:evenodd;stroke:none"
             d="m 2825.62,2260.51 82.38,39.43 2.78,153.03 -36.31,104.34 -95.18,75.54 -114.9,-30.23 -76.48,-75.39 -70.12,-115.04 -35.37,-120.39 83.73,-59.49 129.49,66.01 129.98,-37.81 0,0" /><path
             id="path48"
             style="fill:none;stroke:#231f20;stroke-width:7.06775999;stroke-linecap:butt;stroke-linejoin:miter;stroke-miterlimit:2.61310005;stroke-dasharray:none;stroke-opacity:1"
             d="m 2825.62,2260.51 82.38,39.43 2.78,153.03 -36.31,104.34 -95.18,75.54 -114.9,-30.23 -76.48,-75.39 -70.12,-115.04 -35.37,-120.39 83.73,-59.49 129.49,66.01 129.98,-37.81 0,0 z" /><path
             id="path50"
             style="fill:none;stroke:#231f20;stroke-width:35.33599854;stroke-linecap:butt;stroke-linejoin:miter;stroke-miterlimit:2.61310005;stroke-dasharray:none;stroke-opacity:1"
             d="m 2798.57,2621.43 c 106.7,-37.15 147.44,-212.6 90.78,-390.55 -56.68,-177.97 -189.94,-292.81 -296.64,-255.66 -106.66,37.14 -147.48,212.59 -90.76,390.54 56.68,177.97 189.96,292.82 296.62,255.67 l 0,0 z" /><path
             id="path52"
             style="fill:none;stroke:#231f20;stroke-width:35.3368988;stroke-linecap:round;stroke-linejoin:round;stroke-miterlimit:2.61310005;stroke-dasharray:none;stroke-opacity:1"
             d="m 2587.91,2527.23 128.73,218.01" /><path
             id="path54"
             style="fill:#231f20;fill-opacity:1;fill-rule:evenodd;stroke:none"
             d="m 2705.07,2388.67 c 45.34,0 82.35,-43.24 82.35,-96.25 0,-53.02 -37.01,-96.25 -82.35,-96.25 -45.37,0 -82.32,43.23 -82.32,96.25 0,53.01 36.95,96.25 82.32,96.25 l 0,0" /><path
             id="path56"
             style="fill:none;stroke:#231f20;stroke-width:7.06775999;stroke-linecap:butt;stroke-linejoin:miter;stroke-miterlimit:2.61310005;stroke-dasharray:none;stroke-opacity:1"
             d="m 2705.07,2388.67 c 45.34,0 82.35,-43.24 82.35,-96.25 0,-53.02 -37.01,-96.25 -82.35,-96.25 -45.37,0 -82.32,43.23 -82.32,96.25 0,53.01 36.95,96.25 82.32,96.25 l 0,0 z" /><path
             id="path58"
             style="fill:none;stroke:#231f20;stroke-width:14.13560009;stroke-linecap:butt;stroke-linejoin:miter;stroke-miterlimit:2.61310005;stroke-dasharray:none;stroke-opacity:1"
             d="m 2912.61,2321.95 c -68.03,-61.07 -114.96,-68.69 -173.73,-15.37 m -257.63,4.95 c 47.5,-60.65 110.66,-67.04 164.37,-20.12" /><path
             id="path60"
             style="fill:#231f20;fill-opacity:1;fill-rule:evenodd;stroke:none"
             d="m 2482.42,2291.8 68.41,-39.42 99.69,23.21 175.1,-15.08 82.38,39.43 -46.42,-135.7 -74.18,-112.46 -117.17,-77.72 -133.32,30.16 -42.93,84.65 -18.57,119.45 7.01,83.48 0,0" /><path
             id="path62"
             style="fill:none;stroke:#231f20;stroke-width:7.06775999;stroke-linecap:butt;stroke-linejoin:miter;stroke-miterlimit:2.61310005;stroke-dasharray:none;stroke-opacity:1"
             d="m 2482.42,2291.8 68.41,-39.42 99.69,23.21 175.1,-15.08 82.38,39.43 -46.42,-135.7 -74.18,-112.46 -117.17,-77.72 -133.32,30.16 -42.93,84.65 -18.57,119.45 7.01,83.48 0,0 z" /><path
             id="path64"
             style="fill:#ffffff;fill-opacity:1;fill-rule:evenodd;stroke:none"
             d="m 1771.83,2264.26 82.33,39.45 2.83,153.05 -36.29,104.3 -95.24,75.56 -114.86,-30.23 -76.48,-75.39 -70.14,-115.06 -35.37,-120.35 83.73,-59.51 129.51,66.03 129.98,-37.85 0,0" /><path
             id="path66"
             style="fill:none;stroke:#231f20;stroke-width:7.06775999;stroke-linecap:butt;stroke-linejoin:miter;stroke-miterlimit:2.61310005;stroke-dasharray:none;stroke-opacity:1"
             d="m 1771.83,2264.26 82.33,39.45 2.83,153.05 -36.29,104.3 -95.24,75.56 -114.86,-30.23 -76.48,-75.39 -70.14,-115.06 -35.37,-120.35 83.73,-59.51 129.51,66.03 129.98,-37.85 0,0 z" /><path
             id="path68"
             style="fill:none;stroke:#231f20;stroke-width:35.33599854;stroke-linecap:butt;stroke-linejoin:miter;stroke-miterlimit:2.61310005;stroke-dasharray:none;stroke-opacity:1"
             d="m 1744.78,2625.22 c 106.72,-37.15 147.48,-212.58 90.78,-390.53 -56.68,-178.01 -189.96,-292.85 -296.66,-255.7 -106.68,37.14 -147.46,212.59 -90.78,390.52 56.7,177.99 189.96,292.91 296.66,255.71 l 0,0 z" /><path
             id="path70"
             style="fill:none;stroke:#231f20;stroke-width:35.3368988;stroke-linecap:round;stroke-linejoin:round;stroke-miterlimit:2.61310005;stroke-dasharray:none;stroke-opacity:1"
             d="m 1534.12,2531 128.71,218.01" /><path
             id="path72"
             style="fill:#231f20;fill-opacity:1;fill-rule:evenodd;stroke:none"
             d="m 1651.26,2392.46 c 45.36,0 82.33,-43.26 82.33,-96.25 0,-53.02 -36.97,-96.25 -82.33,-96.25 -45.35,0 -82.32,43.23 -82.32,96.25 0,52.99 36.97,96.25 82.32,96.25 l 0,0" /><path
             id="path74"
             style="fill:none;stroke:#231f20;stroke-width:7.06775999;stroke-linecap:butt;stroke-linejoin:miter;stroke-miterlimit:2.61310005;stroke-dasharray:none;stroke-opacity:1"
             d="m 1651.26,2392.46 c 45.36,0 82.33,-43.26 82.33,-96.25 0,-53.02 -36.97,-96.25 -82.33,-96.25 -45.35,0 -82.32,43.23 -82.32,96.25 0,52.99 36.97,96.25 82.32,96.25 l 0,0 z" /><path
             id="path76"
             style="fill:none;stroke:#231f20;stroke-width:14.13560009;stroke-linecap:butt;stroke-linejoin:miter;stroke-miterlimit:2.61310005;stroke-dasharray:none;stroke-opacity:1"
             d="m 1858.78,2325.74 c -68.02,-61.05 -114.94,-68.71 -173.71,-15.37 m -257.65,4.94 c 47.56,-60.62 110.66,-67.03 164.41,-20.11" /><path
             id="path78"
             style="fill:#231f20;fill-opacity:1;fill-rule:evenodd;stroke:none"
             d="m 1428.61,2295.59 68.4,-39.44 99.72,23.21 175.1,-15.1 82.33,39.45 -46.39,-135.66 -74.2,-112.5 -117.13,-77.68 -133.36,30.14 -42.91,84.65 -18.53,119.43 6.97,83.5 0,0" /><path
             id="path80"
             style="fill:none;stroke:#231f20;stroke-width:7.06775999;stroke-linecap:butt;stroke-linejoin:miter;stroke-miterlimit:2.61310005;stroke-dasharray:none;stroke-opacity:1"
             d="m 1428.61,2295.59 68.4,-39.44 99.72,23.21 175.1,-15.1 82.33,39.45 -46.39,-135.66 -74.2,-112.5 -117.13,-77.68 -133.36,30.14 -42.91,84.65 -18.53,119.43 6.97,83.5 0,0 z" /><path
             id="path82"
             style="fill:#231f20;fill-opacity:1;fill-rule:evenodd;stroke:none"
             d="m 2678.22,1115.49 c 18.85,-190.31 -22.66,-317.912 -76.33,-424.549 81.23,47.071 175.98,127.36 149.53,397.319 -3.83,39.05 -48.83,51.98 -73.2,27.23 l 0,0" /><path
             id="path84"
             style="fill:none;stroke:#231f20;stroke-width:7.06775999;stroke-linecap:round;stroke-linejoin:round;stroke-miterlimit:2.61310005;stroke-dasharray:none;stroke-opacity:1"
             d="m 2678.22,1115.49 c 18.85,-190.31 -22.66,-317.912 -76.33,-424.549 81.23,47.071 175.98,127.36 149.53,397.319 -3.83,39.05 -48.83,51.98 -73.2,27.23 l 0,0 z" /><path
             id="path86"
             style="fill:#231f20;fill-opacity:1;fill-rule:evenodd;stroke:none"
             d="m 2847.67,1050.98 c 16.95,-171.289 -20.39,-286.101 -68.67,-382.109 73.08,42.379 158.4,114.609 134.53,357.639 -3.44,35.07 -43.91,46.73 -65.86,24.47 l 0,0" /><path
             id="path88"
             style="fill:none;stroke:#231f20;stroke-width:7.06779003;stroke-linecap:round;stroke-linejoin:round;stroke-miterlimit:2.61310005;stroke-dasharray:none;stroke-opacity:1"
             d="m 2847.67,1050.98 c 16.95,-171.289 -20.39,-286.101 -68.67,-382.109 73.08,42.379 158.4,114.609 134.53,357.639 -3.44,35.07 -43.91,46.73 -65.86,24.47 l 0,0 z" /><path
             id="path90"
             style="fill:#231f20;fill-opacity:1;fill-rule:evenodd;stroke:none"
             d="m 3008.78,986.449 c 15.06,-152.269 -18.14,-254.301 -61.07,-339.629 65,37.668 140.8,101.848 119.65,317.91 -3.09,31.211 -39.04,41.5 -58.58,21.719 l 0,0" /><path
             id="path92"
             style="fill:none;stroke:#231f20;stroke-width:7.06782007;stroke-linecap:round;stroke-linejoin:round;stroke-miterlimit:2.61310005;stroke-dasharray:none;stroke-opacity:1"
             d="m 3008.78,986.449 c 15.06,-152.269 -18.14,-254.301 -61.07,-339.629 65,37.668 140.8,101.848 119.65,317.91 -3.09,31.211 -39.04,41.5 -58.58,21.719 l 0,0 z" /><path
             id="path94"
             style="fill:none;stroke:#231f20;stroke-width:35.3368988;stroke-linecap:round;stroke-linejoin:round;stroke-miterlimit:2.61310005;stroke-dasharray:none;stroke-opacity:1"
             d="m 799.254,1254.42 c 4.316,107.55 -14.649,218.1 -37.676,315.46" /><path
             id="path96"
             style="fill:#ffffff;fill-opacity:1;fill-rule:evenodd;stroke:none"
             d="m 1241.32,1445.35 c 97.21,-315.8 242.99,-353.88 437.41,-210.64 39.14,-194.12 112.03,-399.812 194.37,-566.991 l -502.5,-410.84 c -200.64,-164.0509 -447.557,85.84 -404.764,273.402 42.794,187.528 96.604,316.129 170.194,481.709 43.4,97.64 74.86,273.75 105.29,433.36 l 0,0" /><path
             id="path98"
             style="fill:none;stroke:#231f20;stroke-width:28.2696991;stroke-linecap:round;stroke-linejoin:round;stroke-miterlimit:2.61310005;stroke-dasharray:none;stroke-opacity:1"
             d="m 1241.32,1445.35 c 97.21,-315.8 242.99,-353.88 437.41,-210.64 39.14,-194.12 112.03,-399.812 194.37,-566.991 l -502.5,-410.84 c -200.64,-164.0509 -447.557,85.84 -404.764,273.402 42.794,187.528 96.604,316.129 170.194,481.709 43.4,97.64 74.86,273.75 105.29,433.36 l 0,0 z" /><path
             id="path100"
             style="fill:none;stroke:#231f20;stroke-width:14.13560009;stroke-linecap:round;stroke-linejoin:round;stroke-miterlimit:2.61310005;stroke-dasharray:none;stroke-opacity:1"
             d="m 995.113,604.551 c 3.496,6.98 21.937,60.84 25.387,67.437 107.37,204.711 200.71,214.5 247.58,-32.34 76.39,119.731 152.75,86.84 190.31,-40.699 28.44,-86.98 2.33,-211.211 -77.22,-318.621" /><path
             id="path102"
             style="fill:#231f20;fill-opacity:1;fill-rule:evenodd;stroke:none"
             d="m 1283.33,734.219 -81.52,-309.141 c -17.64,-66.887 69.69,-56.879 71.45,-2.168 l 10.07,311.309 0,0" /><path
             id="path104"
             style="fill:none;stroke:#231f20;stroke-width:7.06775999;stroke-linecap:round;stroke-linejoin:round;stroke-miterlimit:2.61310005;stroke-dasharray:none;stroke-opacity:1"
             d="m 1283.33,734.219 -81.52,-309.141 c -17.64,-66.887 69.69,-56.879 71.45,-2.168 l 10.07,311.309 0,0 z" /><path
             id="path106"
             style="fill:#231f20;fill-opacity:1;fill-rule:evenodd;stroke:none"
             d="m 1345.05,1218.99 113.85,-65.14 137.21,31.56 74.18,34.63 79.28,-273.77 L 1873.1,667.719 1770.89,590.16 1399.94,280.801 c 34.61,71.898 60.33,143.847 77.24,215.73 -0.97,53.43 -10.8,103.258 -29.47,149.571 l -58.95,71.23 -50.82,-5.102 -67.07,-55.98 -49.8,138.441 -53.87,37.618 -47.77,-18.321 -95.53,-105.816 15.26,90.539 L 1154,1045 l 55.9,179.08 31.5,190.24 46.74,-100.72 56.91,-94.61 0,0" /><path
             id="path108"
             style="fill:none;stroke:#231f20;stroke-width:7.06775999;stroke-linecap:butt;stroke-linejoin:miter;stroke-miterlimit:2.61310005;stroke-dasharray:none;stroke-opacity:1"
             d="m 1345.05,1218.99 113.85,-65.14 137.21,31.56 74.18,34.63 79.28,-273.77 L 1873.1,667.719 1770.89,590.16 1399.94,280.801 c 34.61,71.898 60.33,143.847 77.24,215.73 -0.97,53.43 -10.8,103.258 -29.47,149.571 l -58.95,71.23 -50.82,-5.102 -67.07,-55.98 -49.8,138.441 -53.87,37.618 -47.77,-18.321 -95.53,-105.816 15.26,90.539 L 1154,1045 l 55.9,179.08 31.5,190.24 46.74,-100.72 56.91,-94.61 0,0 z" /><path
             id="path110"
             style="fill:none;stroke:#231f20;stroke-width:35.3368988;stroke-linecap:round;stroke-linejoin:round;stroke-miterlimit:2.61310005;stroke-dasharray:none;stroke-opacity:1"
             d="M 769.664,2738.28 C 1071.09,3117.6 531.891,3913.68 240.602,4339.65 M 1976.09,478.629 c -56.39,72.66 -94.1,154.109 -128.15,227.152" /><path
             id="path112"
             style="fill:#231f20;fill-opacity:1;fill-rule:evenodd;stroke:none"
             d="m 1184.41,2976.64 c 105.04,11.53 212.67,17.83 287.3,60.98 92,53.22 187.7,111.44 303.68,117.3 109.53,5.57 149.33,-66.11 132.03,-176.72 -67.23,-9.17 -135.9,14.95 -228.89,14.26 -108.77,-0.78 -203.28,-72.73 -298.16,-95 -84.22,-19.74 -150.04,34.16 -195.96,79.18 l 0,0" /><path
             id="path114"
             style="fill:none;stroke:#231f20;stroke-width:10.00059986;stroke-linecap:round;stroke-linejoin:round;stroke-miterlimit:2.61310005;stroke-dasharray:none;stroke-opacity:1"
             d="m 1184.41,2976.64 c 105.04,11.53 212.67,17.83 287.3,60.98 92,53.22 187.7,111.44 303.68,117.3 109.53,5.57 149.33,-66.11 132.03,-176.72 -67.23,-9.17 -135.9,14.95 -228.89,14.26 -108.77,-0.78 -203.28,-72.73 -298.16,-95 -84.22,-19.74 -150.04,34.16 -195.96,79.18 l 0,0 z" /><path
             id="path116"
             style="fill:#231f20;fill-opacity:1;fill-rule:evenodd;stroke:none"
             d="m 2717.71,3048.56 c -74.1,-0.28 -56.54,-111.74 -2.19,-162.89 250.31,14.14 445.98,-61.76 566.31,-261.72 24.53,257.13 -175.27,425.99 -564.12,424.61 l 0,0" /><path
             id="path118"
             style="fill:none;stroke:#231f20;stroke-width:10.00059986;stroke-linecap:round;stroke-linejoin:round;stroke-miterlimit:2.61310005;stroke-dasharray:none;stroke-opacity:1"
             d="m 2717.71,3048.56 c -74.1,-0.28 -56.54,-111.74 -2.19,-162.89 250.31,14.14 445.98,-61.76 566.31,-261.72 24.53,257.13 -175.27,425.99 -564.12,424.61 l 0,0 z" /></g></g></g></g></svg>