<?xml version="1.0" encoding="UTF-8" standalone="no"?>
<svg
   xmlns:dc="http://purl.org/dc/elements/1.1/"
   xmlns:cc="http://creativecommons.org/ns#"
   xmlns:rdf="http://www.w3.org/1999/02/22-rdf-syntax-ns#"
   xmlns:svg="http://www.w3.org/2000/svg"
   xmlns="http://www.w3.org/2000/svg"
   viewBox="0 0 541.42499 533"
   height="533"
   width="541.42499"
   xml:space="preserve"
   version="1.1"
   id="svg2"><metadata
     id="metadata8"><rdf:RDF><cc:Work
         rdf:about=""><dc:format>image/svg+xml</dc:format><dc:type
           rdf:resource="http://purl.org/dc/dcmitype/StillImage" /></cc:Work></rdf:RDF></metadata><defs
     id="defs6"><clipPath
       id="clipPath18"
       clipPathUnits="userSpaceOnUse"><path
         id="path20"
         d="m 0,0 4331,0 0,4263.98 -4331,0 L 0,0 Z" /></clipPath></defs><g
     transform="matrix(1.25,0,0,-1.25,0,533)"
     id="g10"><g
       transform="scale(0.1,0.1)"
       id="g12"><g
         id="g14"><g
           clip-path="url(#clipPath18)"
           id="g16"><path
             id="path22"
             style="fill:#0b2b4d;fill-opacity:1;fill-rule:evenodd;stroke:none"
             d="m 2166.5,4263.75 c 31.89,0 351.98,8.8 483.29,-82.31 129.89,-90.23 37.18,-445.75 22.26,-460.89 -43.63,-44.29 917.72,-17.57 936.32,-20.26 18.6,-2.63 414.92,-416.63 372.66,-435.38 -162.31,-72.11 -1299.87,-114.57 -1329.1,-130.48 -29.2,-15.97 -85.74,-666.55 -85.74,-709.98 0,-39.63 835.24,602.23 1260.64,621.61 290.95,13.23 403.03,-285.2 426.03,-368.63 25.66,-93.18 99.69,-339.52 72.75,-725.3 -12.63,-180.94 -135.23,-891.78 -512.7,-1200.919 -98.17,-80.34 -308.02,-177.949 -465,-85.031 -134.46,79.652 -716.09,547.43 -698.12,549.38 101.06,10.85 268.29,-50.64 347.46,3.31 119.95,81.6 128.81,606.12 146.15,786.41 2.88,30.17 -398.49,-101.03 -470.21,-151.49 -71.74,-50.46 -164.08,-151.14 -188.23,-241.37 -25.43,-95.26 20.6,-238.12 -20.37,-238.12 l -596.18,0 c -40.97,0 5.03,142.86 -20.37,238.12 -24.11,90.23 -116.46,190.91 -188.17,241.37 -71.74,50.46 -473.15,181.66 -470.23,151.49 17.4,-180.29 26.19,-704.81 146.09,-786.41 79.28,-53.95 246.48,7.54 347.51,-3.31 18.03,-1.95 -563.69,-469.728 -698.146,-549.38 C 828.203,573.262 618.316,670.871 520.176,751.211 142.715,1060.35 20.0859,1771.19 7.39844,1952.13 c -26.88674,385.78 24.71486,574.01 71.17186,725.3 25.7187,83.71 136.6837,381.86 427.6017,368.63 425.492,-19.38 1260.648,-661.24 1260.648,-621.61 0,43.43 -56.47,694.01 -85.69,709.98 -29.2,15.91 -1166.81,58.37 -1329.153,130.48 -42.262,18.75 354.113,432.75 372.773,435.38 18.594,2.69 979.86,-24.03 936.32,20.26 -14.94,15.14 -107.69,370.66 22.17,460.89 131.26,91.11 451.41,82.31 483.26,82.31 l 0,0" /><path
             id="path24"
             style="fill:#0b2b4d;fill-opacity:1;fill-rule:evenodd;stroke:none"
             d="m 2166.5,1256.35 c 0,0 -34.8,1.03 275.44,1.15 57.94,0 670.8,-922.531 723.71,-993.039 22.52,-29.941 -163.83,-99.539 -220.37,-97.031 -102.34,4.691 -373.03,267.32 -405.52,299.781 -32.54,32.57 49.72,-390.8712 26.43,-418.7501 C 2543.02,20.5703 2166.5,0 2166.5,0 c 0,0 -376.37,20.5703 -399.68,48.4609 -23.23,27.8789 59,451.3201 26.48,418.7501 -32.55,-32.461 -303.26,-295.09 -405.55,-299.781 -56.48,-2.508 -242.88,67.09 -220.4,97.031 52.91,70.508 664.95,993.949 722.92,993.039 276.23,0 276.23,-1.15 276.23,-1.15 l 0,0" /></g></g></g></g></svg>