<?xml version="1.0" encoding="UTF-8" standalone="no"?>
<svg
   xmlns:dc="http://purl.org/dc/elements/1.1/"
   xmlns:cc="http://creativecommons.org/ns#"
   xmlns:rdf="http://www.w3.org/1999/02/22-rdf-syntax-ns#"
   xmlns:svg="http://www.w3.org/2000/svg"
   xmlns="http://www.w3.org/2000/svg"
   xmlns:sodipodi="http://sodipodi.sourceforge.net/DTD/sodipodi-0.dtd"
   xmlns:inkscape="http://www.inkscape.org/namespaces/inkscape"
   viewBox="0 0 650 650"
   height="650"
   width="650"
   xml:space="preserve"
   version="1.1"
   id="svg2"
   inkscape:version="0.48.5 r10040"
   sodipodi:docname="favicon.svg"
   inkscape:export-filename="D:\Dropbox\Alex_Fabian\Homepage Pfadis\pelican\content\images\logos\favicon.png"
   inkscape:export-xdpi="90"
   inkscape:export-ydpi="90"><sodipodi:namedview
     pagecolor="#ffffff"
     bordercolor="#666666"
     borderopacity="1"
     objecttolerance="10"
     gridtolerance="10"
     guidetolerance="10"
     inkscape:pageopacity="0"
     inkscape:pageshadow="2"
     inkscape:window-width="1366"
     inkscape:window-height="715"
     id="namedview13"
     showgrid="false"
     inkscape:zoom="0.36224794"
     inkscape:cx="326.06876"
     inkscape:cy="325.74374"
     inkscape:window-x="-8"
     inkscape:window-y="-8"
     inkscape:window-maximized="1"
     inkscape:current-layer="svg2" /><metadata
     id="metadata8"><rdf:RDF><cc:Work
         rdf:about=""><dc:format>image/svg+xml</dc:format><dc:type
           rdf:resource="http://purl.org/dc/dcmitype/StillImage" /><dc:title></dc:title></cc:Work></rdf:RDF></metadata><defs
     id="defs6"><clipPath
       id="clipPath18"
       clipPathUnits="userSpaceOnUse"><path
         id="path20"
         d="m 0,0 5217,0 0,5211.94 -5217,0 L 0,0 z"
         inkscape:connector-curvature="0" /></clipPath></defs><g
     transform="matrix(1.2459268,0,0,-1.2471377,0,650.00067)"
     id="g10"><g
       transform="scale(0.1,0.1)"
       id="g12"><g
         id="g14"><g
           clip-path="url(#clipPath18)"
           id="g16"><path
             id="path22"
             style="fill:#231f20;fill-opacity:1;fill-rule:evenodd;stroke:none"
             d="m 2912.92,1548.26 0,290 c 0,81.49 17.96,172.66 147.79,266.55 187.77,135.29 451.56,157.42 676.64,234.76 l -121.52,-883.85 c -21.39,-160.87 -87.68,-167.07 -203.01,-146.36 l -320.35,58 c 230.6,-208.51 459.84,-418.411 687.69,-628.321 128.44,-118.75 220.27,-150.539 400.49,-136.711 128.42,10.352 189.86,86.992 283.1,185.031 280.32,294.851 716.7,857.581 745.71,1719.301 20.7,133.95 -4.16,256.86 -30.37,411.51 -24.89,233.4 -82.87,346.62 -225.1,513.73 -182.31,162.93 -390.82,144.3 -609.02,66.27 -405.32,-146.37 -883.81,-436.39 -1280.12,-632.48 l 125.66,860.35 1597.76,67.66 c 135.33,6.89 135.33,9.67 75.95,113.24 -96.68,175.37 -196.09,321.76 -377.01,495.76 -35.88,38.68 -71.79,64.91 -135.33,62.15 l -1082.66,0 c 0,0 6.92,41.43 17.93,99.42 14.52,76.64 46.96,321.75 48.36,419.82 4.14,131.19 -187.83,175.37 -327.3,194.71 -131.17,19.31 -139.46,26.23 -399.1,33.14 -260.29,-6.91 -268.57,-14.49 -400.47,-33.14 -138.77,-20.02 -330.72,-64.22 -327.28,-194.71 2.09,-98.07 33.85,-343.18 48.34,-419.82 11.05,-58.7 18.63,-100.12 17.95,-100.12 l -1081.974,0.7 C 802.141,4466.9 766.238,4441.38 730.344,4402 548.738,4228 450.012,4081.63 353.352,3906.26 293.953,3802.68 293.953,3799.91 428.605,3793.7 l 1597.755,-68.36 125.66,-859.65 c -396.33,195.43 -874.12,485.41 -1280.133,631.8 -217.5,78.02 -426.719,96.66 -608.301,-66.29 C 120.652,3264.11 62.6641,3151.57 37.7812,2918.17 11.5508,2763.52 -13.2891,2639.91 8.09375,2506.66 36.4141,1644.26 473.484,1082.21 753.113,787.359 846.34,689.32 908.484,612.68 1036.9,602.328 c 179.54,-13.828 272.06,17.961 399.81,136.711 228.53,209.91 457.79,419.091 687.69,627.621 l -319.68,-57.3 c -117.39,-20.71 -182.29,-15.2 -203.69,146.36 l -121.51,883.85 c 225.08,-78.03 491.6,-102.87 676.66,-234.76 127.74,-91.86 150.51,-193.36 149.14,-266.55 l -7.6,-290.68 615.2,0.68 0,0"
             inkscape:connector-curvature="0" /><path
             id="path24"
             style="fill:#231f20;fill-opacity:1;fill-rule:evenodd;stroke:none"
             d="m 2609.11,0.21875 c 98.75,-2.05078 268.61,11.03125 367.34,24.17965 121.52,20.6993 123.59,12.4414 115.33,117.3826 l -28.32,342.457 350.76,-287.929 c 78.71,-58.688 318.3,28.32 284.46,73.199 l -793.36,1126.842 -592.4,0 -793.36,-1126.842 c -33.83,-44.879 205.76,-131.887 284.47,-73.199 l 350.76,287.929 -28.3,-342.457 c -8.3,-104.9412 -6.21,-96.6833 115.3,-117.3826 98.75,-13.1484 268.59,-26.23043 367.32,-24.17965 l 0,0"
             inkscape:connector-curvature="0" /></g></g></g></g></svg>