<?xml version="1.0" encoding="UTF-8" standalone="no"?>
<!-- Created with Inkscape (http://www.inkscape.org/) -->

<svg
   xmlns:dc="http://purl.org/dc/elements/1.1/"
   xmlns:cc="http://creativecommons.org/ns#"
   xmlns:rdf="http://www.w3.org/1999/02/22-rdf-syntax-ns#"
   xmlns:svg="http://www.w3.org/2000/svg"
   xmlns="http://www.w3.org/2000/svg"
   xmlns:sodipodi="http://sodipodi.sourceforge.net/DTD/sodipodi-0.dtd"
   xmlns:inkscape="http://www.inkscape.org/namespaces/inkscape"
   width="141.73289"
   height="141.733"
   viewBox="0 0 141.73289 141.733"
   id="svg2"
   version="1.1"
   inkscape:version="0.48.5 r10040"
   sodipodi:docname="HPI_full.svg">
  <defs
     id="defs4">
    <clipPath
       id="clipPath3001"
       clipPathUnits="userSpaceOnUse">
      <path
         id="path3003"
         d="m 0,0 2466,0 0,1785.83 -2466,0 L 0,0 z"
         inkscape:connector-curvature="0" />
    </clipPath>
  </defs>
  <sodipodi:namedview
     id="base"
     pagecolor="#ffffff"
     bordercolor="#666666"
     borderopacity="1.0"
     inkscape:pageopacity="0.0"
     inkscape:pageshadow="2"
     inkscape:zoom="1.4"
     inkscape:cx="-19.453124"
     inkscape:cy="66.746288"
     inkscape:document-units="px"
     inkscape:current-layer="layer1"
     showgrid="false"
     fit-margin-top="0"
     fit-margin-left="0"
     fit-margin-right="0"
     fit-margin-bottom="0"
     inkscape:window-width="1920"
     inkscape:window-height="1027"
     inkscape:window-x="1358"
     inkscape:window-y="-8"
     inkscape:window-maximized="1" />
  <metadata
     id="metadata7">
    <rdf:RDF>
      <cc:Work
         rdf:about="">
        <dc:format>image/svg+xml</dc:format>
        <dc:type
           rdf:resource="http://purl.org/dc/dcmitype/StillImage" />
        <dc:title></dc:title>
      </cc:Work>
    </rdf:RDF>
  </metadata>
  <g
     inkscape:label="Layer 1"
     inkscape:groupmode="layer"
     id="layer1"
     transform="translate(-222.00855,-445.83625)">
    <path
       id="path3009"
       style="fill:#b00c36;fill-opacity:1;fill-rule:nonzero;stroke:none"
       d="m 222.00855,587.56925 124.01413,0 0,-124.01563 -124.01413,0 0,124.01563 z"
       inkscape:connector-curvature="0" />
    <path
       id="path3011"
       style="fill:#f89c0e;fill-opacity:1;fill-rule:nonzero;stroke:none"
       d="m 257.44306,552.13512 106.29838,0 0,-106.29887 -106.29838,0 0,106.29887 z"
       inkscape:connector-curvature="0" />
    <path
       id="path3013"
       style="fill:#e25617;fill-opacity:1;fill-rule:nonzero;stroke:none"
       d="m 257.44306,552.13512 88.57963,0 0,-88.5815 -88.57963,0 0,88.5815 z"
       inkscape:connector-curvature="0" />
    <path
       id="path3015"
       style="fill:#ffffff;fill-opacity:1;fill-rule:nonzero;stroke:none"
       d="m 293.47344,477.31412 -4.0835,0 c -0.45413,0 -0.82525,0.33 -0.82525,0.78375 l 0,11.38625 -11.71488,0 0,-11.38625 c 0,-0.45375 -0.371,-0.78375 -0.82512,-0.78375 l -4.0835,0 c -0.45412,0 -0.82525,0.33 -0.82525,0.78375 l 0,29.04 c 0,0.45375 0.37113,0.825 0.82525,0.825 l 4.0835,0 c 0.45412,0 0.82512,-0.37125 0.82512,-0.825 l 0,-12.6225 11.71488,0 0,12.6225 c 0,0.45375 0.37112,0.825 0.82525,0.825 l 4.0835,0 c 0.454,0 0.82512,-0.37125 0.82512,-0.825 l 0,-29.04 c 0,-0.45375 -0.37112,-0.78375 -0.82512,-0.78375 z m 16.48775,-0.33 c -3.01175,0 -5.94,0.20625 -8.086,0.53625 -0.82512,0.12375 -1.31925,0.41375 -1.31925,1.2375 l 0,28.38 c 0,0.45375 0.37112,0.825 0.82512,0.825 l 4.1245,0 c 0.45413,0 0.78375,-0.37125 0.78375,-0.825 l 0,-10.76625 c 0.94875,0.0412 2.59913,0.165 3.67188,0.165 6.3525,0 11.87987,-2.35125 11.87987,-9.6525 l 0,-0.37125 c 0,-7.30125 -5.52737,-9.52875 -11.87987,-9.52875 z m 6.1865,9.9 c 0,3.3 -1.73188,4.95125 -6.1865,4.95125 -0.70163,0 -3.01175,-0.0838 -3.67188,-0.125 l 0,-9.8175 c 0.74213,-0.0825 2.80513,-0.165 3.67188,-0.165 4.125,0 6.1865,1.32 6.1865,4.785 l 0,0.37125 z m 15.3785,-9.57 -4.0845,0 c -0.45413,0 -0.82525,0.33 -0.82525,0.78375 l 0,29.04 c 0,0.45375 0.37113,0.825 0.82525,0.825 l 4.0845,0 c 0.45312,0 0.82512,-0.37125 0.82512,-0.825 l 0,-29.04 c 0,-0.45375 -0.372,-0.78375 -0.82512,-0.78375"
       inkscape:connector-curvature="0" />
  </g>
</svg>
