<?xml version="1.0" encoding="UTF-8" standalone="no"?>
<!-- Created with Inkscape (http://www.inkscape.org/) -->

<svg
   xmlns:dc="http://purl.org/dc/elements/1.1/"
   xmlns:cc="http://creativecommons.org/ns#"
   xmlns:rdf="http://www.w3.org/1999/02/22-rdf-syntax-ns#"
   xmlns:svg="http://www.w3.org/2000/svg"
   xmlns="http://www.w3.org/2000/svg"
   xmlns:sodipodi="http://sodipodi.sourceforge.net/DTD/sodipodi-0.dtd"
   xmlns:inkscape="http://www.inkscape.org/namespaces/inkscape"
   width="305.98288"
   height="173.05188"
   id="svg2"
   version="1.1"
   inkscape:version="0.48.1 "
   sodipodi:docname="New document 1">
  <defs
     id="defs4">
    <clipPath
       id="clipPath3001"
       clipPathUnits="userSpaceOnUse">
      <path
         id="path3003"
         d="m 0,0 2466,0 0,1785.83 -2466,0 L 0,0 z"
         inkscape:connector-curvature="0" />
    </clipPath>
  </defs>
  <sodipodi:namedview
     id="base"
     pagecolor="#ffffff"
     bordercolor="#666666"
     borderopacity="1.0"
     inkscape:pageopacity="0.0"
     inkscape:pageshadow="2"
     inkscape:zoom="1.4"
     inkscape:cx="117.33259"
     inkscape:cy="98.065158"
     inkscape:document-units="px"
     inkscape:current-layer="layer1"
     showgrid="false"
     fit-margin-top="0"
     fit-margin-left="0"
     fit-margin-right="0"
     fit-margin-bottom="0"
     inkscape:window-width="551"
     inkscape:window-height="443"
     inkscape:window-x="1070"
     inkscape:window-y="204"
     inkscape:window-maximized="0" />
  <metadata
     id="metadata7">
    <rdf:RDF>
      <cc:Work
         rdf:about="">
        <dc:format>image/svg+xml</dc:format>
        <dc:type
           rdf:resource="http://purl.org/dc/dcmitype/StillImage" />
        <dc:title></dc:title>
      </cc:Work>
    </rdf:RDF>
  </metadata>
  <g
     inkscape:label="Layer 1"
     inkscape:groupmode="layer"
     id="layer1"
     transform="translate(-222.00855,-445.83624)">
    <g
       transform="matrix(1.25,0,0,-1.25,220.75269,668.17912)"
       inkscape:label="ink_ext_XXXXXX"
       id="g2993">
      <g
         transform="scale(0.1,0.1)"
         id="g2995">
        <g
           id="g2997">
          <g
             clip-path="url(#clipPath3001)"
             id="g2999">
            <path
               id="path3005"
               style="fill:#4f5358;fill-opacity:1;fill-rule:nonzero;stroke:none"
               d="m 19.7227,516.91 -6.9414,0 c -1.3868,0 -2.2657,-1.172 -2.2657,-2.461 l 0,-91.519 c 0,-1.43 1.0039,-2.602 2.2657,-2.602 l 6.9414,0 c 1.3867,0 2.2656,1.293 2.2656,2.602 l 0,91.519 c 0,1.43 -1.0156,2.461 -2.2656,2.461 z m 78.8593,0 -60.6562,0 c -1.3867,0 -2.5195,-1.031 -2.5195,-2.34 l 0,-5.699 c 0,-1.449 1.1328,-2.09 2.5195,-2.09 l 24.5898,0 0,-83.851 c 0,-1.43 1.0078,-2.602 2.2657,-2.602 l 6.9335,0 c 1.3868,0 2.2774,1.293 2.2774,2.602 l 0,83.851 24.5898,0 c 1.3868,0 2.391,0.778 2.391,2.09 l 0,5.699 c 0,1.442 -1.0042,2.34 -2.391,2.34 z m 76.785,-44.98 -11.601,7.148 c -9.578,6 -13.739,9.633 -13.739,15.742 0,9.5 5.547,12.352 18.536,12.352 7.312,0 16.14,-0.391 21.687,-0.781 0.129,0 0.129,0 0.254,0 1.262,0 2.148,0.781 2.148,2.089 l 0,5.579 c 0,1.293 -0.886,1.953 -2.148,2.211 -4.793,0.781 -14.5,1.558 -21.941,1.558 -19.172,0 -30.137,-7.277 -30.137,-23.008 0,-10.41 5.801,-17.031 17.398,-24.308 l 12.239,-7.684 c 11.476,-7.258 15.128,-10.918 15.128,-17.418 0,-9.082 -4.035,-15.332 -19.171,-15.332 -5.801,0 -15,0.25 -20.801,0.781 l -0.379,0 c -1.133,0 -2.141,-0.648 -2.141,-2.07 l 0,-5.219 c 0,-1.422 0.254,-1.949 2.395,-2.34 5.547,-0.902 12.097,-1.82 20.926,-1.82 24.843,0 31.152,13.539 31.152,26 0,10.41 -5.176,17.559 -19.805,26.52 z m 80.586,19.898 -7.07,0 c -1.133,0 -2.137,-0.906 -2.391,-1.949 l -15.383,-59.41 -2.019,0 c -0.879,0 -1.77,0.25 -2.395,2.851 l -14.882,56.418 c -0.254,1.043 -1.133,2.09 -2.137,2.09 l -6.946,0 c -1.503,0 -2.265,-0.906 -2.265,-2.199 0,-0.277 0,-0.668 0.129,-0.918 l 16.765,-59.41 c 2.278,-8.071 5.547,-8.973 9.336,-8.973 l 1.77,0 -1.262,-5.328 c -2.148,-9.102 -5.301,-11.059 -12.488,-11.059 -2.774,0 -8.449,0.528 -11.223,0.789 l -0.379,0 c -1.386,0 -2.394,-0.652 -2.394,-2.082 l 0,-4.82 c 0,-1.289 1.133,-1.68 2.648,-2.066 2.645,-0.641 7.059,-1.172 10.594,-1.172 14.504,0 19.16,5.191 23.078,19.238 l 20.801,74.883 c 0.125,0.25 0.125,0.641 0.125,0.918 0,1.293 -0.75,2.199 -2.012,2.199 z m 43.223,-33.937 -12.481,7.679 c -5.8,3.508 -8.699,5.969 -8.699,9.879 0,6.621 4.656,7.539 11.727,7.539 7.062,0 15.129,-0.648 19.543,-1.039 l 0.379,0 c 1.261,0 2.14,0.653 2.14,2.211 l 0,4.301 c 0,1.418 -0.754,2.32 -2.394,2.59 -5.926,1.039 -12.606,1.679 -19.668,1.679 -12.989,0 -22.832,-3.769 -22.832,-17.281 0,-8.187 5.175,-13.789 12.871,-18.597 l 12.734,-7.793 c 7.188,-4.411 9.453,-6.887 9.453,-10.797 0,-7.012 -4.285,-9.223 -12.48,-9.223 -4.539,0 -13.75,0.652 -19.805,1.43 l -0.496,0 c -1.262,0 -2.277,-0.778 -2.277,-1.957 l 0,-4.551 c 0,-1.422 1.015,-2.199 2.656,-2.59 6.172,-1.57 15.254,-1.961 19.922,-1.961 14.121,0 23.574,5.59 23.574,18.852 0,7.679 -3.398,13.258 -13.867,19.629 z m 58.508,-29.243 -7.063,0 c -5.039,0 -6.805,1.043 -6.805,8.18 l 0,45.383 13.622,0 c 1.386,0 2.519,1.168 2.519,2.59 l 0,4.437 c 0,1.422 -1.133,2.59 -2.519,2.59 l -13.622,0 0,14.16 c 0,1.313 -0.89,2.211 -1.894,2.211 l -0.383,0 -6.551,-1.027 c -1.386,-0.262 -2.265,-1.293 -2.265,-2.602 l 0,-12.742 -12.239,0 c -1.386,0 -2.39,-0.906 -2.39,-2.34 l 0,-3.508 c 0,-1.429 1.004,-2.21 2.39,-2.351 l 12.239,-1.418 0,-45.383 c 0,-14.289 5.547,-17.418 17.148,-17.418 2.391,0 5.672,0.281 8.192,0.668 1.64,0.25 2.265,1.031 2.265,2.203 l 0,4.547 c 0,1.293 -0.879,1.82 -2.644,1.82 z m 37.148,64.082 c -18.027,0 -28,-11.808 -28,-30.41 l 0,-11.699 c 0,-24.18 14.133,-31.211 28.633,-31.211 8.449,0 15.383,0.781 22.57,2.211 2.02,0.391 2.528,1.309 2.528,3.008 l 0,4.41 c 0,1.289 -1.016,1.82 -2.02,1.82 l -0.637,0 c -5.801,-0.918 -15.125,-1.429 -22.441,-1.429 -11.602,0 -17.527,5.718 -17.527,21.191 l 0,1.82 42.246,0 c 1.511,0 2.39,1.168 2.39,2.848 l 0,7.031 c 0,18.461 -9.336,30.41 -27.742,30.41 z m 16.523,-31.582 -33.417,0 0,1.172 c 0,14.051 6.054,20.41 16.894,20.41 11.102,0 16.523,-5.718 16.523,-20.41 l 0,-1.172 z m 86.915,31.723 c -6.555,0 -13.997,-1.949 -20.93,-5.332 -3.152,3.77 -7.188,5.332 -12.617,5.332 -6.934,0 -13.36,-2.871 -18.407,-6.109 l 0,2.476 c 0,1.422 -1.007,2.59 -2.394,2.59 l -6.309,0 c -1.386,0 -2.39,-1.168 -2.39,-2.59 l 0,-66.308 c 0,-1.43 0.886,-2.602 2.136,-2.602 l 6.692,0 c 1.387,0 2.265,1.293 2.265,2.602 l 0,54.859 c 5.301,2.742 10.848,5.063 15.391,5.063 6.551,0 9.707,-2.321 9.707,-13.633 l 0,-46.289 c 0,-1.43 0.879,-2.602 2.137,-2.602 l 6.691,0 c 1.387,0 2.266,1.293 2.266,2.602 l 0,46.289 c 0,3.883 -0.383,7.261 -1.133,10.133 4.922,1.957 10.215,3.5 14.754,3.5 6.555,0 11.476,-2.993 11.476,-13.911 l 0,-46.011 c 0,-1.43 1.133,-2.602 2.52,-2.602 l 6.055,0 c 1.386,0 2.519,1.172 2.519,2.602 l 0,46.011 c 0,18.071 -9.074,23.93 -20.429,23.93 z m 64.589,-34.98 -12.48,7.679 c -5.805,3.508 -8.703,5.969 -8.703,9.879 0,6.621 4.668,7.539 11.73,7.539 7.059,0 15.125,-0.648 19.539,-1.039 l 0.379,0 c 1.262,0 2.141,0.653 2.141,2.211 l 0,4.301 c 0,1.418 -0.75,2.32 -2.391,2.59 -5.929,1.039 -12.609,1.679 -19.668,1.679 -12.988,0 -22.824,-3.769 -22.824,-17.281 0,-8.187 5.168,-13.789 12.863,-18.597 l 12.735,-7.793 c 7.187,-4.411 9.453,-6.887 9.453,-10.797 0,-7.012 -4.289,-9.223 -12.481,-9.223 -4.543,0 -13.742,0.652 -19.797,1.43 l -0.507,0 c -1.258,0 -2.266,-0.778 -2.266,-1.957 l 0,-4.551 c 0,-1.422 1.008,-2.199 2.648,-2.59 6.18,-1.57 15.254,-1.961 19.922,-1.961 14.121,0 23.582,5.59 23.582,18.852 0,7.679 -3.41,13.258 -13.875,19.629 z m 108.192,59.16 c -5.293,0.527 -17.149,0.777 -24.59,0.777 -17.656,0 -26.856,-6.887 -26.856,-24.18 l 0,-50.058 c 0,-17.281 9.2,-24.18 26.856,-24.18 7.441,0 19.797,0.141 24.59,0.668 0.762,0.113 1.262,1.031 1.262,1.813 l 0,6.621 c 0,0.918 -0.5,1.566 -1.387,1.566 l -24.336,0 c -13.371,0 -15.508,3.633 -15.508,13.512 l 0,21.859 38.711,0 c 1.387,0 2.52,1.153 2.52,2.602 l 0,4.937 c 0,1.422 -1.133,2.59 -2.52,2.59 l -38.711,0 0,18.07 c 0,9.883 2.137,13.524 15.508,13.524 l 24.336,0 c 0.887,0 1.387,0.637 1.387,1.558 l 0,6.5 c 0,0.782 -0.5,1.68 -1.262,1.821 z m 45.207,-24.321 c -7.442,0 -13.117,-1.949 -20.051,-5.968 l 0,2.476 c 0,1.422 -1.016,2.59 -2.402,2.59 l -6.297,0 c -1.387,0 -2.395,-1.168 -2.395,-2.59 l 0,-66.308 c 0,-1.43 1.133,-2.602 2.395,-2.602 l 6.18,0 c 1.386,0 2.519,1.293 2.519,2.602 l 0,54.859 c 5.801,2.992 11.731,5.063 17.023,5.063 9.579,0 13.875,-4.024 13.875,-17.153 l 0,-42.769 c 0,-1.43 1.133,-2.602 2.52,-2.602 l 6.055,0 c 1.386,0 2.519,1.172 2.519,2.602 l 0,42.769 c 0,17.289 -6.816,27.031 -21.941,27.031 z m 90.945,-0.902 -27.617,0 c -21.688,0 -27.996,-11.437 -27.996,-23 l 0,-1.058 c 0,-6.622 1.894,-11.309 5.801,-15.079 -3.528,-2.07 -5.168,-5.839 -5.168,-9.351 l 0,-0.141 c 0,-4.019 1.757,-8.32 5.8,-10.129 l 0.879,-0.398 c -4.16,-3.242 -7.949,-9.211 -7.949,-16.5 l 0,-1.172 c 0,-12.738 9.082,-20.672 29.004,-20.672 20.684,0 28.75,7.66 28.75,20.141 l 0,1.062 c 0,12.199 -11.844,15.86 -24.207,19.098 l -18.789,4.941 c -2.902,0.782 -3.906,1.95 -3.906,4.16 0,1.95 1.004,3.379 3.152,4.411 3.652,-1.563 7.941,-2.59 14.629,-2.59 19.414,0 27.988,7.929 27.988,22.219 l 0,1.058 c 0,7.012 -2.011,10.91 -4.285,13.383 l 4.539,0.91 c 1.387,0.258 2.266,0.777 2.266,2.457 l 0,3.383 c 0,1.57 -1.387,2.867 -2.891,2.867 z m -39.219,-62.398 14.25,-3.77 c 11.348,-2.988 15.379,-5.082 15.379,-10.129 l 0,-1.062 c 0,-7.149 -3.281,-11.309 -17.656,-11.309 -13.992,0 -18.152,4.551 -18.152,11.84 l 0,1.172 c 0,6.758 2.519,10 6.179,13.258 z m 28.625,38.34 c 0,-7.79 -3.41,-13.258 -17.023,-13.258 -14.5,0 -17.031,7.539 -17.031,13.258 l 0,1.058 c 0,7.262 2.91,13.902 17.031,13.902 13.613,0 17.023,-6.109 17.023,-13.902 l 0,-1.058 z m 34.383,24.058 -6.054,0 c -1.387,0 -2.52,-1.168 -2.52,-2.59 l 0,-66.308 c 0,-1.43 1.133,-2.602 2.52,-2.602 l 6.054,0 c 1.387,0 2.52,1.172 2.52,2.602 l 0,66.308 c 0,1.422 -1.133,2.59 -2.52,2.59 z m 0.254,27.043 -6.426,0 c -1.386,0 -2.527,-1.18 -2.527,-2.601 l 0,-10.391 c 0,-1.449 1.141,-2.617 2.527,-2.617 l 6.426,0 c 1.387,0 2.52,1.168 2.52,2.617 l 0,10.391 c 0,1.421 -1.133,2.601 -2.52,2.601 z m 49.902,-26.141 c -7.441,0 -13.125,-1.949 -20.058,-5.968 l 0,2.476 c 0,1.422 -1.004,2.59 -2.391,2.59 l -6.301,0 c -1.394,0 -2.402,-1.168 -2.402,-2.59 l 0,-66.308 c 0,-1.43 1.133,-2.602 2.402,-2.602 l 6.172,0 c 1.387,0 2.52,1.293 2.52,2.602 l 0,54.859 c 5.801,2.992 11.73,5.063 17.031,5.063 9.578,0 13.867,-4.024 13.867,-17.153 l 0,-42.769 c 0,-1.43 1.133,-2.602 2.52,-2.602 l 6.055,0 c 1.386,0 2.519,1.172 2.519,2.602 l 0,42.769 c 0,17.289 -6.805,27.031 -21.934,27.031 z m 63.262,0 c -18.035,0 -27.996,-11.808 -27.996,-30.41 l 0,-11.699 c 0,-24.18 14.121,-31.211 28.621,-31.211 8.449,0 15.391,0.781 22.578,2.211 2.012,0.391 2.52,1.309 2.52,3.008 l 0,4.41 c 0,1.289 -1.016,1.82 -2.02,1.82 l -0.636,0 c -5.801,-0.918 -15.125,-1.429 -22.442,-1.429 -11.601,0 -17.527,5.718 -17.527,21.191 l 0,1.82 42.246,0 c 1.512,0 2.391,1.168 2.391,2.848 l 0,7.031 c 0,18.461 -9.325,30.41 -27.735,30.41 z m 16.516,-31.582 -33.418,0 0,1.172 c 0,14.051 6.055,20.41 16.902,20.41 11.094,0 16.516,-5.718 16.516,-20.41 l 0,-1.172 z m 50.734,31.582 c -18.039,0 -28,-11.808 -28,-30.41 l 0,-11.699 c 0,-24.18 14.121,-31.211 28.62,-31.211 8.46,0 15.39,0.781 22.58,2.211 2.01,0.391 2.52,1.309 2.52,3.008 l 0,4.41 c 0,1.289 -1.02,1.82 -2.02,1.82 l -0.63,0 c -5.8,-0.918 -15.13,-1.429 -22.45,-1.429 -11.6,0 -17.518,5.718 -17.518,21.191 l 0,1.82 42.238,0 c 1.51,0 2.39,1.168 2.39,2.848 l 0,7.031 c 0,18.461 -9.32,30.41 -27.73,30.41 z m 16.51,-31.582 -33.408,0 0,1.172 c 0,14.051 6.048,20.41 16.898,20.41 11.09,0 16.51,-5.718 16.51,-20.41 l 0,-1.172 z m 53,31.582 c -5.68,0 -11.48,-1.679 -17.77,-6.23 l 0,2.738 c 0,1.422 -1.02,2.59 -2.41,2.59 l -5.91,0 c -1.4,0 -2.41,-1.168 -2.41,-2.59 l 0,-66.308 c 0,-1.43 1.14,-2.602 2.41,-2.602 l 6.17,0 c 1.38,0 2.52,1.293 2.52,2.602 l 0,54.468 c 6.31,3.911 11.6,5.454 17.4,5.454 1.77,0 2.66,0.777 2.66,2.226 l 0,5.313 c 0,1.558 -0.89,2.339 -2.66,2.339 z m 22.99,-0.902 -6.06,0 c -1.38,0 -2.52,-1.168 -2.52,-2.59 l 0,-66.308 c 0,-1.43 1.14,-2.602 2.52,-2.602 l 6.06,0 c 1.38,0 2.52,1.172 2.52,2.602 l 0,66.308 c 0,1.422 -1.14,2.59 -2.52,2.59 z m 0.25,27.043 -6.42,0 c -1.39,0 -2.53,-1.18 -2.53,-2.601 l 0,-10.391 c 0,-1.449 1.14,-2.617 2.53,-2.617 l 6.42,0 c 1.39,0 2.52,1.168 2.52,2.617 l 0,10.391 c 0,1.421 -1.13,2.601 -2.52,2.601 z m 49.88,-26.141 c -7.44,0 -13.11,-1.949 -20.05,-5.968 l 0,2.476 c 0,1.422 -1,2.59 -2.39,2.59 l -6.31,0 c -1.38,0 -2.39,-1.168 -2.39,-2.59 l 0,-66.308 c 0,-1.43 1.13,-2.602 2.39,-2.602 l 6.19,0 c 1.38,0 2.51,1.293 2.51,2.602 l 0,54.859 c 5.81,2.992 11.73,5.063 17.03,5.063 9.59,0 13.87,-4.024 13.87,-17.153 l 0,-42.769 c 0,-1.43 1.14,-2.602 2.52,-2.602 l 6.06,0 c 1.38,0 2.52,1.172 2.52,2.602 l 0,42.769 c 0,17.289 -6.81,27.031 -21.95,27.031 z m 90.95,-0.902 -27.62,0 c -21.69,0 -27.99,-11.437 -27.99,-23 l 0,-1.058 c 0,-6.622 1.89,-11.309 5.8,-15.079 -3.53,-2.07 -5.17,-5.839 -5.17,-9.351 l 0,-0.141 c 0,-4.019 1.77,-8.32 5.8,-10.129 l 0.88,-0.398 c -4.16,-3.242 -7.94,-9.211 -7.94,-16.5 l 0,-1.172 c 0,-12.738 9.08,-20.672 29,-20.672 20.68,0 28.75,7.66 28.75,20.141 l 0,1.062 c 0,12.199 -11.85,15.86 -24.21,19.098 l -18.79,4.941 c -2.89,0.782 -3.91,1.95 -3.91,4.16 0,1.95 1.02,3.379 3.15,4.411 3.67,-1.563 7.94,-2.59 14.63,-2.59 19.43,0 28,7.929 28,22.219 l 0,1.058 c 0,7.012 -2.02,10.91 -4.29,13.383 l 4.54,0.91 c 1.39,0.258 2.27,0.777 2.27,2.457 l 0,3.383 c 0,1.57 -1.39,2.867 -2.9,2.867 z m -39.22,-62.398 14.25,-3.77 c 11.35,-2.988 15.39,-5.082 15.39,-10.129 l 0,-1.062 c 0,-7.149 -3.28,-11.309 -17.66,-11.309 -14,0 -18.16,4.551 -18.16,11.84 l 0,1.172 c 0,6.758 2.52,10 6.18,13.258 z m 28.63,38.34 c 0,-7.79 -3.4,-13.258 -17.03,-13.258 -14.5,0 -17.02,7.539 -17.02,13.258 l 0,1.058 c 0,7.262 2.9,13.902 17.02,13.902 13.63,0 17.03,-6.109 17.03,-13.902 l 0,-1.058 z m 63.8,49.14 -6.56,0 c -1.26,0 -2.39,-1.172 -2.39,-2.461 l 0,-116.871 c 0,-1.289 1.13,-2.457 2.39,-2.457 l 6.56,0 c 1.26,0 2.27,1.168 2.27,2.457 l 0,116.871 c 0,1.289 -1.01,2.461 -2.27,2.461 z m 110.72,0 -6.81,0 c -1.39,0 -2.4,-1.172 -2.4,-2.461 l 0,-59.019 c 0,-16.899 -5.04,-25.879 -20.69,-25.879 -15.62,0 -20.67,9.097 -20.67,25.879 l 0,59.019 c 0,1.43 -1.13,2.461 -2.39,2.461 l -6.82,0 c -1.39,0 -2.39,-1.172 -2.39,-2.461 l 0,-59.019 c 0,-24.828 11.85,-36.02 32.27,-36.02 20.43,0 32.29,11.192 32.29,36.02 l 0,59.019 c 0,1.43 -1.13,2.461 -2.39,2.461 z m 50.61,-24.18 c -7.44,0 -13.12,-1.949 -20.06,-5.968 l 0,2.476 c 0,1.422 -1,2.59 -2.39,2.59 l -6.3,0 c -1.38,0 -2.4,-1.168 -2.4,-2.59 l 0,-66.308 c 0,-1.43 1.13,-2.602 2.4,-2.602 l 6.17,0 c 1.39,0 2.52,1.293 2.52,2.602 l 0,54.859 c 5.8,2.992 11.73,5.063 17.03,5.063 9.58,0 13.87,-4.024 13.87,-17.153 l 0,-42.769 c 0,-1.43 1.13,-2.602 2.52,-2.602 l 6.06,0 c 1.38,0 2.52,1.172 2.52,2.602 l 0,42.769 c 0,17.289 -6.81,27.031 -21.94,27.031 z m 47.62,26.141 -6.44,0 c -1.38,0 -2.53,-1.18 -2.53,-2.601 l 0,-10.391 c 0,-1.449 1.15,-2.617 2.53,-2.617 l 6.44,0 c 1.39,0 2.52,1.168 2.52,2.617 l 0,10.391 c 0,1.421 -1.13,2.601 -2.52,2.601 z m -0.25,-27.043 -6.06,0 c -1.39,0 -2.52,-1.168 -2.52,-2.59 l 0,-66.308 c 0,-1.43 1.13,-2.602 2.52,-2.602 l 6.06,0 c 1.38,0 2.51,1.172 2.51,2.602 l 0,66.308 c 0,1.422 -1.13,2.59 -2.51,2.59 z m 70.7,0 -6.94,0 c -1.01,0 -1.89,-0.777 -2.4,-2.476 l -14.5,-56.68 c -0.75,-3.121 -1.51,-3.774 -2.65,-3.774 -1.27,0 -1.89,0.653 -2.65,3.774 l -14.49,56.68 c -0.51,1.699 -1.39,2.476 -2.41,2.476 l -6.93,0 c -1.26,0 -2.01,-0.906 -2.01,-2.199 0,-0.277 0,-0.527 0.12,-0.918 l 17.03,-61.883 c 1.64,-5.848 5.91,-7.418 11.34,-7.418 5.42,0 9.71,1.57 11.35,7.418 l 17.02,61.883 c 0.13,0.391 0.13,0.641 0.13,0.918 0,1.293 -0.76,2.199 -2.01,2.199 z m 37.52,0.902 c -18.03,0 -27.99,-11.808 -27.99,-30.41 l 0,-11.699 c 0,-24.18 14.12,-31.211 28.62,-31.211 8.45,0 15.38,0.781 22.57,2.211 2.01,0.391 2.52,1.309 2.52,3.008 l 0,4.41 c 0,1.289 -1.01,1.82 -2.01,1.82 l -0.64,0 c -5.8,-0.918 -15.12,-1.429 -22.44,-1.429 -11.6,0 -17.53,5.718 -17.53,21.191 l 0,1.82 42.25,0 c 1.5,0 2.39,1.168 2.39,2.848 l 0,7.031 c 0,18.461 -9.32,30.41 -27.74,30.41 z m 16.52,-31.582 -33.42,0 0,1.172 c 0,14.051 6.06,20.41 16.9,20.41 11.09,0 16.52,-5.718 16.52,-20.41 l 0,-1.172 z m 52.36,31.582 c -5.67,0 -11.47,-1.679 -17.77,-6.23 l 0,2.738 c 0,1.422 -1.01,2.59 -2.4,2.59 l -5.92,0 c -1.39,0 -2.4,-1.168 -2.4,-2.59 l 0,-66.308 c 0,-1.43 1.13,-2.602 2.4,-2.602 l 6.17,0 c 1.39,0 2.52,1.293 2.52,2.602 l 0,54.468 c 6.31,3.911 11.6,5.454 17.4,5.454 1.77,0 2.66,0.777 2.66,2.226 l 0,5.313 c 0,1.558 -0.89,2.339 -2.66,2.339 z m 41.87,-34.839 -12.48,7.679 c -5.8,3.508 -8.7,5.969 -8.7,9.879 0,6.621 4.67,7.539 11.73,7.539 7.06,0 15.12,-0.648 19.54,-1.039 l 0.38,0 c 1.26,0 2.14,0.653 2.14,2.211 l 0,4.301 c 0,1.418 -0.75,2.32 -2.4,2.59 -5.92,1.039 -12.6,1.679 -19.66,1.679 -12.99,0 -22.83,-3.769 -22.83,-17.281 0,-8.187 5.17,-13.789 12.86,-18.597 l 12.74,-7.793 c 7.19,-4.411 9.46,-6.887 9.46,-10.797 0,-7.012 -4.29,-9.223 -12.49,-9.223 -4.54,0 -13.74,0.652 -19.79,1.43 l -0.51,0 c -1.26,0 -2.27,-0.778 -2.27,-1.957 l 0,-4.551 c 0,-1.422 1.01,-2.199 2.65,-2.59 6.18,-1.57 15.25,-1.961 19.92,-1.961 14.12,0 23.59,5.59 23.59,18.852 0,7.679 -3.41,13.258 -13.88,19.629 z m 35.01,33.937 -6.05,0 c -1.39,0 -2.52,-1.168 -2.52,-2.59 l 0,-66.308 c 0,-1.43 1.13,-2.602 2.52,-2.602 l 6.05,0 c 1.39,0 2.52,1.172 2.52,2.602 l 0,66.308 c 0,1.422 -1.13,2.59 -2.52,2.59 z m 0.25,27.043 -6.43,0 c -1.39,0 -2.53,-1.18 -2.53,-2.601 l 0,-10.391 c 0,-1.449 1.14,-2.617 2.53,-2.617 l 6.43,0 c 1.39,0 2.52,1.168 2.52,2.617 l 0,10.391 c 0,1.421 -1.13,2.601 -2.52,2.601 z m 52.93,-90.223 -7.05,0 c -5.05,0 -6.81,1.043 -6.81,8.18 l 0,45.383 13.61,0 c 1.39,0 2.53,1.168 2.53,2.59 l 0,4.437 c 0,1.422 -1.14,2.59 -2.53,2.59 l -13.61,0 0,14.16 c 0,1.313 -0.88,2.211 -1.9,2.211 l -0.37,0 -6.56,-1.027 c -1.39,-0.262 -2.27,-1.293 -2.27,-2.602 l 0,-12.742 -12.23,0 c -1.39,0 -2.4,-0.906 -2.4,-2.34 l 0,-3.508 c 0,-1.429 1.01,-2.21 2.4,-2.351 l 12.23,-1.418 0,-45.383 c 0,-14.289 5.55,-17.418 17.15,-17.418 2.39,0 5.67,0.281 8.19,0.668 1.64,0.25 2.28,1.031 2.28,2.203 l 0,4.547 c 0,1.293 -0.89,1.82 -2.66,1.82 z m 24.03,75 4.92,0 c 1.26,0 2.52,1.063 2.52,2.481 l 0,10.531 c 0,1.309 -1.26,2.602 -2.52,2.602 l -4.92,0 c -1.26,0 -2.52,-1.293 -2.52,-2.602 l 0,-10.531 c 0,-1.418 1.26,-2.481 2.52,-2.481 z m 22.07,0 4.92,0 c 1.25,0 2.52,1.063 2.52,2.481 l 0,10.531 c 0,1.309 -1.27,2.602 -2.52,2.602 l -4.92,0 c -1.27,0 -2.52,-1.293 -2.52,-2.602 l 0,-10.531 c 0,-1.418 1.25,-2.481 2.52,-2.481 z m -9.21,-10.918 c -8.58,0 -14.38,-0.781 -19.54,-1.679 -1.77,-0.27 -2.66,-1.051 -2.66,-2.481 l 0,-4.55 c 0,-1.68 1.13,-2.071 2.28,-2.071 l 0.63,0 c 5.04,0.512 11.09,1.039 19.29,1.039 9.83,0 13.49,-3.769 13.49,-14.687 l 0,-5.199 -9.33,0 c -22.44,0 -30.38,-7.032 -30.38,-21.071 l 0,-1.543 c 0,-16.25 9.82,-21.078 20.54,-21.078 7.06,0 13.37,2.738 19.42,6.371 l 0,-2.851 c 0,-1.43 1.14,-2.602 2.53,-2.602 l 5.8,0 c 1.39,0 2.52,1.172 2.52,2.602 l 0,45.371 c 0,15.328 -7.06,24.429 -24.59,24.429 z m 13.49,-58.75 c -6.05,-3.378 -11.22,-5.191 -17.02,-5.191 -7.32,0 -11.6,2.461 -11.6,11.813 l 0,1.57 c 0,9.226 4.03,12.726 19.29,12.726 l 9.33,0 0,-20.918 z m 59.41,-5.332 -7.06,0 c -5.05,0 -6.81,1.043 -6.81,8.18 l 0,45.383 13.61,0 c 1.39,0 2.52,1.168 2.52,2.59 l 0,4.437 c 0,1.422 -1.13,2.59 -2.52,2.59 l -13.61,0 0,14.16 c 0,1.313 -0.89,2.211 -1.89,2.211 l -0.38,0 -6.56,-1.027 c -1.38,-0.262 -2.27,-1.293 -2.27,-2.602 l 0,-12.742 -12.24,0 c -1.39,0 -2.38,-0.906 -2.38,-2.34 l 0,-3.508 c 0,-1.429 0.99,-2.21 2.38,-2.351 l 12.24,-1.418 0,-45.383 c 0,-14.289 5.55,-17.418 17.16,-17.418 2.38,0 5.66,0.281 8.18,0.668 1.64,0.25 2.27,1.031 2.27,2.203 l 0,4.547 c 0,1.293 -0.88,1.82 -2.64,1.82 z m 68.22,89.18 c -7.32,0 -15.51,-0.387 -20.94,-1.027 -1.89,-0.281 -3.02,-1.449 -3.02,-3.27 l 0,-90.601 c 0,-1.43 1.01,-2.602 2.26,-2.602 l 6.82,0 c 1.39,0 2.26,1.293 2.26,2.602 l 0,36.519 c 3.29,-0.25 8.58,-0.64 12.62,-0.64 20.43,0 35.3,7.402 35.3,29.121 l 0,1.699 c 0,20.922 -14.87,28.199 -35.3,28.199 z m 23.83,-29.898 c 0,-13.52 -6.56,-19.239 -23.83,-19.239 -3.28,0 -9.71,0.387 -12.62,0.528 l 0,38.082 c 3.03,0.258 8.71,0.508 12.62,0.508 16.27,0 23.83,-5.059 23.83,-18.18 l 0,-1.699 z m 48.73,4.8 c -18.54,0 -27.99,-12.589 -27.99,-31.718 l 0,-9.883 c 0,-19.098 9.45,-31.719 27.99,-31.719 18.54,0 28.12,12.621 28.12,31.719 l 0,9.883 c 0,19.129 -9.58,31.718 -28.12,31.718 z m 17.03,-41.601 c 0,-13.379 -5.29,-21.699 -17.03,-21.699 -11.85,0 -16.89,8.441 -16.89,21.699 l 0,9.883 c 0,13.398 5.17,21.718 16.89,21.718 11.86,0 17.03,-8.449 17.03,-21.718 l 0,-9.883 z m 56.76,-22.481 -7.06,0 c -5.05,0 -6.81,1.043 -6.81,8.18 l 0,45.383 13.61,0 c 1.39,0 2.52,1.168 2.52,2.59 l 0,4.437 c 0,1.422 -1.13,2.59 -2.52,2.59 l -13.61,0 0,14.16 c 0,1.313 -0.89,2.211 -1.89,2.211 l -0.38,0 -6.56,-1.027 c -1.38,-0.262 -2.27,-1.293 -2.27,-2.602 l 0,-12.742 -12.24,0 c -1.38,0 -2.38,-0.906 -2.38,-2.34 l 0,-3.508 c 0,-1.429 1,-2.21 2.38,-2.351 l 12.24,-1.418 0,-45.383 c 0,-14.289 5.55,-17.418 17.16,-17.418 2.38,0 5.66,0.281 8.18,0.668 1.64,0.25 2.28,1.031 2.28,2.203 l 0,4.547 c 0,1.293 -0.89,1.82 -2.65,1.82 z m 44.14,29.243 -12.48,7.679 c -5.8,3.508 -8.7,5.969 -8.7,9.879 0,6.621 4.66,7.539 11.73,7.539 7.06,0 15.13,-0.648 19.55,-1.039 l 0.37,0 c 1.26,0 2.15,0.653 2.15,2.211 l 0,4.301 c 0,1.418 -0.77,2.32 -2.41,2.59 -5.91,1.039 -12.6,1.679 -19.66,1.679 -12.99,0 -22.84,-3.769 -22.84,-17.281 0,-8.187 5.18,-13.789 12.88,-18.597 l 12.73,-7.793 c 7.19,-4.411 9.45,-6.887 9.45,-10.797 0,-7.012 -4.27,-9.223 -12.48,-9.223 -4.54,0 -13.75,0.652 -19.8,1.43 l -0.5,0 c -1.26,0 -2.28,-0.778 -2.28,-1.957 l 0,-4.551 c 0,-1.422 1.02,-2.199 2.66,-2.59 6.17,-1.57 15.25,-1.961 19.92,-1.961 14.12,0 23.58,5.59 23.58,18.852 0,7.679 -3.4,13.258 -13.87,19.629 z m 75.31,60.187 -6.42,0 c -1.39,0 -2.4,-1.168 -2.4,-2.457 l 0,-24.18 c -4.91,0.899 -10.85,1.289 -14.75,1.289 -18.41,0 -27.49,-11.421 -27.49,-31.832 l 0,-9.378 c 0,-19.489 8.7,-32.11 27.49,-32.11 7.69,0 15.39,0.668 23.2,2.211 2.27,0.391 2.65,1.309 2.65,3.008 l 0,90.992 c 0,1.43 -1.01,2.457 -2.28,2.457 z m -8.82,-87.867 c -4.28,-0.391 -10.47,-0.781 -14.75,-0.781 -12.48,0 -16.39,7.929 -16.39,22.09 l 0,9.378 c 0,13.903 4.02,21.832 16.39,21.832 4.04,0 10.58,-0.128 14.75,-0.91 l 0,-51.609 z m 50.35,62.519 c -8.58,0 -14.38,-0.781 -19.56,-1.679 -1.75,-0.27 -2.64,-1.051 -2.64,-2.481 l 0,-4.55 c 0,-1.68 1.13,-2.071 2.27,-2.071 l 0.63,0 c 5.04,0.512 11.09,1.039 19.3,1.039 9.83,0 13.49,-3.769 13.49,-14.687 l 0,-5.199 -9.33,0 c -22.45,0 -30.4,-7.032 -30.4,-21.071 l 0,-1.543 c 0,-16.25 9.84,-21.078 20.55,-21.078 7.07,0 13.38,2.738 19.43,6.371 l 0,-2.851 c 0,-1.43 1.14,-2.602 2.52,-2.602 l 5.81,0 c 1.38,0 2.52,1.172 2.52,2.602 l 0,45.371 c 0,15.328 -7.08,24.429 -24.59,24.429 z m 13.49,-58.75 c -6.05,-3.378 -11.23,-5.191 -17.03,-5.191 -7.31,0 -11.6,2.461 -11.6,11.813 l 0,1.57 c 0,9.226 4.04,12.726 19.3,12.726 l 9.33,0 0,-20.918 z m 90.37,58.891 c -6.56,0 -14,-1.949 -20.93,-5.332 -3.16,3.77 -7.19,5.332 -12.62,5.332 -6.94,0 -13.36,-2.871 -18.4,-6.109 l 0,2.476 c 0,1.422 -1.02,2.59 -2.4,2.59 l -6.31,0 c -1.39,0 -2.39,-1.168 -2.39,-2.59 l 0,-66.308 c 0,-1.43 0.88,-2.602 2.13,-2.602 l 6.69,0 c 1.39,0 2.28,1.293 2.28,2.602 l 0,54.859 c 5.29,2.742 10.84,5.063 15.37,5.063 6.56,0 9.72,-2.321 9.72,-13.633 l 0,-46.289 c 0,-1.43 0.89,-2.602 2.14,-2.602 l 6.69,0 c 1.38,0 2.27,1.293 2.27,2.602 l 0,46.289 c 0,3.883 -0.39,7.261 -1.14,10.133 4.91,1.957 10.21,3.5 14.75,3.5 6.57,0 11.48,-2.993 11.48,-13.911 l 0,-46.011 c 0,-1.43 1.13,-2.602 2.52,-2.602 l 6.05,0 c 1.39,0 2.52,1.172 2.52,2.602 l 0,46.011 c 0,18.071 -9.07,23.93 -20.42,23.93"
               inkscape:connector-curvature="0" />
            <path
               id="path3007"
               style="fill:#4f5358;fill-opacity:1;fill-rule:nonzero;stroke:none"
               d="m 1265.95,1284.43 32.68,0 c 3.62,0 6.6,2.96 6.6,6.6 l 0,100.97 93.71,0 0,-100.97 c 0,-3.64 2.97,-6.6 6.6,-6.6 l 32.68,0 c 3.62,0 6.6,2.96 6.6,6.6 l 0,232.31 c 0,3.64 -2.98,6.27 -6.6,6.27 l -32.68,0 c -3.63,0 -6.6,-2.63 -6.6,-6.27 l 0,-91.08 -93.71,0 0,91.08 c 0,3.64 -2.98,6.27 -6.6,6.27 l -32.68,0 c -3.63,0 -6.6,-2.63 -6.6,-6.27 l 0,-232.31 c 0,-3.64 2.97,-6.6 6.6,-6.6 z m 275.22,-2.64 c 15.84,0 31.35,5.27 46.53,14.51 l 0,-5.27 c 0,-3.64 2.97,-6.6 6.6,-6.6 l 28.05,0 c 3.63,0 6.6,2.96 6.6,6.6 l 0,118.8 c 0,42.23 -25.74,63.03 -72.6,63.03 -22.77,0 -41.91,-2.64 -55.1,-5.29 -4.3,-0.98 -6.27,-3.29 -6.27,-6.92 l 0,-21.13 c 0,-4.61 2.63,-5.6 5.93,-5.6 l 1.66,0 c 10.88,1.32 32.66,2.63 53.78,2.63 19.47,0 29.04,-5.28 29.04,-26.72 l 0,-14.53 -20.78,0 c -57.43,0 -80.53,-19.47 -80.53,-57.09 l 0,-1.31 c 0,-44.55 29.71,-55.11 57.09,-55.11 z m -13.19,56.42 c 0,18.48 6.59,28.06 36.63,28.06 l 20.78,0 0,-40.59 c -9.57,-5.29 -21.78,-9.24 -33.65,-9.24 -16.51,0 -23.76,4.29 -23.76,20.46 l 0,1.31 z m 164.99,39.61 45.21,-27.73 c 10.56,-6.6 14.52,-10.55 14.52,-16.82 0,-8.92 -2.97,-15.84 -23.43,-15.84 -9.9,0 -39.61,1.64 -55.44,3.63 l -1.32,0 c -3.29,0 -5.61,-2.65 -5.61,-5.29 l 0,-19.8 c 0,-3.95 2.32,-6.59 6.27,-7.59 18.48,-4.95 46.2,-6.59 59.07,-6.59 43.23,0 64.68,22.76 64.68,51.48 0,16.82 -3.95,33.32 -31.68,50.15 l -43.23,26.41 c -8.25,4.95 -13.2,8.25 -13.2,13.52 0,10.24 6.93,13.87 22.77,13.87 18.81,0 45.21,-2.65 54.45,-3.97 l 1.32,0 c 3.3,0 5.28,2.31 5.28,6.27 l 0,19.14 c 0,3.97 -1.98,6.61 -5.94,7.59 -16.83,3.64 -32.01,6.61 -58.74,6.61 -41.91,0 -62.7,-16.5 -62.7,-49.51 0,-19.14 11.54,-35.63 27.72,-45.53 z m 233.64,5.6 -43.23,26.41 c -8.25,4.95 -13.2,8.25 -13.2,13.52 0,10.24 6.93,13.87 22.77,13.87 18.8,0 45.21,-2.65 54.45,-3.97 l 1.32,0 c 3.3,0 5.28,2.31 5.28,6.27 l 0,19.14 c 0,3.97 -1.98,6.61 -5.94,7.59 -16.83,3.64 -32.01,6.61 -58.75,6.61 -41.9,0 -62.69,-16.5 -62.69,-49.51 0,-19.14 11.55,-35.63 27.72,-45.53 l 45.21,-27.73 c 10.56,-6.6 14.52,-10.55 14.52,-16.82 0,-8.92 -2.97,-15.84 -23.43,-15.84 -9.9,0 -39.6,1.64 -55.44,3.63 l -1.32,0 c -3.3,0 -5.61,-2.65 -5.61,-5.29 l 0,-19.8 c 0,-3.95 2.31,-6.59 6.27,-7.59 18.48,-4.95 46.2,-6.59 59.07,-6.59 43.23,0 64.68,22.76 64.68,51.48 0,16.82 -3.96,33.32 -31.68,50.15 z m 141.24,-101.63 c 51.81,0 78.87,34.97 78.87,82.17 l 0,26.73 c 0,47.19 -27.06,82.17 -78.87,82.17 -51.81,0 -78.87,-34.98 -78.87,-82.17 l 0,-26.73 c 0,-47.2 27.06,-82.17 78.87,-82.17 z m -35.31,108.9 c 0,27.06 12.2,44.55 35.31,44.55 23.1,0 35.31,-17.49 35.31,-44.55 l 0,-26.73 c 0,-27.06 -12.21,-44.55 -35.31,-44.55 -23.11,0 -35.31,17.49 -35.31,44.55 l 0,26.73 z m -602.9,-257.63 0,2.97 c 0,58.41 -44.22,76.23 -95.04,76.23 -24.1,0 -47.52,-1.66 -64.68,-4.3 -6.6,-0.98 -10.57,-3.3 -10.57,-9.9 l 0,-227.033 c 0,-3.632 2.97,-6.601 6.6,-6.601 l 33.01,0 c 3.62,0 6.27,2.969 6.27,6.601 l 0,86.133 c 7.59,-0.33 20.78,-1.33 29.37,-1.33 50.82,0 95.04,18.81 95.04,77.23 z m -45.54,0 c 0,-26.41 -13.87,-39.61 -49.5,-39.61 -5.62,0 -24.1,0.66 -29.37,1 l 0,78.53 c 5.94,0.66 22.43,1.33 29.37,1.33 32.99,0 49.5,-10.57 49.5,-38.28 l 0,-2.97 z m 84.47,-168.634 30.69,0 c 3.64,0 6.27,3.301 6.27,6.933 l 0,237.601 c 0,3.62 -2.63,6.6 -6.27,6.6 l -30.69,0 c -3.63,0 -6.6,-2.98 -6.6,-6.6 l 0,-237.601 c 0,-3.632 2.97,-6.933 6.6,-6.933 z m 175.89,11.875 0,-5.274 c 0,-3.632 2.97,-6.601 6.6,-6.601 l 28.05,0 c 3.63,0 6.6,2.969 6.6,6.601 l 0,118.793 c 0,42.24 -25.74,63.04 -72.6,63.04 -22.77,0 -41.91,-2.65 -55.11,-5.29 -4.29,-0.98 -6.26,-3.3 -6.26,-6.93 l 0,-21.12 c 0,-4.61 2.63,-5.6 5.93,-5.6 l 1.65,0 c 10.89,1.31 32.67,2.63 53.79,2.63 19.47,0 29.04,-5.27 29.04,-26.73 l 0,-14.52 -20.79,0 c -57.42,0 -80.52,-19.47 -80.52,-57.09 l 0,-1.32 c 0,-44.554 29.7,-55.101 57.09,-55.101 15.84,0 31.34,5.274 46.53,14.512 z m -59.73,40.589 0,1.32 c 0,18.48 6.6,28.06 36.63,28.06 l 20.79,0 0,-40.59 c -9.57,-5.29 -21.78,-9.242 -33.66,-9.242 -16.5,0 -23.76,4.292 -23.76,20.452 z m 158.39,-2.64 c 0,-44.219 15.19,-52.461 52.47,-52.461 7.27,0 14.52,0.977 22.44,2.305 4.29,0.664 6.27,2.636 6.27,5.937 l 0,20.793 c 0,3.301 -2.63,4.949 -6.92,4.949 l -17.5,0 c -11.88,0 -12.86,1.973 -12.86,18.477 l 0,103.63 20.2,0 c 3.64,0 6.61,2.97 6.61,6.58 l 0,19.48 c 0,3.63 -2.97,6.6 -6.61,6.6 l -20.2,0 0,34 c 0,3.3 -2.32,4.94 -5.28,4.94 l -1.32,0 -30.7,-5.28 c -3.63,-0.65 -6.6,-2.97 -6.6,-6.59 l 0,-27.07 -31.01,0 c -3.64,0 -6.61,-2.97 -6.61,-6.6 l 0,-14.85 c 0,-3.63 2.97,-5.93 6.61,-6.6 l 31.01,-4.61 0,-103.63 z m 196.36,-18.477 -17.49,0 c -11.89,0 -12.87,1.973 -12.87,18.477 l 0,103.63 29.7,0 c 3.63,0 6.6,2.97 6.6,6.58 l 0,19.48 c 0,3.63 -2.97,6.6 -6.6,6.6 l -29.7,0 0,34 c 0,3.3 -2.31,4.94 -5.29,4.94 l -1.31,0 -30.69,-5.28 c -3.63,-0.65 -6.6,-2.97 -6.6,-6.59 l 0,-27.07 -21.47,0 c -3.63,0 -6.6,-2.97 -6.6,-6.6 l 0,-14.85 c 0,-3.63 2.97,-5.93 6.6,-6.6 l 21.47,-4.61 0,-103.63 c 0,-44.219 15.18,-52.461 52.46,-52.461 7.27,0 14.53,0.977 22.44,2.305 4.3,0.664 6.27,2.636 6.27,5.937 l 0,20.793 c 0,3.301 -2.63,4.949 -6.92,4.949 z m 195.03,-24.414 0,107.581 c 0,41.91 -9.57,73.92 -57.09,73.92 -21.78,0 -34.32,-3.63 -53.46,-15.84 l 0,6.92 c 0,3.63 -2.97,6.6 -6.6,6.6 l -28.71,0 c -3.63,0 -6.6,-2.97 -6.6,-6.6 l 0,-172.581 c 0,-3.632 2.97,-6.933 6.6,-6.933 l 30.36,0 c 3.62,0 6.59,3.301 6.59,6.933 l 0,132.661 c 13.87,7.26 26.08,11.87 37.3,11.87 25.41,0 28.04,-8.24 28.04,-36.95 l 0,-107.581 c 0,-3.632 2.98,-6.933 6.61,-6.933 l 30.36,0 c 3.63,0 6.6,3.301 6.6,6.933 z m 186.11,70.941 c 4.62,0 6.6,2.97 6.6,8.26 l 0,18.48 c 0,49.16 -27.71,83.82 -78.53,83.82 -50.49,0 -79.2,-32.34 -79.2,-83.82 l 0,-24.42 c 0,-65.018 46.85,-82.831 79.85,-82.831 29.7,0 42.57,1.641 64.03,5.606 5.93,0.996 6.92,3.3 6.92,8.574 l 0,21.777 c 0,3.304 -2.64,4.964 -5.94,4.964 l -0.98,0 c -13.86,-1.33 -36.63,-3.304 -60.73,-3.304 -31.68,0 -39.6,22.774 -39.6,41.914 l 0,0.98 107.58,0 z m -107.24,32.34 c 0,26.07 14.84,40.59 35.31,40.59 20.46,0 34.65,-14.85 34.65,-40.59 l 0,-1.32 -69.96,0 0,1.32 z m 237.93,78.22 c -13.21,0 -31.03,-3.31 -47.2,-15.84 l 0,6.92 c 0,3.63 -2.97,6.6 -6.59,6.6 l -28.71,0 c -3.64,0 -6.61,-2.97 -6.61,-6.6 l 0,-172.581 c 0,-3.632 2.97,-6.933 6.61,-6.933 l 30.35,0 c 3.63,0 6.6,3.301 6.6,6.933 l 0,132.661 c 13.87,7.26 27.72,11.87 45.55,11.87 3.62,0 6.6,2.97 6.6,6.6 l 0,23.78 c 0,3.61 -2.98,6.59 -6.6,6.59 z m -1152.05,-263.239 -32.99,0 c -3.67,0 -6.66,-2.644 -6.66,-6.269 l 0,-232.321 c 0,-3.633 2.99,-6.601 6.66,-6.601 l 32.99,0 c 3.67,0 6.67,2.968 6.67,6.601 l 0,232.321 c 0,3.625 -3,6.269 -6.67,6.269 z m 159.65,-56.766 c -22,0 -34.66,-3.625 -53.99,-15.839 l 0,6.933 c 0,3.621 -3,6.59 -6.67,6.59 l -29,0 c -3.67,0 -6.66,-2.969 -6.66,-6.59 l 0,-172.578 c 0,-3.641 2.99,-6.941 6.66,-6.941 l 30.67,0 c 3.67,0 6.66,3.3 6.66,6.941 l 0,132.649 c 14,7.261 26.34,11.871 37.66,11.871 25.67,0 28.34,-8.243 28.34,-36.95 l 0,-107.57 c 0,-3.641 3,-6.941 6.66,-6.941 l 30.67,0 c 3.66,0 6.67,3.3 6.67,6.941 l 0,107.57 c 0,41.911 -9.67,73.914 -57.67,73.914 z m 205.32,-89.425 -43.67,26.398 c -8.34,4.953 -13.34,8.25 -13.34,13.524 0,10.234 7.01,13.867 23.01,13.867 19,0 45.66,-2.637 54.99,-3.965 l 1.34,0 c 3.33,0 5.33,2.305 5.33,6.269 l 0,19.141 c 0,3.965 -2,6.602 -6,7.602 -17.01,3.621 -32.34,6.589 -59.33,6.589 -42.32,0 -63.33,-16.496 -63.33,-49.503 0,-19.141 11.67,-35.633 28,-45.532 l 45.66,-27.718 c 10.67,-6.614 14.67,-10.551 14.67,-16.84 0,-8.91 -3.01,-15.84 -23.67,-15.84 -9.99,0 -39.99,1.656 -55.99,3.629 l -1.34,0 c -3.33,0 -5.66,-2.629 -5.66,-5.27 l 0,-19.801 c 0,-3.968 2.33,-6.609 6.33,-7.582 18.67,-4.957 46.67,-6.597 59.67,-6.597 43.66,0 65.32,22.769 65.32,51.461 0,16.84 -4,33.34 -31.99,50.168 z m 173.31,-67.649 -17.66,0 c -12,0 -13.01,1.969 -13.01,18.481 l 0,103.621 30,0 c 3.67,0 6.67,2.969 6.67,6.594 l 0,19.472 c 0,3.621 -3,6.59 -6.67,6.59 l -30,0 0,34.004 c 0,3.293 -2.32,4.941 -5.33,4.941 l -1.33,0 -30.99,-5.273 c -3.68,-0.664 -6.67,-2.969 -6.67,-6.602 l 0,-27.07 -31.33,0 c -3.66,0 -6.67,-2.969 -6.67,-6.59 l 0,-14.855 c 0,-3.633 3.01,-5.938 6.67,-6.602 l 31.33,-4.609 0,-103.621 c 0,-44.223 15.33,-52.461 52.99,-52.461 7.34,0 14.67,0.969 22.67,2.301 4.33,0.66 6.33,2.636 6.33,5.937 l 0,20.801 c 0,3.301 -2.67,4.941 -7,4.941 z m 85.33,154.758 -30.67,0 c -3.67,0 -6.67,-2.969 -6.67,-6.59 l 0,-172.578 c 0,-3.641 3,-6.941 6.67,-6.941 l 30.67,0 c 3.66,0 6.66,3.3 6.66,6.941 l 0,172.578 c 0,3.621 -3,6.59 -6.66,6.59 z m 0.99,66.992 -32.33,0 c -3.66,0 -7,-2.968 -7,-6.601 l 0,-29.032 c 0,-3.632 3.34,-6.601 7,-6.601 l 32.33,0 c 3.67,0 6.66,2.969 6.66,6.601 l 0,29.032 c 0,3.633 -2.99,6.601 -6.66,6.601 z m 157.98,-221.75 -17.66,0 c -12,0 -13,1.969 -13,18.481 l 0,103.621 30,0 c 3.66,0 6.67,2.969 6.67,6.594 l 0,19.472 c 0,3.621 -3.01,6.59 -6.67,6.59 l -30,0 0,34.004 c 0,3.293 -2.34,4.941 -5.33,4.941 l -1.34,0 -31,-5.273 c -3.66,-0.664 -6.66,-2.969 -6.66,-6.602 l 0,-27.07 -31.33,0 c -3.67,0 -6.67,-2.969 -6.67,-6.59 l 0,-14.855 c 0,-3.633 3,-5.938 6.67,-6.602 l 31.33,-4.609 0,-103.621 c 0,-44.223 15.33,-52.461 52.99,-52.461 7.34,0 14.67,0.969 22.68,2.301 4.32,0.66 6.32,2.636 6.32,5.937 l 0,20.801 c 0,3.301 -2.66,4.941 -7,4.941 z m 194.31,154.758 -30.66,0 c -3.67,0 -6.66,-3.289 -6.66,-6.922 l 0,-131.996 c -9.34,-4.941 -25.34,-13.199 -37.66,-13.199 -10.34,0 -16.01,1.988 -20.68,5.93 -6.32,5.628 -7.66,15.199 -7.66,31.679 l 0,107.586 c 0,3.633 -3,6.922 -6.66,6.922 l -30.67,0 c -3.67,0 -6.67,-3.289 -6.67,-6.922 l 0,-107.586 c 0,-27.383 4.34,-47.851 16.67,-60.051 9.67,-9.582 24.33,-13.851 41,-13.851 21.33,0 34.99,5.269 52.33,16.48 l 0,-7.578 c 0,-3.633 2.99,-6.601 6.66,-6.601 l 30.66,0 c 3.67,0 6.67,2.968 6.67,6.601 l 0,172.586 c 0,3.633 -3,6.922 -6.67,6.922 z m 157.99,-154.758 -17.67,0 c -12,0 -13,1.969 -13,18.481 l 0,103.621 30,0 c 3.67,0 6.66,2.969 6.66,6.594 l 0,19.472 c 0,3.621 -2.99,6.59 -6.66,6.59 l -30,0 0,34.004 c 0,3.293 -2.33,4.941 -5.33,4.941 l -1.33,0 -30.99,-5.273 c -3.67,-0.664 -6.67,-2.969 -6.67,-6.602 l 0,-27.07 -31.33,0 c -3.67,0 -6.67,-2.969 -6.67,-6.59 l 0,-14.855 c 0,-3.633 3,-5.938 6.67,-6.602 l 31.33,-4.609 0,-103.621 c 0,-44.223 15.33,-52.461 53,-52.461 7.32,0 14.65,0.969 22.65,2.301 4.34,0.66 6.34,2.636 6.34,5.937 l 0,20.801 c 0,3.301 -2.67,4.941 -7,4.941"
               inkscape:connector-curvature="0" />
            <path
               id="path3009"
               style="fill:#b00c36;fill-opacity:1;fill-rule:nonzero;stroke:none"
               d="m 10.0469,644.879 992.113,0 0,992.125 -992.113,0 0,-992.125 z"
               inkscape:connector-curvature="0" />
            <path
               id="path3011"
               style="fill:#f89c0e;fill-opacity:1;fill-rule:nonzero;stroke:none"
               d="m 293.523,928.352 850.387,0 0,850.391 -850.387,0 0,-850.391 z"
               inkscape:connector-curvature="0" />
            <path
               id="path3013"
               style="fill:#e25617;fill-opacity:1;fill-rule:nonzero;stroke:none"
               d="m 293.523,928.352 708.637,0 0,708.652 -708.637,0 0,-708.652 z"
               inkscape:connector-curvature="0" />
            <path
               id="path3015"
               style="fill:#ffffff;fill-opacity:1;fill-rule:nonzero;stroke:none"
               d="m 581.766,1526.92 -32.668,0 c -3.633,0 -6.602,-2.64 -6.602,-6.27 l 0,-91.09 -93.719,0 0,91.09 c 0,3.63 -2.968,6.27 -6.601,6.27 l -32.668,0 c -3.633,0 -6.602,-2.64 -6.602,-6.27 l 0,-232.32 c 0,-3.63 2.969,-6.6 6.602,-6.6 l 32.668,0 c 3.633,0 6.601,2.97 6.601,6.6 l 0,100.98 93.719,0 0,-100.98 c 0,-3.63 2.969,-6.6 6.602,-6.6 l 32.668,0 c 3.632,0 6.601,2.97 6.601,6.6 l 0,232.32 c 0,3.63 -2.969,6.27 -6.601,6.27 z m 131.902,2.64 c -24.094,0 -47.52,-1.65 -64.688,-4.29 -6.601,-0.99 -10.554,-3.31 -10.554,-9.9 l 0,-227.04 c 0,-3.63 2.969,-6.6 6.601,-6.6 l 32.996,0 c 3.633,0 6.27,2.97 6.27,6.6 l 0,86.13 c 7.59,-0.33 20.793,-1.32 29.375,-1.32 50.82,0 95.039,18.81 95.039,77.22 l 0,2.97 c 0,58.41 -44.219,76.23 -95.039,76.23 z m 49.492,-79.2 c 0,-26.4 -13.855,-39.61 -49.492,-39.61 -5.613,0 -24.094,0.67 -29.375,1 l 0,78.54 c 5.937,0.66 22.441,1.32 29.375,1.32 33,0 49.492,-10.56 49.492,-38.28 l 0,-2.97 z m 123.028,76.56 -32.676,0 c -3.633,0 -6.602,-2.64 -6.602,-6.27 l 0,-232.32 c 0,-3.63 2.969,-6.6 6.602,-6.6 l 32.676,0 c 3.625,0 6.601,2.97 6.601,6.6 l 0,232.32 c 0,3.63 -2.976,6.27 -6.601,6.27"
               inkscape:connector-curvature="0" />
          </g>
        </g>
      </g>
    </g>
  </g>
</svg>
