<?xml version="1.0" encoding="UTF-8" standalone="no"?>
<!-- Created with Inkscape (http://www.inkscape.org/) -->

<svg
   xmlns:dc="http://purl.org/dc/elements/1.1/"
   xmlns:cc="http://creativecommons.org/ns#"
   xmlns:rdf="http://www.w3.org/1999/02/22-rdf-syntax-ns#"
   xmlns:svg="http://www.w3.org/2000/svg"
   xmlns="http://www.w3.org/2000/svg"
   version="1.1"
   width="1000"
   height="1000"
   viewBox="0 0 1000 1000"
   id="svg2">
  <metadata
     id="metadata10">
    <rdf:RDF>
      <cc:Work
         rdf:about="">
        <dc:format>image/svg+xml</dc:format>
        <dc:type
           rdf:resource="http://purl.org/dc/dcmitype/StillImage" />
        <dc:title></dc:title>
      </cc:Work>
    </rdf:RDF>
  </metadata>
  <defs
     id="defs8" />
  <path
     d="m 0,300 0,27.367 194.64844,0 0,-27.367 L 0,300 z m 222.22657,0 0,27.367 277.3828,0 C 499.60936,327.367 471.27625,300 433.75,300 l -211.52343,0 z m 331.79687,0 0,27.367 167.8125,0 L 711.875,300 554.02344,300 z m 288.125,0 -9.96094,27.367 166.28906,0 0,-27.367 -156.32812,0 z M 0,353.22221 l 0,27.36699 194.64844,0 0,-27.36699 -194.64844,0 z m 222.22657,0.0388 0,27.32823 309.57031,0 c 0,10e-6 -3.61563,-21.06282 -9.92188,-27.32823 l -299.64843,0 z m 331.79687,0 0,27.32823 186.21094,0 -9.21876,-27.32823 -176.99218,0 z m 268.20312,0 -9.21875,27.32823 185.46875,0 0,-27.32823 -176.25,0 z m -766.289064,53.18344 0,27.40575 84.296874,0 0,-27.40574 -84.296874,0 z m 222.226574,0 0,27.40575 84.29686,0 0,-27.40574 -84.29686,0 z m 166.28906,0 0,27.40575 84.29687,0 c 10e-6,0 5.35156,-14.47301 5.35156,-27.40574 l -89.64843,0 z m 165.50781,0 0,27.40575 149.45313,0 -9.96094,-27.40574 -139.49219,0 z m 193.90625,0 -10,27.40575 150.19531,0 0,-27.40574 -140.19531,0 z m -747.929694,53.26098 0,27.36698 84.296874,0 0,-27.36698 -84.296874,0 z m 222.226574,0 0,27.36698 215.3125,0 c 1e-5,-10e-6 18.01124,-14.04228 23.74999,-27.36698 l -239.06249,0 z m 331.79687,0 0,27.36698 84.29687,0 0,-15.23403 5.35156,15.23403 154.41407,0 5.74219,-15.23403 0,15.23403 84.29687,0 0,-27.36698 -158.24219,0 -8.39844,23.18053 -8.43749,-23.18053 -159.02344,0 z m -554.023444,53.22221 0,27.36698 84.296874,0 0,-27.36698 -84.296874,0 z m 222.226574,0 0,27.36698 239.06249,0 c -5.73999,-13.28128 -23.74999,-27.36698 -23.74999,-27.36698 l -215.3125,0 z m 331.79687,0 0,27.36698 84.29687,0 0,-27.36698 -84.29687,0 z m 99.60937,0 10.19532,27.36698 115.78125,0 9.6875,-27.36698 -135.66407,0 z m 150.19532,0 0,27.36698 84.29687,0 0,-27.36698 -84.29687,0 z m -803.828134,53.22221 0,27.36698 84.296874,0 0,-27.36698 -84.296874,0 z m 222.226574,0 0,27.36698 84.29686,0 0,-27.36698 -84.29686,0 z m 166.28906,0 0,27.36698 89.64843,0 c 2e-5,-12.91533 -5.35156,-27.36698 -5.35156,-27.36698 l -84.29687,0 z m 165.50781,0 0,27.36698 84.29687,0 0,-27.36698 -84.29687,0 z m 118.74999,0 9.88282,27.36698 77.61718,0 9.96094,-27.36698 -97.46094,0 z m 131.0547,0 0,27.36698 84.29687,0 0,-27.36698 -84.29687,0 z m -858.2422,53.22221 0,27.40575 194.64844,0 0,-27.40575 -194.64844,0 z m 220.70314,0 0,27.40575 299.64843,0 c 6.30625,-6.27533 9.92188,-27.40575 9.92188,-27.40575 l -309.57031,0 z m 333.3203,0 0,27.40575 138.71094,0 0,-27.40575 -138.71094,0 z m 192.34375,0 10.15625,27.40575 39.49219,0 9.53125,-27.40575 -59.17969,0 z m 111.87501,0 0,27.40575 140.23437,0 0,-27.40575 -140.23437,0 z M 1.52343,672.633 l 0,27.367 194.64844,0 0,-27.367 -194.64844,0 z m 220.70314,0 0,27.32824 211.52343,0 c 37.52624,-2e-5 65.85937,-27.32824 65.85937,-27.32824 l -277.3828,0 z m 333.3203,0 0,27.367 138.71094,0 0,-27.367 -138.71094,0 z m 211.60157,0 9.76563,27.28946 1.67968,0.0388 9.92188,-27.32824 -21.36719,0 z m 92.61719,0 0,27.367 140.23437,0 0,-27.367 -140.23437,0 z"
     id="path4"
     style="fill:#1f70c1" />
</svg>
