<?xml version="1.0" encoding="UTF-8" standalone="no"?>
<svg
   xmlns:dc="http://purl.org/dc/elements/1.1/"
   xmlns:cc="http://creativecommons.org/ns#"
   xmlns:rdf="http://www.w3.org/1999/02/22-rdf-syntax-ns#"
   xmlns:svg="http://www.w3.org/2000/svg"
   xmlns="http://www.w3.org/2000/svg"
   viewBox="0 0 433.38751 721.875"
   height="721.875"
   width="433.38751"
   xml:space="preserve"
   version="1.1"
   id="svg2"><metadata
     id="metadata8"><rdf:RDF><cc:Work
         rdf:about=""><dc:format>image/svg+xml</dc:format><dc:type
           rdf:resource="http://purl.org/dc/dcmitype/StillImage" /></cc:Work></rdf:RDF></metadata><defs
     id="defs6" /><g
     transform="matrix(1.25,0,0,-1.25,0,721.875)"
     id="g10"><g
       transform="scale(0.1,0.1)"
       id="g12"><path
         id="path14"
         style="fill:#231f20;fill-opacity:1;fill-rule:evenodd;stroke:none"
         d="m 2637.04,3210 c 0,0 97.44,-1.78 183.93,3.91 86.44,5.68 209.8,25.48 236.72,29.76 26.91,4.26 124.74,21.27 124.74,21.27 0,0 19.86,-56.72 21.27,-76.54 1.41,-19.85 0,-70.88 0,-70.88 0,0 45.35,-16.99 65.22,-19.82 19.86,-2.86 36.85,-8.54 76.54,-8.54 39.69,0 70.88,7.09 70.88,7.09 0,0 34.04,-36.86 46.78,-86.43 12.77,-49.62 -7.08,-116.25 -32.6,-188.53 -13.15,-37.19 -52.85,-134.2 -88.54,-226.49 -33.59,-86.91 -63.4,-169.68 -71.64,-194.45 -17.03,-51.01 -46.8,-150.23 -51.05,-165.82 -4.26,-15.6 -1.41,-41.09 -1.41,-62.36 0,-21.27 -1.44,-41.12 -21.27,-65.22 -19.82,-24.08 -41.11,-36.85 -130.43,-4.27 -41.23,15.05 -82.6,29.12 -112.09,47.46 -34.41,21.38 -53.75,46.11 -53.75,46.11 0,0 -52.46,-21.25 -65.19,-42.5 -5.45,-9.1 -22.23,-29.98 -33.48,-55.53 -15.1,-34.27 -26.99,-73.65 -53.01,-72.07 -45.35,2.87 -39.69,38.26 -36.85,70.9 2.83,32.6 35.41,89.3 53.88,113.38 18.42,24.1 36.84,48.2 36.84,55.27 0,7.11 -19.82,11.35 -51.06,0 -31.17,-11.33 -109.14,-73.71 -117.61,-79.35 -8.52,-5.69 -22.7,-18.42 -51.06,4.24 -28.36,22.69 -25.15,29.41 -20.9,53.51 4.24,24.1 104.56,82.54 124.38,93.89 19.84,11.35 66.29,40.06 70.53,47.13 4.27,7.11 3.22,13.83 -37.91,25.17 -31.92,8.79 -157.35,11.35 -168.69,14.16 -11.35,2.84 -24.13,5.67 -24.13,35.43 0,29.77 -2.81,43.95 41.12,46.76 43.96,2.85 158.79,-5.64 191.36,-9.88 32.64,-4.3 51.08,1.4 83.68,-25.53 15.02,-12.42 47.87,-44.78 83.55,-75.45 41.62,-35.74 86.35,-69.88 99.28,-79.02 24.12,-17.03 55.29,-32.62 70.88,-43.95 15.6,-11.35 26.95,-19.88 34.04,-22.69 7.09,-2.83 15.23,3.2 19.51,10.29 4.24,7.05 18.77,26.58 59.88,155.53 41.12,128.98 75.14,409.61 82.25,445.06 7.05,35.41 26.91,147.4 26.91,154.47 0,7.11 -11.32,15.58 -34.02,9.94 -22.69,-5.68 -46.8,-9.94 -56.72,-18.46 -9.92,-8.49 -17.01,-4.22 -17.01,-19.8 0,-15.63 0,-113.4 -1.41,-136.1 -1.42,-22.65 7.06,-63.76 -5.68,-63.76 -12.73,0 -215.45,4.23 -304.76,1.42 -89.3,-2.83 -307.6,-21.25 -340.24,-25.51 -32.62,-4.27 -42.5,-5.68 -55.27,-9.92 -12.76,-4.26 -7.11,-15.58 -8.52,-24.1 -0.58,-3.48 -15.35,-83.63 -24.29,-180.12 -12.99,-139.61 -21.65,-313.47 -22.47,-338.63 -1.42,-42.5 -1.42,-249.43 1.41,-299.12 2.85,-49.57 15.59,-162.95 15.59,-162.95 0,0 -41.1,-26.95 -103.48,-28.36 -62.36,-1.41 -99.22,5.68 -99.22,5.68 0,0 1.84,-83.79 -11.33,-128.96 -19.88,-68.09 -47.54,-106.7 -47.54,-106.7 0,0 107.07,-98.85 136.84,-122.93 29.77,-24.08 160.2,-117.66 273.59,-164.41 56.96,-23.5 209.81,-85.02 209.81,-85.02 0,0 1.4,-49.63 -48.2,-103.48 -13.4,-14.532 -29.42,-38.668 -39.54,-49.809 -27.34,-30.109 -47.07,-45.41 -51.21,-53.672 -5.66,-11.308 -97.81,-170.09 -127.58,-232.437 -29.76,-62.34 -103.47,-240.942 -110.56,-263.61 -7.09,-22.683 -24.08,-86.492 -25.53,-90.703 -1.41,-4.277 110.59,-1.41 215.49,-19.867 104.88,-18.402 303.38,-89.293 338.79,-99.203 35.45,-9.899 62.36,-16.988 86.46,1.41 24.1,18.461 33.66,70.723 18.42,107.691 -19.82,48.231 -100.64,61 -100.64,61 0,0 89.29,7.09 124.78,-1.46 35.41,-8.5 68.03,-41.079 65.18,-114.79 -1.17,-30.699 -1.49,-71.07 -23.01,-109.75 C 3116.57,94.9609 3044.5,38.7109 3002.76,25.5898 2953.15,10 2796.88,-3.48047 2684.87,0.800781 2638.33,2.55859 2570.48,5.14062 2503.58,12.2305 c -94,9.9609 -187.54,25.9492 -229.8,36.7304 -72.31,18.461 -123.32,31.1797 -123.32,31.1797 0,0 21.25,89.2894 49.59,138.9184 28.36,49.57 58.77,98.793 84.61,109.75 35.49,15.062 39.84,35.562 57.13,52.793 17.28,17.289 98.4,158.847 150.27,284.117 51.82,125.281 47.5,142.562 47.5,142.562 0,0 -43.94,-37.211 -75.82,-56.312 -31.89,-19.16 -91.45,-46.758 -110.59,-38.258 -19.14,8.5 -221.13,212.578 -297.69,272.109 -76.52,59.53 -153.09,123.34 -193.5,146.72 -40.37,23.38 -70.13,44.65 -78.63,44.65 -8.54,0 -68.07,-25.37 -121.23,-19.16 -81.86,9.55 -123.34,36.15 -133.95,36.15 -5.58,0 -38.73,-9.9 -92.18,-54.79 -48.52,-40.72 -115.98,-113.26 -152.35,-176.949 C 1207.06,828.5 1170.91,743.48 1160.26,715.82 c -10.62,-27.66 -25.5,-78.629 -25.5,-78.629 0,0 -44.65,-8.5 -112.7,19.098 -68.044,27.66 -138.165,64.859 -138.165,64.859 0,0 19.101,-103.117 42.5,-162.648 23.378,-59.539 72.265,-153.051 72.265,-153.051 0,0 72.35,-55.308 104.22,-116.949 31.88,-61.641 59.53,-153.051 59.53,-153.051 0,0 -240.269,-86.1287 -495.39,-92.5193 C 550.305,40.0586 481.262,36.25 390.852,47.8516 283.699,61.5586 181.023,113.648 158.895,160.941 c -30.821,65.86 -29.957,160.489 16.488,212.219 57.105,63.75 140.855,65.219 140.855,65.219 0,0 -51.011,-32.93 -59.508,-60.59 -8.539,-27.648 -14.882,-91.398 2.11,-110.559 16.988,-19.109 21.558,-24.089 40.371,-20.16 25.547,5.27 216.851,77.582 323.16,96.739 106.289,19.101 174.34,31.871 218.984,33.98 44.653,2.109 49.731,-2.34 61.641,4.281 19.145,10.61 6.367,55.25 -14.883,133.891 -21.25,78.691 -127.578,246.621 -136.051,259.391 -8.515,12.769 -55.292,16.988 -127.542,82.91 -48.922,44.648 -59.532,57.418 -59.532,57.418 0,0 252.973,274.22 355.024,403.95 102.048,129.67 229.628,294.43 231.778,307.21 2.13,12.71 2.13,94.57 48.88,228.51 46.78,133.95 110.61,204.14 110.61,204.14 0,0 -44.65,29.77 -68.05,51.04 -23.44,21.23 -48.94,63.77 -48.94,63.77 0,0 46.81,14.88 110.58,82.93 63.79,68 196.68,221.09 304.09,402.85 36.93,62.58 105.56,182.73 133.3,229.16 39.61,66.33 56.28,98.96 56.28,98.96 l 0,0 c 0,0 -144.94,172.21 -220.78,239.89 -47.26,42.14 -180.07,144.55 -202.73,160.13 -22.7,15.59 -60.94,38.26 -60.94,38.26 0,0 75.47,62.04 104.9,107.74 25.79,40.04 97.8,138.89 100.65,151.66 2.83,12.75 -53.89,110.53 -134.69,195.58 -80.78,85.02 -199.51,205.49 -199.51,205.49 0,0 -48.97,-8.61 -85.41,15.63 -45.82,30.43 -98.91,131.68 -142.385,214.41 -32.032,60.94 -61.891,109.05 -78.75,138.48 -39.649,69.47 -103.473,170.08 -133.204,218.28 -29.761,48.18 -93.55,131.8 -110.562,148.83 -16.992,17.01 -59.531,58.08 -73.711,58.08 -14.16,0 -33.867,-48.34 -92.109,-42.5 -70.879,7.07 -114.789,49.59 -114.789,49.59 0,0 -4.278,-5.68 -1.446,-14.18 2.856,-8.49 36.875,-72.28 12.754,-86.42 -24.082,-14.18 -99.844,-6.53 -147.398,31.17 -41.094,32.58 -52.422,153.05 -56.684,178.56 -4.258,25.52 -4.258,32.61 -15.586,26.93 -11.324,-5.65 -32.613,-48.17 -56.7147,-69.43 -24.0859,-21.27 -35.3945,-35.45 -65.1601,-32.58 -29.76567,2.81 -25.54692,11.31 -21.26567,29.72 2.10547,9.18 21.67967,64.91 44.58597,118.81 23.1484,54.55 49.6289,107.23 53.2065,113.65 7.086,12.74 5.665,70.86 46.754,102.04 41.094,31.17 68.032,35.44 76.528,34.04 8.511,-1.43 26.953,0 26.953,1.4 0,1.41 0,8.5 -16.992,39.67 -17.051,31.17 -103.633,211.37 -110.571,296.25 -7.089,86.43 6.387,104.53 41.821,100.26 15.269,-1.82 36.289,-50.04 56.715,-91.76 26.875,-55.02 55.429,-106.04 71.527,-131.84 28.34,-45.35 82.223,-124.7 97.808,-144.55 15.61,-19.86 49.59,-46.76 111.957,-160.13 62.379,-113.42 113.418,-199.87 136.09,-253.72 22.676,-53.84 113.364,-187.09 188.481,-272.12 75.113,-85.06 229.607,-257.97 263.667,-300.47 34.01,-42.52 76.55,-80.78 99.22,-129.01 22.68,-48.16 24.08,-107.69 24.08,-107.69 0,0 143.19,-191.37 172.95,-221.12 29.79,-29.76 79.38,-89.29 99.22,-109.12 19.86,-19.86 63.81,-51.03 69.45,-55.29 5.67,-4.24 7.11,-7.07 12.78,-5.64 5.7,1.4 56.72,76.52 56.72,76.52 0,0 77.93,-133.24 97.81,-163.01 19.84,-29.76 116.21,-170.06 145.98,-202.67 29.76,-32.58 53.9,-56.66 63.8,-62.35 9.95,-5.68 21.27,-16.99 26.96,-18.44 4.84,-1.21 10.76,-2.42 14.12,0.84 l 216.91,43.09 c 0,0 14.18,2.87 26.92,4.28 12.77,1.4 12.77,-11.37 26.93,26.91 14.2,38.28 18.46,102.05 21.31,134.65 2.83,32.62 -11.35,97.81 -18.48,103.46 -7.07,5.68 -77.95,-17 -150.23,-9.91 -72.31,7.09 -208.38,21.27 -334.53,161.57 -126.18,140.31 -156.64,329.16 -156.64,329.16 0,0 -75.86,2.52 -111.31,9.59 -35.41,7.07 -88.58,27.61 -162.29,81.48 -73.71,53.87 -98.51,92.85 -116.97,146.7 -18.42,53.85 -76.52,216.86 -82.21,433.71 -5.68,216.86 25.51,365.65 58.13,490.37 32.58,124.75 104.92,269.3 104.92,269.3 0,0 -4.3,-148.83 26.91,-282.03 31.21,-133.22 110.57,-368.54 187.11,-484.73 31.74,-48.16 65,-95.08 96.41,-131.83 44.37,-51.92 85.39,-86.08 85.39,-86.08 l 14.53,16.99 c 0,0 -27.62,42.19 -33.32,69.09 -5.66,26.95 -5.66,46.79 -1.41,66.62 4.26,19.86 9.93,38.26 9.93,38.26 0,0 4.25,-42.5 12.77,-62.35 8.48,-19.86 19.82,-36.85 28.36,-45.35 8.48,-8.49 12.73,-19.86 18.42,-19.86 5.68,0 13.12,2.48 13.12,12.42 0,9.9 -20.25,32.93 -24.47,68.38 -4.26,35.45 -18.91,67.07 14.18,164.42 25.53,75.11 79.73,112.67 79.73,112.67 0,0 -24.44,-82.91 -18.79,-128.26 5.7,-45.35 15.62,-79.4 26.95,-100.63 11.35,-21.25 12.75,-25.52 18.44,-26.93 5.66,-1.41 9.9,-1.41 14.14,8.5 4.26,9.92 -1.41,83.96 19.88,167.61 21.23,83.6 69.92,129.57 93.56,154.12 35.43,36.86 113.41,56.7 113.41,56.7 0,0 -69.49,-72.28 -89.31,-129 -19.85,-56.66 -34.42,-107.32 -18.44,-151.64 10.35,-28.77 7.09,-28.36 14.18,-32.58 7.09,-4.28 15.59,8.5 22.68,21.23 7.08,12.76 14,42.7 63.8,90.71 39.67,38.3 79.38,48.2 79.38,48.2 0,0 -40.06,-34.38 -58.11,-86.45 -10.64,-30.58 -12.77,-59.53 -12.77,-59.53 0,0 39.71,-1.4 77.95,-5.66 38.28,-4.28 83.65,-15.59 83.65,-15.59 0,0 28.36,42.5 58.13,144.55 29.76,102.07 50.99,249.44 43.92,392.58 -7.07,143.18 -21.6,360.02 -21.6,360.02 0,0 153.46,-157.3 220.04,-289.12 66.66,-131.84 148.87,-276.39 178.63,-454.98 6.14,-36.8 13.6,-71.49 16.47,-100.14 11.03,-110.29 -2.05,-160.78 -6.55,-177.65 -5.66,-21.27 -39.68,-85.02 -53.86,-104.89 -14.18,-19.82 -17,-25.49 -17,-25.49 0,0 49.61,-59.53 59.54,-85.03 9.9,-25.53 21.25,-69.48 19.84,-86.47 -1.45,-16.99 -2.85,-40.76 -2.85,-40.76 0,0 82.93,-18.42 121.21,-109.12 38.28,-90.71 -27.34,-197.68 -65.9,-237.07 -66.64,-68.03 -127.58,-58.11 -127.58,-58.11 0,0 -58.9,-124.59 -144.61,-189.92 -31.5,-23.98 -44.22,-38.5 -68.71,-51.04 -63.69,-32.57 -116.99,-35.39 -116.99,-35.39 0,0 -26.91,-63.8 -21.25,-184.27 2.81,-59.48 4.24,-127.56 4.24,-127.56 l 73.71,-62.35" /><path
         id="path16"
         style="fill:#ffffff;fill-opacity:1;fill-rule:evenodd;stroke:none"
         d="m 2393.17,4309.08 c 0,-117.28 -81.15,-212.34 -181.23,-212.34 -100.07,0 -181.23,95.06 -181.23,212.34 0,117.25 81.16,212.33 181.23,212.33 100.08,0 181.23,-95.08 181.23,-212.33" /><path
         id="path18"
         style="fill:none;stroke:#ffffff;stroke-width:3;stroke-linecap:butt;stroke-linejoin:miter;stroke-miterlimit:4;stroke-dasharray:none;stroke-opacity:1"
         d="m 2393.17,4309.08 c 0,-117.28 -81.15,-212.34 -181.23,-212.34 -100.07,0 -181.23,95.06 -181.23,212.34 0,117.25 81.16,212.33 181.23,212.33 100.08,0 181.23,-95.08 181.23,-212.33 z" /><path
         id="path20"
         style="fill:#ffffff;fill-opacity:1;fill-rule:evenodd;stroke:none"
         d="m 2750.19,4456.8 c 0,-16.16 -4.69,-46.88 -4.69,-46.88 0,0 -84.38,11.47 -156.39,-11.13 -63.75,-20 -117.65,-74.51 -117.65,-74.51 0,0 -42.9,81.34 -42.9,132.52 0,107.57 71.98,194.82 160.79,194.82 88.82,0 160.84,-87.25 160.84,-194.82" /><path
         id="path22"
         style="fill:none;stroke:#ffffff;stroke-width:3;stroke-linecap:butt;stroke-linejoin:miter;stroke-miterlimit:4;stroke-dasharray:none;stroke-opacity:1"
         d="m 2750.19,4456.8 c 0,-16.16 -4.69,-46.88 -4.69,-46.88 0,0 -84.38,11.47 -156.39,-11.13 -63.75,-20 -117.65,-74.51 -117.65,-74.51 0,0 -42.9,81.34 -42.9,132.52 0,107.57 71.98,194.82 160.79,194.82 88.82,0 160.84,-87.25 160.84,-194.82 z" /><path
         id="path24"
         style="fill:#231f20;fill-opacity:1;fill-rule:evenodd;stroke:none"
         d="m 2760.5,4438.67 c 0,-33.28 -18.11,-60.25 -40.49,-60.25 -22.36,0 -40.45,26.97 -40.45,60.25 0,33.28 18.09,60.26 40.45,60.26 22.38,0 40.49,-26.98 40.49,-60.26" /><path
         id="path26"
         style="fill:none;stroke:#231f20;stroke-width:3;stroke-linecap:butt;stroke-linejoin:miter;stroke-miterlimit:4;stroke-dasharray:none;stroke-opacity:1"
         d="m 2760.5,4438.67 c 0,-33.28 -18.11,-60.25 -40.49,-60.25 -22.36,0 -40.45,26.97 -40.45,60.25 0,33.28 18.09,60.26 40.45,60.26 22.38,0 40.49,-26.98 40.49,-60.26 z" /><path
         id="path28"
         style="fill:#231f20;fill-opacity:1;fill-rule:evenodd;stroke:none"
         d="m 2392.76,4286.09 c 0,-35.15 -19.16,-63.65 -42.77,-63.65 -23.61,0 -42.77,28.5 -42.77,63.65 0,35.16 19.16,63.66 42.77,63.66 23.61,0 42.77,-28.5 42.77,-63.66" /><path
         id="path30"
         style="fill:none;stroke:#231f20;stroke-width:3;stroke-linecap:butt;stroke-linejoin:miter;stroke-miterlimit:4;stroke-dasharray:none;stroke-opacity:1"
         d="m 2392.76,4286.09 c 0,-35.15 -19.16,-63.65 -42.77,-63.65 -23.61,0 -42.77,28.5 -42.77,63.65 0,35.16 19.16,63.66 42.77,63.66 23.61,0 42.77,-28.5 42.77,-63.66 z" /><path
         id="path32"
         style="fill:#293d9b;fill-opacity:1;fill-rule:evenodd;stroke:none"
         d="m 2421.03,3393.12 c 0,0 72.26,-65.91 94.94,-82.92 22.67,-17 68.02,-46.06 79.39,-51.74 11.35,-5.67 32.87,-18.93 32.87,-18.93 0,0 10.78,0.47 17.81,1.88 -15.93,-66.1 -125.46,-224.48 -185.62,-281.25 -50.16,-47.35 -114.84,-120.47 -216.56,-176.25 33.28,-79.69 -17.42,-116.02 -17.82,-120 -0.42,-4.2 47.08,-50.94 70.32,-139.69 13.49,-51.51 7.95,-99.04 13.12,-150 5.9,-57.99 21.56,-116.25 21.56,-116.25 0,0 -111.32,34.8 -163.12,142.5 -49.69,90.94 -32.54,264.8 -35.63,264.37 -53.43,-104.06 -132.65,-226.87 -192.18,-282.18 -117.8,-109.5 -202.5,-89.07 -202.5,-89.07 26.25,38.44 49.8,70.18 75.93,121.88 31.22,61.72 56.88,142.73 92.82,195 57.99,84.3 100.56,85.47 138.86,94.71 -12.18,49.98 -9.74,102.89 41.14,127.48 -1.88,51.56 -7.5,131.25 -28.13,243.75 -20.62,112.5 -95.29,371.25 -95.29,371.25 0,0 63.01,18.04 88.53,20.93 25.51,2.82 68.05,15.59 94.99,15.59 26.91,0 43.35,0.35 43.35,0.35 0,0 19.36,-117.5 17.76,-303.28 -0.55,-62.66 -35.29,-346.25 -30.74,-345.78 10.15,1.01 115.78,229.69 153.28,294.37 37.5,64.69 90.92,263.28 90.92,263.28" /><path
         id="path34"
         style="fill:none;stroke:#231f20;stroke-width:30;stroke-linecap:butt;stroke-linejoin:miter;stroke-miterlimit:4;stroke-dasharray:none;stroke-opacity:1"
         d="m 2421.03,3393.12 c 0,0 72.26,-65.91 94.94,-82.92 22.67,-17 68.02,-46.06 79.39,-51.74 11.35,-5.67 32.87,-18.93 32.87,-18.93 0,0 10.78,0.47 17.81,1.88 -15.93,-66.1 -125.46,-224.48 -185.62,-281.25 -50.16,-47.35 -114.84,-120.47 -216.56,-176.25 33.28,-79.69 -17.42,-116.02 -17.82,-120 -0.42,-4.2 47.08,-50.94 70.32,-139.69 13.49,-51.51 7.95,-99.04 13.12,-150 5.9,-57.99 21.56,-116.25 21.56,-116.25 0,0 -111.32,34.8 -163.12,142.5 -49.69,90.94 -32.54,264.8 -35.63,264.37 -53.43,-104.06 -132.65,-226.87 -192.18,-282.18 -117.8,-109.5 -202.5,-89.07 -202.5,-89.07 26.25,38.44 49.8,70.18 75.93,121.88 31.22,61.72 56.88,142.73 92.82,195 57.99,84.3 100.56,85.47 138.86,94.71 -12.18,49.98 -9.74,102.89 41.14,127.48 -1.88,51.56 -7.5,131.25 -28.13,243.75 -20.62,112.5 -95.29,371.25 -95.29,371.25 0,0 63.01,18.04 88.53,20.93 25.51,2.82 68.05,15.59 94.99,15.59 26.91,0 43.35,0.35 43.35,0.35 0,0 19.36,-117.5 17.76,-303.28 -0.55,-62.66 -35.29,-346.25 -30.74,-345.78 10.15,1.01 115.78,229.69 153.28,294.37 37.5,64.69 90.92,263.28 90.92,263.28 z" /></g></g></svg>