<?xml version="1.0" encoding="UTF-8" standalone="no"?>
<svg
   xmlns:dc="http://purl.org/dc/elements/1.1/"
   xmlns:cc="http://creativecommons.org/ns#"
   xmlns:rdf="http://www.w3.org/1999/02/22-rdf-syntax-ns#"
   xmlns:svg="http://www.w3.org/2000/svg"
   xmlns="http://www.w3.org/2000/svg"
   viewBox="0 0 434.38751 496.46249"
   height="496.46249"
   width="434.38751"
   xml:space="preserve"
   version="1.1"
   id="svg2"><metadata
     id="metadata8"><rdf:RDF><cc:Work
         rdf:about=""><dc:format>image/svg+xml</dc:format><dc:type
           rdf:resource="http://purl.org/dc/dcmitype/StillImage" /></cc:Work></rdf:RDF></metadata><defs
     id="defs6"><clipPath
       id="clipPath18"
       clipPathUnits="userSpaceOnUse"><path
         id="path20"
         d="m 0,0 3475,0 0,3971.73 -3475,0 L 0,0 Z" /></clipPath></defs><g
     transform="matrix(1.25,0,0,-1.25,0,496.4625)"
     id="g10"><g
       transform="scale(0.1,0.1)"
       id="g12"><g
         id="g14"><g
           clip-path="url(#clipPath18)"
           id="g16"><path
             id="path22"
             style="fill:#6d399f;fill-opacity:1;fill-rule:nonzero;stroke:none"
             d="m 1799.24,3526.49 c 122.03,-107.88 409.2,-257.1 409.2,-645.04 0,-271.64 -226.38,-634.87 -247.93,-959.49 -4.04,-1.97 -60.41,3.76 -183.43,5.02 l -36.28,1246.77 -4.04,0 c 0,0 -35.41,-1246.77 -36.28,-1246.77 -122.66,-1.26 -183.43,-5.02 -183.43,-5.02 -19.91,324.62 -247.94,687.85 -247.94,959.49 0,393.08 288.72,534.77 409.2,645.04 30.17,26.87 40.33,80.63 60.47,80.63 19.88,0 30.03,-53.76 60.46,-80.63 l 0,0" /><path
             id="path24"
             style="fill:none;stroke:#ffffff;stroke-width:0.28299999;stroke-linecap:butt;stroke-linejoin:miter;stroke-miterlimit:3.86369991;stroke-dasharray:none;stroke-opacity:1"
             d="m 1799.24,3526.49 c 122.03,-107.88 409.2,-257.1 409.2,-645.04 0,-271.64 -226.38,-634.87 -247.93,-959.49 -4.04,-1.97 -60.41,3.76 -183.43,5.02 l -36.28,1246.77 -4.04,0 c 0,0 -35.41,-1246.77 -36.28,-1246.77 -122.66,-1.26 -183.43,-5.02 -183.43,-5.02 -19.91,324.62 -247.94,687.85 -247.94,959.49 0,393.08 288.72,534.77 409.2,645.04 30.17,26.87 40.33,80.63 60.47,80.63 19.88,0 30.03,-53.76 60.46,-80.63 l 0,0 z" /><path
             id="path26"
             style="fill:#6d399f;fill-opacity:1;fill-rule:nonzero;stroke:none"
             d="m 1960.51,1644.2 c 36.84,-244.61 151.17,-345.2 151.17,-385.42 0,-121.04 -331.81,-354.12 -372.9,-354.12 -39.54,0 -372.91,233.08 -372.91,354.12 0,40.22 117.47,143.07 151.18,385.42 47.39,-4.11 183.43,-5.5 183.43,-5.5 l 36.28,-379.92 4.04,0 36.28,379.92 c 0,0 136.66,1.39 183.43,5.5 l 0,0" /><path
             id="path28"
             style="fill:none;stroke:#ffffff;stroke-width:0.28299999;stroke-linecap:butt;stroke-linejoin:miter;stroke-miterlimit:3.86369991;stroke-dasharray:none;stroke-opacity:1"
             d="m 1960.51,1644.2 c 36.84,-244.61 151.17,-345.2 151.17,-385.42 0,-121.04 -331.81,-354.12 -372.9,-354.12 -39.54,0 -372.91,233.08 -372.91,354.12 0,40.22 117.47,143.07 151.18,385.42 47.39,-4.11 183.43,-5.5 183.43,-5.5 l 36.28,-379.92 4.04,0 36.28,379.92 c 0,0 136.66,1.39 183.43,5.5 l 0,0 z" /><path
             id="path30"
             style="fill:#6d399f;fill-opacity:1;fill-rule:nonzero;stroke:none"
             d="m 2201.24,1674.89 c 26.19,-150.13 107.42,-204.47 182.57,-204.47 42.31,-4.38 117.93,25.21 117.93,25.21 0.12,0.25 7.97,-223.39 -217.34,-223.39 -130.98,0 -245.43,168.65 -281.72,374.8 108.83,6.52 198.56,27.85 198.56,27.85 l 0,0" /><path
             id="path32"
             style="fill:none;stroke:#ffffff;stroke-width:0.28299999;stroke-linecap:butt;stroke-linejoin:miter;stroke-miterlimit:3.86369991;stroke-dasharray:none;stroke-opacity:1"
             d="m 2201.24,1674.89 c 26.19,-150.13 107.42,-204.47 182.57,-204.47 42.31,-4.38 117.93,25.21 117.93,25.21 0.12,0.25 7.97,-223.39 -217.34,-223.39 -130.98,0 -245.43,168.65 -281.72,374.8 108.83,6.52 198.56,27.85 198.56,27.85 l 0,0 z" /><path
             id="path34"
             style="fill:#6d399f;fill-opacity:1;fill-rule:nonzero;stroke:none"
             d="m 1275.97,1674.89 c -26.19,-150.13 -107.43,-204.47 -182.59,-204.47 -42.29,-4.38 -117.919,25.21 -117.919,25.21 -0.129,0.25 -7.981,-223.39 217.329,-223.39 130.98,0 245.45,168.65 281.72,374.8 -108.82,6.52 -198.54,27.85 -198.54,27.85 l 0,0" /><path
             id="path36"
             style="fill:none;stroke:#ffffff;stroke-width:0.28299999;stroke-linecap:butt;stroke-linejoin:miter;stroke-miterlimit:3.86369991;stroke-dasharray:none;stroke-opacity:1"
             d="m 1275.97,1674.89 c -26.19,-150.13 -107.43,-204.47 -182.59,-204.47 -42.29,-4.38 -117.919,25.21 -117.919,25.21 -0.129,0.25 -7.981,-223.39 217.329,-223.39 130.98,0 245.45,168.65 281.72,374.8 -108.82,6.52 -198.54,27.85 -198.54,27.85 l 0,0 z" /><path
             id="path38"
             style="fill:#6d399f;fill-opacity:1;fill-rule:evenodd;stroke:none"
             d="m 1477.81,1918.68 c -38.93,341.89 -219.23,843.34 -614.318,843.34 -393.355,0 -435.308,-394.88 -435.308,-465.13 0,-372.83 362.211,-474.32 423.304,-413.22 -58.484,58.48 -18.136,292.28 161.262,292.28 117.88,0 229.06,-115.69 262.18,-286.1 0,0 97.46,24.11 202.88,28.83 l 0,0 z m -759.634,342.94 46.449,79.85 91.902,-9.37 -61.589,68.87 37.304,84.5 -84.515,-37.29 -68.856,61.59 9.359,-91.91 -79.855,-46.44 90.301,-19.5 19.5,-90.3 0,0" /><path
             id="path40"
             style="fill:none;stroke:#ffffff;stroke-width:0.28299999;stroke-linecap:butt;stroke-linejoin:miter;stroke-miterlimit:3.86369991;stroke-dasharray:none;stroke-opacity:1"
             d="m 1477.81,1918.68 c -38.93,341.89 -219.23,843.34 -614.318,843.34 -393.355,0 -435.308,-394.88 -435.308,-465.13 0,-372.83 362.211,-474.32 423.304,-413.22 -58.484,58.48 -18.136,292.28 161.262,292.28 117.88,0 229.06,-115.69 262.18,-286.1 0,0 97.46,24.11 202.88,28.83 l 0,0 z m -759.634,342.94 46.449,79.85 91.902,-9.37 -61.589,68.87 37.304,84.5 -84.515,-37.29 -68.856,61.59 9.359,-91.91 -79.855,-46.44 90.301,-19.5 19.5,-90.3 0,0 z" /><path
             id="path42"
             style="fill:#6d399f;fill-opacity:1;fill-rule:evenodd;stroke:none"
             d="m 1999.4,1918.68 c 38.93,341.89 219.22,843.34 614.32,843.34 393.34,0 435.29,-394.88 435.29,-465.13 0,-372.83 -362.21,-474.32 -423.3,-413.22 58.49,58.48 18.14,292.28 -161.25,292.28 -117.89,0 -229.06,-115.69 -262.19,-286.1 0,0 -97.46,24.11 -202.87,28.83 l 0,0 z m 759.63,342.94 -46.45,79.85 -91.91,-9.37 61.6,68.87 -37.3,84.5 84.51,-37.29 68.85,61.59 -9.36,-91.91 79.86,-46.44 -90.31,-19.5 -19.49,-90.3 0,0" /><path
             id="path44"
             style="fill:none;stroke:#ffffff;stroke-width:0.28299999;stroke-linecap:butt;stroke-linejoin:miter;stroke-miterlimit:3.86369991;stroke-dasharray:none;stroke-opacity:1"
             d="m 1999.4,1918.68 c 38.93,341.89 219.22,843.34 614.32,843.34 393.34,0 435.29,-394.88 435.29,-465.13 0,-372.83 -362.21,-474.32 -423.3,-413.22 58.49,58.48 18.14,292.28 -161.25,292.28 -117.89,0 -229.06,-115.69 -262.19,-286.1 0,0 -97.46,24.11 -202.87,28.83 l 0,0 z m 759.63,342.94 -46.45,79.85 -91.91,-9.37 61.6,68.87 -37.3,84.5 84.51,-37.29 68.85,61.59 -9.36,-91.91 79.86,-46.44 -90.31,-19.5 -19.49,-90.3 0,0 z" /><path
             id="path46"
             style="fill:#6d399f;fill-opacity:1;fill-rule:evenodd;stroke:none"
             d="m 2272.95,1782.87 c 0,-100.82 -231.05,-100.78 -534.17,-100.78 -302.53,0 -534.17,-0.04 -534.17,100.78 0,99.85 231.64,100.8 534.17,100.8 303.12,0 534.17,-0.95 534.17,-100.8 l 0,0 z m -100.78,0 c 0,-27.28 -231.13,-30.22 -433.39,-30.22 -201.67,0 -433.38,2.94 -433.38,30.22 0,26.56 231.71,31.24 433.38,31.24 202.26,0 433.39,-4.68 433.39,-31.24 l 0,0" /><path
             id="path48"
             style="fill:none;stroke:#ffffff;stroke-width:0.28299999;stroke-linecap:butt;stroke-linejoin:miter;stroke-miterlimit:3.86369991;stroke-dasharray:none;stroke-opacity:1"
             d="m 2272.95,1782.87 c 0,-100.82 -231.05,-100.78 -534.17,-100.78 -302.53,0 -534.17,-0.04 -534.17,100.78 0,99.85 231.64,100.8 534.17,100.8 303.12,0 534.17,-0.95 534.17,-100.8 l 0,0 z m -100.78,0 c 0,-27.28 -231.13,-30.22 -433.39,-30.22 -201.67,0 -433.38,2.94 -433.38,30.22 0,26.56 231.71,31.24 433.38,31.24 202.26,0 433.39,-4.68 433.39,-31.24 l 0,0 z" /><path
             id="path50"
             style="fill:#6d399f;fill-opacity:1;fill-rule:nonzero;stroke:none"
             d="m 1850,3813.68 c 0,0 -98.82,6.79 -158.79,3.12 61.24,29.6 35.64,156.81 112.76,153.08 89.82,-1.56 190.27,-17.72 190.27,-17.72 -68.67,2.19 -64.82,-153.04 -144.24,-138.48 l 0,0" /><path
             id="path52"
             style="fill:none;stroke:#ffffff;stroke-width:0.28299999;stroke-linecap:butt;stroke-linejoin:miter;stroke-miterlimit:3.86369991;stroke-dasharray:none;stroke-opacity:1"
             d="m 1850,3813.68 c 0,0 -98.82,6.79 -158.79,3.12 61.24,29.6 35.64,156.81 112.76,153.08 89.82,-1.56 190.27,-17.72 190.27,-17.72 -68.67,2.19 -64.82,-153.04 -144.24,-138.48 l 0,0 z" /><path
             id="path54"
             style="fill:#6d399f;fill-opacity:1;fill-rule:nonzero;stroke:none"
             d="m 1619.24,3813.68 c 0,0 -98.77,-7.53 -157.56,-19.85 56.32,38.13 12.63,160.31 89.47,167.75 89.11,11.42 190.84,9.94 190.84,9.94 -68.27,-7.74 -42.07,-160.8 -122.75,-157.84 l 0,0" /><path
             id="path56"
             style="fill:none;stroke:#ffffff;stroke-width:0.28299999;stroke-linecap:butt;stroke-linejoin:miter;stroke-miterlimit:3.86369991;stroke-dasharray:none;stroke-opacity:1"
             d="m 1619.24,3813.68 c 0,0 -98.77,-7.53 -157.56,-19.85 56.32,38.13 12.63,160.31 89.47,167.75 89.11,11.42 190.84,9.94 190.84,9.94 -68.27,-7.74 -42.07,-160.8 -122.75,-157.84 l 0,0 z" /><path
             id="path58"
             style="fill:#6d399f;fill-opacity:1;fill-rule:nonzero;stroke:none"
             d="m 2078.99,3780.64 c 0,0 -96.74,21.34 -156.58,26.56 64.96,20.23 58.43,149.81 134.14,134.73 88.61,-14.83 185.56,-45.65 185.56,-45.65 -67.59,12.31 -86.73,-141.77 -163.12,-115.64 l 0,0" /><path
             id="path60"
             style="fill:none;stroke:#ffffff;stroke-width:0.28299999;stroke-linecap:butt;stroke-linejoin:miter;stroke-miterlimit:3.86369991;stroke-dasharray:none;stroke-opacity:1"
             d="m 2078.99,3780.64 c 0,0 -96.74,21.34 -156.58,26.56 64.96,20.23 58.43,149.81 134.14,134.73 88.61,-14.83 185.56,-45.65 185.56,-45.65 -67.59,12.31 -86.73,-141.77 -163.12,-115.64 l 0,0 z" /><path
             id="path62"
             style="fill:#6d399f;fill-opacity:1;fill-rule:nonzero;stroke:none"
             d="m 2299.56,3714.48 c 0,0 -92.64,35.06 -151.1,48.84 67.19,10.65 79.44,139.8 152.17,113.95 85.55,-27.43 177.01,-71.95 177.01,-71.95 -65.1,21.94 -106.29,-127.74 -178.08,-90.84 l 0,0" /><path
             id="path64"
             style="fill:none;stroke:#ffffff;stroke-width:0.28299999;stroke-linecap:butt;stroke-linejoin:miter;stroke-miterlimit:3.86369991;stroke-dasharray:none;stroke-opacity:1"
             d="m 2299.56,3714.48 c 0,0 -92.64,35.06 -151.1,48.84 67.19,10.65 79.44,139.8 152.17,113.95 85.55,-27.43 177.01,-71.95 177.01,-71.95 -65.1,21.94 -106.29,-127.74 -178.08,-90.84 l 0,0 z" /><path
             id="path66"
             style="fill:#6d399f;fill-opacity:1;fill-rule:nonzero;stroke:none"
             d="m 2509.26,3617.15 c 0,0 -86.44,48.37 -142.22,70.65 68.02,0.6 99.21,126.52 167.34,90.2 80.53,-39.79 164.41,-97.31 164.41,-97.31 -61.13,31.31 -123.98,-110.64 -189.53,-63.54 l 0,0" /><path
             id="path68"
             style="fill:none;stroke:#ffffff;stroke-width:0.28299999;stroke-linecap:butt;stroke-linejoin:miter;stroke-miterlimit:3.86369991;stroke-dasharray:none;stroke-opacity:1"
             d="m 2509.26,3617.15 c 0,0 -86.44,48.37 -142.22,70.65 68.02,0.6 99.21,126.52 167.34,90.2 80.53,-39.79 164.41,-97.31 164.41,-97.31 -61.13,31.31 -123.98,-110.64 -189.53,-63.54 l 0,0 z" /><path
             id="path70"
             style="fill:#6d399f;fill-opacity:1;fill-rule:nonzero;stroke:none"
             d="m 2703.62,3490 c 0,0 -78.75,60.06 -130.82,89.97 67.4,-8.98 116.03,111.26 178.34,65.71 74.12,-50.73 149.06,-119.49 149.06,-119.49 -56.11,39.62 -138.34,-92.04 -196.58,-36.19 l 0,0" /><path
             id="path72"
             style="fill:none;stroke:#ffffff;stroke-width:0.28299999;stroke-linecap:butt;stroke-linejoin:miter;stroke-miterlimit:3.86369991;stroke-dasharray:none;stroke-opacity:1"
             d="m 2703.62,3490 c 0,0 -78.75,60.06 -130.82,89.97 67.4,-8.98 116.03,111.26 178.34,65.71 74.12,-50.73 149.06,-119.49 149.06,-119.49 -56.11,39.62 -138.34,-92.04 -196.58,-36.19 l 0,0 z" /><path
             id="path74"
             style="fill:#6d399f;fill-opacity:1;fill-rule:nonzero;stroke:none"
             d="m 2876.55,3335.21 c 0,0 -68.77,71.26 -115.72,108.71 65.29,-19.08 131.54,92.44 186.25,37.99 65.58,-61.37 129.25,-140.67 129.25,-140.67 -49.47,47.64 -150.66,-70.07 -199.78,-6.03 l 0,0" /><path
             id="path76"
             style="fill:none;stroke:#ffffff;stroke-width:0.28299999;stroke-linecap:butt;stroke-linejoin:miter;stroke-miterlimit:3.86369991;stroke-dasharray:none;stroke-opacity:1"
             d="m 2876.55,3335.21 c 0,0 -68.77,71.26 -115.72,108.71 65.29,-19.08 131.54,92.44 186.25,37.99 65.58,-61.37 129.25,-140.67 129.25,-140.67 -49.47,47.64 -150.66,-70.07 -199.78,-6.03 l 0,0 z" /><path
             id="path78"
             style="fill:#6d399f;fill-opacity:1;fill-rule:nonzero;stroke:none"
             d="m 3146,2958.4 c 0,0 -45.53,87.94 -79.82,137.24 57.09,-36.92 152.44,50.99 189.29,-16.8 45.34,-77.54 83.7,-171.72 83.7,-171.72 -33.79,59.78 -164.38,-24.11 -193.17,51.28 l 0,0" /><path
             id="path80"
             style="fill:none;stroke:#ffffff;stroke-width:0.28299999;stroke-linecap:butt;stroke-linejoin:miter;stroke-miterlimit:3.86369991;stroke-dasharray:none;stroke-opacity:1"
             d="m 3146,2958.4 c 0,0 -45.53,87.94 -79.82,137.24 57.09,-36.92 152.44,50.99 189.29,-16.8 45.34,-77.54 83.7,-171.72 83.7,-171.72 -33.79,59.78 -164.38,-24.11 -193.17,51.28 l 0,0 z" /><path
             id="path82"
             style="fill:#6d399f;fill-opacity:1;fill-rule:nonzero;stroke:none"
             d="m 3024.13,3156.71 c 0,0 -57.74,80.43 -98.79,124.25 61.83,-28.29 143.47,72.49 189.74,10.71 56.04,-70.17 107.6,-157.82 107.6,-157.82 -42.07,54.26 -159.18,-47.59 -198.55,22.86 l 0,0" /><path
             id="path84"
             style="fill:none;stroke:#ffffff;stroke-width:0.28299999;stroke-linecap:butt;stroke-linejoin:miter;stroke-miterlimit:3.86369991;stroke-dasharray:none;stroke-opacity:1"
             d="m 3024.13,3156.71 c 0,0 -57.74,80.43 -98.79,124.25 61.83,-28.29 143.47,72.49 189.74,10.71 56.04,-70.17 107.6,-157.82 107.6,-157.82 -42.07,54.26 -159.18,-47.59 -198.55,22.86 l 0,0 z" /><path
             id="path86"
             style="fill:#6d399f;fill-opacity:1;fill-rule:nonzero;stroke:none"
             d="m 3236.31,2745.87 c 0,0 -32.03,93.7 -58.67,147.51 51.02,-44.95 158.3,27.92 184.75,-44.59 33.36,-83.38 57.38,-182.19 57.38,-182.19 -24.57,64.12 -166.13,0.45 -183.46,79.27 l 0,0" /><path
             id="path88"
             style="fill:none;stroke:#ffffff;stroke-width:0.28299999;stroke-linecap:butt;stroke-linejoin:miter;stroke-miterlimit:3.86369991;stroke-dasharray:none;stroke-opacity:1"
             d="m 3236.31,2745.87 c 0,0 -32.03,93.7 -58.67,147.51 51.02,-44.95 158.3,27.92 184.75,-44.59 33.36,-83.38 57.38,-182.19 57.38,-182.19 -24.57,64.12 -166.13,0.45 -183.46,79.27 l 0,0 z" /><path
             id="path90"
             style="fill:#6d399f;fill-opacity:1;fill-rule:nonzero;stroke:none"
             d="m 3295.14,2522.71 c 0,0 -18.16,97.33 -36.76,154.43 43.99,-51.85 160.67,4.76 176.35,-70.81 21,-87.3 30.49,-188.53 30.49,-188.53 -15.06,66.98 -164.32,24.42 -170.08,104.91 l 0,0" /><path
             id="path92"
             style="fill:none;stroke:#ffffff;stroke-width:0.28299999;stroke-linecap:butt;stroke-linejoin:miter;stroke-miterlimit:3.86369991;stroke-dasharray:none;stroke-opacity:1"
             d="m 3295.14,2522.71 c 0,0 -18.16,97.33 -36.76,154.43 43.99,-51.85 160.67,4.76 176.35,-70.81 21,-87.3 30.49,-188.53 30.49,-188.53 -15.06,66.98 -164.32,24.42 -170.08,104.91 l 0,0 z" /><path
             id="path94"
             style="fill:#6d399f;fill-opacity:1;fill-rule:nonzero;stroke:none"
             d="m 3320.32,2295.5 c 0,0 -3.58,98.94 -13.52,158.13 35.84,-57.76 159.59,-19.03 163.95,-96.05 7.83,-89.46 2.26,-190.99 2.26,-190.99 -4.98,68.49 -158.88,48.45 -152.69,128.91 l 0,0" /><path
             id="path96"
             style="fill:none;stroke:#ffffff;stroke-width:0.28299999;stroke-linecap:butt;stroke-linejoin:miter;stroke-miterlimit:3.86369991;stroke-dasharray:none;stroke-opacity:1"
             d="m 3320.32,2295.5 c 0,0 -3.58,98.94 -13.52,158.13 35.84,-57.76 159.59,-19.03 163.95,-96.05 7.83,-89.46 2.26,-190.99 2.26,-190.99 -4.98,68.49 -158.88,48.45 -152.69,128.91 l 0,0 z" /><path
             id="path98"
             style="fill:#6d399f;fill-opacity:1;fill-rule:nonzero;stroke:none"
             d="m 3312.66,2063.47 c 0,0 10.39,98.44 8.91,158.45 27.34,-62.25 155.29,-41.34 148.75,-118.22 -4.85,-89.64 -24.65,-189.35 -24.65,-189.35 4.69,68.49 -150.47,70.35 -133.01,149.12 l 0,0" /><path
             id="path100"
             style="fill:none;stroke:#ffffff;stroke-width:0.28299999;stroke-linecap:butt;stroke-linejoin:miter;stroke-miterlimit:3.86369991;stroke-dasharray:none;stroke-opacity:1"
             d="m 3312.66,2063.47 c 0,0 10.39,98.44 8.91,158.45 27.34,-62.25 155.29,-41.34 148.75,-118.22 -4.85,-89.64 -24.65,-189.35 -24.65,-189.35 4.69,68.49 -150.47,70.35 -133.01,149.12 l 0,0 z" /><path
             id="path102"
             style="fill:#6d399f;fill-opacity:1;fill-rule:nonzero;stroke:none"
             d="m 3271.06,1835.23 c 0,0 25,95.79 32.48,155.34 17.73,-65.63 147.36,-64.09 129.41,-139.11 -18.2,-87.92 -52.69,-183.56 -52.69,-183.56 14.88,67.03 -138.24,92.06 -109.2,167.33 l 0,0" /><path
             id="path104"
             style="fill:none;stroke:#ffffff;stroke-width:0.28299999;stroke-linecap:butt;stroke-linejoin:miter;stroke-miterlimit:3.86369991;stroke-dasharray:none;stroke-opacity:1"
             d="m 3271.06,1835.23 c 0,0 25,95.79 32.48,155.34 17.73,-65.63 147.36,-64.09 129.41,-139.11 -18.2,-87.92 -52.69,-183.56 -52.69,-183.56 14.88,67.03 -138.24,92.06 -109.2,167.33 l 0,0 z" /><path
             id="path106"
             style="fill:#6d399f;fill-opacity:1;fill-rule:nonzero;stroke:none"
             d="m 289.387,1596.57 c 0,0 40.32,-90.77 71.773,-142.19 -55.238,40.51 -156.972,-41.35 -189.844,28.74 -40.781,80.34 -73.484,176.9 -73.484,176.9 30.277,-61.89 167.305,13.73 191.555,-63.45 l 0,0" /><path
             id="path108"
             style="fill:none;stroke:#ffffff;stroke-width:0.28299999;stroke-linecap:butt;stroke-linejoin:miter;stroke-miterlimit:3.86369991;stroke-dasharray:none;stroke-opacity:1"
             d="m 289.387,1596.57 c 0,0 40.32,-90.77 71.773,-142.19 -55.238,40.51 -156.972,-41.35 -189.844,28.74 -40.781,80.34 -73.484,176.9 -73.484,176.9 30.277,-61.89 167.305,13.73 191.555,-63.45 l 0,0 z" /><path
             id="path110"
             style="fill:#6d399f;fill-opacity:1;fill-rule:nonzero;stroke:none"
             d="m 211.223,1816.13 c 0,0 26.339,-95.68 49.777,-151.14 -48.594,48.15 -161.4102,-17.91 -183.4648,56.23 -28.3516,85.44 -46.2969,185.72 -46.2969,185.72 20.7187,-65.64 167.5077,-10.95 179.9847,-90.81 l 0,0" /><path
             id="path112"
             style="fill:none;stroke:#ffffff;stroke-width:0.28299999;stroke-linecap:butt;stroke-linejoin:miter;stroke-miterlimit:3.86369991;stroke-dasharray:none;stroke-opacity:1"
             d="m 211.223,1816.13 c 0,0 26.339,-95.68 49.777,-151.14 -48.594,48.15 -161.4102,-17.91 -183.4648,56.23 -28.3516,85.44 -46.2969,185.72 -46.2969,185.72 20.7187,-65.64 167.5077,-10.95 179.9847,-90.81 l 0,0 z" /><path
             id="path114"
             style="fill:#6d399f;fill-opacity:1;fill-rule:nonzero;stroke:none"
             d="m 167.062,2043.05 c 0,0 12.137,-98.44 27.25,-156.68 -41.066,54.6 -162.3198,5.38 -173.3432,81.9 C 5.35547,2056.87 2.20703,2158.64 2.20703,2158.64 13.1445,2090.73 166.352,2123.84 167.062,2043.05 l 0,0" /><path
             id="path116"
             style="fill:none;stroke:#ffffff;stroke-width:0.28299999;stroke-linecap:butt;stroke-linejoin:miter;stroke-miterlimit:3.86369991;stroke-dasharray:none;stroke-opacity:1"
             d="m 167.062,2043.05 c 0,0 12.137,-98.44 27.25,-156.68 -41.066,54.6 -162.3198,5.38 -173.3432,81.9 C 5.35547,2056.87 2.20703,2158.64 2.20703,2158.64 13.1445,2090.73 166.352,2123.84 167.062,2043.05 l 0,0 z" /><path
             id="path118"
             style="fill:#6d399f;fill-opacity:1;fill-rule:nonzero;stroke:none"
             d="m 156.055,2273.58 c 0,0 -2.676,-99.12 3.586,-158.93 -32.473,60 -159.7230312,29.1 -159.226938,106.37 -2.218752,89.91 9.839838,191.03 9.839838,191.03 0.6875,-68.76 157.1521,-58.45 145.8011,-138.47 l 0,0" /><path
             id="path120"
             style="fill:none;stroke:#ffffff;stroke-width:0.28299999;stroke-linecap:butt;stroke-linejoin:miter;stroke-miterlimit:3.86369991;stroke-dasharray:none;stroke-opacity:1"
             d="m 156.055,2273.58 c 0,0 -2.676,-99.12 3.586,-158.93 -32.473,60 -159.7230312,29.1 -159.226938,106.37 -2.218752,89.91 9.839838,191.03 9.839838,191.03 0.6875,-68.76 157.1521,-58.45 145.8011,-138.47 l 0,0 z" /><path
             id="path122"
             style="fill:#6d399f;fill-opacity:1;fill-rule:nonzero;stroke:none"
             d="m 178.922,2505.82 c 0,0 -16.742,-97.75 -19.043,-157.82 -23.613,63.94 -153.98056,51.11 -142.4962,127.53 10.5781,89.29 36.8945,187.71 36.8945,187.71 -9.0937,-68.16 147.2537,-79.82 124.6447,-157.42 l 0,0" /><path
             id="path124"
             style="fill:none;stroke:#ffffff;stroke-width:0.28299999;stroke-linecap:butt;stroke-linejoin:miter;stroke-miterlimit:3.86369991;stroke-dasharray:none;stroke-opacity:1"
             d="m 178.922,2505.82 c 0,0 -16.742,-97.75 -19.043,-157.82 -23.613,63.94 -153.98056,51.11 -142.4962,127.53 10.5781,89.29 36.8945,187.71 36.8945,187.71 -9.0937,-68.16 147.2537,-79.82 124.6447,-157.42 l 0,0 z" /><path
             id="path126"
             style="fill:#6d399f;fill-opacity:1;fill-rule:nonzero;stroke:none"
             d="m 235.582,2731.72 c 0,0 -31.465,-94.11 -42.91,-153.13 -13.586,66.72 -144.4103,73.59 -121.3986,147.41 24.0821,86.68 65.1176,180.02 65.1176,180.02 -19.387,-66.02 133.39,-100.97 99.191,-174.3 l 0,0" /><path
             id="path128"
             style="fill:none;stroke:#ffffff;stroke-width:0.28299999;stroke-linecap:butt;stroke-linejoin:miter;stroke-miterlimit:3.86369991;stroke-dasharray:none;stroke-opacity:1"
             d="m 235.582,2731.72 c 0,0 -31.465,-94.11 -42.91,-153.13 -13.586,66.72 -144.4103,73.59 -121.3986,147.41 24.0821,86.68 65.1176,180.02 65.1176,180.02 -19.387,-66.02 133.39,-100.97 99.191,-174.3 l 0,0 z" /><path
             id="path130"
             style="fill:#6d399f;fill-opacity:1;fill-rule:nonzero;stroke:none"
             d="m 442.32,3144.31 c 0,0 -57.269,-81.26 -85.246,-134.59 6.211,67.78 -117.179,111.39 -73.851,175.62 48.054,76.25 114.273,154.07 114.273,154.07 -37.601,-57.78 98.731,-134.5 44.824,-195.1 l 0,0" /><path
             id="path132"
             style="fill:none;stroke:#ffffff;stroke-width:0.28299999;stroke-linecap:butt;stroke-linejoin:miter;stroke-miterlimit:3.86369991;stroke-dasharray:none;stroke-opacity:1"
             d="m 442.32,3144.31 c 0,0 -57.269,-81.26 -85.246,-134.59 6.211,67.78 -117.179,111.39 -73.851,175.62 48.054,76.25 114.273,154.07 114.273,154.07 -37.601,-57.78 98.731,-134.5 44.824,-195.1 l 0,0 z" /><path
             id="path134"
             style="fill:#6d399f;fill-opacity:1;fill-rule:nonzero;stroke:none"
             d="m 324.145,2945.39 c 0,0 -44.829,-88.59 -64.747,-145.39 -3.73,67.99 -132.171,93.49 -98.656,163.22 36.449,82.33 90.637,168.81 90.637,168.81 -28.801,-62.55 117.277,-118.97 72.766,-186.64 l 0,0" /><path
             id="path136"
             style="fill:none;stroke:#ffffff;stroke-width:0.28299999;stroke-linecap:butt;stroke-linejoin:miter;stroke-miterlimit:3.86369991;stroke-dasharray:none;stroke-opacity:1"
             d="m 324.145,2945.39 c 0,0 -44.829,-88.59 -64.747,-145.39 -3.73,67.99 -132.171,93.49 -98.656,163.22 36.449,82.33 90.637,168.81 90.637,168.81 -28.801,-62.55 117.277,-118.97 72.766,-186.64 l 0,0 z" /><path
             id="path138"
             style="fill:#6d399f;fill-opacity:1;fill-rule:nonzero;stroke:none"
             d="m 589.844,3324.2 c 0,0 -68.246,-72.45 -103.532,-121.33 15.793,66.24 -100.144,126.61 -48.128,184.14 58.418,68.77 135.031,136.54 135.031,136.54 -45.438,-51.92 78.601,-146.91 16.629,-199.35 l 0,0" /><path
             id="path140"
             style="fill:none;stroke:#ffffff;stroke-width:0.28299999;stroke-linecap:butt;stroke-linejoin:miter;stroke-miterlimit:3.86369991;stroke-dasharray:none;stroke-opacity:1"
             d="m 589.844,3324.2 c 0,0 -68.246,-72.45 -103.532,-121.33 15.793,66.24 -100.144,126.61 -48.128,184.14 58.418,68.77 135.031,136.54 135.031,136.54 -45.438,-51.92 78.601,-146.91 16.629,-199.35 l 0,0 z" /><path
             id="path142"
             style="fill:#6d399f;fill-opacity:1;fill-rule:nonzero;stroke:none"
             d="m 760.023,3478.85 c 0,0 -78.406,-61.52 -120.664,-104.63 25.602,63.17 -79.925,140.07 -19.812,189.23 68.129,59.32 154.105,114.99 154.105,114.99 -52.761,-44.62 55.563,-156.92 -13.629,-199.59 l 0,0" /><path
             id="path144"
             style="fill:none;stroke:#ffffff;stroke-width:0.28299999;stroke-linecap:butt;stroke-linejoin:miter;stroke-miterlimit:3.86369991;stroke-dasharray:none;stroke-opacity:1"
             d="m 760.023,3478.85 c 0,0 -78.406,-61.52 -120.664,-104.63 25.602,63.17 -79.925,140.07 -19.812,189.23 68.129,59.32 154.105,114.99 154.105,114.99 -52.761,-44.62 55.563,-156.92 -13.629,-199.59 l 0,0 z" /><path
             id="path146"
             style="fill:#6d399f;fill-opacity:1;fill-rule:nonzero;stroke:none"
             d="m 954,3609.41 c 0,0 -86.797,-49.19 -135.074,-85.54 34.836,58.63 -57.903,150.3 8.945,189.99 76.309,48.56 169.711,90.86 169.711,90.86 -58.894,-36.29 31.268,-163.36 -43.582,-195.31 l 0,0" /><path
             id="path148"
             style="fill:none;stroke:#ffffff;stroke-width:0.28299999;stroke-linecap:butt;stroke-linejoin:miter;stroke-miterlimit:3.86369991;stroke-dasharray:none;stroke-opacity:1"
             d="m 954,3609.41 c 0,0 -86.797,-49.19 -135.074,-85.54 34.836,58.63 -57.903,150.3 8.945,189.99 76.309,48.56 169.711,90.86 169.711,90.86 -58.894,-36.29 31.268,-163.36 -43.582,-195.31 l 0,0 z" /><path
             id="path150"
             style="fill:#6d399f;fill-opacity:1;fill-rule:nonzero;stroke:none"
             d="m 1165.71,3709.96 c 0,0 -92.92,-36.58 -145.89,-65.83 42.83,53.19 -35.941,156.88 35.88,186.84 82.44,37.41 180.92,66.25 180.92,66.25 -63.46,-27.72 7.73,-166.11 -70.91,-187.26 l 0,0" /><path
             id="path152"
             style="fill:none;stroke:#ffffff;stroke-width:0.28299999;stroke-linecap:butt;stroke-linejoin:miter;stroke-miterlimit:3.86369991;stroke-dasharray:none;stroke-opacity:1"
             d="m 1165.71,3709.96 c 0,0 -92.92,-36.58 -145.89,-65.83 42.83,53.19 -35.941,156.88 35.88,186.84 82.44,37.41 180.92,66.25 180.92,66.25 -63.46,-27.72 7.73,-166.11 -70.91,-187.26 l 0,0 z" /><path
             id="path154"
             style="fill:#6d399f;fill-opacity:1;fill-rule:nonzero;stroke:none"
             d="m 1389.6,3778.45 c 0,0 -97.43,-22.21 -154.25,-43.18 50.46,46.15 -11.59,160.44 63.97,179.31 87.21,24.62 188.96,38.34 188.96,38.34 -66.96,-17.87 -17.71,-165.33 -98.68,-174.47 l 0,0" /><path
             id="path156"
             style="fill:none;stroke:#ffffff;stroke-width:0.28299999;stroke-linecap:butt;stroke-linejoin:miter;stroke-miterlimit:3.86369991;stroke-dasharray:none;stroke-opacity:1"
             d="m 1389.6,3778.45 c 0,0 -97.43,-22.21 -154.25,-43.18 50.46,46.15 -11.59,160.44 63.97,179.31 87.21,24.62 188.96,38.34 188.96,38.34 -66.96,-17.87 -17.71,-165.33 -98.68,-174.47 l 0,0 z" /><path
             id="path158"
             style="fill:#6d399f;fill-opacity:1;fill-rule:nonzero;stroke:none"
             d="m 3088.13,1406.03 c 0,0 51.62,84.45 76,139.29 -2,-67.93 122.54,-103.9 83.67,-170.54 -42.81,-78.9 -103.48,-160.47 -103.48,-160.47 33.61,59.85 -105.72,128.05 -56.19,191.72 l 0,0" /><path
             id="path160"
             style="fill:none;stroke:#ffffff;stroke-width:0.28299999;stroke-linecap:butt;stroke-linejoin:miter;stroke-miterlimit:3.86369991;stroke-dasharray:none;stroke-opacity:1"
             d="m 3088.13,1406.03 c 0,0 51.62,84.45 76,139.29 -2,-67.93 122.54,-103.9 83.67,-170.54 -42.81,-78.9 -103.48,-160.47 -103.48,-160.47 33.61,59.85 -105.72,128.05 -56.19,191.72 l 0,0 z" /><path
             id="path162"
             style="fill:#6d399f;fill-opacity:1;fill-rule:nonzero;stroke:none"
             d="m 3193.77,1610.54 c 0,0 38.87,91.03 55.08,148.82 7.83,-67.52 136.25,-85.14 107.4,-156.67 -30.97,-84.27 -79.21,-173.73 -79.21,-173.73 24.63,64.08 -123.11,111.44 -83.27,181.58 l 0,0" /><path
             id="path164"
             style="fill:none;stroke:#ffffff;stroke-width:0.28299999;stroke-linecap:butt;stroke-linejoin:miter;stroke-miterlimit:3.86369991;stroke-dasharray:none;stroke-opacity:1"
             d="m 3193.77,1610.54 c 0,0 38.87,91.03 55.08,148.82 7.83,-67.52 136.25,-85.14 107.4,-156.67 -30.97,-84.27 -79.21,-173.73 -79.21,-173.73 24.63,64.08 -123.11,111.44 -83.27,181.58 l 0,0 z" /><path
             id="path166"
             style="fill:#6d399f;fill-opacity:1;fill-rule:nonzero;stroke:none"
             d="m 2953.23,1218.3 c 0,0 63.53,75.91 95.74,126.55 -12.01,-66.9 105.84,-120.89 57.54,-181.04 -54.01,-71.7 -126.06,-143.41 -126.06,-143.41 42.11,54.23 -85.62,142.28 -27.22,197.9 l 0,0" /><path
             id="path168"
             style="fill:none;stroke:#ffffff;stroke-width:0.28299999;stroke-linecap:butt;stroke-linejoin:miter;stroke-miterlimit:3.86369991;stroke-dasharray:none;stroke-opacity:1"
             d="m 2953.23,1218.3 c 0,0 63.53,75.91 95.74,126.55 -12.01,-66.9 105.84,-120.89 57.54,-181.04 -54.01,-71.7 -126.06,-143.41 -126.06,-143.41 42.11,54.23 -85.62,142.28 -27.22,197.9 l 0,0 z" /><path
             id="path170"
             style="fill:#6d399f;fill-opacity:1;fill-rule:nonzero;stroke:none"
             d="m 2792.82,1052.95 c 0,0 73.81,65.93 113.01,111.38 -21.55,-64.46 87.26,-134.89 30.8,-187.42 -63.79,-63.16 -145.43,-123.711 -145.43,-123.711 49.47,47.582 -64.18,153.141 1.62,199.751 l 0,0" /><path
             id="path172"
             style="fill:none;stroke:#ffffff;stroke-width:0.28299999;stroke-linecap:butt;stroke-linejoin:miter;stroke-miterlimit:3.86369991;stroke-dasharray:none;stroke-opacity:1"
             d="m 2792.82,1052.95 c 0,0 73.81,65.93 113.01,111.38 -21.55,-64.46 87.26,-134.89 30.8,-187.42 -63.79,-63.16 -145.43,-123.711 -145.43,-123.711 49.47,47.582 -64.18,153.141 1.62,199.751 l 0,0 z" /><path
             id="path174"
             style="fill:#6d399f;fill-opacity:1;fill-rule:nonzero;stroke:none"
             d="m 2609.67,911.98 c 0,0 82.54,54.571 127.87,93.89 -30.62,-60.651 66.88,-146.05 3.42,-189.89 -72.22,-53.269 -161.74,-101.398 -161.74,-101.398 55.82,39.93 -41.4,160.777 30.45,197.398 l 0,0" /><path
             id="path176"
             style="fill:none;stroke:#ffffff;stroke-width:0.28299999;stroke-linecap:butt;stroke-linejoin:miter;stroke-miterlimit:3.86369991;stroke-dasharray:none;stroke-opacity:1"
             d="m 2609.67,911.98 c 0,0 82.54,54.571 127.87,93.89 -30.62,-60.651 66.88,-146.05 3.42,-189.89 -72.22,-53.269 -161.74,-101.398 -161.74,-101.398 55.82,39.93 -41.4,160.777 30.45,197.398 l 0,0 z" /><path
             id="path178"
             style="fill:#6d399f;fill-opacity:1;fill-rule:nonzero;stroke:none"
             d="m 2407.5,798.789 c 0,0 89.56,42.09 140.08,74.441 -39.04,-55.601 45.1,-154.171 -24.02,-188.378 -79.16,-42.282 -174.67,-76.981 -174.67,-76.981 61,31.449 -17.77,165.059 58.61,190.918 l 0,0" /><path
             id="path180"
             style="fill:none;stroke:#ffffff;stroke-width:0.28299999;stroke-linecap:butt;stroke-linejoin:miter;stroke-miterlimit:3.86369991;stroke-dasharray:none;stroke-opacity:1"
             d="m 2407.5,798.789 c 0,0 89.56,42.09 140.08,74.441 -39.04,-55.601 45.1,-154.171 -24.02,-188.378 -79.16,-42.282 -174.67,-76.981 -174.67,-76.981 61,31.449 -17.77,165.059 58.61,190.918 l 0,0 z" /><path
             id="path182"
             style="fill:#6d399f;fill-opacity:1;fill-rule:nonzero;stroke:none"
             d="m 2190.32,716.422 c 0,0 94.78,28.387 149.53,52.918 -46.84,-49.219 21.8,-159.129 -51.6,-182.75 -84.53,-30.121 -184.12,-50.32 -184.12,-50.32 64.98,22.089 6.83,165.859 86.19,180.152 l 0,0" /><path
             id="path184"
             style="fill:none;stroke:#ffffff;stroke-width:0.28299999;stroke-linecap:butt;stroke-linejoin:miter;stroke-miterlimit:3.86369991;stroke-dasharray:none;stroke-opacity:1"
             d="m 2190.32,716.422 c 0,0 94.78,28.387 149.53,52.918 -46.84,-49.219 21.8,-159.129 -51.6,-182.75 -84.53,-30.121 -184.12,-50.32 -184.12,-50.32 64.98,22.089 6.83,165.859 86.19,180.152 l 0,0 z" /><path
             id="path186"
             style="fill:#6d399f;fill-opacity:1;fill-rule:nonzero;stroke:none"
             d="m 887.133,899.559 c 0,0 83.363,-53.43 137.727,-78.93 -68.059,3.191 -107.298,-121.57 -173.106,-81.25 -78.02,44.48 -158.254,106.973 -158.254,106.973 59.145,-34.891 131.07,104.207 193.633,53.207 l 0,0" /><path
             id="path188"
             style="fill:none;stroke:#ffffff;stroke-width:0.28299999;stroke-linecap:butt;stroke-linejoin:miter;stroke-miterlimit:3.86369991;stroke-dasharray:none;stroke-opacity:1"
             d="m 887.133,899.559 c 0,0 83.363,-53.43 137.727,-78.93 -68.059,3.191 -107.298,-121.57 -173.106,-81.25 -78.02,44.48 -158.254,106.973 -158.254,106.973 59.145,-34.891 131.07,104.207 193.633,53.207 l 0,0 z" /><path
             id="path190"
             style="fill:#6d399f;fill-opacity:1;fill-rule:nonzero;stroke:none"
             d="m 699.934,1039.24 c 0,0 74.824,-64.881 124.937,-97.939 -66.828,12.91 -123.34,-105.082 -182.668,-55.711 -70.808,55.242 -141.246,128.65 -141.246,128.65 53.516,-43.041 144.375,84.48 198.977,25 l 0,0" /><path
             id="path192"
             style="fill:none;stroke:#ffffff;stroke-width:0.28299999;stroke-linecap:butt;stroke-linejoin:miter;stroke-miterlimit:3.86369991;stroke-dasharray:none;stroke-opacity:1"
             d="m 699.934,1039.24 c 0,0 74.824,-64.881 124.937,-97.939 -66.828,12.91 -123.34,-105.082 -182.668,-55.711 -70.808,55.242 -141.246,128.65 -141.246,128.65 53.516,-43.041 144.375,84.48 198.977,25 l 0,0 z" /><path
             id="path194"
             style="fill:#6d399f;fill-opacity:1;fill-rule:nonzero;stroke:none"
             d="m 536.176,1204.61 c 0,0 64.222,-75.46 108.797,-115.7 -64.075,22.81 -137.45,-85.5 -188.688,-27.74 -61.691,65.33 -120.324,148.57 -120.324,148.57 46.441,-50.65 155.156,61.95 200.215,-5.13 l 0,0" /><path
             id="path196"
             style="fill:none;stroke:#ffffff;stroke-width:0.28299999;stroke-linecap:butt;stroke-linejoin:miter;stroke-miterlimit:3.86369991;stroke-dasharray:none;stroke-opacity:1"
             d="m 536.176,1204.61 c 0,0 64.222,-75.46 108.797,-115.7 -64.075,22.81 -137.45,-85.5 -188.688,-27.74 -61.691,65.33 -120.324,148.57 -120.324,148.57 46.441,-50.65 155.156,61.95 200.215,-5.13 l 0,0 z" /><path
             id="path198"
             style="fill:#6d399f;fill-opacity:1;fill-rule:nonzero;stroke:none"
             d="m 398.812,1390.76 c 0,0 52.477,-84.15 90.665,-130.53 -59.989,31.99 -148.239,-64.53 -190.461,0.19 -51.457,73.74 -97.274,164.78 -97.274,164.78 38.512,-56.98 162.305,38.6 197.07,-34.44 l 0,0" /><path
             id="path200"
             style="fill:none;stroke:#ffffff;stroke-width:0.28299999;stroke-linecap:butt;stroke-linejoin:miter;stroke-miterlimit:3.86369991;stroke-dasharray:none;stroke-opacity:1"
             d="m 398.812,1390.76 c 0,0 52.477,-84.15 90.665,-130.53 -59.989,31.99 -148.239,-64.53 -190.461,0.19 -51.457,73.74 -97.274,164.78 -97.274,164.78 38.512,-56.98 162.305,38.6 197.07,-34.44 l 0,0 z" /><path
             id="path202"
             style="fill:#6d399f;fill-opacity:1;fill-rule:nonzero;stroke:none"
             d="m 1738.78,694.75 c 8.88,4.852 54.19,35.609 133.31,97.719 -38.65,-56.34 8.56,-166.039 -59.47,-205.289 -91.99,-60.649 -168.76,-71.09 -168.76,-71.09 60.91,31.969 36.63,146.769 94.92,178.66 l 0,0" /><path
             id="path204"
             style="fill:none;stroke:#ffffff;stroke-width:0.28299999;stroke-linecap:butt;stroke-linejoin:miter;stroke-miterlimit:3.86369991;stroke-dasharray:none;stroke-opacity:1"
             d="m 1738.78,694.75 c 8.88,4.852 54.19,35.609 133.31,97.719 -38.65,-56.34 8.56,-166.039 -59.47,-205.289 -91.99,-60.649 -168.76,-71.09 -168.76,-71.09 60.91,31.969 36.63,146.769 94.92,178.66 l 0,0 z" /><path
             id="path206"
             style="fill:#6d399f;fill-opacity:1;fill-rule:nonzero;stroke:none"
             d="m 2148.54,258.371 c 0,0 -57.54,42.391 -128.05,66.988 68.19,4.223 75.96,120.532 145.88,87.723 80.14,-42.633 169.47,-115.602 169.47,-115.602 -61.46,28.692 -119.47,-82.878 -187.3,-39.109 l 0,0" /><path
             id="path208"
             style="fill:none;stroke:#ffffff;stroke-width:0.28299999;stroke-linecap:butt;stroke-linejoin:miter;stroke-miterlimit:3.86369991;stroke-dasharray:none;stroke-opacity:1"
             d="m 2148.54,258.371 c 0,0 -57.54,42.391 -128.05,66.988 68.19,4.223 75.96,120.532 145.88,87.723 80.14,-42.633 169.47,-115.602 169.47,-115.602 -61.46,28.692 -119.47,-82.878 -187.3,-39.109 l 0,0 z" /><path
             id="path210"
             style="fill:#6d399f;fill-opacity:1;fill-rule:nonzero;stroke:none"
             d="m 1947,827.609 c 0,0 97.91,33.911 212.99,-41.281 -88.19,7.942 -61.02,-83.906 -129.32,-88.668 -63.99,-8.058 -110.16,-40.031 -143.22,-60 36.05,37.891 -6.66,180.949 59.55,189.949 l 0,0" /><path
             id="path212"
             style="fill:none;stroke:#ffffff;stroke-width:0.28299999;stroke-linecap:butt;stroke-linejoin:miter;stroke-miterlimit:3.86369991;stroke-dasharray:none;stroke-opacity:1"
             d="m 1947,827.609 c 0,0 97.91,33.911 212.99,-41.281 -88.19,7.942 -61.02,-83.906 -129.32,-88.668 -63.99,-8.058 -110.16,-40.031 -143.22,-60 36.05,37.891 -6.66,180.949 59.55,189.949 l 0,0 z" /><path
             id="path214"
             style="fill:#6d399f;fill-opacity:1;fill-rule:nonzero;stroke:none"
             d="m 2110.57,716.352 c 20.86,31.898 45.8,65.777 88.4,37.027 3.3,-3.379 6.5,-6.82 9.57,-10.309 -36.05,-10.648 -63.48,-17.449 -97.97,-26.718 l 0,0" /><path
             id="path216"
             style="fill:none;stroke:#ffffff;stroke-width:0.28299999;stroke-linecap:butt;stroke-linejoin:miter;stroke-miterlimit:3.86369991;stroke-dasharray:none;stroke-opacity:1"
             d="m 2110.57,716.352 c 20.86,31.898 45.8,65.777 88.4,37.027 3.3,-3.379 6.5,-6.82 9.57,-10.309 -36.05,-10.648 -63.48,-17.449 -97.97,-26.718 l 0,0 z" /><path
             id="path218"
             style="fill:#6d399f;fill-opacity:1;fill-rule:nonzero;stroke:none"
             d="m 1531.07,827.609 c 0,0 -97.91,33.911 -212.98,-41.281 88.18,7.942 68.09,-98.656 136.4,-103.43 59.16,8.122 93.57,-10.679 121.88,-8.148 -8.38,56.59 6.55,145.82 -45.3,152.859 l 0,0" /><path
             id="path220"
             style="fill:none;stroke:#ffffff;stroke-width:0.28299999;stroke-linecap:butt;stroke-linejoin:miter;stroke-miterlimit:3.86369991;stroke-dasharray:none;stroke-opacity:1"
             d="m 1531.07,827.609 c 0,0 -97.91,33.911 -212.98,-41.281 88.18,7.942 68.09,-98.656 136.4,-103.43 59.16,8.122 93.57,-10.679 121.88,-8.148 -8.38,56.59 6.55,145.82 -45.3,152.859 l 0,0 z" /><path
             id="path222"
             style="fill:#6d399f;fill-opacity:1;fill-rule:evenodd;stroke:none"
             d="m 1492.94,667.441 c 0,0 125.45,-23.601 188.76,1.411 -63.05,-17.391 -40.27,-165.981 -118.1,-159.051 -88.05,1.629 -209.3,30.129 -209.3,30.129 10.6,101.511 77.22,132.718 138.64,127.511 l 0,0" /><path
             id="path224"
             style="fill:none;stroke:#ffffff;stroke-width:0.28299999;stroke-linecap:butt;stroke-linejoin:miter;stroke-miterlimit:3.86369991;stroke-dasharray:none;stroke-opacity:1"
             d="m 1492.94,667.441 c 0,0 125.45,-23.601 188.76,1.411 -63.05,-17.391 -40.27,-165.981 -118.1,-159.051 -88.05,1.629 -209.3,30.129 -209.3,30.129 10.6,101.511 77.22,132.718 138.64,127.511 l 0,0 z" /><path
             id="path226"
             style="fill:#6d399f;fill-opacity:1;fill-rule:nonzero;stroke:none"
             d="m 1090.28,790.02 c 0,0 90.35,-40.579 147.92,-57.801 -33.22,-21.731 -54.54,-99.028 -66.16,-140.047 -110.64,35.457 -265.81,116.848 -265.81,116.848 63.668,-25.801 114.67,122.21 184.05,81 l 0,0" /><path
             id="path228"
             style="fill:none;stroke:#ffffff;stroke-width:0.28299999;stroke-linecap:butt;stroke-linejoin:miter;stroke-miterlimit:3.86369991;stroke-dasharray:none;stroke-opacity:1"
             d="m 1090.28,790.02 c 0,0 90.35,-40.579 147.92,-57.801 -33.22,-21.731 -54.54,-99.028 -66.16,-140.047 -110.64,35.457 -265.81,116.848 -265.81,116.848 63.668,-25.801 114.67,122.21 184.05,81 l 0,0 z" /><path
             id="path230"
             style="fill:#6d399f;fill-opacity:1;fill-rule:nonzero;stroke:none"
             d="m 1185.54,462.262 c 0,0 1.57,-117.602 85.92,-206.403 76.18,-51.418 94.59,95.621 137.57,78.27 -68.82,45.723 -72.43,144.75 -72.43,144.75 -11.39,-52.75 -125.01,70.98 -151.06,-16.617 l 0,0" /><path
             id="path232"
             style="fill:none;stroke:#ffffff;stroke-width:0.28299999;stroke-linecap:butt;stroke-linejoin:miter;stroke-miterlimit:3.86369991;stroke-dasharray:none;stroke-opacity:1"
             d="m 1185.54,462.262 c 0,0 1.57,-117.602 85.92,-206.403 76.18,-51.418 94.59,95.621 137.57,78.27 -68.82,45.723 -72.43,144.75 -72.43,144.75 -11.39,-52.75 -125.01,70.98 -151.06,-16.617 l 0,0 z" /><path
             id="path234"
             style="fill:#6d399f;fill-opacity:1;fill-rule:nonzero;stroke:none"
             d="m 1271.46,746.5 c 76.18,51.41 94.59,-95.621 137.57,-78.281 -82.79,-49.117 -73.02,-157.938 -73.02,-157.938 -21.78,-40.91 -121.18,73.117 -150.16,6.981 -0.29,-3.762 -11.33,124.09 85.61,229.238 l 0,0" /><path
             id="path236"
             style="fill:none;stroke:#ffffff;stroke-width:0.28299999;stroke-linecap:butt;stroke-linejoin:miter;stroke-miterlimit:3.86369991;stroke-dasharray:none;stroke-opacity:1"
             d="m 1271.46,746.5 c 76.18,51.41 94.59,-95.621 137.57,-78.281 -82.79,-49.117 -73.02,-157.938 -73.02,-157.938 -21.78,-40.91 -121.18,73.117 -150.16,6.981 -0.29,-3.762 -11.33,124.09 85.61,229.238 l 0,0 z" /><path
             id="path238"
             style="fill:#6d399f;fill-opacity:1;fill-rule:nonzero;stroke:none"
             d="m 1531.07,174.762 c 0,0 -97.91,-33.93 -212.98,41.277 88.18,-7.949 68.09,98.652 136.4,103.41 44.18,-6.367 79.52,17.481 122.59,12.531 -9.92,-56.23 7.19,-150.011 -46.01,-157.218 l 0,0" /><path
             id="path240"
             style="fill:none;stroke:#ffffff;stroke-width:0.28299999;stroke-linecap:butt;stroke-linejoin:miter;stroke-miterlimit:3.86369991;stroke-dasharray:none;stroke-opacity:1"
             d="m 1531.07,174.762 c 0,0 -97.91,-33.93 -212.98,41.277 88.18,-7.949 68.09,98.652 136.4,103.41 44.18,-6.367 79.52,17.481 122.59,12.531 -9.92,-56.23 7.19,-150.011 -46.01,-157.218 l 0,0 z" /><path
             id="path242"
             style="fill:#6d399f;fill-opacity:1;fill-rule:nonzero;stroke:none"
             d="m 1738.78,307.609 c 8.88,-4.847 54.19,-35.609 133.31,-97.73 -38.65,56.34 8.56,166.051 -59.47,205.301 -91.99,60.64 -168.76,71.09 -168.76,71.09 60.91,-31.969 36.63,-146.782 94.92,-178.661 l 0,0" /><path
             id="path244"
             style="fill:none;stroke:#ffffff;stroke-width:0.28299999;stroke-linecap:butt;stroke-linejoin:miter;stroke-miterlimit:3.86369991;stroke-dasharray:none;stroke-opacity:1"
             d="m 1738.78,307.609 c 8.88,-4.847 54.19,-35.609 133.31,-97.73 -38.65,56.34 8.56,166.051 -59.47,205.301 -91.99,60.64 -168.76,71.09 -168.76,71.09 60.91,-31.969 36.63,-146.782 94.92,-178.661 l 0,0 z" /><path
             id="path246"
             style="fill:#6d399f;fill-opacity:1;fill-rule:nonzero;stroke:none"
             d="m 1755.43,462.859 c 46.98,19.102 78.27,23.411 78.27,23.411 -17.58,-9.231 -28.07,-25.372 -35.49,-44.418 -15.53,9.257 -42.78,21.007 -42.78,21.007 l 0,0" /><path
             id="path248"
             style="fill:none;stroke:#ffffff;stroke-width:0.28299999;stroke-linecap:butt;stroke-linejoin:miter;stroke-miterlimit:3.86369991;stroke-dasharray:none;stroke-opacity:1"
             d="m 1755.43,462.859 c 46.98,19.102 78.27,23.411 78.27,23.411 -17.58,-9.231 -28.07,-25.372 -35.49,-44.418 -15.53,9.257 -42.78,21.007 -42.78,21.007 l 0,0 z" /><path
             id="path250"
             style="fill:#6d399f;fill-opacity:1;fill-rule:nonzero;stroke:none"
             d="m 1492.54,338.129 c 13.21,3.199 104.24,26.402 189.16,-3.117 -63.05,17.386 -26.44,157.308 -118.1,158.047 -98.69,3.421 -202.5,-53.278 -202.5,-53.278 19,-76.14 69.84,-116.59 131.44,-101.652 l 0,0" /><path
             id="path252"
             style="fill:none;stroke:#ffffff;stroke-width:0.28299999;stroke-linecap:butt;stroke-linejoin:miter;stroke-miterlimit:3.86369991;stroke-dasharray:none;stroke-opacity:1"
             d="m 1492.54,338.129 c 13.21,3.199 104.24,26.402 189.16,-3.117 -63.05,17.386 -26.44,157.308 -118.1,158.047 -98.69,3.421 -202.5,-53.278 -202.5,-53.278 19,-76.14 69.84,-116.59 131.44,-101.652 l 0,0 z" /><path
             id="path254"
             style="fill:#6d399f;fill-opacity:1;fill-rule:nonzero;stroke:none"
             d="m 1997.82,352.789 c -32.85,-20.418 -106.66,40.801 -154.73,64.82 10.02,38.25 23.46,74.84 70.86,74.95 103.26,-0.207 190.98,-46.11 190.98,-46.11 -61.51,1.012 -67.5,-69.07 -107.11,-93.66 l 0,0" /><path
             id="path256"
             style="fill:none;stroke:#ffffff;stroke-width:0.28299999;stroke-linecap:butt;stroke-linejoin:miter;stroke-miterlimit:3.86369991;stroke-dasharray:none;stroke-opacity:1"
             d="m 1997.82,352.789 c -32.85,-20.418 -106.66,40.801 -154.73,64.82 10.02,38.25 23.46,74.84 70.86,74.95 103.26,-0.207 190.98,-46.11 190.98,-46.11 -61.51,1.012 -67.5,-69.07 -107.11,-93.66 l 0,0 z" /><path
             id="path258"
             style="fill:#6d399f;fill-opacity:1;fill-rule:nonzero;stroke:none"
             d="m 1946.49,174.762 c 0,0 97.91,-33.93 212.99,41.277 -14.1,28.59 -151.49,98.91 -172.09,104.152 -51.02,9.809 -67.39,24.539 -100.47,44.508 36.05,-37.89 -6.64,-180.961 59.57,-189.937 l 0,0" /><path
             id="path260"
             style="fill:none;stroke:#ffffff;stroke-width:0.28299999;stroke-linecap:butt;stroke-linejoin:miter;stroke-miterlimit:3.86369991;stroke-dasharray:none;stroke-opacity:1"
             d="m 1946.49,174.762 c 0,0 97.91,-33.93 212.99,41.277 -14.1,28.59 -151.49,98.91 -172.09,104.152 -51.02,9.809 -67.39,24.539 -100.47,44.508 36.05,-37.89 -6.64,-180.961 59.57,-189.937 l 0,0 z" /><path
             id="path262"
             style="fill:#6d399f;fill-opacity:1;fill-rule:nonzero;stroke:none"
             d="m 1755.43,539.27 c 46.98,-19.098 78.27,-23.411 78.27,-23.411 -17.58,9.231 -26.64,23.34 -34.07,42.391 -17.09,-11.66 -44.2,-18.98 -44.2,-18.98 l 0,0" /><path
             id="path264"
             style="fill:none;stroke:#ffffff;stroke-width:0.28299999;stroke-linecap:butt;stroke-linejoin:miter;stroke-miterlimit:3.86369991;stroke-dasharray:none;stroke-opacity:1"
             d="m 1755.43,539.27 c 46.98,-19.098 78.27,-23.411 78.27,-23.411 -17.58,9.231 -26.64,23.34 -34.07,42.391 -17.09,-11.66 -44.2,-18.98 -44.2,-18.98 l 0,0 z" /><path
             id="path266"
             style="fill:#6d399f;fill-opacity:1;fill-rule:nonzero;stroke:none"
             d="m 1944.99,650.57 c -29.07,-16.781 -59.91,-37.699 -101.49,-64.379 10.04,-38.25 32.5,-76.152 79.9,-76.261 64.57,1.672 115,12.949 115,12.949 74.59,8.301 23.77,145.812 73.75,172.473 -16.32,-5.43 -127.11,-21.661 -167.16,-44.782 l 0,0" /><path
             id="path268"
             style="fill:none;stroke:#ffffff;stroke-width:0.28299999;stroke-linecap:butt;stroke-linejoin:miter;stroke-miterlimit:3.86369991;stroke-dasharray:none;stroke-opacity:1"
             d="m 1944.99,650.57 c -29.07,-16.781 -59.91,-37.699 -101.49,-64.379 10.04,-38.25 32.5,-76.152 79.9,-76.261 64.57,1.672 115,12.949 115,12.949 74.59,8.301 23.77,145.812 73.75,172.473 -16.32,-5.43 -127.11,-21.661 -167.16,-44.782 l 0,0 z" /><path
             id="path270"
             style="fill:#6d399f;fill-opacity:1;fill-rule:nonzero;stroke:none"
             d="m 1724.24,704.059 c -20.53,13.902 -69.89,50.273 -128.19,96.043 20.65,-30.102 14.93,-83.93 17.24,-125.614 26.85,-2.968 70.2,9.071 110.95,29.571 l 0,0" /><path
             id="path272"
             style="fill:none;stroke:#ffffff;stroke-width:0.28299999;stroke-linecap:butt;stroke-linejoin:miter;stroke-miterlimit:3.86369991;stroke-dasharray:none;stroke-opacity:1"
             d="m 1724.24,704.059 c -20.53,13.902 -69.89,50.273 -128.19,96.043 20.65,-30.102 14.93,-83.93 17.24,-125.614 26.85,-2.968 70.2,9.071 110.95,29.571 l 0,0 z" /><path
             id="path274"
             style="fill:#6d399f;fill-opacity:1;fill-rule:nonzero;stroke:none"
             d="m 1722.72,297.262 c -20.96,-14.274 -72.41,-51.793 -129.3,-96.453 20.88,30.421 21.49,86.742 23.95,128.793 37.12,-1.821 85.24,-18.961 105.35,-32.34 l 0,0" /><path
             id="path276"
             style="fill:none;stroke:#ffffff;stroke-width:0.28299999;stroke-linecap:butt;stroke-linejoin:miter;stroke-miterlimit:3.86369991;stroke-dasharray:none;stroke-opacity:1"
             d="m 1722.72,297.262 c -20.96,-14.274 -72.41,-51.793 -129.3,-96.453 20.88,30.421 21.49,86.742 23.95,128.793 37.12,-1.821 85.24,-18.961 105.35,-32.34 l 0,0 z" /><path
             id="path278"
             style="fill:#6d399f;fill-opacity:1;fill-rule:nonzero;stroke:none"
             d="m 1078.81,72.9414 c -35.97,45.0276 -35.69,44.3906 -82.248,78.9566 -2.484,1.532 -0.335,4.641 -0.335,4.641 l 14.453,13.18 c 0,0 3.22,2.531 6.12,0.222 46.46,-34.531 44.84,-33.82 81.18,-79.3707 2.07,-2.2109 -0.67,-5.4922 -0.67,-5.4922 l -13.08,-12.7578 c 0,0 -2.75,-2.5195 -5.42,0.6211 l 0,0" /><path
             id="path280"
             style="fill:none;stroke:#ffffff;stroke-width:0.28299999;stroke-linecap:butt;stroke-linejoin:miter;stroke-miterlimit:3.86369991;stroke-dasharray:none;stroke-opacity:1"
             d="m 1078.81,72.9414 c -35.97,45.0276 -35.69,44.3906 -82.248,78.9566 -2.484,1.532 -0.335,4.641 -0.335,4.641 l 14.453,13.18 c 0,0 3.22,2.531 6.12,0.222 46.46,-34.531 44.84,-33.82 81.18,-79.3707 2.07,-2.2109 -0.67,-5.4922 -0.67,-5.4922 l -13.08,-12.7578 c 0,0 -2.75,-2.5195 -5.42,0.6211 l 0,0 z" /><path
             id="path282"
             style="fill:#6d399f;fill-opacity:1;fill-rule:nonzero;stroke:none"
             d="m 1247.48,259.148 c 0,0 -46.93,57.223 -48.05,81.723 -18.84,-12.402 -58.32,-43.391 -58.32,-43.391 40.28,17.45 84.09,-28.5 106.37,-38.332 l 0,0" /><path
             id="path284"
             style="fill:none;stroke:#ffffff;stroke-width:0.28299999;stroke-linecap:butt;stroke-linejoin:miter;stroke-miterlimit:3.86369991;stroke-dasharray:none;stroke-opacity:1"
             d="m 1247.48,259.148 c 0,0 -46.93,57.223 -48.05,81.723 -18.84,-12.402 -58.32,-43.391 -58.32,-43.391 40.28,17.45 84.09,-28.5 106.37,-38.332 l 0,0 z" /><path
             id="path286"
             style="fill:#6d399f;fill-opacity:1;fill-rule:nonzero;stroke:none"
             d="m 1135.6,103.398 c 25.4,24.731 85.42,81.161 135.62,113.161 -67.89,-7.68 -115.32,87.089 -178.48,42.632 -32.79,-26.902 -51.24,-42.761 -61.5,-51.921 -10.49,-9.348 -3.78,-18.321 0.16,-21.329 36.12,-27.511 51.43,-39.48 81.79,-80.73 3.18,-4.332 14.62,-9.3907 22.41,-1.813 l 0,0" /><path
             id="path288"
             style="fill:none;stroke:#ffffff;stroke-width:0.28299999;stroke-linecap:butt;stroke-linejoin:miter;stroke-miterlimit:3.86369991;stroke-dasharray:none;stroke-opacity:1"
             d="m 1135.6,103.398 c 25.4,24.731 85.42,81.161 135.62,113.161 -67.89,-7.68 -115.32,87.089 -178.48,42.632 -32.79,-26.902 -51.24,-42.761 -61.5,-51.921 -10.49,-9.348 -3.78,-18.321 0.16,-21.329 36.12,-27.511 51.43,-39.48 81.79,-80.73 3.18,-4.332 14.62,-9.3907 22.41,-1.813 l 0,0 z" /><path
             id="path290"
             style="fill:#6d399f;fill-opacity:1;fill-rule:nonzero;stroke:none"
             d="m 1035.15,0.199219 30.98,33.878881 c 0,0 9.59,10.4805 0.71,21.5938 -37.08,46.3401 -40.71,49.4691 -88.613,85.0271 -11.024,8.192 -20.825,-1.097 -20.825,-1.097 l -33.613,-31.86 C 974.855,49.1914 974.855,49.1914 1035.15,0.199219 l 0,0" /><path
             id="path292"
             style="fill:none;stroke:#ffffff;stroke-width:0.28299999;stroke-linecap:butt;stroke-linejoin:miter;stroke-miterlimit:3.86369991;stroke-dasharray:none;stroke-opacity:1"
             d="m 1035.15,0.199219 30.98,33.878881 c 0,0 9.59,10.4805 0.71,21.5938 -37.08,46.3401 -40.71,49.4691 -88.613,85.0271 -11.024,8.192 -20.825,-1.097 -20.825,-1.097 l -33.613,-31.86 C 974.855,49.1914 974.855,49.1914 1035.15,0.199219 l 0,0 z" /><path
             id="path294"
             style="fill:#6d399f;fill-opacity:1;fill-rule:nonzero;stroke:none"
             d="m 2398.72,72.9414 c 35.95,45.0276 35.68,44.3906 82.24,78.9566 2.48,1.532 0.33,4.641 0.33,4.641 l -14.45,13.18 c 0,0 -3.22,2.531 -6.11,0.222 -46.47,-34.531 -44.85,-33.82 -81.19,-79.3707 -2.07,-2.2109 0.66,-5.4922 0.66,-5.4922 l 13.09,-12.7578 c 0,0 2.75,-2.5195 5.43,0.6211 l 0,0" /><path
             id="path296"
             style="fill:none;stroke:#ffffff;stroke-width:0.28299999;stroke-linecap:butt;stroke-linejoin:miter;stroke-miterlimit:3.86369991;stroke-dasharray:none;stroke-opacity:1"
             d="m 2398.72,72.9414 c 35.95,45.0276 35.68,44.3906 82.24,78.9566 2.48,1.532 0.33,4.641 0.33,4.641 l -14.45,13.18 c 0,0 -3.22,2.531 -6.11,0.222 -46.47,-34.531 -44.85,-33.82 -81.19,-79.3707 -2.07,-2.2109 0.66,-5.4922 0.66,-5.4922 l 13.09,-12.7578 c 0,0 2.75,-2.5195 5.43,0.6211 l 0,0 z" /><path
             id="path298"
             style="fill:#6d399f;fill-opacity:1;fill-rule:nonzero;stroke:none"
             d="m 2341.92,103.398 c -25.39,24.731 -85.41,81.161 -135.61,113.161 67.89,-7.68 115.32,87.089 178.48,42.632 32.77,-26.902 51.23,-42.761 61.5,-51.921 10.47,-9.348 3.77,-18.321 -0.17,-21.329 -36.12,-27.511 -51.43,-39.48 -81.78,-80.73 -3.18,-4.332 -14.63,-9.3907 -22.42,-1.813 l 0,0" /><path
             id="path300"
             style="fill:none;stroke:#ffffff;stroke-width:0.28299999;stroke-linecap:butt;stroke-linejoin:miter;stroke-miterlimit:3.86369991;stroke-dasharray:none;stroke-opacity:1"
             d="m 2341.92,103.398 c -25.39,24.731 -85.41,81.161 -135.61,113.161 67.89,-7.68 115.32,87.089 178.48,42.632 32.77,-26.902 51.23,-42.761 61.5,-51.921 10.47,-9.348 3.77,-18.321 -0.17,-21.329 -36.12,-27.511 -51.43,-39.48 -81.78,-80.73 -3.18,-4.332 -14.63,-9.3907 -22.42,-1.813 l 0,0 z" /><path
             id="path302"
             style="fill:#6d399f;fill-opacity:1;fill-rule:nonzero;stroke:none"
             d="M 2442.37,0.199219 2411.39,34.0781 c 0,0 -9.59,10.4805 -0.7,21.5938 37.07,46.3401 40.7,49.4691 88.61,85.0271 11.02,8.192 20.82,-1.097 20.82,-1.097 l 33.62,-31.86 C 2502.66,49.1914 2502.66,49.1914 2442.37,0.199219 l 0,0" /><path
             id="path304"
             style="fill:none;stroke:#ffffff;stroke-width:0.28299999;stroke-linecap:butt;stroke-linejoin:miter;stroke-miterlimit:3.86369991;stroke-dasharray:none;stroke-opacity:1"
             d="M 2442.37,0.199219 2411.39,34.0781 c 0,0 -9.59,10.4805 -0.7,21.5938 37.07,46.3401 40.7,49.4691 88.61,85.0271 11.02,8.192 20.82,-1.097 20.82,-1.097 l 33.62,-31.86 C 2502.66,49.1914 2502.66,49.1914 2442.37,0.199219 l 0,0 z" /><path
             id="path306"
             style="fill:#6d399f;fill-opacity:1;fill-rule:nonzero;stroke:none"
             d="m 2141.22,527.648 c 0,0 4.9,-26.519 -3.29,-77.347 30.16,-12.289 86.78,-45.871 133.5,-83.391 19.9,55.129 27.97,154.57 16.88,198.949 -48.25,-16.07 -99.24,-32.05 -147.09,-38.211 l 0,0" /><path
             id="path308"
             style="fill:none;stroke:#ffffff;stroke-width:0.28299999;stroke-linecap:butt;stroke-linejoin:miter;stroke-miterlimit:3.86369991;stroke-dasharray:none;stroke-opacity:1"
             d="m 2141.22,527.648 c 0,0 4.9,-26.519 -3.29,-77.347 30.16,-12.289 86.78,-45.871 133.5,-83.391 19.9,55.129 27.97,154.57 16.88,198.949 -48.25,-16.07 -99.24,-32.05 -147.09,-38.211 l 0,0 z" /></g></g></g></g></svg>