<?xml version="1.0" encoding="UTF-8" standalone="no"?>
<!-- Created with Inkscape (http://www.inkscape.org/) -->

<svg
   xmlns:dc="http://purl.org/dc/elements/1.1/"
   xmlns:cc="http://creativecommons.org/ns#"
   xmlns:rdf="http://www.w3.org/1999/02/22-rdf-syntax-ns#"
   xmlns:svg="http://www.w3.org/2000/svg"
   xmlns="http://www.w3.org/2000/svg"
   version="1.1"
   width="398.04688"
   height="37.578125"
   viewBox="0 0 398.04688 37.578125"
   id="svg2">
  <defs
     id="defs4" />
  <metadata
     id="metadata7">
    <rdf:RDF>
      <cc:Work
         rdf:about="">
        <dc:format>image/svg+xml</dc:format>
        <dc:type
           rdf:resource="http://purl.org/dc/dcmitype/StillImage" />
        <dc:title></dc:title>
      </cc:Work>
    </rdf:RDF>
  </metadata>
  <g
     transform="translate(-25.731026,-31.773457)"
     id="layer1">
    <g
       id="text2985"
       style="font-size:40px;font-style:normal;font-weight:normal;line-height:125%;letter-spacing:0px;word-spacing:0px;fill:#000000;fill-opacity:1;stroke:none;font-family:Sans">
      <path
         d="m 40.457588,58.375019 c -1.302098,1.106772 -2.555352,1.888022 -3.759765,2.34375 -1.204439,0.455729 -2.496755,0.683593 -3.876954,0.683594 -2.278652,-1e-6 -4.029952,-0.556641 -5.253906,-1.669922 -1.22396,-1.113279 -1.835939,-2.535804 -1.835937,-4.267578 -2e-6,-1.015619 0.231118,-1.943352 0.693359,-2.783203 0.462237,-0.839835 1.067705,-1.513662 1.816406,-2.021485 0.748694,-0.507801 1.591792,-0.891916 2.529297,-1.152343 0.690097,-0.18228 1.731763,-0.358062 3.125,-0.527344 2.838529,-0.33853 4.928371,-0.742175 6.269531,-1.210938 0.013,-0.481757 0.01952,-0.787746 0.01953,-0.917968 -1.6e-5,-1.432277 -0.332047,-2.44139 -0.996094,-3.027344 -0.898452,-0.794253 -2.233086,-1.191388 -4.003906,-1.191406 -1.653655,1.8e-5 -2.874357,0.289731 -3.66211,0.86914 -0.787767,0.579444 -1.370448,1.604834 -1.748047,3.076172 l -3.4375,-0.46875 c 0.312498,-1.471338 0.82682,-2.659488 1.542969,-3.564453 0.716142,-0.904929 1.751297,-1.601543 3.105469,-2.089844 1.354159,-0.48826 2.923167,-0.7324 4.707031,-0.732422 1.77082,2.2e-5 3.209621,0.208355 4.316406,0.625 1.106754,0.416687 1.920556,0.940775 2.441407,1.572266 0.520814,0.631529 0.885397,1.429054 1.09375,2.392578 0.117168,0.598974 0.175762,1.679703 0.175781,3.242188 l 0,4.6875 c -1.9e-5,3.268234 0.07485,5.335289 0.224609,6.201171 0.14972,0.865887 0.445944,1.695965 0.888672,2.490235 l -3.671875,0 c -0.3646,-0.729166 -0.598974,-1.58203 -0.703125,-2.558594 z m -0.292969,-7.851562 c -1.276056,0.520843 -3.190116,0.963551 -5.742187,1.328125 -1.445321,0.208342 -2.467456,0.442717 -3.066406,0.703125 -0.598965,0.260424 -1.061204,0.641283 -1.386719,1.142578 -0.325526,0.501309 -0.488286,1.057949 -0.488281,1.669922 -5e-6,0.937504 0.354812,1.718753 1.064453,2.34375 0.709628,0.625002 1.748039,0.937502 3.115234,0.9375 1.354156,2e-6 2.558582,-0.296222 3.613281,-0.888672 1.054674,-0.592444 1.829413,-1.402991 2.324219,-2.431641 0.377589,-0.794264 0.566391,-1.966138 0.566406,-3.515625 z"
         id="path2990"
         style="font-family:Sans;-inkscape-font-specification:Sans" />
      <path
         d="m 49.109932,60.933613 0,-28.632813 3.515625,0 0,28.632813 z"
         id="path2992"
         style="font-family:Sans;-inkscape-font-specification:Sans" />
      <path
         d="m 72.293526,54.253925 3.632812,0.449219 c -0.572936,2.1224 -1.634133,3.769534 -3.183594,4.941406 -1.549494,1.171875 -3.528659,1.757812 -5.9375,1.757813 -3.033862,-1e-6 -5.439459,-0.934245 -7.216796,-2.802735 -1.777347,-1.868485 -2.666018,-4.488925 -2.666016,-7.861328 -2e-6,-3.489569 0.898435,-6.1979 2.695312,-8.125 1.796869,-1.927063 4.127596,-2.890603 6.992188,-2.890625 2.773424,2.2e-5 5.039046,0.944031 6.796875,2.832032 1.757793,1.888037 2.636698,4.544284 2.636719,7.96875 -2.1e-5,0.208343 -0.0065,0.520843 -0.01953,0.9375 l -15.46875,0 c 0.130204,2.278653 0.774734,4.023443 1.933594,5.234375 1.158846,1.21094 2.604157,1.816408 4.335938,1.816406 1.28905,2e-6 2.389309,-0.338539 3.300781,-1.015625 0.911443,-0.677079 1.634098,-1.757807 2.167969,-3.242188 z m -11.542969,-5.683593 11.582031,0 c -0.156267,-1.744778 -0.598974,-3.05337 -1.328125,-3.925782 -1.119806,-1.354149 -2.571627,-2.031231 -4.355469,-2.03125 -1.614592,1.9e-5 -2.972013,0.540383 -4.072265,1.621094 -1.100267,1.080745 -1.70899,2.526056 -1.826172,4.335938 z"
         id="path2994"
         style="font-family:Sans;-inkscape-font-specification:Sans" />
      <path
         d="m 78.016182,60.933613 7.578125,-10.78125 -7.011719,-9.960938 4.394531,0 3.183594,4.863282 c 0.598949,0.924494 1.08072,1.699233 1.445313,2.324218 0.572906,-0.85936 1.100249,-1.621078 1.582031,-2.285156 l 3.496094,-4.902344 4.199218,0 -7.167968,9.765625 7.714843,10.976563 -4.316406,0 -4.257812,-6.445313 -1.132813,-1.738281 -5.449219,8.183594 z"
         id="path2996"
         style="font-family:Sans;-inkscape-font-specification:Sans" />
      <path
         d="m 113.89509,58.375019 c -1.3021,1.106772 -2.55535,1.888022 -3.75977,2.34375 -1.20444,0.455729 -2.49675,0.683593 -3.87695,0.683594 -2.27865,-1e-6 -4.02995,-0.556641 -5.25391,-1.669922 -1.223957,-1.113279 -1.835936,-2.535804 -1.835934,-4.267578 -2e-6,-1.015619 0.231118,-1.943352 0.693359,-2.783203 0.462235,-0.839835 1.067705,-1.513662 1.816405,-2.021485 0.74869,-0.507801 1.59179,-0.891916 2.5293,-1.152343 0.6901,-0.18228 1.73176,-0.358062 3.125,-0.527344 2.83853,-0.33853 4.92837,-0.742175 6.26953,-1.210938 0.013,-0.481757 0.0195,-0.787746 0.0195,-0.917968 -2e-5,-1.432277 -0.33205,-2.44139 -0.99609,-3.027344 -0.89845,-0.794253 -2.23309,-1.191388 -4.00391,-1.191406 -1.65365,1.8e-5 -2.87436,0.289731 -3.66211,0.86914 -0.78777,0.579444 -1.37045,1.604834 -1.74805,3.076172 l -3.437496,-0.46875 c 0.312496,-1.471338 0.826816,-2.659488 1.542966,-3.564453 0.71614,-0.904929 1.7513,-1.601543 3.10547,-2.089844 1.35416,-0.48826 2.92317,-0.7324 4.70703,-0.732422 1.77082,2.2e-5 3.20962,0.208355 4.31641,0.625 1.10675,0.416687 1.92055,0.940775 2.44141,1.572266 0.52081,0.631529 0.88539,1.429054 1.09375,2.392578 0.11716,0.598974 0.17576,1.679703 0.17578,3.242188 l 0,4.6875 c -2e-5,3.268234 0.0749,5.335289 0.22461,6.201171 0.14972,0.865887 0.44594,1.695965 0.88867,2.490235 l -3.67188,0 c -0.3646,-0.729166 -0.59897,-1.58203 -0.70312,-2.558594 z m -0.29297,-7.851562 c -1.27606,0.520843 -3.19012,0.963551 -5.74219,1.328125 -1.44532,0.208342 -2.46745,0.442717 -3.0664,0.703125 -0.59897,0.260424 -1.06121,0.641283 -1.38672,1.142578 -0.32553,0.501309 -0.48829,1.057949 -0.48828,1.669922 -1e-5,0.937504 0.35481,1.718753 1.06445,2.34375 0.70963,0.625002 1.74804,0.937502 3.11523,0.9375 1.35416,2e-6 2.55859,-0.296222 3.61328,-0.888672 1.05468,-0.592444 1.82942,-1.402991 2.32422,-2.431641 0.37759,-0.794264 0.56639,-1.966138 0.56641,-3.515625 z"
         id="path2998"
         style="font-family:Sans;-inkscape-font-specification:Sans" />
      <path
         d="m 122.62556,60.933613 0,-20.742188 3.16406,0 0,2.949219 c 1.52343,-2.278626 3.72395,-3.417947 6.60156,-3.417969 1.24999,2.2e-5 2.39908,0.224631 3.44727,0.673828 1.04816,0.449239 1.83266,1.038431 2.35351,1.767579 0.52082,0.729184 0.8854,1.595069 1.09375,2.597656 0.13019,0.651057 0.1953,1.790379 0.19532,3.417969 l 0,12.753906 -3.51563,0 0,-12.617188 c -2e-5,-1.432277 -0.13673,-2.50324 -0.41016,-3.21289 -0.27345,-0.709619 -0.75847,-1.276025 -1.45507,-1.699219 -0.69663,-0.423159 -1.51369,-0.634748 -2.45118,-0.634766 -1.4974,1.8e-5 -2.78972,0.475278 -3.87695,1.425782 -1.08724,0.950536 -1.63086,2.75392 -1.63086,5.410156 l 0,11.328125 z"
         id="path3000"
         style="font-family:Sans;-inkscape-font-specification:Sans" />
      <path
         d="m 158.34821,60.933613 0,-2.617188 c -1.31512,2.057293 -3.24871,3.085937 -5.80078,3.085938 -1.65365,-1e-6 -3.17383,-0.455729 -4.56054,-1.367188 -1.38673,-0.911456 -2.46095,-2.184241 -3.22266,-3.818359 -0.76172,-1.634108 -1.14258,-3.512362 -1.14258,-5.634766 0,-2.0703 0.34505,-3.948553 1.03516,-5.634765 0.6901,-1.686181 1.72525,-2.978497 3.10547,-3.876953 1.3802,-0.898417 2.92316,-1.347635 4.6289,-1.347657 1.24999,2.2e-5 2.36327,0.263693 3.33985,0.791016 0.97654,0.527364 1.77081,1.214212 2.38281,2.060547 l 0,-10.273438 3.49609,0 0,28.632813 z M 147.23493,50.58205 c 0,2.656258 0.55989,4.641933 1.67969,5.957032 1.11978,1.315107 2.4414,1.972658 3.96484,1.972656 1.53645,2e-6 2.84179,-0.628252 3.91602,-1.884766 1.0742,-1.256505 1.61131,-3.17382 1.61133,-5.751953 -2e-5,-2.838529 -0.54689,-4.92186 -1.64063,-6.25 -1.09376,-1.328107 -2.44142,-1.992169 -4.04297,-1.992187 -1.56251,1.8e-5 -2.86784,0.638038 -3.91601,1.914062 -1.04819,1.276057 -1.57227,3.287774 -1.57227,6.035156 z"
         id="path3002"
         style="font-family:Sans;-inkscape-font-specification:Sans" />
      <path
         d="m 181.35603,54.253925 3.63281,0.449219 c -0.57294,2.1224 -1.63414,3.769534 -3.1836,4.941406 -1.54949,1.171875 -3.52866,1.757812 -5.9375,1.757813 -3.03386,-1e-6 -5.43945,-0.934245 -7.21679,-2.802735 -1.77735,-1.868485 -2.66602,-4.488925 -2.66602,-7.861328 0,-3.489569 0.89844,-6.1979 2.69531,-8.125 1.79687,-1.927063 4.1276,-2.890603 6.99219,-2.890625 2.77343,2.2e-5 5.03905,0.944031 6.79688,2.832032 1.75779,1.888037 2.6367,4.544284 2.63672,7.96875 -2e-5,0.208343 -0.007,0.520843 -0.0195,0.9375 l -15.46875,0 c 0.13021,2.278653 0.77474,4.023443 1.9336,5.234375 1.15884,1.21094 2.60416,1.816408 4.33594,1.816406 1.28905,2e-6 2.3893,-0.338539 3.30078,-1.015625 0.91144,-0.677079 1.6341,-1.757807 2.16797,-3.242188 z m -11.54297,-5.683593 11.58203,0 c -0.15627,-1.744778 -0.59898,-3.05337 -1.32813,-3.925782 -1.1198,-1.354149 -2.57162,-2.031231 -4.35547,-2.03125 -1.61459,1.9e-5 -2.97201,0.540383 -4.07226,1.621094 -1.10027,1.080745 -1.70899,2.526056 -1.82617,4.335938 z"
         id="path3004"
         style="font-family:Sans;-inkscape-font-specification:Sans" />
      <path
         d="m 189.38337,60.933613 0,-20.742188 3.16406,0 0,3.144532 c 0.80729,-1.471336 1.55273,-2.441387 2.23633,-2.910157 0.68359,-0.468729 1.43554,-0.703103 2.25586,-0.703125 1.18488,2.2e-5 2.38931,0.377625 3.61328,1.132813 l -1.21094,3.261719 c -0.85938,-0.507796 -1.71876,-0.761702 -2.57812,-0.761719 -0.76824,1.7e-5 -1.45834,0.231137 -2.07031,0.693359 -0.61199,0.462256 -1.04819,1.103532 -1.3086,1.923828 -0.39063,1.250014 -0.58594,2.6172 -0.58594,4.101563 l 0,10.859375 z"
         id="path3006"
         style="font-family:Sans;-inkscape-font-specification:Sans" />
      <path
         d="m 222.82087,57.750019 c -0.84638,0.976565 -1.79364,1.761069 -2.8418,2.353516 -1.04819,0.592448 -2.09962,0.888672 -3.15429,0.888672 -1.15887,0 -2.28517,-0.338542 -3.37891,-1.015625 -1.09376,-0.677082 -1.98243,-1.718748 -2.66602,-3.125 -0.6836,-1.406245 -1.0254,-2.949212 -1.02539,-4.628907 -1e-5,-2.070301 0.53059,-4.143867 1.5918,-6.220703 1.06119,-2.076806 2.37954,-3.636049 3.95508,-4.677734 1.5755,-1.041646 3.10545,-1.562479 4.58984,-1.5625 1.13279,2.1e-5 2.21352,0.296245 3.24219,0.888672 1.02862,0.592467 1.91404,1.494159 2.65625,2.705078 l 0.66406,-3.027344 3.4961,0 -2.8125,13.105469 c -0.39066,1.822922 -0.58597,2.832036 -0.58594,3.027344 -3e-5,0.351566 0.13344,0.6543 0.40039,0.908203 0.2669,0.253909 0.58916,0.380862 0.9668,0.380859 0.69007,3e-6 1.59502,-0.397132 2.71484,-1.191406 1.48434,-1.041661 2.65947,-2.438144 3.52539,-4.189453 0.86585,-1.751292 1.29879,-3.557931 1.29883,-5.419922 -4e-5,-2.174463 -0.55668,-4.205711 -1.66992,-6.09375 -1.11332,-1.887999 -2.77347,-3.398414 -4.98047,-4.53125 -2.20706,-1.132787 -4.64521,-1.699193 -7.31446,-1.699219 -3.04689,2.6e-5 -5.83009,0.712916 -8.3496,2.138672 -2.51955,1.425804 -4.47267,3.470073 -5.85938,6.132812 -1.38672,2.662776 -2.08008,5.517591 -2.08008,8.564454 0,3.19011 0.69336,5.937503 2.08008,8.242187 1.38671,2.304686 3.39192,4.007159 6.01563,5.107422 2.62368,1.100255 5.53058,1.650385 8.7207,1.650391 3.41143,-6e-6 6.2695,-0.572922 8.57422,-1.71875 2.30465,-1.145836 4.02991,-2.539064 5.17578,-4.179688 l 3.53515,0 c -0.6641,1.367187 -1.80342,2.760414 -3.41796,4.179688 -1.61462,1.419265 -3.53519,2.542311 -5.76172,3.36914 -2.22659,0.826815 -4.90888,1.240226 -8.04688,1.240235 -2.89064,-9e-6 -5.55666,-0.371102 -7.99804,-1.113282 -2.44142,-0.742194 -4.5215,-1.858729 -6.24024,-3.349609 -1.71876,-1.490888 -3.01433,-3.206381 -3.88672,-5.146484 -1.09375,-2.460934 -1.64063,-5.117182 -1.64062,-7.96875 -1e-5,-3.177071 0.65104,-6.204412 1.95312,-9.082032 1.58854,-3.528624 3.8444,-6.230444 6.76758,-8.105468 2.92316,-1.874972 6.46808,-2.812471 10.63477,-2.8125 3.22914,2.9e-5 6.12953,0.660835 8.70117,1.982421 2.57158,1.321641 4.59957,3.29104 6.08398,5.908204 1.26299,2.252623 1.89449,4.700537 1.89453,7.34375 -4e-5,3.776051 -1.32816,7.128913 -3.98437,10.058593 -2.36983,2.63021 -4.96097,3.945313 -7.77344,3.945313 -0.89846,0 -1.62437,-0.136719 -2.17773,-0.410156 -0.55341,-0.273437 -0.96031,-0.664062 -1.22071,-1.171875 -0.16929,-0.325519 -0.29299,-0.885415 -0.37109,-1.679688 z m -9.45313,-5.292969 c -1e-5,1.783861 0.42317,3.170579 1.26954,4.160157 0.84633,0.989586 1.81639,1.484377 2.91015,1.484375 0.72915,2e-6 1.49738,-0.218096 2.30469,-0.654297 0.80727,-0.436194 1.57875,-1.08398 2.31445,-1.94336 0.73566,-0.859368 1.33787,-1.949862 1.80664,-3.271484 0.46873,-1.321605 0.7031,-2.646473 0.70313,-3.974609 -3e-5,-1.770819 -0.43948,-3.144516 -1.31836,-4.121094 -0.87893,-0.976545 -1.94989,-1.464826 -3.21289,-1.464844 -0.83335,1.8e-5 -1.61786,0.211607 -2.35352,0.634766 -0.73569,0.423194 -1.44858,1.103532 -2.13867,2.041015 -0.69012,0.937515 -1.2435,2.076837 -1.66016,3.417969 -0.41668,1.341157 -0.62501,2.571624 -0.625,3.691406 z"
         id="path3008"
         style="font-family:Sans;-inkscape-font-specification:Sans" />
      <path
         d="m 251.08259,57.789082 0.50781,3.105468 c -0.98959,0.208333 -1.87501,0.3125 -2.65625,0.3125 -1.27605,0 -2.26563,-0.201823 -2.96875,-0.605468 -0.70313,-0.403646 -1.19792,-0.934244 -1.48437,-1.591797 -0.28647,-0.65755 -0.4297,-2.041012 -0.42969,-4.150391 l 0,-11.933594 -2.57813,0 0,-2.734375 2.57813,0 0,-5.136718 3.49609,-2.109375 0,7.246093 3.53516,0 0,2.734375 -3.53516,0 0,12.128907 c 0,1.002609 0.0618,1.647139 0.18555,1.933593 0.12369,0.286462 0.32551,0.514327 0.60547,0.683594 0.27994,0.169274 0.68033,0.253909 1.20117,0.253906 0.39062,3e-6 0.90494,-0.04557 1.54297,-0.136718 z"
         id="path3010"
         style="font-family:Sans;-inkscape-font-specification:Sans" />
      <path
         d="m 268.69978,54.253925 3.63281,0.449219 c -0.57294,2.1224 -1.63414,3.769534 -3.1836,4.941406 -1.54949,1.171875 -3.52866,1.757812 -5.9375,1.757813 -3.03386,-1e-6 -5.43945,-0.934245 -7.21679,-2.802735 -1.77735,-1.868485 -2.66602,-4.488925 -2.66602,-7.861328 0,-3.489569 0.89844,-6.1979 2.69531,-8.125 1.79687,-1.927063 4.1276,-2.890603 6.99219,-2.890625 2.77343,2.2e-5 5.03905,0.944031 6.79688,2.832032 1.75779,1.888037 2.6367,4.544284 2.63672,7.96875 -2e-5,0.208343 -0.007,0.520843 -0.0195,0.9375 l -15.46875,0 c 0.13021,2.278653 0.77474,4.023443 1.9336,5.234375 1.15884,1.21094 2.60416,1.816408 4.33594,1.816406 1.28905,2e-6 2.3893,-0.338539 3.30078,-1.015625 0.91144,-0.677079 1.6341,-1.757807 2.16797,-3.242188 z m -11.54297,-5.683593 11.58203,0 c -0.15627,-1.744778 -0.59898,-3.05337 -1.32813,-3.925782 -1.1198,-1.354149 -2.57162,-2.031231 -4.35547,-2.03125 -1.61459,1.9e-5 -2.97201,0.540383 -4.07226,1.621094 -1.10027,1.080745 -1.70899,2.526056 -1.82617,4.335938 z"
         id="path3012"
         style="font-family:Sans;-inkscape-font-specification:Sans" />
      <path
         d="m 276.78571,36.343769 0,-4.042969 3.51563,0 0,4.042969 z m 0,24.589844 0,-20.742188 3.51563,0 0,20.742188 z"
         id="path3014"
         style="font-family:Sans;-inkscape-font-specification:Sans" />
      <path
         d="m 288.91462,60.933613 -3.26172,0 0,-28.632813 3.51563,0 0,10.214844 c 1.48436,-1.861959 3.37889,-2.792947 5.68359,-2.792969 1.27603,2.2e-5 2.48371,0.257183 3.62305,0.771485 1.1393,0.514343 2.0768,1.236998 2.8125,2.167968 0.73565,0.931007 1.31183,2.054053 1.72851,3.369141 0.41665,1.315118 0.62498,2.721366 0.625,4.21875 -2e-5,3.554695 -0.87892,6.302088 -2.63672,8.242188 -1.75783,1.940104 -3.8672,2.910155 -6.32812,2.910156 -2.44793,-1e-6 -4.3685,-1.022135 -5.76172,-3.066406 z m -0.0391,-10.527344 c -10e-6,2.486987 0.33853,4.28386 1.01562,5.390625 1.10676,1.809899 2.60416,2.714846 4.49219,2.714844 1.53644,2e-6 2.86457,-0.667315 3.98437,-2.001953 1.11978,-1.33463 1.67967,-3.32356 1.67969,-5.966797 -2e-5,-2.70832 -0.53712,-4.707016 -1.61133,-5.996094 -1.07423,-1.289045 -2.37306,-1.933575 -3.89648,-1.933594 -1.53647,1.9e-5 -2.86459,0.667336 -3.98438,2.001953 -1.11979,1.334651 -1.67969,3.264987 -1.67968,5.791016 z"
         id="path3016"
         style="font-family:Sans;-inkscape-font-specification:Sans" />
      <path
         d="m 307.89899,60.933613 0,-20.742188 3.16407,0 0,3.144532 c 0.80728,-1.471336 1.55272,-2.441387 2.23633,-2.910157 0.68358,-0.468729 1.43553,-0.703103 2.25585,-0.703125 1.18489,2.2e-5 2.38931,0.377625 3.61329,1.132813 l -1.21094,3.261719 c -0.85939,-0.507796 -1.71876,-0.761702 -2.57813,-0.761719 -0.76824,1.7e-5 -1.45834,0.231137 -2.07031,0.693359 -0.61199,0.462256 -1.04818,1.103532 -1.30859,1.923828 -0.39063,1.250014 -0.58595,2.6172 -0.58594,4.101563 l 0,10.859375 z"
         id="path3018"
         style="font-family:Sans;-inkscape-font-specification:Sans" />
      <path
         d="m 321.31696,36.343769 0,-4.042969 3.51563,0 0,4.042969 z m 0,24.589844 0,-20.742188 3.51563,0 0,20.742188 z"
         id="path3020"
         style="font-family:Sans;-inkscape-font-specification:Sans" />
      <path
         d="m 343.73884,53.335957 3.45703,0.449218 c -0.37762,2.382818 -1.34442,4.24805 -2.90039,5.595703 -1.55601,1.347657 -3.46681,2.021484 -5.73242,2.021485 -2.83855,-1e-6 -5.12045,-0.927734 -6.84571,-2.783203 -1.72526,-1.855465 -2.58789,-4.514967 -2.58789,-7.978516 0,-2.239571 0.3711,-4.199204 1.11328,-5.878906 0.74219,-1.67967 1.87174,-2.939434 3.38868,-3.779297 1.51692,-0.839823 3.1673,-1.259744 4.95117,-1.259766 2.25259,2.2e-5 4.09504,0.569682 5.52734,1.708985 1.43228,1.139341 2.35024,2.757178 2.75391,4.853515 l -3.41797,0.527344 c -0.32554,-1.393214 -0.90171,-2.44139 -1.72852,-3.144531 -0.82683,-0.703107 -1.82618,-1.054669 -2.99804,-1.054688 -1.77085,1.9e-5 -3.20965,0.634784 -4.31641,1.904297 -1.10678,1.269547 -1.66016,3.278008 -1.66016,6.025391 0,2.786466 0.53385,4.811203 1.60157,6.074219 1.0677,1.263023 2.46093,1.894533 4.17968,1.894531 1.3802,2e-6 2.53254,-0.423174 3.45704,-1.269531 0.92446,-0.84635 1.5104,-2.148432 1.75781,-3.90625 z"
         id="path3022"
         style="font-family:Sans;-inkscape-font-specification:Sans" />
      <path
         d="m 350.20368,60.933613 0,-28.632813 3.51563,0 0,10.273438 c 1.64061,-1.901022 3.71092,-2.851541 6.21093,-2.851563 1.53645,2.2e-5 2.87108,0.302756 4.00391,0.908203 1.1328,0.605489 1.94334,1.442077 2.43164,2.509766 0.48826,1.067725 0.7324,2.617203 0.73242,4.648438 l 0,13.144531 -3.51562,0 0,-13.144531 c -2e-5,-1.757798 -0.38088,-3.037094 -1.14258,-3.837891 -0.76173,-0.800764 -1.83921,-1.201154 -3.23242,-1.201172 -1.04168,1.8e-5 -2.0215,0.2702 -2.93945,0.810547 -0.91798,0.540381 -1.57228,1.272803 -1.9629,2.197266 -0.39063,0.924493 -0.58594,2.200533 -0.58593,3.828125 l 0,11.347656 z"
         id="path3024"
         style="font-family:Sans;-inkscape-font-specification:Sans" />
      <path
         d="m 373.4654,60.933613 0,-4.003906 4.00391,0 0,4.003906 z"
         id="path3026"
         style="font-family:Sans;-inkscape-font-specification:Sans" />
      <path
         d="m 397.02009,60.933613 0,-2.617188 c -1.31512,2.057293 -3.24871,3.085937 -5.80078,3.085938 -1.65366,-1e-6 -3.17384,-0.455729 -4.56055,-1.367188 -1.38672,-0.911456 -2.46094,-2.184241 -3.22266,-3.818359 -0.76172,-1.634108 -1.14258,-3.512362 -1.14257,-5.634766 -10e-6,-2.0703 0.34505,-3.948553 1.03515,-5.634765 0.6901,-1.686181 1.72526,-2.978497 3.10547,-3.876953 1.3802,-0.898417 2.92317,-1.347635 4.62891,-1.347657 1.24999,2.2e-5 2.36327,0.263693 3.33984,0.791016 0.97655,0.527364 1.77082,1.214212 2.38281,2.060547 l 0,-10.273438 3.4961,0 0,28.632813 z M 385.90681,50.58205 c -1e-5,2.656258 0.55989,4.641933 1.67968,5.957032 1.11979,1.315107 2.4414,1.972658 3.96485,1.972656 1.53644,2e-6 2.84178,-0.628252 3.91601,-1.884766 1.07421,-1.256505 1.61132,-3.17382 1.61133,-5.751953 -1e-5,-2.838529 -0.54689,-4.92186 -1.64062,-6.25 -1.09377,-1.328107 -2.44142,-1.992169 -4.04297,-1.992187 -1.56251,1.8e-5 -2.86785,0.638038 -3.91602,1.914062 -1.04818,1.276057 -1.57227,3.287774 -1.57226,6.035156 z"
         id="path3028"
         style="font-family:Sans;-inkscape-font-specification:Sans" />
      <path
         d="m 420.0279,54.253925 3.63281,0.449219 c -0.57293,2.1224 -1.63413,3.769534 -3.18359,4.941406 -1.5495,1.171875 -3.52866,1.757812 -5.9375,1.757813 -3.03386,-1e-6 -5.43946,-0.934245 -7.2168,-2.802735 -1.77734,-1.868485 -2.66601,-4.488925 -2.66601,-7.861328 0,-3.489569 0.89843,-6.1979 2.69531,-8.125 1.79687,-1.927063 4.1276,-2.890603 6.99219,-2.890625 2.77342,2.2e-5 5.03904,0.944031 6.79687,2.832032 1.75779,1.888037 2.6367,4.544284 2.63672,7.96875 -2e-5,0.208343 -0.007,0.520843 -0.0195,0.9375 l -15.46875,0 c 0.1302,2.278653 0.77473,4.023443 1.93359,5.234375 1.15885,1.21094 2.60416,1.816408 4.33594,1.816406 1.28905,2e-6 2.38931,-0.338539 3.30078,-1.015625 0.91144,-0.677079 1.6341,-1.757807 2.16797,-3.242188 z m -11.54297,-5.683593 11.58203,0 c -0.15626,-1.744778 -0.59897,-3.05337 -1.32812,-3.925782 -1.11981,-1.354149 -2.57163,-2.031231 -4.35547,-2.03125 -1.61459,1.9e-5 -2.97201,0.540383 -4.07227,1.621094 -1.10026,1.080745 -1.70899,2.526056 -1.82617,4.335938 z"
         id="path3030"
         style="font-family:Sans;-inkscape-font-specification:Sans" />
    </g>
  </g>
</svg>
