<?xml version="1.0" encoding="UTF-8" standalone="no"?>
<!-- Created with Inkscape (http://www.inkscape.org/) -->

<svg
   xmlns:dc="http://purl.org/dc/elements/1.1/"
   xmlns:cc="http://creativecommons.org/ns#"
   xmlns:rdf="http://www.w3.org/1999/02/22-rdf-syntax-ns#"
   xmlns:svg="http://www.w3.org/2000/svg"
   xmlns="http://www.w3.org/2000/svg"
   xmlns:sodipodi="http://sodipodi.sourceforge.net/DTD/sodipodi-0.dtd"
   xmlns:inkscape="http://www.inkscape.org/namespaces/inkscape"
   width="331.25"
   height="37.578125"
   viewBox="0 0 331.25 37.578125"
   id="svg3032"
   version="1.1"
   inkscape:version="0.48.5 r10040"
   sodipodi:docname="admin.svg">
  <defs
     id="defs3034" />
  <sodipodi:namedview
     id="base"
     pagecolor="#ffffff"
     bordercolor="#666666"
     borderopacity="1.0"
     inkscape:pageopacity="0.0"
     inkscape:pageshadow="2"
     inkscape:zoom="1.979899"
     inkscape:cx="129.18673"
     inkscape:cy="-87.073124"
     inkscape:document-units="px"
     inkscape:current-layer="layer1"
     showgrid="false"
     fit-margin-top="0"
     fit-margin-left="0"
     fit-margin-right="0"
     fit-margin-bottom="0"
     inkscape:window-width="1285"
     inkscape:window-height="770"
     inkscape:window-x="1518"
     inkscape:window-y="120"
     inkscape:window-maximized="0" />
  <metadata
     id="metadata3037">
    <rdf:RDF>
      <cc:Work
         rdf:about="">
        <dc:format>image/svg+xml</dc:format>
        <dc:type
           rdf:resource="http://purl.org/dc/dcmitype/StillImage" />
        <dc:title></dc:title>
      </cc:Work>
    </rdf:RDF>
  </metadata>
  <g
     inkscape:label="Ebene 1"
     inkscape:groupmode="layer"
     id="layer1"
     transform="translate(-61.445312,-23.202026)">
    <path
       style="font-size:40px;font-style:normal;font-weight:normal;line-height:125%;letter-spacing:0px;word-spacing:0px;fill:#6f6f6f;fill-opacity:1;stroke:none;font-family:Sans"
       inkscape:connector-curvature="0"
       id="path3045"
       d="m 76.171875,49.803589 c -1.302098,1.106772 -2.555352,1.888021 -3.759766,2.34375 -1.204438,0.455729 -2.496754,0.683593 -3.876953,0.683594 -2.278652,-1e-6 -4.029952,-0.556641 -5.253906,-1.669922 -1.22396,-1.113279 -1.835939,-2.535804 -1.835938,-4.267578 -1e-6,-1.015619 0.231119,-1.943352 0.69336,-2.783204 0.462237,-0.839834 1.067705,-1.513662 1.816406,-2.021484 0.748693,-0.507802 1.591791,-0.891916 2.529297,-1.152344 0.690097,-0.18228 1.731763,-0.358061 3.125,-0.527343 2.838529,-0.33853 4.928371,-0.742175 6.269531,-1.210938 0.013,-0.481757 0.01952,-0.787746 0.01953,-0.917969 -1.5e-5,-1.432276 -0.332046,-2.441389 -0.996093,-3.027343 -0.898452,-0.794253 -2.233086,-1.191388 -4.003907,-1.191407 -1.653655,1.9e-5 -2.874356,0.289732 -3.662109,0.869141 -0.787767,0.579444 -1.370448,1.604834 -1.748047,3.076172 l -3.4375,-0.46875 c 0.312498,-1.471338 0.82682,-2.659488 1.542969,-3.564453 0.716142,-0.904929 1.751297,-1.601543 3.105469,-2.089844 1.354158,-0.48826 2.923167,-0.732401 4.707031,-0.732422 1.77082,2.1e-5 3.209621,0.208354 4.316406,0.625 1.106754,0.416687 1.920556,0.940775 2.441406,1.572266 0.520815,0.631529 0.885398,1.429054 1.09375,2.392578 0.117169,0.598974 0.175762,1.679702 0.175782,3.242187 l 0,4.6875 c -2e-5,3.268235 0.07485,5.33529 0.224609,6.201172 0.14972,0.865887 0.445944,1.695965 0.888672,2.490235 l -3.671875,0 c -0.3646,-0.729166 -0.598975,-1.58203 -0.703125,-2.558594 z m -0.292969,-7.851563 c -1.276056,0.520844 -3.190117,0.963551 -5.742187,1.328125 -1.445321,0.208343 -2.467456,0.442717 -3.066407,0.703125 -0.598964,0.260425 -1.061203,0.641284 -1.386718,1.142578 -0.325526,0.501309 -0.488287,1.057949 -0.488282,1.669922 -5e-6,0.937505 0.354813,1.718754 1.064454,2.34375 0.709628,0.625003 1.748038,0.937503 3.115234,0.9375 1.354156,3e-6 2.558582,-0.296221 3.613281,-0.888672 1.054674,-0.592444 1.829413,-1.40299 2.324219,-2.43164 0.377588,-0.794265 0.56639,-1.966138 0.566406,-3.515625 z" />
    <path
       style="font-size:40px;font-style:normal;font-weight:normal;line-height:125%;letter-spacing:0px;word-spacing:0px;fill:#6f6f6f;fill-opacity:1;stroke:none;font-family:Sans"
       inkscape:connector-curvature="0"
       id="path3047"
       d="m 98.359375,52.362183 0,-2.617188 c -1.315119,2.057292 -3.248711,3.085937 -5.800781,3.085938 -1.653655,-1e-6 -3.173835,-0.45573 -4.560547,-1.367188 -1.386723,-0.911456 -2.460941,-2.184242 -3.222656,-3.818359 -0.761721,-1.634108 -1.14258,-3.512362 -1.142579,-5.634766 -10e-7,-2.0703 0.345051,-3.948553 1.035157,-5.634766 0.690101,-1.68618 1.725256,-2.978496 3.105468,-3.876953 1.380202,-0.898416 2.923169,-1.347635 4.628907,-1.347656 1.249988,2.1e-5 2.363269,0.263693 3.339843,0.791016 0.976549,0.527363 1.770819,1.214212 2.382813,2.060547 l 0,-10.273438 3.49609,0 0,28.632813 z M 87.246094,42.01062 c -5e-6,2.656258 0.55989,4.641933 1.679687,5.957031 1.119784,1.315108 2.441397,1.972659 3.964844,1.972657 1.536446,2e-6 2.841783,-0.628253 3.916016,-1.884766 1.074203,-1.256505 1.611312,-3.173821 1.611328,-5.751953 -1.6e-5,-2.838529 -0.546891,-4.92186 -1.640625,-6.25 -1.093764,-1.328107 -2.441419,-1.992169 -4.042969,-1.992188 -1.562509,1.9e-5 -2.867846,0.638039 -3.916016,1.914063 -1.048182,1.276057 -1.57227,3.287773 -1.572265,6.035156 z" />
    <path
       style="font-size:40px;font-style:normal;font-weight:normal;line-height:125%;letter-spacing:0px;word-spacing:0px;fill:#6f6f6f;fill-opacity:1;stroke:none;font-family:Sans"
       inkscape:connector-curvature="0"
       id="path3049"
       d="m 107.16797,52.362183 0,-20.742188 3.14453,0 0,2.910156 c 0.65104,-1.015606 1.51692,-1.832662 2.59766,-2.451172 1.08072,-0.618468 2.31118,-0.927713 3.6914,-0.927734 1.53645,2.1e-5 2.79621,0.319031 3.7793,0.957031 0.98306,0.638041 1.67641,1.529967 2.08008,2.675782 1.6406,-2.421855 3.77602,-3.632792 6.40625,-3.632813 2.05726,2.1e-5 3.63929,0.569682 4.74609,1.708984 1.10674,1.139342 1.66013,2.893897 1.66016,5.263672 l 0,14.238282 -3.4961,0 0,-13.066407 c -2e-5,-1.406235 -0.11396,-2.418604 -0.34179,-3.037109 -0.22789,-0.618473 -0.64131,-1.116519 -1.24024,-1.494141 -0.59898,-0.377586 -1.30211,-0.566388 -2.10937,-0.566406 -1.45836,1.8e-5 -2.66929,0.485044 -3.63281,1.455078 -0.96357,0.970068 -1.44534,2.522801 -1.44532,4.658203 l 0,12.050782 -3.51562,0 0,-13.476563 c -2e-5,-1.562485 -0.28648,-2.734359 -0.85938,-3.515625 -0.57293,-0.781232 -1.51043,-1.171857 -2.8125,-1.171875 -0.98959,1.8e-5 -1.9043,0.260435 -2.74414,0.78125 -0.83985,0.52085 -1.44857,1.282568 -1.82617,2.285156 -0.37761,1.002619 -0.56641,2.44793 -0.56641,4.335938 l 0,10.761719 z" />
    <path
       style="font-size:40px;font-style:normal;font-weight:normal;line-height:125%;letter-spacing:0px;word-spacing:0px;fill:#6f6f6f;fill-opacity:1;stroke:none;font-family:Sans"
       inkscape:connector-curvature="0"
       id="path3051"
       d="m 140.54687,27.772339 0,-4.042969 3.51563,0 0,4.042969 z m 0,24.589844 0,-20.742188 3.51563,0 0,20.742188 z" />
    <path
       style="font-size:40px;font-style:normal;font-weight:normal;line-height:125%;letter-spacing:0px;word-spacing:0px;fill:#6f6f6f;fill-opacity:1;stroke:none;font-family:Sans"
       inkscape:connector-curvature="0"
       id="path3053"
       d="m 149.43359,52.362183 0,-20.742188 3.16407,0 0,2.949219 c 1.52343,-2.278626 3.72395,-3.417948 6.60156,-3.417969 1.24999,2.1e-5 2.39907,0.22463 3.44726,0.673828 1.04816,0.449239 1.83267,1.038431 2.35352,1.767578 0.52081,0.729185 0.8854,1.59507 1.09375,2.597657 0.13019,0.651057 0.19529,1.790379 0.19531,3.417968 l 0,12.753907 -3.51562,0 0,-12.617188 c -2e-5,-1.432278 -0.13674,-2.50324 -0.41016,-3.212891 -0.27345,-0.709618 -0.75848,-1.276024 -1.45508,-1.699218 -0.69662,-0.423159 -1.51368,-0.634748 -2.45117,-0.634766 -1.4974,1.8e-5 -2.78972,0.475278 -3.87695,1.425781 -1.08725,0.950537 -1.63087,2.753921 -1.63086,5.410157 l 0,11.328125 z" />
    <path
       style="font-size:40px;font-style:normal;font-weight:normal;line-height:125%;letter-spacing:0px;word-spacing:0px;fill:#6f6f6f;fill-opacity:1;stroke:none;font-family:Sans"
       inkscape:connector-curvature="0"
       id="path3055"
       d="m 191.73828,49.178589 c -0.84637,0.976565 -1.79364,1.761069 -2.8418,2.353515 -1.04819,0.592449 -2.09962,0.888672 -3.15429,0.888672 -1.15887,0 -2.28517,-0.338541 -3.37891,-1.015625 -1.09376,-0.677081 -1.98243,-1.718747 -2.66601,-3.125 -0.68361,-1.406244 -1.0254,-2.949211 -1.0254,-4.628906 0,-2.070302 0.53059,-4.143867 1.5918,-6.220703 1.06119,-2.076806 2.37955,-3.636049 3.95508,-4.677734 1.5755,-1.041646 3.10545,-1.562479 4.58984,-1.5625 1.1328,2.1e-5 2.21352,0.296244 3.24219,0.888671 1.02862,0.592468 1.91404,1.49416 2.65625,2.705079 l 0.66406,-3.027344 3.4961,0 -2.8125,13.105469 c -0.39065,1.822922 -0.58597,2.832036 -0.58594,3.027343 -3e-5,0.351567 0.13344,0.654301 0.40039,0.908203 0.2669,0.25391 0.58917,0.380863 0.9668,0.38086 0.69007,3e-6 1.59502,-0.397132 2.71484,-1.191406 1.48434,-1.041662 2.65947,-2.438145 3.52539,-4.189454 0.86585,-1.751291 1.29879,-3.55793 1.29883,-5.419921 -4e-5,-2.174463 -0.55668,-4.205711 -1.66992,-6.09375 -1.11332,-1.887999 -2.77347,-3.398414 -4.98047,-4.53125 -2.20706,-1.132787 -4.64521,-1.699193 -7.31445,-1.699219 -3.0469,2.6e-5 -5.8301,0.712916 -8.34961,2.138672 -2.51954,1.425804 -4.47267,3.470073 -5.85938,6.132812 -1.38672,2.662776 -2.08008,5.517591 -2.08008,8.564453 0,3.190111 0.69336,5.937504 2.08008,8.242188 1.38671,2.304686 3.39192,4.007159 6.01563,5.107422 2.62368,1.100255 5.53058,1.650385 8.7207,1.65039 3.41143,-5e-6 6.2695,-0.572921 8.57422,-1.71875 2.30465,-1.145836 4.02991,-2.539063 5.17578,-4.179687 l 3.53516,0 c -0.6641,1.367186 -1.80343,2.760414 -3.41797,4.179687 -1.61462,1.419266 -3.53519,2.542312 -5.76172,3.369141 -2.22659,0.826815 -4.90888,1.240226 -8.04688,1.240234 -2.89064,-8e-6 -5.55665,-0.371101 -7.99804,-1.113281 -2.44142,-0.742194 -4.5215,-1.858729 -6.24024,-3.349609 -1.71875,-1.490888 -3.01433,-3.206381 -3.88672,-5.146485 -1.09375,-2.460933 -1.64062,-5.117181 -1.64062,-7.96875 0,-3.177071 0.65104,-6.204411 1.95312,-9.082031 1.58854,-3.528624 3.8444,-6.230444 6.76758,-8.105469 2.92317,-1.874971 6.46808,-2.81247 10.63477,-2.8125 3.22914,3e-5 6.12953,0.660836 8.70117,1.982422 2.57158,1.321641 4.59957,3.29104 6.08398,5.908203 1.26299,2.252624 1.8945,4.700538 1.89453,7.34375 -3e-5,3.776052 -1.32816,7.128913 -3.98437,10.058594 -2.36982,2.63021 -4.96097,3.945313 -7.77344,3.945313 -0.89846,0 -1.62437,-0.136719 -2.17773,-0.410157 -0.55341,-0.273437 -0.96031,-0.664061 -1.22071,-1.171875 -0.16929,-0.325519 -0.29299,-0.885414 -0.37109,-1.679687 z m -9.45312,-5.292969 c -2e-5,1.783861 0.42316,3.170578 1.26953,4.160156 0.84634,0.989587 1.81639,1.484378 2.91015,1.484375 0.72915,3e-6 1.49738,-0.218096 2.30469,-0.654297 0.80727,-0.436194 1.57876,-1.083979 2.31445,-1.943359 0.73566,-0.859369 1.33787,-1.949862 1.80664,-3.271484 0.46873,-1.321605 0.70311,-2.646473 0.70313,-3.97461 -2e-5,-1.770819 -0.43948,-3.144515 -1.31836,-4.121093 -0.87893,-0.976545 -1.94989,-1.464826 -3.21289,-1.464844 -0.83335,1.8e-5 -1.61786,0.211606 -2.35352,0.634765 -0.73569,0.423195 -1.44858,1.103533 -2.13867,2.041016 -0.69012,0.937515 -1.2435,2.076837 -1.66015,3.417969 -0.41668,1.341157 -0.62502,2.571624 -0.625,3.691406 z" />
    <path
       style="font-size:40px;font-style:normal;font-weight:normal;line-height:125%;letter-spacing:0px;word-spacing:0px;fill:#6f6f6f;fill-opacity:1;stroke:none;font-family:Sans"
       inkscape:connector-curvature="0"
       id="path3057"
       d="m 220,49.217651 0.50781,3.105469 c -0.98959,0.208333 -1.87501,0.3125 -2.65625,0.3125 -1.27605,0 -2.26563,-0.201823 -2.96875,-0.605469 -0.70313,-0.403645 -1.19792,-0.934243 -1.48437,-1.591797 -0.28646,-0.657549 -0.42969,-2.041011 -0.42969,-4.15039 l 0,-11.933594 -2.57813,0 0,-2.734375 2.57813,0 0,-5.136719 3.49609,-2.109375 0,7.246094 3.53516,0 0,2.734375 -3.53516,0 0,12.128906 c 0,1.002609 0.0618,1.64714 0.18555,1.933594 0.12369,0.286462 0.32551,0.514326 0.60547,0.683594 0.27994,0.169274 0.68033,0.253909 1.20117,0.253906 0.39062,3e-6 0.90494,-0.04557 1.54297,-0.136719 z" />
    <path
       style="font-size:40px;font-style:normal;font-weight:normal;line-height:125%;letter-spacing:0px;word-spacing:0px;fill:#6f6f6f;fill-opacity:1;stroke:none;font-family:Sans"
       inkscape:connector-curvature="0"
       id="path3059"
       d="m 237.61719,45.682495 3.63281,0.449219 c -0.57294,2.1224 -1.63413,3.769534 -3.18359,4.941406 -1.5495,1.171875 -3.52866,1.757812 -5.9375,1.757813 -3.03387,-1e-6 -5.43946,-0.934245 -7.2168,-2.802735 -1.77735,-1.868485 -2.66602,-4.488925 -2.66602,-7.861328 0,-3.48957 0.89844,-6.1979 2.69532,-8.125 1.79687,-1.927063 4.12759,-2.890604 6.99218,-2.890625 2.77343,2.1e-5 5.03905,0.944031 6.79688,2.832031 1.75779,1.888038 2.6367,4.544285 2.63672,7.96875 -2e-5,0.208344 -0.007,0.520844 -0.0195,0.9375 l -15.46875,0 c 0.1302,2.278653 0.77473,4.023443 1.93359,5.234375 1.15885,1.210941 2.60416,1.816409 4.33594,1.816407 1.28905,2e-6 2.38931,-0.338539 3.30078,-1.015625 0.91144,-0.67708 1.6341,-1.757808 2.16797,-3.242188 z m -11.54297,-5.683594 11.58203,0 c -0.15627,-1.744777 -0.59897,-3.05337 -1.32813,-3.925781 -1.1198,-1.354149 -2.57162,-2.031232 -4.35546,-2.03125 -1.6146,1.8e-5 -2.97202,0.540382 -4.07227,1.621094 -1.10027,1.080745 -1.70899,2.526056 -1.82617,4.335937 z" />
    <path
       style="font-size:40px;font-style:normal;font-weight:normal;line-height:125%;letter-spacing:0px;word-spacing:0px;fill:#6f6f6f;fill-opacity:1;stroke:none;font-family:Sans"
       inkscape:connector-curvature="0"
       id="path3061"
       d="m 245.70312,27.772339 0,-4.042969 3.51563,0 0,4.042969 z m 0,24.589844 0,-20.742188 3.51563,0 0,20.742188 z" />
    <path
       style="font-size:40px;font-style:normal;font-weight:normal;line-height:125%;letter-spacing:0px;word-spacing:0px;fill:#6f6f6f;fill-opacity:1;stroke:none;font-family:Sans"
       inkscape:connector-curvature="0"
       id="path3063"
       d="m 257.83203,52.362183 -3.26172,0 0,-28.632813 3.51563,0 0,10.214844 c 1.48436,-1.861959 3.37889,-2.792948 5.68359,-2.792969 1.27603,2.1e-5 2.48371,0.257183 3.62305,0.771484 1.1393,0.514343 2.0768,1.236999 2.8125,2.167969 0.73566,0.931007 1.31183,2.054053 1.72851,3.369141 0.41665,1.315118 0.62498,2.721366 0.625,4.21875 -2e-5,3.554694 -0.87892,6.302088 -2.63672,8.242187 -1.75782,1.940105 -3.8672,2.910156 -6.32812,2.910157 -2.44793,-1e-6 -4.3685,-1.022135 -5.76172,-3.066407 z m -0.0391,-10.527344 c -1e-5,2.486987 0.33853,4.28386 1.01562,5.390625 1.10677,1.809899 2.60416,2.714846 4.49219,2.714844 1.53645,2e-6 2.86457,-0.667315 3.98438,-2.001954 1.11977,-1.334629 1.67967,-3.323559 1.67968,-5.966796 -1e-5,-2.708321 -0.53712,-4.707017 -1.61132,-5.996094 -1.07424,-1.289045 -2.37306,-1.933576 -3.89649,-1.933594 -1.53647,1.8e-5 -2.86459,0.667335 -3.98437,2.001953 -1.1198,1.334651 -1.6797,3.264987 -1.67969,5.791016 z" />
    <path
       style="font-size:40px;font-style:normal;font-weight:normal;line-height:125%;letter-spacing:0px;word-spacing:0px;fill:#6f6f6f;fill-opacity:1;stroke:none;font-family:Sans"
       inkscape:connector-curvature="0"
       id="path3065"
       d="m 276.81641,52.362183 0,-20.742188 3.16406,0 0,3.144531 c 0.80728,-1.471335 1.55273,-2.441386 2.23633,-2.910156 0.68358,-0.468729 1.43553,-0.703104 2.25586,-0.703125 1.18488,2.1e-5 2.38931,0.377625 3.61328,1.132813 l -1.21094,3.261718 c -0.85939,-0.507795 -1.71876,-0.761701 -2.57813,-0.761718 -0.76823,1.7e-5 -1.45834,0.231137 -2.07031,0.693359 -0.61198,0.462256 -1.04818,1.103531 -1.30859,1.923828 -0.39063,1.250014 -0.58594,2.6172 -0.58594,4.101563 l 0,10.859375 z" />
    <path
       style="font-size:40px;font-style:normal;font-weight:normal;line-height:125%;letter-spacing:0px;word-spacing:0px;fill:#6f6f6f;fill-opacity:1;stroke:none;font-family:Sans"
       inkscape:connector-curvature="0"
       id="path3067"
       d="m 290.23437,27.772339 0,-4.042969 3.51563,0 0,4.042969 z m 0,24.589844 0,-20.742188 3.51563,0 0,20.742188 z" />
    <path
       style="font-size:40px;font-style:normal;font-weight:normal;line-height:125%;letter-spacing:0px;word-spacing:0px;fill:#6f6f6f;fill-opacity:1;stroke:none;font-family:Sans"
       inkscape:connector-curvature="0"
       id="path3069"
       d="m 312.65625,44.764526 3.45703,0.449219 c -0.37762,2.382817 -1.34442,4.24805 -2.90039,5.595703 -1.556,1.347657 -3.46681,2.021484 -5.73242,2.021485 -2.83855,-1e-6 -5.12045,-0.927734 -6.8457,-2.783204 -1.72527,-1.855464 -2.5879,-4.514967 -2.5879,-7.978515 0,-2.239571 0.3711,-4.199204 1.11329,-5.878906 0.74218,-1.67967 1.87174,-2.939434 3.38867,-3.779297 1.51692,-0.839823 3.16731,-1.259745 4.95117,-1.259766 2.25259,2.1e-5 4.09504,0.569682 5.52734,1.708984 1.43228,1.139342 2.35025,2.757179 2.75391,4.853516 l -3.41797,0.527344 c -0.32554,-1.393214 -0.90171,-2.44139 -1.72851,-3.144531 -0.82684,-0.703107 -1.82619,-1.05467 -2.99805,-1.054688 -1.77084,1.8e-5 -3.20964,0.634783 -4.31641,1.904297 -1.10677,1.269546 -1.66016,3.278008 -1.66015,6.025391 -1e-5,2.786466 0.53384,4.811203 1.60156,6.074218 1.0677,1.263024 2.46093,1.894534 4.17969,1.894532 1.38019,2e-6 2.53253,-0.423175 3.45703,-1.269532 0.92446,-0.846349 1.5104,-2.148431 1.75781,-3.90625 z" />
    <path
       style="font-size:40px;font-style:normal;font-weight:normal;line-height:125%;letter-spacing:0px;word-spacing:0px;fill:#6f6f6f;fill-opacity:1;stroke:none;font-family:Sans"
       inkscape:connector-curvature="0"
       id="path3071"
       d="m 319.12109,52.362183 0,-28.632813 3.51563,0 0,10.273438 c 1.64062,-1.901022 3.71093,-2.851542 6.21094,-2.851563 1.53644,2.1e-5 2.87107,0.302755 4.0039,0.908203 1.1328,0.605489 1.94334,1.442076 2.43164,2.509766 0.48827,1.067725 0.73241,2.617203 0.73242,4.648437 l 0,13.144532 -3.51562,0 0,-13.144532 c -2e-5,-1.757797 -0.38088,-3.037093 -1.14258,-3.83789 -0.76173,-0.800764 -1.8392,-1.201154 -3.23242,-1.201172 -1.04168,1.8e-5 -2.02149,0.2702 -2.93945,0.810547 -0.91798,0.540381 -1.57228,1.272802 -1.96289,2.197265 -0.39064,0.924494 -0.58595,2.200534 -0.58594,3.828125 l 0,11.347657 z" />
    <path
       style="font-size:40px;font-style:normal;font-weight:normal;line-height:125%;letter-spacing:0px;word-spacing:0px;fill:#6f6f6f;fill-opacity:1;stroke:none;font-family:Sans"
       inkscape:connector-curvature="0"
       id="path3073"
       d="m 342.38281,52.362183 0,-4.003907 4.00391,0 0,4.003907 z" />
    <path
       style="font-size:40px;font-style:normal;font-weight:normal;line-height:125%;letter-spacing:0px;word-spacing:0px;fill:#6f6f6f;fill-opacity:1;stroke:none;font-family:Sans"
       inkscape:connector-curvature="0"
       id="path3075"
       d="m 365.9375,52.362183 0,-2.617188 c -1.31512,2.057292 -3.24871,3.085937 -5.80078,3.085938 -1.65366,-1e-6 -3.17384,-0.45573 -4.56055,-1.367188 -1.38672,-0.911456 -2.46094,-2.184242 -3.22265,-3.818359 -0.76172,-1.634108 -1.14258,-3.512362 -1.14258,-5.634766 0,-2.0703 0.34505,-3.948553 1.03515,-5.634766 0.6901,-1.68618 1.72526,-2.978496 3.10547,-3.876953 1.3802,-0.898416 2.92317,-1.347635 4.62891,-1.347656 1.24999,2.1e-5 2.36327,0.263693 3.33984,0.791016 0.97655,0.527363 1.77082,1.214212 2.38281,2.060547 l 0,-10.273438 3.4961,0 0,28.632813 z M 354.82422,42.01062 c -1e-5,2.656258 0.55989,4.641933 1.67969,5.957031 1.11978,1.315108 2.44139,1.972659 3.96484,1.972657 1.53645,2e-6 2.84178,-0.628253 3.91602,-1.884766 1.0742,-1.256505 1.61131,-3.173821 1.61132,-5.751953 -10e-6,-2.838529 -0.54689,-4.92186 -1.64062,-6.25 -1.09376,-1.328107 -2.44142,-1.992169 -4.04297,-1.992188 -1.56251,1.9e-5 -2.86785,0.638039 -3.91602,1.914063 -1.04818,1.276057 -1.57227,3.287773 -1.57226,6.035156 z" />
    <path
       style="font-size:40px;font-style:normal;font-weight:normal;line-height:125%;letter-spacing:0px;word-spacing:0px;fill:#6f6f6f;fill-opacity:1;stroke:none;font-family:Sans"
       inkscape:connector-curvature="0"
       id="path3077"
       d="m 388.94531,45.682495 3.63281,0.449219 c -0.57293,2.1224 -1.63413,3.769534 -3.18359,4.941406 -1.54949,1.171875 -3.52866,1.757812 -5.9375,1.757813 -3.03386,-1e-6 -5.43946,-0.934245 -7.2168,-2.802735 -1.77734,-1.868485 -2.66601,-4.488925 -2.66601,-7.861328 0,-3.48957 0.89843,-6.1979 2.69531,-8.125 1.79687,-1.927063 4.1276,-2.890604 6.99219,-2.890625 2.77342,2.1e-5 5.03905,0.944031 6.79687,2.832031 1.7578,1.888038 2.6367,4.544285 2.63672,7.96875 -2e-5,0.208344 -0.007,0.520844 -0.0195,0.9375 l -15.46875,0 c 0.1302,2.278653 0.77473,4.023443 1.93359,5.234375 1.15885,1.210941 2.60416,1.816409 4.33594,1.816407 1.28905,2e-6 2.38931,-0.338539 3.30078,-1.015625 0.91145,-0.67708 1.6341,-1.757808 2.16797,-3.242188 z m -11.54297,-5.683594 11.58203,0 c -0.15626,-1.744777 -0.59897,-3.05337 -1.32812,-3.925781 -1.11981,-1.354149 -2.57163,-2.031232 -4.35547,-2.03125 -1.61459,1.8e-5 -2.97201,0.540382 -4.07226,1.621094 -1.10027,1.080745 -1.70899,2.526056 -1.82618,4.335937 z" />
    <text
       xml:space="preserve"
       style="font-size:40px;font-style:normal;font-weight:normal;line-height:125%;letter-spacing:0px;word-spacing:0px;fill:#000000;fill-opacity:1;stroke:none;font-family:Sans"
       x="2.5253813"
       y="68.892853"
       id="text3098"
       sodipodi:linespacing="125%"
       transform="translate(61.445312,23.202026)"><tspan
         sodipodi:role="line"
         id="tspan3100"
         x="2.5253813"
         y="68.892853"
         style="font-style:normal;font-variant:normal;font-weight:normal;font-stretch:normal;word-spacing:-6.70000172px;font-family:Ravie;-inkscape-font-specification:Ravie" /></text>
  </g>
</svg>
